<?xml version="1.0" encoding="UTF-8"?>
<svg xmlns="http://www.w3.org/2000/svg" class="m h-full w-full p-2 lg:p-4 zoom-transition" data-zoom-enabled="false" height="2.2456176in" id="svg9" style="clip-rule: evenodd; fill-rule: evenodd; shape-rendering: geometricprecision; text-rendering: geometricprecision; transform-origin: 0px 0px 0px; transform: matrix(1, 0, 0, 1, 0, 0);" version="1.1" viewBox="0 0 2997.01 2245.6176" width="2.99701in" xml:space="preserve"><defs id="defs1"><style id="style1" type="text/css">
   
    .str0 {stroke:black;stroke-width:7.01;stroke-miterlimit:2.61313}
    .str1 {stroke:black;stroke-width:3;stroke-miterlimit:2.61313}
    .fil3 {fill:black}
    .fil1 {fill:black}
    .fil2 {fill:#666666}
    .fil4 {fill:#CCCCCC}
    .fil0 {fill:white}
    .fnt1 {font-weight:normal;font-size:38.18px;font-family:'Arial'}
    .fnt3 {font-weight:normal;font-size:61.09px;font-family:'Arial'}
    .fnt0 {font-weight:normal;font-size:76.36px;font-family:'Arial'}
    .fnt2 {font-weight:normal;font-size:91.63px;font-family:'Arial'}
    .fnt4 {font-weight:normal;font-size:122.17px;font-family:'Arial'}
    .section-path{fill:#CCCCCC;stroke:#666666;stroke-width:2}
    .section-label{fill:#black;font-family:'Arial'}
    .static{fill:#999999; stroke:#848688;stroke-width:2}
   
  </style></defs><g id="parent-group" transform="translate(-1.4949999,-3.8649999)"><g id="static-elements" style="display: inline;"><path class="fil0 str0" d="m 1000.17,7.37 h 997.69 v 230.05 h -49.61 L 2995,1101.79 v 571.43 C 1988.22,2442.97 1013.26,2430.72 5,1673.46 V 1101.79 L 1059.62,237.44 h -59.45 V 7.39 Z" id="path1" /><path class="fil1 str1" d="M 1043.518,72.794595 V 194.07145 h 911.0311 V 72.794595 Z m 794.7592,124.064125 -668.4978,0.59001 0.1018,16.37776 c 0,0 7.348,14.00024 67.688,49.5402 168.3685,99.16832 367.8589,96.64158 533.6507,-2.68554 59.8299,-35.85997 66.7521,-46.85466 66.7521,-46.85466 z m 18.3105,38.4318 c -142.5689,242.05517 44.1067,251.60468 -173.9095,81.05469 v 22.11507 l 152.5472,590.20995 c 73.9199,-26.68997 146.3497,-62.88332 215.7796,-109.27327 85.7899,-57.31994 167.0362,-130.19941 240.9261,-219.88932 v -22.11507 z m -702.4333,5.12696 -436.40132,335.4899 v 22.09473 c 58.41994,79.46992 129.31583,148.46232 209.06575,205.32226 68.01993,48.50995 142.46937,88.2134 221.06937,118.12337 l 203.7963,-576.09049 v -22.11507 c -228.5617,73.30606 -64.7059,229.86478 -197.5301,-82.8247 z m 503.5808,104.57356 c -245.7728,167.40791 -52.9269,266.09945 -286.0922,8.78906 l -203.4912,553.0192 v 22.09473 c 95.8899,34.12996 197.5866,53.83236 301.0865,57.33235 114.7498,3.88 231.7608,-12.13507 345.5607,-50.41503 V 913.69627 Z M 692.74901,618.65233 565.59244,701.53807 v 22.11508 c 89.66991,143.97985 209.63085,255.21341 346.74072,334.51335 175.28984,101.3899 378.60974,150.7634 582.51954,149.9634 203.9798,-0.8 408.5208,-51.8353 586.1206,-151.2452 142.8398,-79.94982 268.2361,-191.23479 361.796,-332.82465 v -22.11507 l -125.8748,-81.8278 c -75.9399,92.16991 -159.5442,167.146 -247.8841,226.17594 -136.3599,91.11991 -283.9577,122.09572 -432.0475,141.8457 v 22.11508 l 19.8364,164.8559 -15.7267,2.238 c -45.65,6.5 -91.6247,5.1076 -137.6547,5.1676 -46.0599,0.06 -91.8219,1.5724 -137.4918,-5.1676 l -15.564,-2.299 19.0226,-164.6321 V 988.30158 C 1202.1449,966.3716 1042.8702,925.8618 908.04035,829.7119 826.04043,771.22196 753.03895,700.33225 692.74901,618.65233 Z M 540.38492,744.48648 209.20817,995.84959 v 22.11511 h 0.0203 c 57.54994,68.4799 120.36524,135.7115 187.80518,198.7915 79.75992,74.6199 166.15776,143.5881 258.11767,202.1281 l 209.16747,-351.8474 v -22.115 C 737.129,965.3319 625.65483,880.16634 540.38492,744.48648 Z m 1927.51058,0.30517 c -82.6177,124.14652 -187.829,202.6922 -308.6548,280.65995 l -1.0986,22.8272 214.5589,368.2047 c 90.5699,-58.0199 175.7042,-126.1274 254.3742,-199.7273 64.8499,-60.66 125.4123,-125.1581 181.1523,-190.918 v -22.1151 z m -863.1389,269.22605 c -45.6399,4.6 -91.2656,6.067 -136.5356,4.537 -22.3,-0.76 -44.5201,-2.2249 -66.63,-4.4149 h -0.02 l -15.3808,111.1654 v 22.0947 c 39.2699,5.1 78.3903,7.598 117.3502,7.548 38.93,-0.05 78.0186,-2.6084 117.2485,-7.5684 v -22.115 z m -1420.49147,24.5362 -54.03645,22.5219 v 22.0948 c 63.27993,77.3799 133.32858,153.6501 209.22851,224.65 80.47992,75.2899 167.7202,144.8351 260.62011,203.715 l 38.49284,-64.7786 v -22.1151 C 528.87025,1377.372 456.57922,1316.7063 374.9593,1240.3564 306.36937,1176.1865 242.59508,1107.9438 184.26513,1038.5539 Z m 2648.90537,7.8938 c -56.5099,66.67 -118.031,132.1688 -184.021,193.9087 -80.5999,75.3999 -167.6815,122.9276 -260.1115,182.0475 v 22.1151 l 34.9122,59.9365 c 88.7599,-57.3399 172.2928,-124.335 249.5727,-196.6349 75.0799,-70.2299 144.4541,-145.6073 207.194,-222.1273 v -22.115 z m -702.5146,19.0227 c -11.16,6.76 -22.4335,13.324 -33.8135,19.694 -111.6899,62.5099 -233.7506,84.2802 -359.7005,109.0901 v 22.1151 l 107.605,597.6359 c 212.6598,-39.29 415.8309,-113.0456 596.1507,-216.1255 v -22.0947 z m -1238.60676,18.3309 -310.60791,500.3662 v 22.0947 c 180.48982,105.9999 375.02619,174.9544 573.46597,210.7544 l 102.6815,-598.1649 v -22.0947 c -127.9299,-7.64 -249.781,-45.9554 -361.4909,-110.5754 z m -786.78384,19.9788 -40.323895,11.1898 v 22.115 c 141.009865,191.7999 307.418665,341.2948 488.708485,452.5147 l 29.84619,-50.1913 v -22.115 c -94.6699,-59.93 -183.77335,-108.8425 -266.11327,-185.8724 -77.08993,-72.12 -148.09758,-149.3809 -212.11751,-227.6408 z m 2800.3946,2.5228 c -63.4899,77.3999 -133.823,153.7884 -210.083,225.1383 -79.2099,74.0899 -164.6398,120.5052 -255.2897,178.9551 v 22.1151 l 28.5848,49.0519 c 37.92,-22.62 74.7627,-46.557 110.4126,-71.757 145.6899,-103.0199 271.2793,-227.2525 367.8793,-369.2424 v -22.0947 z M 48.339843,1169.0674 v 482.727 c 967.778957,726.9193 1935.561557,739.9893 2903.340657,0 V 1190.511 c -95.56,132.1199 -215.8999,248.315 -353.7598,345.8049 -278.9397,197.2498 -629.9851,318.0658 -993.2047,339.3758 -363.2497,21.31 -738.79143,-56.9106 -1066.69111,-257.6904 C 356.81507,1507.0414 190.2197,1358.6772 48.339843,1169.0674 Z M 1705.3426,1222.229 c -69.4699,11.86 -139.9376,17.9695 -210.3475,18.2495 -68.8799,0.26 -137.7151,-5.0616 -205.485,-16.0116 l 0.02,0.02 -7.9417,23.0402 -0.6439,25.0962 c 145.7826,25.8707 290.3882,29.9274 433.8175,0.041 l -1.2817,-25.7867 z m 14.9333,79.9153 c -147.7019,30.6808 -296.158,26.6211 -444.6412,0.2645 l -88.7654,497.9859 v 22.115 c 138.1998,22.43 278.0368,28.9537 416.0766,20.8537 70.61,-4.15 140.751,-12.1327 209.961,-23.7427 v -22.0947 z" id="path2" style="stroke: none;" /><g id="g1"><path class="fil2 str1" d="M 1954.54,171.98 H 1043.5 V 50.69 c 303.68,0 607.36,0 911.04,0 z" id="path6" style="stroke: none;" /><text class="fil3 fnt0" id="text6" x="1372.74" y="138.67">STAGE</text></g><g id="g2"><path class="fil2 str1" d="m 1401.59,992.03 c 22.11,2.2 44.33,3.68 66.63,4.43 45.27,1.53 90.89,0.05 136.53,-4.55 l 16.04,133.36 c -39.23,4.96 -78.33,7.52 -117.26,7.57 -38.96,0.05 -78.07,-2.43 -117.34,-7.53 5.13,-44.43 10.26,-88.85 15.39,-133.28 z" id="path3" style="stroke: none;" /><text class="fil3 fnt0" id="text9" x="1433" y="1089.71">MIX</text></g></g><g id="sections"><g class="interactive-section" data-section-id="pit" id="pit-group" data-rows="22" data-seats-per-row="29" data-total-seats="638" data-price-min="25.00" data-price-max="500.00" data-current-price="339.67" data-available="true" onclick="showSectionInfo(evt)" style="cursor:pointer;"><title>Section pit | 22 rows × 29 seats | $339.67</title><path class="section-path" d="m 1169.8912,197.07 h 668.0876 c 0,0 -6.9188,11.00151 -66.7488,46.86151 -165.7919,99.32722 -365.2913,101.85841 -533.66,2.69 -60.34,-35.54 -67.6788,-49.55151 -67.6788,-49.55151 z" data-default-color="rgb(153, 153, 153)" data-id="2900783" id="pit-section" style="fill:#e74c3c; transition-delay: 0s; transition-duration: 0s;" fill="#e74c3c" /><text class="section-label pit-label" font-size="91.63px" id="tpit" style="font-size: 72.5222px; stroke-width: 1;" x="1437.8535" y="275.96262">PIT</text><text class="section-label pit-label" fill="#000000" font-size="12px" id="pit-label" text-anchor="middle" x="178.64" y="-113.7">PIT</text></g><g class="interactive-section" data-section-id="orch-1" id="orch-1-group" data-rows="18" data-seats-per-row="17" data-total-seats="306" data-price-min="25.00" data-price-max="500.00" data-current-price="208.94" data-available="true" onclick="showSectionInfo(evt)" style="cursor:pointer;"><title>Section orch-1 | 18 rows × 17 seats | $208.94</title><path class="section-path" d="m 1682.6767,316.35124 c 56.328,-20.04501 112.0462,-53.55858 173.9193,-103.17764 110.74,91.44 324.594,272.7664 435.334,364.2164 -73.89,89.69 -155.14,162.57 -240.93,219.9 -69.43,46.39 -141.85,82.59 -215.77,109.28 z" data-default-color="rgb(153, 153, 153)" data-id="2900769" id="orch-1-section" style="fill:#f39c12; transition-delay: 0s; transition-duration: 0s;" fill="#f39c12" /><text class="section-label orch-1-label" font-size="91.63px" id="torch-1" x="1922.142" y="573.6521">1</text><text class="section-label orch-1-label" fill="#000000" font-size="12px" id="orch-1-label" text-anchor="middle" x="153.74" y="121.42">ORCH-1</text></g><g class="interactive-section" data-section-id="orch-2" id="orch-2-group" data-rows="24" data-seats-per-row="28" data-total-seats="672" data-price-min="25.00" data-price-max="500.00" data-current-price="488.58" data-available="true" onclick="showSectionInfo(evt)" style="cursor:pointer;"><title>Section orch-2 | 24 rows × 28 seats | $488.58</title><path class="section-path" d="m 1371.6418,331.66825 c 91.3443,16.68831 179.8888,18.38216 286.0879,-8.78716 L 1814.79,913.71 c -113.8,38.27 -230.8,54.29 -345.55,50.41 -103.5,-3.5 -205.2,-23.19 -301.09,-57.32 43.91,-136.67 159.5818,-438.46175 203.5018,-575.13175 z" data-default-color="rgb(153, 153, 153)" data-id="2900770" id="orch-2-section" style="fill:#e74c3c; transition-delay: 0s; transition-duration: 0s;" fill="#e74c3c" /><text class="section-label orch-2-label" font-size="91.63px" id="torch-2" x="1483.8412" y="712.60645">2</text><text class="section-label orch-2-label" fill="#000000" font-size="12px" id="orch-2-label" text-anchor="middle" x="203.63" y="12.88">ORCH-2</text></g><g class="interactive-section" data-section-id="orch-3" id="orch-3-group" data-rows="23" data-seats-per-row="28" data-total-seats="644" data-price-min="25.00" data-price-max="500.00" data-current-price="195.57" data-available="true" onclick="showSectionInfo(evt)" style="cursor:pointer;"><title>Section orch-3 | 23 rows × 28 seats | $195.57</title><path class="section-path" d="m 717.74,575.91 c 109.47,-90.4 326.931,-267.19281 436.401,-357.58281 59.7524,54.269 126.652,85.90566 197.5308,104.94106 L 1147.87,899.34 C 1069.27,869.43 994.83,829.73 926.81,781.22 847.06,724.36 776.16,655.38 717.74,575.91 Z" data-default-color="rgb(153, 153, 153)" data-id="2900771" id="orch-3-section" style="fill:#f39c12; transition-delay: 0s; transition-duration: 0s;" fill="#f39c12" /><text class="section-label orch-3-label" font-size="91.63px" id="torch-3" x="1041.7629" y="581.46954">3</text><text class="section-label orch-3-label" fill="#000000" font-size="12px" id="orch-3-label" text-anchor="middle" x="603.87" y="388.66">ORCH-3</text></g><g class="interactive-section" data-section-id="box" id="box-group" data-rows="9" data-seats-per-row="34" data-total-seats="306" data-price-min="25.00" data-price-max="500.00" data-current-price="313.20" data-available="true" onclick="showSectionInfo(evt)" style="cursor:pointer;"><title>Section box | 9 rows × 34 seats | $313.20</title><path class="section-path" d="m 692.76936,596.53726 c -42.38,35 -84.76658,70.00081 -127.15658,105.00081 h -0.0203 c 89.66,143.98 209.63072,255.193 346.74072,334.49303 175.29,101.39 378.6298,150.7633 582.5398,149.9633 203.98,-0.8 408.5206,-51.8351 586.1206,-151.2451 142.84,-79.94997 268.2157,-191.23467 361.7757,-332.82467 -41.96,-34.65 -83.9148,-69.30287 -125.8748,-103.94287 -75.94,92.17 -159.5441,167.14594 -247.8841,226.17594 -136.37,91.12 -283.9475,144.21077 -432.0475,163.96077 l 19.8364,164.85593 -15.7064,2.238 c -45.66,6.51 -91.5129,9.8887 -137.5529,9.9487 -46.06,0.06 -91.9439,-3.2087 -137.6139,-9.9487 l -15.564,-2.299 19.0226,-164.63217 c -167.23,-21.92 -326.494,-84.5344 -461.32396,-180.6844 -82.01,-58.49 -155.01134,-129.37957 -215.29134,-211.05957 z M 184.24479,1016.4591 c -18.02,14.87 -36.02646,29.7467 -54.03646,44.6167 63.28,77.38 133.34886,153.6501 209.24886,224.6501 80.48,75.29 167.69977,144.8246 260.59977,203.6946 l 38.51318,-64.7786 c -93.74,-59.6 -181.99084,-130.0505 -263.61084,-206.4005 -68.59,-64.17 -132.38451,-132.3923 -190.71451,-201.7823 z m 2648.92571,7.8736 c -56.51,66.68 -118.0513,132.1687 -184.0413,193.9087 -80.6,75.41 -167.6815,145.0629 -260.1115,204.1829 l 34.9325,59.9365 c 88.76,-57.34 172.2724,-124.3349 249.5524,-196.6349 75.08,-70.24 144.454,-145.6276 207.194,-222.1476 -15.84,-13.08 -31.6761,-26.1656 -47.5261,-39.2456 z" data-default-color="rgb(153, 153, 153)" data-id="2900777" id="box-section" style="fill:#e74c3c; transition-delay: 0s; transition-duration: 0s;" fill="#e74c3c" /><text class="section-label box-label" id="tbox2" style="font-size: 41.6667px; clip-rule: evenodd; fill-rule: evenodd; shape-rendering: geometricprecision; text-rendering: geometricprecision;" transform="rotate(-41.813699)" x="980.22974" y="2718.2292">VIP BOX SEATS</text><text class="section-label box-label" id="tbox3" style="font-size: 41.6667px; clip-rule: evenodd; fill-rule: evenodd; shape-rendering: geometricprecision; text-rendering: geometricprecision;" transform="rotate(43.49002)" x="994.83905" y="674.09784">VIP BOX SEATS</text><text class="section-label box-label" font-size="61.09px" id="tbox" transform="matrix(0.816367,0.577533,-0.577534,0.816367,130.606,-991.766)" x="1500" y="1124.5">VIP BOX SEATS</text><text class="section-label box-label" font-size="61.09px" id="tbox1" transform="rotate(-29.386461,1549.6941,403.15686)" x="1500" y="1124.5">VIP BOX SEATS</text><text class="section-label box-label" fill="#000000" font-size="12px" id="box-label" text-anchor="middle" x="24.83" y="50.4">BOX</text></g><g class="interactive-section" data-section-id="102" id="102-group" data-rows="11" data-seats-per-row="36" data-total-seats="396" data-price-min="25.00" data-price-max="500.00" data-current-price="107.27" data-available="true" onclick="showSectionInfo(evt)" style="cursor:pointer;"><title>Section 102 | 11 rows × 36 seats | $107.27</title><path class="section-path" d="m 1737.15,1194.26 c 125.95,-24.81 248,-68.69 359.69,-131.21 11.38,-6.37 22.65,-12.94 33.81,-19.69 l 310.25,532.42 c -180.32,103.08 -383.5,176.84 -596.16,216.12 -35.86,-199.21 -71.73,-398.42 -107.59,-597.63 z" data-default-color="rgb(153, 153, 153)" data-id="2900773" id="102-section" style="fill:#3498db; transition-delay: 0s; transition-duration: 0s;" fill="#3498db" /><text class="section-label 102-label" font-size="91.63px" id="t102" x="1965.5601" y="1450.02">102</text><text class="section-label 102-label" fill="#000000" font-size="12px" id="102-label" text-anchor="middle" x="105.27" y="54.55">102</text></g><g class="interactive-section" data-section-id="103" id="103-group" data-rows="16" data-seats-per-row="38" data-total-seats="608" data-price-min="25.00" data-price-max="500.00" data-current-price="498.12" data-available="true" onclick="showSectionInfo(evt)" style="cursor:pointer;"><title>Section 103 | 16 rows × 38 seats | $498.12</title><path class="section-path" d="m 1719.1569,1276.8961 c -146.9821,30.3554 -294.7086,26.3463 -442.4642,0.2238 -29.9429,174.4247 -59.8806,348.8618 -89.8234,523.2951 138.1998,22.42 278.0368,28.9537 416.0766,20.8537 70.61,-4.15 140.751,-12.1227 209.961,-23.7427 z" data-default-color="rgb(153, 153, 153)" data-id="2900774" id="103-section" style="fill:#e74c3c; stroke: rgb(102, 102, 102); transition-delay: 0s; transition-duration: 0s;" fill="#e74c3c" /><text class="section-label 103-label" font-size="91.63px" id="t103" x="1420.55" y="1544.74">103</text><text class="section-label 103-label" fill="#000000" font-size="12px" id="103-label" text-anchor="middle" x="146.85" y="185.59">103</text></g><g class="interactive-section" data-section-id="101" id="101-group" data-rows="17" data-seats-per-row="15" data-total-seats="255" data-price-min="25.00" data-price-max="500.00" data-current-price="48.09" data-available="true" onclick="showSectionInfo(evt)" style="cursor:pointer;"><title>Section 101 | 17 rows × 15 seats | $48.09</title><path class="section-path" d="m 2905.66,1084.19 c 13.83,11.43 27.67,22.85 41.5,34.27 -96.6,141.99 -222.19,266.22 -367.88,369.24 -35.65,25.2 -72.49,49.13 -110.41,71.75 l -28.59,-49.06 c 90.65,-58.45 176.09,-126.98 255.3,-201.07 76.26,-71.35 146.58,-147.73 210.07,-225.13 z m -747.53,-58.01 c 120.84,-77.98 227.14,-179.34 309.76,-303.49 113.44,93.68 226.89,187.36 340.34,281.04 -55.74,65.76 -116.31,130.27 -181.16,190.93 -78.67,73.6 -163.8,141.7 -254.37,199.72 -71.52,-122.73 -143.04,-245.47 -214.56,-368.2 z" data-default-color="rgb(153, 153, 153)" data-id="2900772" id="101-section" style="fill:#27ae60; transition-delay: 0s; transition-duration: 0s;" fill="#27ae60" /><text class="section-label 101-label" font-size="91.63px" id="t101" x="2410.22" y="1090.9301">101</text><text class="section-label 101-label" font-size="38.18px" id="t101a" x="2696.5801" y="1335.3101">101</text><text class="section-label 101-label" fill="#000000" font-size="12px" id="101-label" text-anchor="middle" x="70.35" y="36.53">101</text></g><g class="interactive-section" data-section-id="104" id="104-group" data-rows="23" data-seats-per-row="30" data-total-seats="690" data-price-min="25.00" data-price-max="500.00" data-current-price="443.32" data-available="true" onclick="showSectionInfo(evt)" style="cursor:pointer;"><title>Section 104 | 23 rows × 30 seats | $443.32</title><path class="section-path" d="m 892.03,1061.7 4.06,2.37 c 111.71,64.62 234.44,108.69 361.49,132.69 L 1154.9,1794.92 C 956.46,1759.11 761.93,1690.17 581.44,1584.17 684.97,1410.01 788.5,1235.86 892.03,1061.71 Z" data-default-color="rgb(153, 153, 153)" data-id="2900775" id="104-section" style="fill:#e74c3c; transition-delay: 0s; transition-duration: 0s;" fill="#e74c3c" /><text class="section-label 104-label" font-size="91.63px" id="t104" x="879.37" y="1460.7">104</text><text class="section-label 104-label" fill="#000000" font-size="12px" id="104-label" text-anchor="middle" x="618.66" y="992.17">104</text></g><g class="interactive-section" data-section-id="105" id="105-group" data-rows="16" data-seats-per-row="27" data-total-seats="432" data-price-min="25.00" data-price-max="500.00" data-current-price="176.83" data-available="true" onclick="showSectionInfo(evt)" style="cursor:pointer;"><title>Section 105 | 16 rows × 27 seats | $176.83</title><path class="section-path" d="m 64.94,1114.98 c 13.44,-11.1 26.88,-22.19 40.32,-33.3 64.02,78.26 135.04,155.52 212.13,227.64 82.34,77.03 171.44,148.05 266.11,207.98 l -29.84,50.2 C 372.37,1456.27 205.96,1306.78 64.95,1114.98 Z M 209.2,995.85 C 319.59,904.69 429.98,813.54 540.37,722.38 625.64,858.06 737.11,965.34 864.3,1044.93 L 655.14,1396.78 C 563.18,1338.24 476.78,1269.28 397.02,1194.66 329.58,1131.58 266.76,1064.34 209.21,995.85 Z" data-default-color="rgb(153, 153, 153)" data-id="2900776" id="105-section" style="fill:#f39c12; transition-delay: 0s; transition-duration: 0s;" fill="#f39c12" /><text class="section-label 105-label" font-size="91.63px" id="t105" x="457.20001" y="1091.97">105</text><text class="section-label 105-label" font-size="38.18px" id="t105a" x="253.58" y="1338.09">105</text><text class="section-label 105-label" fill="#000000" font-size="12px" id="105-label" text-anchor="middle" x="296.93" y="734.52">105</text></g><g class="interactive-section" data-section-id="lawn" id="lawn-group" data-rows="12" data-seats-per-row="20" data-total-seats="240" data-price-min="25.00" data-price-max="500.00" data-current-price="153.56" data-available="true" onclick="showSectionInfo(evt)" style="cursor:pointer;"><title>Section lawn | 12 rows × 20 seats | $153.56</title><path class="section-path" d="m 2951.67,1629.69 c -967.78,739.99 -1935.57,726.92 -2903.35,0 0,-160.91 0,-321.81 0,-482.72 141.88,189.61 308.48,337.97 489.69,448.93 327.9,200.78 703.44,279 1066.69,257.69 363.22,-21.31 714.28,-142.12 993.22,-339.37 137.86,-97.49 258.19,-213.68 353.75,-345.8 0,153.76 0,307.52 0,461.28 z" data-default-color="rgb(153, 153, 153)" data-id="2900768" id="lawn-section" style="fill:#f39c12; transition-delay: 0s; transition-duration: 0s;" fill="#f39c12" /><text class="section-label lawn-label" font-size="122.17px" id="tlawn" x="1326.34" y="2051.02">LAWN</text><text class="section-label lawn-label" fill="#000000" font-size="12px" id="lawn-label" text-anchor="middle" x="136.53" y="164.0">LAWN</text></g><g class="interactive-section" data-section-id="vip-club" id="vip-club-group" style="cursor:pointer;" data-rows="24" data-seats-per-row="26" data-total-seats="624" data-price-min="25.00" data-price-max="500.00" data-current-price="325.16" data-available="true" onclick="showSectionInfo(evt)"><title>Section vip-club | 24 rows × 26 seats | $325.16</title><path class="section-path" d="m 1705.3426,1200.1139 c -69.4699,11.86 -139.9376,17.9695 -210.3475,18.2495 -68.8799,0.26 -137.7151,-5.0615 -205.485,-16.0115 l 0.02,0.02 c -2.5693,14.9668 -5.1415,29.9348 -7.7108,44.9015 145.1768,25.6762 289.1844,29.7227 432.0272,0.1018 z" data-default-color="rgb(153, 153, 153)" data-id="2973637" id="vip-club-section" style="clip-rule: evenodd; fill:#e74c3c; fill-rule: evenodd; stroke: rgb(102, 102, 102); shape-rendering: geometricprecision; text-rendering: geometricprecision; transition-delay: 0s; transition-duration: 0s;" fill="#e74c3c" /><text class="section-label vip-club-label" id="vip-club" style="font-size: 27.7778px; font-family: Arial; text-align: center; text-anchor: middle; clip-rule: evenodd; fill: rgb(0, 0, 0); fill-rule: evenodd; stroke: none; stroke-width: 30; stroke-dasharray: none; shape-rendering: geometricprecision; text-rendering: geometricprecision;" x="1498.4982" xml:space="preserve" y="1250.8464"><tspan id="tspan27496" style="fill: rgb(0, 0, 0); stroke: none; stroke-width: 30;" x="1498.4982" y="1250.8464">VIP CLUB SEATS</tspan></text><text class="section-label vip-club-label" fill="#000000" font-size="12px" id="vip-club-label" text-anchor="middle" x="123.18" y="98.05">VIP-CLUB</text></g></g><g id="vip" style="display: inline;"><path d="M 20.283177,1973.7309 H 426.45509 l 0.08,245.0422 H 20.3674 Z" data-default-color="rgb(255, 255, 255)" data-id="2900779" fill="#ffffff" id="vip-section" style="clip-rule: evenodd; fill-rule: evenodd; stroke-width: 6.44852; shape-rendering: geometricprecision; text-rendering: geometricprecision; transition-delay: 0s; transition-duration: 0s; fill: rgb(255, 255, 255);" /><path d="m 245.0133,2134.9425 -23.83368,-67.2581 h 11.46546 l 19.50023,57.4178 h -2.25714 l 19.40991,-57.4178 h 11.46543 l -23.83365,67.2581 z m 43.66271,0 v -67.2581 h 10.653 v 67.2581 z m 24.59712,0 v -67.2581 h 24.46556 c 4.51408,0 8.48633,0.8454 11.91693,2.5281 3.49164,1.6246 6.19983,4.0309 8.12508,7.2226 1.92605,3.1276 2.88908,6.8911 2.88908,11.2848 0,4.3334 -0.99349,8.0649 -2.97944,11.195 -1.92555,3.1268 -4.60443,5.5392 -8.03469,7.2216 -3.43072,1.6838 -7.40282,2.5286 -11.91681,2.5286 h -13.81272 v 25.2782 z m 10.65285,-34.7574 h 14.08355 c 2.4078,0 4.51408,-0.4496 6.3198,-1.4426 1.80573,-0.9591 3.22057,-2.2881 4.24349,-3.9725 1.02344,-1.7493 1.53465,-3.7922 1.53465,-6.1396 0,-2.348 -0.50921,-4.3658 -1.53465,-6.0489 -1.02292,-1.7484 -2.43776,-3.0699 -4.24349,-3.973 -1.80572,-0.9605 -3.912,-1.4433 -6.3198,-1.4433 h -14.08355 z" fill="#011327" id="path2-0" style="clip-rule: evenodd; display: inline; fill-rule: evenodd; stroke-width: 6.44852; shape-rendering: geometricprecision; text-rendering: geometricprecision;" /><path d="m 129.90761,2056.3392 c -2.56482,0 -5.02492,1.021 -6.83881,2.8308 l -22.17935,22.1793 -12.506569,-12.5067 c -1.353077,-1.354 -3.073486,-2.2706 -4.949408,-2.6435 -1.875923,-0.3844 -3.824834,-0.2096 -5.592414,0.5784 -1.766984,0.7288 -3.282411,1.9594 -4.345282,3.5536 -1.062922,1.5915 -1.623669,3.463 -1.624556,5.378 v 51.1983 c 0.0076,6.41 2.557717,12.5575 7.09076,17.0903 4.533601,4.5335 10.67995,7.0839 17.09105,7.0913 h 67.709379 c 6.41136,-0.013 12.55753,-2.5611 17.09105,-7.0913 4.53346,-4.5336 7.08298,-10.6794 7.09077,-17.0903 v -51.1988 c 6.6e-4,-1.9146 -0.56122,-3.7852 -1.6244,-5.3781 -1.06293,-1.5915 -2.57825,-2.8306 -4.3452,-3.5655 -1.76778,-0.7357 -3.7145,-0.927 -5.59182,-0.5783 -1.87712,0.394 -3.59903,1.301 -4.94942,2.6564 l -12.50642,12.5056 -22.17933,-22.1796 c -1.81397,-1.8111 -4.27425,-2.8305 -6.83898,-2.8305 z m 0,9.6722 25.59251,25.5927 c 0.90732,0.9101 2.14306,1.4248 3.42565,1.4248 1.28233,0 2.51824,-0.5166 3.4256,-1.4248 l 15.91984,-15.9198 v 51.1982 c 0,3.8497 -1.52375,7.5429 -4.24468,10.2643 -2.72129,2.7207 -6.41719,4.2429 -10.26465,4.2429 H 96.052561 c -3.84795,0 -7.54338,-1.5207 -10.264652,-4.2429 -2.720777,-2.7209 -4.244688,-6.4169 -4.244688,-10.2643 v -51.1982 l 15.93232,15.9198 c 0.90682,0.9101 2.13079,1.4248 3.413419,1.4248 1.28259,0 2.5067,-0.5166 3.41331,-1.4248 z" id="path3-7" style="clip-rule: evenodd; display: inline; fill: rgb(255, 156, 0); fill-opacity: 1; fill-rule: evenodd; stroke-width: 6.44852; shape-rendering: geometricprecision; text-rendering: geometricprecision;" /></g><g id="g5" style="clip-rule: evenodd; fill-rule: evenodd; shape-rendering: geometricprecision; text-rendering: geometricprecision;"><text id="text1-5" style="font-size: 41.6667px; font-family: Arial; text-align: center; text-anchor: middle; clip-rule: evenodd; fill: rgb(0, 0, 0); fill-rule: evenodd; stroke: none; stroke-width: 2; shape-rendering: geometricprecision; text-rendering: geometricprecision;" x="1762.2145" xml:space="preserve" y="1228.2432"><tspan id="tspan1-6" style="fill: rgb(0, 0, 0); stroke: none; stroke-width: 2;" x="1762.2145" y="1228.2432">C</tspan></text><text id="text1-5-5" style="font-size: 41.6667px; font-family: Arial; text-align: center; text-anchor: middle; clip-rule: evenodd; fill: rgb(0, 0, 0); fill-rule: evenodd; stroke: none; stroke-width: 2; shape-rendering: geometricprecision; text-rendering: geometricprecision;" x="1854.467" xml:space="preserve" y="1692.7039"><tspan id="tspan1-6-3" style="fill: rgb(0, 0, 0); stroke: none; stroke-width: 2;" x="1854.467" y="1692.7039">Z</tspan></text><text id="text1-5-56" style="font-size: 41.6667px; font-family: Arial; text-align: center; text-anchor: middle; clip-rule: evenodd; fill: rgb(0, 0, 0); fill-rule: evenodd; stroke: none; stroke-width: 2; shape-rendering: geometricprecision; text-rendering: geometricprecision;" x="1866.3855" xml:space="preserve" y="1736.5679"><tspan id="tspan1-6-9" style="fill: rgb(0, 0, 0); stroke: none; stroke-width: 2;" x="1866.3855" y="1736.5679">AA</tspan></text><text id="text1-5-0" style="font-size: 41.6667px; font-family: Arial; text-align: center; text-anchor: middle; clip-rule: evenodd; fill: rgb(0, 0, 0); fill-rule: evenodd; stroke: none; stroke-width: 2; shape-rendering: geometricprecision; text-rendering: geometricprecision;" x="1874.146" xml:space="preserve" y="1777.5809"><tspan id="tspan1-6-8" style="fill: rgb(0, 0, 0); stroke: none; stroke-width: 2;" x="1874.146" y="1777.5809">BB</tspan></text><path d="m 1846.9625,1639.1855 -72.5968,-391.522" id="path5" style="fill: rgb(0, 0, 0); stroke: rgb(0, 0, 0); stroke-width: 2;" /></g></g><g id="info-panel"><rect x="10" y="10" width="320" height="140" rx="8" fill="#1a1a2e" fill-opacity="0.95" stroke="#444" /><text x="25" y="40" fill="#FFD700" font-family="Arial" font-size="18" font-weight="bold">Ameris Bank Amphitheatre</text><text id="section-info" x="25" y="70" fill="white" font-family="monospace" font-size="13">Click a section to see details</text></g><script type="text/javascript">&lt;![CDATA[
function showSectionInfo(evt) {
    var g = evt.currentTarget;
    var id = g.getAttribute('data-section-id');
    var rows = g.getAttribute('data-rows');
    var spr = g.getAttribute('data-seats-per-row');
    var total = g.getAttribute('data-total-seats');
    var price = g.getAttribute('data-current-price');
    var avail = g.getAttribute('data-available');
    
    var info = document.getElementById('section-info');
    if (info) {
        while (info.firstChild) info.removeChild(info.firstChild);
        
        var lines = [
            'Section ' + id,
            'Rows: ' + rows + ' | Seats/Row: ' + spr,
            'Total Seats: ' + total,
            'Price: $' + price,
            'Available: ' + (avail === 'true' ? 'Yes' : 'No')
        ];
        
        lines.forEach(function(line, i) {
            var tspan = document.createElementNS('http://www.w3.org/2000/svg', 'tspan');
            tspan.setAttribute('x', '25');
            tspan.setAttribute('dy', i === 0 ? '0' : '18');
            tspan.textContent = line;
            info.appendChild(tspan);
        });
    }
}
]]&gt;</script></svg>