<?xml version="1.0" encoding="UTF-8"?>
<svg xmlns="http://www.w3.org/2000/svg" class="m h-full w-full p-2 lg:p-4 zoom-transition" data-zoom-enabled="false" height="3.6655784in" id="svg8" style="clip-rule: evenodd; fill-rule: evenodd; shape-rendering: geometricprecision; text-rendering: geometricprecision; transform-origin: 0px 0px 0px; transform: matrix(1, 0, 0, 1, 0, 0);" version="1.1" viewBox="0 0 3107.0371 3665.5783" width="3.1070371in" xml:space="preserve"><defs id="defs1"><style id="style1" type="text/css">
   
    .str0 {stroke:black;stroke-width:3;stroke-miterlimit:2.61313}
    .str1 {stroke:#666666;stroke-width:3;stroke-miterlimit:2.61313}
    .str3 {stroke:black;stroke-width:2;stroke-miterlimit:2.61313}
    .str2 {stroke:#666666;stroke-width:2;stroke-miterlimit:2.61313}
    .fil0 {fill:none}
    .fil1 {fill:black}
    .fil2 {fill:gray}
    .fil3 {fill:#CCCCCC}
    .fnt2 {font-weight:normal;font-size:97.22px;font-family:'Arial'}
    .fnt3 {font-weight:normal;font-size:166.67px;font-family:'Arial'}
    .fnt1 {font-weight:normal;font-size:166.67px;font-family:'Arial'}
    .fnt0 {font-weight:normal;font-size:194.44px;font-family:'Arial'}
    .section-path{fill:#CCCCCC;stroke:#666666;stroke-width:2}
    .section-label{fill:#black;font-family:'Arial'}
    .static{fill:#999999; stroke:#848688;stroke-width:2}
   
  </style></defs><g id="parent-group" transform="translate(2.2545892,-58.266205)"><g id="static-elements" style="display: inline;"><path class="fil0 str0" d="m 301.02,2782.67 c -25.08,-10.42 -50.01,-21.2 -74.96,-31.93 L 149.99,2440.11 291.38,2151.58 C 224.45,2115.8 159.12,2079.12 93.72,2040.72 90.7,1629.75 118.44,1251.88 207.95,849.48 H 482.65689 L 480.4975,720.50699 698.95253,717.96958 699,61.766205 h 1730.61 l -0.018,655.156405 205.7292,-3.06136 -0.3206,135.41667 270.3094,1.30208 c 91.13,404.59 121.33,773.16 119.74,1187.35 -60.97,35.35 -122,71.86 -185,103.36 l 142.17,292.7 -59.28,304.88 c -31.48,13.37 -62.91,26.76 -94.58,39.64 l 271.75,598.14 C 2061.67,3816.01 1155.67,3856.58 2.57,3368.11 l 298.48,-585.44 -0.02,-0.01 z" id="path1" style="display: inline; stroke-width: 7; stroke-dasharray: none;" /><path d="m 1538.6297,808.31237 -985.79217,0.14329 0.36378,62.44062 c 0.006,1.07736 1.45705,1.56631 2.23732,2.29576 329.74499,308.26426 667.47357,321.26556 983.19107,321.32866 z m 38.7244,0.0635 V 1194.47 c 402.4645,-12.7759 792.6317,-112.9505 990.4481,-335.56484 0.1706,-0.19195 0.509,-0.31941 0.5113,-0.57613 l 0.6286,-50.74676 z M 495.4,2981.7633 c -54.92,-18.56 -110.02,-38.61 -165.3,-60.22 l -221.22,428.62 c 61.32,25.98 122.72,50.35 184.2,73.16 z m 394.77,108.42 c -120.15,-25.39 -241.12,-57.91 -362.95,-97.83 l -202.75,442.48 c 144.44,52.3 289.35,95.76 434.77,130.16 l 130.93,-474.8 z m 335.73,52.87 c -100.42,-10.45 -201.41,-25.75 -302.98,-46.15 l -131.16,475.62 c 167.89,38.13 336.46,64.14 505.8,77.59 l 37.44,-382.14 -118.39,-12.14 z m 661.99,-0.43 c -207.22,21.69 -416.72,23.55 -628.72,3.72 l -6.56,79.63 118.8,12.17 -40.59,393.5867 v 20.8333 c 159.3,11.09 319.27,11.1 480,-0.41 l -47.79,-419.46 135.26,-11.44 -10.39,-78.64 z m 313.92,-48.12 c -93.13,18.79 -186.72,33.65 -280.76,44.47 l 14.87,112.66 -135.81,11.49 44.03,386.46 c 159.19,-12.96 319.12,-37.25 479.85,-73.11 z m 410.23,-108.45 c -125.03,40.8 -250.84,74.83 -377.48,101.65 l 122.03,481.39 c 147.38,-34.3 295.44,-78.44 444.23,-132.58 z m 189.25,-67.05 c -52.35,20.02 -104.83,38.85 -157.46,56.52 l 188.35,449.44 c 56.66,-21.13 113.42,-43.65 170.3,-67.71 l -201.18,-438.25 z m -1998.01,-505.58 c -151.86,-45.31 -304.03,-104.96 -456.52,-179.63 l -114.85,234.39 60.73,247.96 c 123.31,52.99 247.51,98.38 372.61,136.02 l 138.04,-438.75 z m 485.79,96.74 c -150.94,-15.28 -302.19,-44.21 -453.72,-87.42 l -138.07,438.88 c 180.45,52.32 362.8,88.39 547.15,107.48 z m 519.04,-0.42 c -161.63,16.42 -323.57,17.86 -485.85,3.57 l -16.79,172.58 c 87.02,8.26 173.78,11.65 260.29,10.8 87.7,-0.86 175.45,-6.12 263.24,-15.12 z m 498.48,-97.62 c -154.8,44.68 -309.88,76.28 -465.25,94.04 l 55.82,459.18 c 179.64,-20.51 361.16,-57.15 544.65,-110.64 l -135.23,-442.57 z m 486.06,-182.94 c -151.1,69.96 -302.46,128.03 -454.08,173.56 l 135.19,442.43 c 127.67,-38.53 256.3,-85.16 385.9,-140.2 l 46.91,-241.25 -113.92,-234.55 z M 270.72249,943.91223 c -78.90992,354.69957 -102.3211,713.08217 -99.7111,1073.22177 55.37994,32.5 110.90534,63.1579 166.58528,91.8579 l 507.42595,-981.547 v -20.8333 L 765.36911,1085.2537 573.84342,943.91223 Z m 605.71289,195.49557 -509.09424,984.6801 c 145.10986,73.03 291.25636,133.159 438.45622,179.7689 L 1129.0599,1207.5027 v -20.8333 z m 285.62422,74.1373 -324.38155,1100.1587 c 148.5937,45.0469 298.28315,76.2928 449.09665,93.2821 l 122.1924,-1168.2332 c -84.4129,-3.9088 -167.4489,-12.1231 -246.9075,-25.2076 z m 533.0607,21.2403 c -84.1143,6.2127 -169.0047,8.1503 -252.828,5.4728 l -101.5218,948.1811 c 73.5699,6.93 147.3318,10.0802 221.2118,10.0302 73.7932,-0.05 148.3159,-3.3488 223.409,-9.2977 z m 277.2217,-37.4756 c -78.93,15.9553 -160.8871,27.4777 -243.9576,34.79 l 111.9995,1172.7295 c 146.5399,-17.62 294.1616,-48.8676 442.8915,-94.1976 z m 265.747,-75.2564 -233.0526,47.3227 v 20.8333 l 310.14,1110.4736 h 0.02 c 146.1598,-46.47 293.3919,-106.6059 441.7317,-180.7658 z m 303.2634,-177.04254 -159.009,152.91284 -113.1875,-9.1954 v 20.8333 l 517.5171,995.3003 c 55.2799,-28.3 110.6902,-58.4583 166.2801,-90.6983 1.42,-366.2996 -27.2592,-724.4131 -104.8991,-1069.15274 z M 1299.55,2720.4233 l -24.63,253.28 c 193.22,17.85 388.64,17.03 586.33,-3.38 l -30.91,-254.29 c -88.66,9.11 -177.65,14.43 -267.01,15.31 -87.83,0.87 -175.76,-2.57 -263.78,-10.93 z m 17.66,-308.55 c 161.13,15.9 323.56,15.43 487.32,-1.99 l -18.52,-186.1 c -75.36,5.97 -150.93,9.29 -226.74,9.35 -75.1,0.06 -149.9,-3.13 -224.31,-10.13 l -17.76,188.87 z M 773.91,139.69612 H 2354.67 V 691.12613 H 773.91 Z" id="path2" style="clip-rule: evenodd; display: inline; fill: rgb(0, 0, 0); fill-rule: evenodd; stroke: none; stroke-width: 2; shape-rendering: geometricprecision; text-rendering: geometricprecision;" /><path class="fil2 str1" d="M 773.91,118.86276 H 2354.67 V 670.29277 H 773.91 Z" id="path3" style="fill: rgb(102, 102, 102);" /><path class="fil2 str1" d="m 1317.21,2391.04 c 161.13,15.9 323.56,15.43 487.32,-1.99 l -18.52,-186.1 c -75.36,5.97 -150.93,9.29 -226.74,9.35 -75.1,0.06 -149.9,-3.13 -224.31,-10.13 l -17.76,188.87 z" id="path4" style="fill: rgb(102, 102, 102);" /><path class="fil2 str1" d="m 1299.55,2699.59 -24.63,253.28 c 193.22,17.85 388.64,17.03 586.33,-3.38 l -30.91,-254.29 c -88.66,9.11 -177.65,14.43 -267.01,15.31 -87.83,0.87 -175.76,-2.57 -263.78,-10.93 z" id="path5" style="fill: rgb(102, 102, 102);" /><g id="g5" transform="translate(-311.268,-1435.51)"><text class="fil1 fnt0" id="text5" style="font-style: normal; font-variant: normal; font-weight: normal; font-stretch: normal; font-size: 187.5px; font-family: Arial; fill: rgb(0, 0, 0);" x="1565.5604" y="1897.1959">STAGE</text></g><g id="g6" transform="translate(-146.969,500.024)"><text class="fil1 fnt1" id="text6" x="1554" y="1862">MIX</text></g><g id="g7" transform="translate(-224.248,948.882)"><text class="fil1 fnt2" id="text7" x="1554" y="1862">CONTROL</text></g><g id="g8" transform="translate(-159.425,1057.49)"><text class="fil1 fnt2" id="text8" x="1554" y="1862">BOOTH</text></g></g><g id="sections"><g class="interactive-section" data-section-id="1" id="1-group" data-rows="24" data-seats-per-row="25" data-total-seats="600" data-price-min="25.00" data-price-max="500.00" data-current-price="35.50" data-available="true" onclick="showSectionInfo(evt)" style="cursor:pointer;"><title>Section 1 | 24 rows × 25 seats | $35.50</title><path class="section-path" d="m 2541.3524,924.1775 c -70.7116,65.78711 -164.3572,120.5073 -272.1965,164.5508 l 517.5171,995.3003 c 55.2799,-28.3 110.6902,-58.4583 166.2801,-90.6983 1.42,-366.2996 -27.2592,-724.4131 -104.8991,-1069.1528 z" data-default-color="rgb(204, 204, 204)" data-id="1795718" id="1-section" style="transition-delay: 0s; transition-duration: 0s; fill:#27ae60;" fill="#27ae60" /><text class="section-label 1-label" font-size="166.67px" id="t1" x="2634.78" y="1416.8101">1</text><text class="section-label 1-label" fill="#000000" font-size="12px" id="1-label" text-anchor="middle" x="250.28" y="-6.09">1</text></g><g class="interactive-section" data-section-id="2" id="2-group" data-rows="5" data-seats-per-row="36" data-total-seats="180" data-price-min="25.00" data-price-max="500.00" data-current-price="207.28" data-available="true" onclick="showSectionInfo(evt)" style="cursor:pointer;"><title>Section 2 | 5 rows × 36 seats | $207.28</title><path class="section-path" d="m 2238.089,1101.2201 c -72.4824,27.5066 -150.9786,50.1153 -233.0526,68.156 l 310.14,1110.4736 h 0.02 c 146.1598,-46.47 293.3919,-106.6059 441.7317,-180.7658 z" data-default-color="rgb(204, 204, 204)" data-id="1795719" id="2-section" style="transition-delay: 0s; transition-duration: 0s; fill:#f39c12;" fill="#f39c12" /><text class="section-label 2-label" font-size="166.67px" id="t2" x="2310.0901" y="1780.0601">2</text><text class="section-label 2-label" fill="#000000" font-size="12px" id="2-label" text-anchor="middle" x="195.32" y="404.84">2</text></g><g class="interactive-section" data-section-id="3" id="3-group" data-rows="11" data-seats-per-row="38" data-total-seats="418" data-price-min="25.00" data-price-max="500.00" data-current-price="415.03" data-available="true" onclick="showSectionInfo(evt)" style="cursor:pointer;"><title>Section 3 | 11 rows × 38 seats | $415.03</title><path class="section-path" d="m 1972.342,1176.4765 c -78.93,15.9553 -160.8871,27.4777 -243.9576,34.79 l 111.9995,1172.7295 c 146.5399,-17.62 294.1616,-48.8676 442.8915,-94.1976 z" data-default-color="rgb(204, 204, 204)" data-id="1795720" id="3-section" style="transition-delay: 0s; transition-duration: 0s; fill:#e74c3c;" fill="#e74c3c" /><text class="section-label 3-label" font-size="166.67px" id="t3" x="1926.42" y="1885.3101">3</text><text class="section-label 3-label" fill="#000000" font-size="12px" id="3-label" text-anchor="middle" x="310.52" y="283.34">3</text></g><g class="interactive-section" data-section-id="4" id="4-group" data-rows="14" data-seats-per-row="18" data-total-seats="252" data-price-min="25.00" data-price-max="500.00" data-current-price="246.03" data-available="true" onclick="showSectionInfo(evt)" style="cursor:pointer;"><title>Section 4 | 14 rows × 18 seats | $246.03</title><path class="section-path" d="m 1695.1203,1213.9521 c -84.1143,6.2127 -169.0047,8.1503 -252.828,5.4728 l -101.5218,948.1811 c 73.5699,6.93 147.3318,10.0802 221.2118,10.0302 73.7932,-0.05 148.3159,-3.3488 223.409,-9.2977 z" data-default-color="rgb(204, 204, 204)" data-id="1795721" id="4-section" style="transition-delay: 0s; transition-duration: 0s; fill:#f39c12;" fill="#f39c12" /><text class="section-label 4-label" font-size="166.67px" id="t4" x="1517" y="1804.8101">4</text><text class="section-label 4-label" fill="#000000" font-size="12px" id="4-label" text-anchor="middle" x="179.57" y="199.66">4</text></g><g class="interactive-section" data-section-id="5" id="5-group" data-rows="19" data-seats-per-row="33" data-total-seats="627" data-price-min="25.00" data-price-max="500.00" data-current-price="152.53" data-available="true" onclick="showSectionInfo(evt)" style="cursor:pointer;"><title>Section 5 | 19 rows × 33 seats | $152.53</title><path class="section-path" d="M 1162.0596,1192.7118 837.67805,2292.8705 c 148.5937,45.0469 298.28315,76.2928 449.09665,93.2821 l 122.1924,-1168.2332 c -84.4129,-3.9088 -167.4489,-12.1231 -246.9075,-25.2076 z" data-default-color="rgb(204, 204, 204)" data-id="1795722" id="5-section" style="transition-delay: 0s; transition-duration: 0s; fill:#f39c12;" fill="#f39c12" /><text class="section-label 5-label" font-size="166.67px" id="t5" x="1109.09" y="1888.9301">5</text><text class="section-label 5-label" fill="#000000" font-size="12px" id="5-label" text-anchor="middle" x="279.9" y="276.75">5</text></g><g class="interactive-section" data-section-id="6" id="6-group" data-rows="12" data-seats-per-row="18" data-total-seats="216" data-price-min="25.00" data-price-max="500.00" data-current-price="310.32" data-available="true" onclick="showSectionInfo(evt)" style="cursor:pointer;"><title>Section 6 | 12 rows × 18 seats | $310.32</title><path class="section-path" d="m 876.43538,1118.5745 -509.09424,984.6801 c 145.10986,73.03 291.25636,133.159 438.45622,179.7689 L 1129.0599,1186.6694 c -90.3515,-16.562 -175.52162,-39.2333 -252.62452,-68.0949 z" data-default-color="rgb(204, 204, 204)" data-id="1795723" id="6-section" style="transition-delay: 0s; transition-duration: 0s; fill:#e74c3c;" fill="#e74c3c" /><text class="section-label 6-label" font-size="166.67px" id="t6" x="735.33002" y="1742.5699">6</text><text class="section-label 6-label" fill="#000000" font-size="12px" id="6-label" text-anchor="middle" x="205.86" y="394.67">6</text></g><g class="interactive-section" data-section-id="7" id="7-group" data-rows="11" data-seats-per-row="21" data-total-seats="231" data-price-min="25.00" data-price-max="500.00" data-current-price="345.54" data-available="true" onclick="showSectionInfo(evt)" style="cursor:pointer;"><title>Section 7 | 11 rows × 21 seats | $345.54</title><path class="section-path" d="m 270.72249,923.07887 c -78.90992,354.69963 -102.3211,713.08223 -99.7111,1073.22183 55.37994,32.5 110.90534,63.1579 166.58528,91.8579 l 507.42595,-981.547 C 733.07808,1046.9955 639.0947,984.79592 573.84342,923.07887 Z" data-default-color="rgb(204, 204, 204)" data-id="1795724" id="7-section" style="transition-delay: 0s; transition-duration: 0s; fill:#e74c3c;" fill="#e74c3c" /><text class="section-label 7-label" font-size="166.67px" id="t7" x="392.60999" y="1406.03">7</text><text class="section-label 7-label" fill="#000000" font-size="12px" id="7-label" text-anchor="middle" x="252.37" y="474.99">7</text></g><g class="interactive-section" data-section-id="201" id="201-group" data-rows="15" data-seats-per-row="23" data-total-seats="345" data-price-min="25.00" data-price-max="500.00" data-current-price="106.97" data-available="true" onclick="showSectionInfo(evt)" style="cursor:pointer;"><title>Section 201 | 15 rows × 23 seats | $106.97</title><path class="section-path" d="m 2792.65,2208.35 c -151.1,69.96 -302.46,128.03 -454.08,173.56 l 135.19,442.43 c 127.67,-38.53 256.3,-85.16 385.9,-140.2 l 46.91,-241.25 -113.92,-234.55 z" data-default-color="rgb(204, 204, 204)" data-id="1795713" id="201-section" style="transition-delay: 0s; transition-duration: 0s; fill:#3498db;" fill="#3498db" /><text class="section-label 201-label" font-size="166.67px" id="t201" style="font-size: 125px;" x="2496.52" y="2575.27">201</text><text class="section-label 201-label" fill="#000000" font-size="12px" id="201-label" text-anchor="middle" x="272.31" y="228.26">201</text></g><g class="interactive-section" data-section-id="202" id="202-group" data-rows="11" data-seats-per-row="40" data-total-seats="440" data-price-min="25.00" data-price-max="500.00" data-current-price="163.67" data-available="true" onclick="showSectionInfo(evt)" style="cursor:pointer;"><title>Section 202 | 11 rows × 40 seats | $163.67</title><path class="section-path" d="m 2306.59,2391.29 c -154.8,44.68 -309.88,76.28 -465.25,94.04 l 55.82,459.18 c 179.64,-20.51 361.16,-57.15 544.65,-110.64 L 2306.58,2391.3 Z" data-default-color="rgb(204, 204, 204)" data-id="1795714" id="202-section" style="transition-delay: 0s; transition-duration: 0s; fill:#f39c12;" fill="#f39c12" /><text class="section-label 202-label" font-size="166.67px" id="t202" style="font-size: 125px;" x="2004.61" y="2726.8101">202</text><text class="section-label 202-label" fill="#000000" font-size="12px" id="202-label" text-anchor="middle" x="536.06" y="585.39">202</text></g><g class="interactive-section" data-section-id="203" id="203-group" data-rows="25" data-seats-per-row="21" data-total-seats="525" data-price-min="25.00" data-price-max="500.00" data-current-price="460.71" data-available="true" onclick="showSectionInfo(evt)" style="cursor:pointer;"><title>Section 203 | 25 rows × 21 seats | $460.71</title><path class="section-path" d="m 1808.11,2488.91 c -161.63,16.42 -323.57,17.86 -485.85,3.57 l -16.79,172.58 c 87.02,8.26 173.78,11.65 260.29,10.8 87.7,-0.86 175.45,-6.12 263.24,-15.12 z" data-default-color="rgb(204, 204, 204)" data-id="1795715" id="203-section" style="transition-delay: 0s; transition-duration: 0s; fill:#e74c3c;" fill="#e74c3c" /><text class="section-label 203-label" font-size="166.67px" id="t203" style="font-size: 125px;" x="1463.9191" y="2626.53">203</text><text class="section-label 203-label" fill="#000000" font-size="12px" id="203-label" text-anchor="middle" x="169.8" y="246.18">203</text></g><g class="interactive-section" data-section-id="204" id="204-group" data-rows="11" data-seats-per-row="16" data-total-seats="176" data-price-min="25.00" data-price-max="500.00" data-current-price="379.01" data-available="true" onclick="showSectionInfo(evt)" style="cursor:pointer;"><title>Section 204 | 11 rows × 16 seats | $379.01</title><path class="section-path" d="m 1289.07,2489.33 c -150.94,-15.28 -302.19,-44.21 -453.72,-87.42 l -138.07,438.88 c 180.45,52.32 362.8,88.39 547.15,107.48 z" data-default-color="rgb(204, 204, 204)" data-id="1795716" id="204-section" style="transition-delay: 0s; transition-duration: 0s; fill:#e74c3c;" fill="#e74c3c" /><text class="section-label 204-label" font-size="166.67px" id="t204" style="font-size: 125px;" x="892.12" y="2734.6899">204</text><text class="section-label 204-label" fill="#000000" font-size="12px" id="204-label" text-anchor="middle" x="166.82" y="378.69">204</text></g><g class="interactive-section" data-section-id="205" id="205-group" data-rows="9" data-seats-per-row="16" data-total-seats="144" data-price-min="25.00" data-price-max="500.00" data-current-price="165.54" data-available="true" onclick="showSectionInfo(evt)" style="cursor:pointer;"><title>Section 205 | 9 rows × 16 seats | $165.54</title><path class="section-path" d="M 803.28,2392.59 C 651.42,2347.28 499.25,2287.63 346.76,2212.96 l -114.85,234.39 60.73,247.96 c 123.31,52.99 247.51,98.38 372.61,136.02 l 138.04,-438.75 z" data-default-color="rgb(204, 204, 204)" data-id="1795717" id="205-section" style="transition-delay: 0s; transition-duration: 0s; fill:#f39c12;" fill="#f39c12" /><text class="section-label 205-label" font-size="166.67px" id="t205" style="font-size: 125px;" x="380.20999" y="2581.0601">205</text><text class="section-label 205-label" fill="#000000" font-size="12px" id="205-label" text-anchor="middle" x="312.81" y="957.15">205</text></g><g class="interactive-section" data-section-id="301" id="301-group" data-rows="5" data-seats-per-row="40" data-total-seats="200" data-price-min="25.00" data-price-max="500.00" data-current-price="146.86" data-available="true" onclick="showSectionInfo(evt)" style="cursor:pointer;"><title>Section 301 | 5 rows × 40 seats | $146.86</title><path class="section-path" d="m 2801.29,2898.17 c -52.35,20.02 -104.83,38.85 -157.46,56.52 l 188.35,449.44 c 56.66,-21.13 113.42,-43.65 170.3,-67.71 L 2801.3,2898.17 Z" data-default-color="rgb(204, 204, 204)" data-id="1795706" id="301-section" style="transition-delay: 0s; transition-duration: 0s; fill:#3498db;" fill="#3498db" /><text class="section-label 301-label" font-size="166.67px" id="t301" style="font-size: 125px;" transform="rotate(71.121832,1319.2629,3257.6247)" x="1554" y="1862">301</text><text class="section-label 301-label" fill="#000000" font-size="12px" id="301-label" text-anchor="middle" x="646.3" y="692.08">301</text></g><g class="interactive-section" data-section-id="302" id="302-group" data-rows="23" data-seats-per-row="24" data-total-seats="552" data-price-min="25.00" data-price-max="500.00" data-current-price="364.08" data-available="true" onclick="showSectionInfo(evt)" style="cursor:pointer;"><title>Section 302 | 23 rows × 24 seats | $364.08</title><path class="section-path" d="m 2612.04,2965.22 c -125.03,40.8 -250.84,74.83 -377.48,101.65 l 122.03,481.39 c 147.38,-34.3 295.44,-78.44 444.23,-132.58 z" data-default-color="rgb(204, 204, 204)" data-id="1795707" id="302-section" style="transition-delay: 0s; transition-duration: 0s; fill:#e74c3c;" fill="#e74c3c" /><text class="section-label 302-label" font-size="166.67px" id="t302" style="font-size: 125px;" x="2414.1343" y="3300.8481">302</text><text class="section-label 302-label" fill="#000000" font-size="12px" id="302-label" text-anchor="middle" x="358.47" y="427.32">302</text></g><g class="interactive-section" data-section-id="303" id="303-group" data-rows="6" data-seats-per-row="18" data-total-seats="108" data-price-min="25.00" data-price-max="500.00" data-current-price="101.97" data-available="true" onclick="showSectionInfo(evt)" style="cursor:pointer;"><title>Section 303 | 6 rows × 18 seats | $101.97</title><path class="section-path" d="m 2201.81,3073.67 c -93.13,18.79 -186.72,33.65 -280.76,44.47 l 14.87,112.66 -135.81,11.49 44.03,386.46 c 159.19,-12.96 319.12,-37.25 479.85,-73.11 z" data-default-color="rgb(204, 204, 204)" data-id="1795708" id="303-section" style="transition-delay: 0s; transition-duration: 0s; fill:#3498db;" fill="#3498db" /><text class="section-label 303-label" font-size="166.67px" id="t303" style="font-size: 125px;" x="1958.0411" y="3395.2917">303</text><text class="section-label 303-label" fill="#000000" font-size="12px" id="303-label" text-anchor="middle" x="252.24" y="355.79">303</text></g><g class="interactive-section" data-section-id="304" id="304-group" data-rows="9" data-seats-per-row="36" data-total-seats="324" data-price-min="25.00" data-price-max="500.00" data-current-price="445.02" data-available="true" onclick="showSectionInfo(evt)" style="cursor:pointer;"><title>Section 304 | 9 rows × 36 seats | $445.02</title><path class="section-path" d="m 1887.89,3121.79 c -207.22,21.69 -416.72,23.55 -628.72,3.72 l -6.56,79.63 118.8,12.17 -40.59,414.42 c 159.3,11.09 319.27,11.1 480,-0.41 l -47.79,-419.46 135.26,-11.44 -10.39,-78.64 z" data-default-color="rgb(204, 204, 204)" data-id="1795709" id="304-section" style="transition-delay: 0s; transition-duration: 0s; fill:#e74c3c;" fill="#e74c3c" /><text class="section-label 304-label" font-size="166.67px" id="t304" style="font-size: 125px;" x="1471.594" y="3424.4487">304</text><text class="section-label 304-label" fill="#000000" font-size="12px" id="304-label" text-anchor="middle" x="134.04" y="245.32">304</text></g><g class="interactive-section" data-section-id="305" id="305-group" data-rows="15" data-seats-per-row="25" data-total-seats="375" data-price-min="25.00" data-price-max="500.00" data-current-price="435.86" data-available="true" onclick="showSectionInfo(evt)" style="cursor:pointer;"><title>Section 305 | 15 rows × 25 seats | $435.86</title><path class="section-path" d="m 1225.9,3122.22 c -100.42,-10.45 -201.41,-25.75 -302.98,-46.15 l -131.16,475.62 c 167.89,38.13 336.46,64.14 505.8,77.59 L 1335,3247.14 1216.61,3235 Z" data-default-color="rgb(204, 204, 204)" data-id="1795710" id="305-section" style="transition-delay: 0s; transition-duration: 0s; fill:#e74c3c;" fill="#e74c3c" /><text class="section-label 305-label" font-size="166.67px" id="t305" style="font-size: 125px;" x="958.90436" y="3396.7588">305</text><text class="section-label 305-label" fill="#000000" font-size="12px" id="305-label" text-anchor="middle" x="405.17" y="1017.75">305</text></g><g class="interactive-section" data-section-id="306" id="306-group" data-rows="15" data-seats-per-row="11" data-total-seats="165" data-price-min="25.00" data-price-max="500.00" data-current-price="250.10" data-available="true" onclick="showSectionInfo(evt)" style="cursor:pointer;"><title>Section 306 | 15 rows × 11 seats | $250.10</title><path class="section-path" d="M 890.17,3069.35 C 770.02,3043.96 649.05,3011.44 527.22,2971.52 L 324.47,3414 c 144.44,52.3 289.35,95.76 434.77,130.16 l 130.93,-474.8 z" data-default-color="rgb(204, 204, 204)" data-id="1795711" id="306-section" style="transition-delay: 0s; transition-duration: 0s; fill:#f39c12;" fill="#f39c12" /><text class="section-label 306-label" font-size="166.67px" id="t306" style="font-size: 125px;" x="503.10486" y="3301.9517">306</text><text class="section-label 306-label" fill="#000000" font-size="12px" id="306-label" text-anchor="middle" x="462.27" y="1701.52">306</text></g><g class="interactive-section" data-section-id="307" id="307-group" data-rows="8" data-seats-per-row="11" data-total-seats="88" data-price-min="25.00" data-price-max="500.00" data-current-price="369.38" data-available="true" onclick="showSectionInfo(evt)" style="cursor:pointer;"><title>Section 307 | 8 rows × 11 seats | $369.38</title><path class="section-path" d="m 495.4,2960.93 c -54.92,-18.56 -110.02,-38.61 -165.3,-60.22 l -221.22,428.62 c 61.32,25.98 122.72,50.35 184.2,73.16 z" data-default-color="rgb(204, 204, 204)" data-id="1795712" id="307-section" style="transition-delay: 0s; transition-duration: 0s; fill:#e74c3c;" fill="#e74c3c" /><text class="section-label 307-label" font-size="166.67px" id="t307" style="font-size: 125px;" transform="rotate(-59.794481,2167.0037,3667.9614)" x="1554" y="1862">307</text><text class="section-label 307-label" fill="#000000" font-size="12px" id="307-label" text-anchor="middle" x="39.02" y="427.71">307</text></g><g class="interactive-section" data-section-id="pit1" id="pit1-group" data-rows="8" data-seats-per-row="13" data-total-seats="104" data-price-min="25.00" data-price-max="500.00" data-current-price="162.91" data-available="true" onclick="showSectionInfo(evt)" style="cursor:pointer;"><title>Section pit1 | 8 rows × 13 seats | $162.91</title><path class="section-path" d="m 1577.3541,787.54251 v 386.09419 c 402.4645,-12.7759 792.6317,-112.9505 990.4481,-335.5649 0.1706,-0.19195 0.509,-0.31941 0.5113,-0.57613 l 0.6286,-50.74676 z" data-default-color="rgb(204, 204, 204)" data-id="1795725" id="pit1-section" style="transition-delay: 0s; transition-duration: 0s; fill:#f39c12;" fill="#f39c12" /><text class="section-label pit1-label" font-size="166.67px" id="tpit1" style="font-size: 138.889px;" x="1785.6405" y="1008.499">PIT 1</text><text class="section-label pit1-label" fill="#000000" font-size="12px" id="pit1-label" text-anchor="middle" x="161.15" y="371.86">PIT1</text></g><g class="interactive-section" data-section-id="pit2" id="pit2-group" data-rows="15" data-seats-per-row="30" data-total-seats="450" data-price-min="25.00" data-price-max="500.00" data-current-price="131.83" data-available="true" onclick="showSectionInfo(evt)" style="cursor:pointer;"><title>Section pit2 | 15 rows × 30 seats | $131.83</title><path class="section-path" d="m 1538.6297,787.47901 -985.79217,0.14329 0.36378,62.44062 c 0.006,1.07736 1.45705,1.56631 2.23732,2.29576 329.74499,308.26432 667.47357,321.26562 983.19107,321.32872 z" data-default-color="rgb(204, 204, 204)" data-id="1795726" id="pit2-section" style="transition-delay: 0s; transition-duration: 0s; fill:#3498db;" fill="#3498db" /><text class="section-label pit2-label" font-size="166.67px" id="tpit2" style="font-size: 138.889px;" x="991.32141" y="1016.7015">PIT 2</text><text class="section-label pit2-label" fill="#000000" font-size="12px" id="pit2-label" text-anchor="middle" x="281.92" y="200.65">PIT2</text></g></g><g id="seats" style="clip-rule: evenodd; display: none; fill-rule: evenodd; shape-rendering: geometricprecision; text-rendering: geometricprecision;"><text id="text11" style="font-size: 69.4444px; font-family: arial; text-align: center; text-anchor: middle; fill: rgb(0, 0, 0); stroke-width: 2;" x="1349.571" xml:space="preserve" y="1365.2079"><tspan id="tspan10" style="font-size: 69.4444px; fill: rgb(0, 0, 0); stroke-width: 2;" x="1349.571" y="1365.2079">5</tspan></text><text id="text12" style="font-size: 69.4444px; font-family: arial; text-align: center; text-anchor: middle; fill: rgb(0, 0, 0); stroke-width: 2;" x="1235.5861" xml:space="preserve" y="2357.7161"><tspan id="tspan11" style="font-size: 69.4444px; fill: rgb(0, 0, 0); stroke-width: 2;" x="1235.5861" y="2357.7161">36</tspan></text><path d="m 1341.5926,1405.0322 -99.8395,862.1553" id="path12" style="fill: none; stroke: rgb(0, 0, 0); stroke-width: 2;" /><text id="text13" style="font-size: 69.4444px; font-family: arial; text-align: center; text-anchor: middle; fill: rgb(0, 0, 0); stroke-width: 2;" x="1250.7705" xml:space="preserve" y="2551.2925"><tspan id="tspan12" style="font-size: 69.4444px; fill: rgb(0, 0, 0); stroke-width: 2;" x="1250.7705" y="2551.2925">1</tspan></text><text id="text14" style="font-size: 69.4444px; font-family: arial; text-align: center; text-anchor: middle; fill: rgb(0, 0, 0); stroke-width: 2;" x="1207.0907" xml:space="preserve" y="2931.4104"><tspan id="tspan13" style="font-size: 69.4444px; fill: rgb(0, 0, 0); stroke-width: 2;" x="1207.0907" y="2931.4104">11</tspan></text><path d="m 1247.9931,2585.4258 -30.1598,259.9985" id="path14" style="fill: none; stroke: rgb(0, 0, 0); stroke-width: 2;" /><text id="text15" style="font-size: 69.4444px; font-family: arial; text-align: center; text-anchor: middle; fill: rgb(0, 0, 0); stroke-width: 2;" x="1282.7057" xml:space="preserve" y="3191.0674"><tspan id="tspan14" style="font-size: 69.4444px; fill: rgb(0, 0, 0); stroke-width: 2;" x="1282.7057" y="3191.0674">1</tspan></text><text id="text16" style="font-size: 69.4444px; font-family: arial; text-align: center; text-anchor: middle; fill: rgb(0, 0, 0); stroke-width: 2;" x="1375.9774" xml:space="preserve" y="3621.9758"><tspan id="tspan15" style="font-size: 69.4444px; fill: rgb(0, 0, 0); stroke-width: 2;" x="1375.9774" y="3621.9758">12</tspan></text><path d="m 1325.1674,3169.5179 75.7448,10.2954 -19.12,369.1644" id="path16" style="fill: none; stroke: rgb(0, 0, 0); stroke-width: 2;" /></g></g><g id="info-panel"><rect x="10" y="10" width="320" height="140" rx="8" fill="#1a1a2e" fill-opacity="0.95" stroke="#444" /><text x="25" y="40" fill="#FFD700" font-family="Arial" font-size="18" font-weight="bold">Arizona Financial Theatre</text><text id="section-info" x="25" y="70" fill="white" font-family="monospace" font-size="13">Click a section to see details</text></g><script type="text/javascript">&lt;![CDATA[
function showSectionInfo(evt) {
    var g = evt.currentTarget;
    var id = g.getAttribute('data-section-id');
    var rows = g.getAttribute('data-rows');
    var spr = g.getAttribute('data-seats-per-row');
    var total = g.getAttribute('data-total-seats');
    var price = g.getAttribute('data-current-price');
    var avail = g.getAttribute('data-available');
    
    var info = document.getElementById('section-info');
    if (info) {
        while (info.firstChild) info.removeChild(info.firstChild);
        
        var lines = [
            'Section ' + id,
            'Rows: ' + rows + ' | Seats/Row: ' + spr,
            'Total Seats: ' + total,
            'Price: $' + price,
            'Available: ' + (avail === 'true' ? 'Yes' : 'No')
        ];
        
        lines.forEach(function(line, i) {
            var tspan = document.createElementNS('http://www.w3.org/2000/svg', 'tspan');
            tspan.setAttribute('x', '25');
            tspan.setAttribute('dy', i === 0 ? '0' : '18');
            tspan.textContent = line;
            info.appendChild(tspan);
        });
    }
}
]]&gt;</script></svg>