<?xml version="1.0" encoding="UTF-8"?>
<svg xmlns="http://www.w3.org/2000/svg" class="m h-full w-full p-2 lg:p-4 zoom-transition" data-zoom-enabled="false" height="2.7927055in" id="svg4" style="clip-rule: evenodd; fill-rule: evenodd; shape-rendering: geometricprecision; text-rendering: geometricprecision; transform-origin: 0px 0px 0px; transform: matrix(1, 0, 0, 1, 0, 0);" version="1.1" viewBox="0 0 4071.2502 2792.7056" width="4.0712504in" xml:space="preserve"><defs id="defs1"><style id="style1" type="text/css">
   
    .str0 {stroke:black;stroke-width:3;stroke-miterlimit:2.61313}
    .fil0 {fill:none}
    .fil3 {fill:black}
    .fil1 {fill:black}
    .fil2 {fill:gray}
    .fil4 {fill:#CCCCCC}
    .fnt4 {font-weight:normal;font-size:27.78px;font-family:'Arial'}
    .fnt2 {font-weight:normal;font-size:41.67px;font-family:'Arial'}
    .fnt1 {font-weight:normal;font-size:83.33px;font-family:'Arial'}
    .fnt3 {font-weight:normal;font-size:111.11px;font-family:'Arial'}
    .fnt0 {font-weight:normal;font-size:166.67px;font-family:'Arial'}
    .section-path{fill:#CCCCCC;stroke:black;stroke-width:1}
.section-label{fill:#black;font-family:'Arial'}
.static{fill:#999999; stroke:black;stroke-width:2}
.static1 {fill:#333333}
   
  </style></defs><g id="parent-group" transform="translate(591.46778,592.59428)"><g id="static-elements"><path class="fil0 str0" d="m 1907.9761,1789.2022 1.7307,406.7914 -928.35287,0.018 -0.41992,-401.8486 -1458.20058,-958.00572 24.82341,-51.99732 -133.66166,-88.12544 23.82477,-45.08726 C -270.55798,72.809015 105.97334,-335.06836 721.8857,-547.20113 l 97.24067,-33.48725 32.7728,89.92012 c 196.68343,-25.93241 394.87783,-39.26172 593.31823,-39.7888 202.2002,-0.5388 393.7237,7.2589 594.0498,34.15177 l 31.4492,-90.91572 109.4635,39.72164 c 567.7554,221.27085 954.6877,604.060745 1249.2835,1162.66893 l 44.8257,84.99782 -149.0352,83.2203 c 7.8359,13.0834 31.2008,43.49658 38.9782,56.62678 z" id="path1" style="clip-rule: evenodd; display: inline; fill: none; fill-rule: evenodd; stroke: rgb(0, 0, 0); stroke-width: 8.19905; stroke-miterlimit: 2.61313; stroke-dasharray: none; shape-rendering: geometricprecision; text-rendering: geometricprecision;" /><path d="m 2196.5409,-487.34281 -24.914,72.16911 -1.4151,-0.2144 c -222.1391,-34.16687 -442.1197,-50.09309 -660.1136,-49.50639 -218.0056,0.5752 -434.1044,17.67483 -648.49293,49.50639 l -1.39364,0.2144 -26.05035,-71.67598 -1308.43504,1135.5808 -0.83619,37.88557 5.03855,2.78728 119.68152,66.16574 C -245.30564,603.33048 -123.79346,467.38509 9.8982344,348.13368 l 0.085762,29.60949 42.4953016,51.26452 152.507102,-127.93616 0.23585,-17.45266 15.56589,18.97494 L 51.042777,444.9595 1.6435972,385.37603 -386.19571,830.91204 l 0.81474,39.8581 375.5323969,237.86216 C 23.599763,1049.6283 61.885459,995.16266 100.42052,942.53188 144.0997,882.90667 191.05967,827.36429 241.30681,775.89542 l 7.54709,-7.74007 46.63334,42.25946 -40.84437,-8.49049 C 206.8144,849.13916 161.74292,900.13541 119.4169,954.90312 L 8.0114602,1079.4945 l 0.7718622,37.564 h 0.021441 l 60.8913496,35.5057 C 136.65201,1040.6392 216.60157,940.16329 306.76501,851.64511 l 0.51457,-30.53143 11.7709,10.65598 c 85.79676,-86.1074 181.1786,-161.36662 283.65935,-225.19079 254.49672,-158.50205 552.83847,-246.74761 856.76707,-256.68706 303.9057,-9.93945 613.431,58.43699 890.3644,213.11973 236.5956,132.15789 458.4644,318.17335 623.536,581.21226 l 448.1089,-276.66975 0.536,-39.51506 -390.8839,-442.89881 -51.8219,61.68466 c -56.0917,-47.56903 -112.2256,-95.09996 -168.3517,-142.62298 l 15.7803,-19.91833 -0.1501,18.35316 151.3922,128.25777 44.8537,-53.36569 0.9434,-29.56661 c 192.2429,172.34958 306.9579,331.8238 354.928,406.364 l 129.0725,-72.212 -0.4288,-37.84269 z m -639.0375,254.19995 c 177.0527,2.38987 354.834,26.27376 529.6904,72.12623 l -466.2477,-47.76969 v 96.78294 h -219.6805 v -95.1749 l -450.87474,49.44206 c 170.52564,-45.06847 346.06944,-70.67756 523.06524,-74.95639 27.9899,-0.67658 56.0043,-0.82878 84.0473,-0.45025 z m -32.697,22.36256 c -16.9553,0.0145 -33.9005,0.21625 -50.8357,0.62178 -20.4961,0.49467 -40.9557,1.26714 -61.4059,2.33702 v 84.47603 h 197.0821 v -85.89111 c -22.6376,-0.84554 -45.2664,-1.34697 -67.881,-1.50084 -5.6536,-0.0385 -11.3077,-0.0477 -16.9595,-0.0429 z m 644.9552,73.15538 c 47.2902,14.40115 94.3676,30.15947 141.0578,47.919778 l -130.8306,-21.483498 -24.3995,34.819561 13.5934,-38.164301 z m -1302.81761,3.66635 0.0429,23.24162 11.06336,34.905327 -21.82655,-31.560587 -122.01855,18.09588 c 43.77235,-16.34935 88.09748,-31.05178 132.73886,-44.68224 z m 1286.99441,62.220664 -1.1578,36.834979 187.6483,66.8304 27.0795,-74.741988 0.3645,-23.949168 c 142.3554,58.7448009 281.3138,133.1499 414.5757,224.633333 18.9885,13.03564 37.3355,26.16734 55.3812,39.32209 l -68.1169,-20.64731 C 2643.5784,89.953895 2512.3649,18.502584 2377.9285,-38.419188 l -30.7244,84.776196 -208.853,-74.377498 z m -1274.32301,0.836184 14.02216,44.231991 -206.60177,74.09877 -27.7656,-82.782219 C 508.80432,27.66571 364.64444,107.0713 229.77175,201.88724 l -40.00819,1.41508 c 9.06191,-6.57097 17.91054,-13.48762 27.05806,-19.91833 C 358.72519,83.618658 510.87927,0.90985731 669.75464,-63.954962 l -0.0429,24.249337 24.31366,72.576486 185.56853,-66.530233 z M 2860.128,213.76534 c 48.7038,36.37929 93.8322,72.9336 135.5476,109.13274 l -126.4782,-74.05589 -20.2185,7.39701 11.2777,-14.23657 z m -2687.17388,1.90821 -0.5789,27.91569 10.16286,12.39267 -19.16791,-5.61744 -120.774996,68.97446 C 84.877356,283.04638 128.4182,248.59063 172.95412,215.67355 Z m 1347.54278,205.1867 -384.0015,3.34474 0.6432,39.10768 90.7796,384.81618 h 0.021 c 97.6496,-21.04994 194.9371,-32.40999 291.8068,-33.03999 97.3498,-0.63 194.2379,9.59074 290.6276,31.71067 l 87.3491,-384.85906 0.343,-39.15056 z m 404.7559,47.4052 -110.9337,446.56516 0.7289,38.93616 c 135.8396,32.35991 263.8371,86.87993 380.5067,159.83983 l 253.085,-385.41656 1.265,-38.07853 -155.423,-47.79113 c -74.5197,-36.97991 -153.206,-69.7909 -236.4257,-98.09082 l -1.0721,-0.36449 10.0771,-35.29126 c -46.44,-15.36994 -93.7282,-28.84839 -141.8082,-40.30836 z m -815.6868,1.45797 c -48.9499,11.86996 -97.0984,25.8135 -144.33823,41.72344 l 12.69285,36.06311 -1.17924,0.36449 c -70.72979,22.55993 -138.14835,49.74274 -202.67814,81.00265 l -173.47603,57.82534 -0.23585,40.17972 254.77885,385.11633 C 968.57986,1041.4187 1092.6608,988.21786 1224.2304,955.86795 l 0.536,-39.92243 z M 556.76259,712.23823 C 461.09288,776.06802 372.09024,849.09802 291.07048,930.11777 l -199.097567,200.53413 -0.879065,38.786 402.097312,272.5531 c 28.28994,-36.9498 58.28772,-72.3896 89.85763,-106.1096 74.50977,-79.5598 157.81828,-149.7114 248.21801,-208.6815 l 1.4794,-37.9284 z m 1967.64821,27.59407 -17.4312,26.15755 -0.9648,-0.6861 c -11.0701,-7.45997 -22.2416,-14.80099 -33.5117,-22.04095 l -253.471,346.4804 0.3002,39.0862 c 89.4298,58.6399 171.8997,128.2222 245.7095,207.052 30.6899,32.7699 59.8878,67.1494 87.4777,102.9793 l 395.9653,-271.4168 C 2889.365,1082.504 2822.8616,1003.0776 2749.9018,930.11777 2680.3421,860.54799 2604.9104,796.85213 2524.4108,739.8323 Z m -1126.2112,287.1756 -218.8873,7.1397 -0.3645,38.9148 207.0521,622.4639 v 0.022 c 49.375,-12.1211 149.464,-28.3687 262.1973,0.1286 l 214.6849,-623.9005 0.9219,-39.7294 -204.9294,-2.0798 -25.6215,215.7141 c -61.9511,-3.2509 -142.8522,-8.0374 -209.3033,-2.4014 z m -271.8885,62.6066 -548.27942,371.6517 -0.42881,37.9284 542.23323,367.4922 c 4.8893,-5.5601 10.3031,-11.4317 15.9518,-17.3884 l -0.8791,34.6481 h 780.7815 l -0.2573,-31.4105 c 4.3556,4.6792 8.6575,9.4006 12.8644,14.1936 l 540.1105,-370.1936 -0.343,-41.8736 -558.1207,-364.7048 -214.4919,575.3375 -1.0721,38.4001 c 58.5742,21.1183 136.0659,61.5814 211.0829,138.4849 l -380.2493,-139.364 -384.5803,141.4652 c 45.3544,-46.7785 113.22,-102.3517 203.2999,-136.9412 l 0.2358,-39.172 -185.933,-479.8624 z m 354.9065,44.039 v 87.1347 h 104.2872 v -87.1347 z m -343.5858,871.0465 0.1929,197.2966 h 770.3185 l 0.3645,-197.2966 z" id="path32" style="clip-rule: evenodd; fill: rgb(0, 0, 0); fill-rule: evenodd; stroke: none; stroke-width: 3.16155; stroke-miterlimit: 2.61313; shape-rendering: geometricprecision; text-rendering: geometricprecision;" transform="matrix(0.94890237,0,0,0.94890237,0.08073315,0.23837739)" /><g id="g1"><path class="fil2 str0" d="m 1079.5906,1865.5064 0.1678,187.2068 h 730.9629 l 0.34,-187.2068 z" id="polygon3" style="fill: rgb(102, 102, 102); stroke: none;" /><text class="fil3 fnt0" id="text3" style="font-size: 125px; stroke-width: 0.75884;" x="1238.9646" y="2000.4209">STAGE</text></g><g id="g2"><path d="m 2040.0247,1654.8135 h 98.9583 v 82.6823 h -98.9583 z" id="rect36-0" style="clip-rule: evenodd; fill: rgb(102, 102, 102); fill-rule: evenodd; stroke: rgb(102, 102, 102); stroke-width: 2; shape-rendering: geometricprecision; text-rendering: geometricprecision;" transform="translate(-634.407,-615.8482)" /><text id="text36" style="font-style: normal; font-variant: normal; font-weight: normal; font-stretch: normal; font-size: 41.6667px; font-family: Arial; text-align: center; text-anchor: middle; clip-rule: evenodd; fill: rgb(0, 0, 0); fill-rule: evenodd; stroke: none; stroke-width: 2; shape-rendering: geometricprecision; text-rendering: geometricprecision;" transform="translate(-634.407,-615.8482)" x="2088.0898" xml:space="preserve" y="1711.0675"><tspan id="tspan36" style="font-style: normal; font-variant: normal; font-weight: normal; font-stretch: normal; font-size: 41.6667px; font-family: Arial; stroke: none; stroke-width: 2;" x="2088.0898" y="1711.0675">MIX</tspan></text></g></g><g id="sections" transform="matrix(0.94890236,0,0,0.94890236,0.08072968,0.23837471)"><g class="interactive-section" data-section-id="ga-lawn" id="ga-lawn-group" style="cursor:pointer;" transform="matrix(1.1482459,0,0,1.1504019,-616.66492,-644.56213)" data-rows="11" data-seats-per-row="33" data-total-seats="363" data-price-min="25.00" data-price-max="500.00" data-current-price="191.33" data-available="true" onclick="showSectionInfo(evt)"><title>Section ga-lawn | 11 rows × 33 seats | $191.33</title><path class="section-path" d="m 3479.54,1182.11 112.41,-62.77 C 3296.62,586.7 2888.49,255.56 2450.01,102.76 l -21.71,62.75 -1.22,-0.19 c -193.46,-29.7 -385.04,-43.54 -574.89,-43.03 -189.86,0.5 -378.07,15.36 -564.78,43.03 l -1.2,0.18 -22.7,-62.3 C 796.27,264.13 380.29,613.9 123.28,1123.25 l 4.38,2.42 104.23,57.51 C 368.7,985.35 536.91,818.4 725.87,685.81 c 322.06,-226 704.43,-352.28 1094.41,-361.69 390.02,-9.41 787.59,98.05 1139.98,339.51 298.312,204.40846 462.27,430.0588 519.28,518.48 z m -302.69,-320.93 -45.13,53.62 c -48.85,-41.35 -97.74,-82.66 -146.62,-123.97 l 42.92,-54.08 c -26.01,-19.74 -52.3,-38.7 -78.85,-56.89 C 2839.32,604.59 2725.05,542.48 2607.97,493 l -26.76,73.7 -181.89,-64.66 26.86,-75.2 C 2269.19,378.62 2108.81,351.7 1948.73,344.9 v 84.13 h -191.32 v -82.72 c -158.05,9 -314.35,37.35 -465.31,83.85 l 23.21,73.06 -179.93,64.4 -24.18,-71.96 c -131.04,54.78 -256.58,123.8 -374.04,206.22 -16.83,11.81 -33.5,23.9 -49.99,36.26 l 42.16,51.29 -147.82,123.76 -43.03,-51.81 c -158.21,144.76 -219.60512,244.8453 -337.06465,421.9426 l 327.04918,206.7584 c 29.13,-51.29 62.48547,-98.621 96.04547,-144.371 38.04,-51.83 78.94,-100.12 122.7,-144.86 l 6.57,-6.72 61.12,55.29 c 74.72,-74.85 157.79,-140.26 247.04,-195.74 221.64,-137.78 481.46,-214.49 746.15,-223.13 264.67,-8.64 534.25,50.79 775.43,185.25 206.05,114.88 399.2719,276.573 543.0319,505.223 l 390.2435,-240.5049 C 3388.2318,1091.6244 3354.3837,1030.1437 3176.85,861.16 Z" data-default-color="rgb(153, 153, 153)" data-id="3006879" id="ga-lawn-section" style="fill:#f39c12; stroke: rgb(102, 102, 102); stroke-width: 2; stroke-dasharray: none; transition-delay: 0s; transition-duration: 0s;" fill="#f39c12" /><text class="section-label ga-lawn-label" font-size="83.33px" id="tga-lawn" style="font-family: Arial;" x="1670.51" y="672.79999">GA LAWN</text><text class="section-label ga-lawn-label" font-size="83.33px" id="text15" style="font-family: Arial;" x="1670.51" y="255.73915">GA LAWN</text><text class="section-label ga-lawn-label" fill="#000000" font-size="12px" id="ga-lawn-label" text-anchor="middle" x="382.61" y="233.1">GA-LAWN</text></g><g class="interactive-section" data-section-id="low-ada" id="low-ada-group" style="cursor:pointer;" transform="matrix(1.1478645,0.02959362,-0.02964917,1.1500197,-575.38429,-664.00021)" data-rows="8" data-seats-per-row="37" data-total-seats="296" data-price-min="25.00" data-price-max="500.00" data-current-price="412.97" data-available="true" onclick="showSectionInfo(evt)"><title>Section low-ada | 8 rows × 37 seats | $412.97</title><path class="section-path" d="m 547.69,1500.71 53.81,29.49 c 55.78,-98.76 123.14,-187.85 199.65,-266.79 l -46.49,-42.05 c -40.58,42.1 -78.69,87.43 -114.31,135.97 -33.04,45.03 -63.93,92.82 -92.67,143.39 z" data-default-color="rgb(153, 153, 153)" data-id="3006893" id="low-ada-section" style="fill:#e74c3c; stroke: rgb(102, 102, 102); stroke-width: 2; stroke-dasharray: none; transition-delay: 0s; transition-duration: 0s;" fill="#e74c3c" /><text class="section-label low-ada-label" font-size="55.56px" id="tlow-ada" style="font-family: Arial;" transform="matrix(0.598269,-0.801296,0.801296,0.598269,-1410.8,2207.73)" x="1859.5" y="1185.5">ADA</text><text class="section-label low-ada-label" fill="#000000" font-size="12px" id="low-ada-label" text-anchor="middle" x="42.53" y="123.46">LOW-ADA</text></g><g class="interactive-section" data-section-id="upp-ada" id="upp-ada-group" style="cursor:pointer;" transform="matrix(1.1482459,0,0,1.1504019,-616.66492,-644.56213)" data-rows="9" data-seats-per-row="26" data-total-seats="234" data-price-min="25.00" data-price-max="500.00" data-current-price="98.63" data-available="true" onclick="showSectionInfo(evt)"><title>Section upp-ada | 9 rows × 26 seats | $98.63</title><path class="section-path" d="m 3169.62,854.56 c -43.65,-39.7 -88.28,-76.98 -133.8,-111.86 l -37.11,46.77 131.85,111.48 z M 2598.9,489.18 c -53.91,-22.46 -108.4,-42.26 -163.31,-59.44 l -23.69,66.32 163.41,58.09 23.59,-64.98 z M 1938.88,344.51 c -39.43,-1.47 -78.83,-1.74 -118.16,-0.8 -17.85,0.43 -35.67,1.11 -53.48,2.04 v 73.43 h 171.64 z m -656.15,88.55 c -54.93,17.22 -109.13,36.84 -162.44,58.82 l 21.19,63.09 161.61,-57.84 z m -603.4,310.97 c -45.95,34.8 -90.54,71.73 -133.59,110.73 l 37.01,44.56 132.82,-111.21 z" data-default-color="rgb(153, 153, 153)" data-id="3006886" id="upp-ada-section" style="fill:#3498db; stroke: rgb(102, 102, 102); stroke-width: 2; stroke-dasharray: none; transition-delay: 0s; transition-duration: 0s;" fill="#3498db" /><text class="section-label upp-ada-label" font-size="55.56px" id="tupp-ada" style="font-family: Arial;" x="1795.9399" y="401.06">ADA</text><text class="section-label upp-ada-label" font-size="55.56px" id="tupp-ada1" style="font-family: Arial;" transform="rotate(-19.341692,-406.38059,2898.1672)" x="1859.5" y="1185.5">ADA</text><text class="section-label upp-ada-label" font-size="55.56px" id="tupp-ada2" style="font-family: Arial;" transform="rotate(-40.165088,802.3021,2760.7345)" x="1859.5" y="1185.5">ADA</text><text class="section-label upp-ada-label" font-size="55.56px" id="tupp-ada3" style="font-family: Arial;" transform="rotate(19.123415,4217.9235,2563.5337)" x="1859.5" y="1185.5">ADA</text><text class="section-label upp-ada-label" font-size="55.56px" id="tupp-ada4" style="font-family: Arial;" transform="rotate(39.470506,2980.8851,2628.6221)" x="1859.5" y="1185.5">ADA</text><text class="section-label upp-ada-label" fill="#000000" font-size="12px" id="upp-ada-label" text-anchor="middle" x="169.72" y="72.51">UPP-ADA</text></g><g class="interactive-section" data-section-id="ga-pit" id="ga-pit-group" style="cursor:pointer;" transform="matrix(1.0538492,0,0,1.0538492,-668.65439,-649.26235)" data-rows="19" data-seats-per-row="12" data-total-seats="228" data-price-min="25.00" data-price-max="500.00" data-current-price="344.60" data-available="true" onclick="showSectionInfo(evt)"><title>Section ga-pit | 19 rows × 12 seats | $344.60</title><path class="section-path" d="m 2452.2932,2366.7651 h -740.89 c 1.65,-1.81 3.3199,-3.62 5,-5.42 207.7199,-221.76 522.94,-222.1 730.89,0 z" data-default-color="rgb(153, 153, 153)" data-id="3006891" id="ga-pit-section" style="clip-rule: evenodd; fill:#e74c3c; fill-rule: evenodd; stroke: rgb(102, 102, 102); stroke-width: 2; stroke-dasharray: none; shape-rendering: geometricprecision; text-rendering: geometricprecision; transition-delay: 0s; transition-duration: 0s;" fill="#e74c3c" /><text class="section-label ga-pit-label" font-size="109.79px" id="tga-pit" style="font-style: normal; font-variant: normal; font-weight: normal; font-stretch: normal; font-size: 69.4444px; font-family: Arial; clip-rule: evenodd; fill-rule: evenodd; shape-rendering: geometricprecision; text-rendering: geometricprecision;" x="1968.7898" y="2314.4531">GA PIT</text><text class="section-label ga-pit-label" fill="#000000" font-size="12px" id="ga-pit-label" text-anchor="middle" x="157.09" y="548.33">GA-PIT</text></g><g class="interactive-section" data-section-id="ga-pavilion" id="ga-pavilion-group" style="cursor:pointer;" transform="matrix(1.0538492,0,0,1.0538492,-668.65439,-649.26235)" data-rows="20" data-seats-per-row="30" data-total-seats="600" data-price-min="25.00" data-price-max="500.00" data-current-price="259.48" data-available="true" onclick="showSectionInfo(evt)"><title>Section ga-pavilion | 20 rows × 30 seats | $259.48</title><path class="section-path" d="m 1442.8838,362.58603 c -124.9988,0 -246.732,13.9417 -363.7695,40.2832 l 86.1409,365.15299 h 0.02 c 92.6602,-19.97437 184.976,-30.75392 276.8961,-31.35173 92.3756,-0.59781 184.3126,9.10063 275.7772,30.09033 l 82.8858,-365.19367 c -115.2535,-25.49699 -235.0302,-38.98112 -357.9509,-38.98112 z m 384.0739,44.98291 -104.5736,460.69335 c 128.8988,30.70645 250.3554,82.44047 361.0637,151.67231 l 240.153,-365.7226 c -46.8283,-29.09331 -95.5526,-56.30758 -146.281,-81.48193 -70.7121,-35.09038 -145.3773,-66.2247 -224.3449,-93.07862 l -1.0172,-0.34586 9.5622,-33.48796 c -44.0671,-14.58461 -88.939,-27.37428 -134.5622,-38.24869 z m -774.0071,1.38346 c -46.4487,11.26346 -92.13683,24.49446 -136.96294,39.59147 l 12.04427,34.22038 -1.11897,0.34586 c -67.1158,21.40721 -131.08917,47.20095 -192.32178,76.86361 -57.2662,27.74587 -112.12413,58.88422 -164.83561,92.99723 L 811.51582,1018.4088 C 919.16868,951.43533 1036.9089,900.95307 1161.7559,870.2561 Z M 528.39408,639.07528 C 437.61268,699.64366 353.1582,768.9417 276.2782,845.82169 206.49599,915.59442 142.95107,991.59228 86.519906,1072.9132 L 468.071,1331.5395 c 26.84443,-35.0619 55.3093,-68.6907 85.26612,-100.6877 70.70265,-75.4946 149.75397,-142.0616 235.53466,-198.0184 z m 1867.10612,26.18408 -16.5406,24.82096 -0.9155,-0.65104 c -10.5044,-7.0788 -21.1051,-14.04467 -31.7993,-20.91471 l -240.2344,365.86503 c 84.8603,55.6436 163.1159,121.6703 233.1543,196.4722 29.1218,31.0955 56.8277,63.7182 83.0078,97.7173 l 375.7324,-257.548 C 2741.8059,990.42135 2678.701,915.05355 2609.4691,845.82169 2543.4635,779.80662 2471.8867,719.36573 2395.5002,665.25936 Z M 1326.8356,937.76098 c -72.106,10.42561 -140.8606,25.89815 -208.0485,43.70117 l 196.4722,590.65755 v 0.02 c 46.8523,-11.5018 141.8265,-26.9192 248.7996,0.1221 l 203.715,-592.02065 c -60.7845,-17.38179 -121.93,-34.36742 -193.5831,-39.67285 l -24.3124,204.6916 c -58.7856,-3.0848 -135.5526,-7.6267 -198.6084,-2.2787 z M 1068.84,997.16853 C 867.35948,1086.9856 680.77616,1206.2836 548.16947,1385.8201 l 514.52633,348.7141 c 41.8415,-47.5815 113.0396,-112.9567 212.6465,-151.2044 l -176.2085,-492.513 z m 743.5913,0.32553 -204.5491,582.37714 c 57.8058,20.8412 135.0392,61.4294 208.8419,140.2384 4.4503,4.7635 8.8335,9.5785 13.1226,14.4653 l 512.5122,-351.2776 C 2169.8883,1161.398 1949.3793,1049.4577 1812.4313,997.49406 Z" data-default-color="rgb(153, 153, 153)" data-id="3006880" id="ga-pavilion-section" style="clip-rule: evenodd; fill:#f39c12; fill-rule: evenodd; stroke: rgb(102, 102, 102); stroke-width: 2; stroke-dasharray: none; shape-rendering: geometricprecision; text-rendering: geometricprecision; transition-delay: 0s; transition-duration: 0s;" transform="translate(634.407,615.8482)" fill="#f39c12" /><text class="section-label ga-pavilion-label" id="tga-pavilion" style="font-style: normal; font-variant: normal; font-weight: normal; font-stretch: normal; font-size: 69.4444px; font-family: Arial; text-align: center; text-anchor: middle; fill: rgb(0, 0, 0); stroke: none; stroke-width: 2;" x="2075.261" xml:space="preserve" y="1906.7279"><tspan id="tspan2" x="2075.261" y="1906.7279">GA</tspan><tspan id="tspan3" x="2075.261" y="1993.5334">PAVILION</tspan></text><text class="section-label ga-pavilion-label" id="tga-pavilion1" style="font-style: normal; font-variant: normal; font-weight: normal; font-stretch: normal; font-size: 69.4444px; font-family: Arial; text-align: center; text-anchor: middle; clip-rule: evenodd; fill: rgb(0, 0, 0); fill-rule: evenodd; stroke: none; stroke-width: 2; shape-rendering: geometricprecision; text-rendering: geometricprecision;" x="2068.3811" xml:space="preserve" y="1195.8947">GA PAVILION</text><text class="section-label ga-pavilion-label" fill="#000000" font-size="12px" id="ga-pavilion-label" text-anchor="middle" x="244.75" y="277.68">GA-PAVILION</text></g></g></g><g id="info-panel"><rect x="10" y="10" width="320" height="140" rx="8" fill="#1a1a2e" fill-opacity="0.95" stroke="#444" /><text x="25" y="40" fill="#FFD700" font-family="Arial" font-size="18" font-weight="bold">Fiddlers Green Amphitheatre</text><text id="section-info" x="25" y="70" fill="white" font-family="monospace" font-size="13">Click a section to see details</text></g><script type="text/javascript">&lt;![CDATA[
function showSectionInfo(evt) {
    var g = evt.currentTarget;
    var id = g.getAttribute('data-section-id');
    var rows = g.getAttribute('data-rows');
    var spr = g.getAttribute('data-seats-per-row');
    var total = g.getAttribute('data-total-seats');
    var price = g.getAttribute('data-current-price');
    var avail = g.getAttribute('data-available');
    
    var info = document.getElementById('section-info');
    if (info) {
        while (info.firstChild) info.removeChild(info.firstChild);
        
        var lines = [
            'Section ' + id,
            'Rows: ' + rows + ' | Seats/Row: ' + spr,
            'Total Seats: ' + total,
            'Price: $' + price,
            'Available: ' + (avail === 'true' ? 'Yes' : 'No')
        ];
        
        lines.forEach(function(line, i) {
            var tspan = document.createElementNS('http://www.w3.org/2000/svg', 'tspan');
            tspan.setAttribute('x', '25');
            tspan.setAttribute('dy', i === 0 ? '0' : '18');
            tspan.textContent = line;
            info.appendChild(tspan);
        });
    }
}
]]&gt;</script></svg>