<?xml version="1.0" encoding="UTF-8"?>
<svg xmlns="http://www.w3.org/2000/svg" class="m h-full w-full p-2 lg:p-4 zoom-transition" data-zoom-enabled="false" height="2.3889999in" id="svg3" style="clip-rule: evenodd; fill-rule: evenodd; shape-rendering: geometricprecision; text-rendering: geometricprecision; transform-origin: 0px 0px 0px; transform: matrix(1, 0, 0, 1, 0, 0);" version="1.1" viewBox="0 0 3179 2389" width="3.1789999in" xml:space="preserve"><defs id="defs1"><style id="style1" type="text/css">
   
    .str0 {stroke:black;stroke-width:3;stroke-miterlimit:2.61313}
    .str1 {stroke:#666666;stroke-width:3;stroke-miterlimit:2.61313}
    .fil0 {fill:none}
    .fil3 {fill:black}
    .fil1 {fill:black}
    .fil2 {fill:#666666}
    .fil4 {fill:#CCCCCC}
    .fnt2 {font-weight:normal;font-size:41.67px;font-family:'Arial'}
    .fnt3 {font-weight:normal;font-size:41.67px;font-family:'Arial'}
    .fnt1 {font-weight:normal;font-size:83.33px;font-family:'Arial'}
    .fnt0 {font-weight:normal;font-size:111.11px;font-family:'Arial'}
    .section-path{fill:#CCCCCC;stroke:#666666;stroke-width:2}
    .section-label{fill:#black;font-family:'Arial'}
    .static{fill:#999999; stroke:#848688;stroke-width:2}
   
  </style></defs><g id="parent-group"><g id="static-elements" style="display: inline;"><path class="fil0 str0" d="M 1985.98,2156.2981 V 2386.12 H 1190.82 V 2154.9638 C 796.34249,1891.2063 400.18166,1629.9448 4.66,1367.75 V 505.48 c 939.18,-657.81 2232.84,-670.99 3168.68,0.28 v 862.15 c -389.9001,271.0501 -802.5874,510.0153 -1187.36,788.3881 z" id="path1" style="fill: rgb(255, 255, 255); stroke-width: 7; stroke-dasharray: none;" /><path d="m 1230.5894,2157.3645 h 717.97 v 212.82 h -717.97 z" id="path21" /><path d="m 43.25,554.96 c 95.39,-66.82 194.77,-126.47 297.2,-179.2 v 72.11 c -60.91,31.94 -120.02,67.38 -177.8,104.57 -40.46,26.04 -80.2,52.91 -119.41,80.03 v -77.5 z" id="path20" /><path d="M 361.29,365.04 C 1129.4,-21.65 2066.47,-16.82 2812.57,360.07 v 100.42 l 5.61,2.92 c 62.48,32.49 122.9,68.61 181.79,106.52 45.67,29.4 90.53,59.93 134.77,90.7 v 666.93 C 2691.62,931.34 2142.68,724.09 1588.03,722.92 1047.45,721.78 501.62,916.39 43.25,1322.46 v -664.7 c 42.9,-29.8 86.39,-59.35 130.63,-87.83 58.89,-37.91 119.31,-74.03 181.79,-106.52 l 5.61,-2.92 v -95.45 z" id="path19" /><path d="m 2833.4,370.59 c 104.64,54.09 205.43,115.56 301.34,184.37 v 80.37 c -40.55,-28.09 -81.66,-55.93 -123.54,-82.89 -57.78,-37.19 -116.89,-72.63 -177.8,-104.57 z" id="path18" /><path d="m 3124.7,1353.77 -449.37,296.92 c -94.93,-75.53 -196,-140.72 -301.51,-195.06 v -29.37 l 250.58,-420.41 500.3,318.54 v 29.37 z" id="path17" /><path d="m 2391.46,1381.3 c -116.91,-53.33 -233.15,-95.07 -348.73,-125.43 v -29.37 l 100.07,-405.8 463.12,146.28 v 29.37 l -214.46,384.94 z" id="path16" /><path d="m 1588.0127,749.12518 -539.4083,38.61491 v 27.05892 l 91.6544,435.03829 c 0.4206,-0.1063 0.8409,-0.1992 1.2614,-0.3052 l -0.3865,12.4919 16.2963,68.3593 c 17.3505,-5.5921 34.9297,-10.6982 52.6937,-15.3808 l 0.041,-28.0355 -16.1336,-41.5446 -19.1447,-3.8045 c 8.719,-2.0281 17.4373,-4.0843 26.1637,-5.9815 l -0.2441,7.9956 16.0929,69.6208 c 14.6902,-3.7711 29.5086,-7.2681 44.454,-10.4777 l 1.5869,-26.0824 5.2897,24.6379 c 16.5659,-3.4582 33.2829,-6.6013 50.1302,-9.4401 l 1.0376,-26.5096 5.8797,25.3499 c 16.1183,-2.6338 32.3595,-4.9892 48.7061,-7.1207 l -0.8749,-26.8962 -11.2508,-42.0125 -14.0177,-4.7201 c 7.1712,-0.9495 14.3488,-1.8041 21.5251,-2.6652 l -0.5697,6.4697 12.146,68.9087 c 17.8457,-2.2496 35.8114,-4.2123 53.894,-5.9407 l 0.8952,-27.9948 -11.027,-41.9922 -13.1429,-4.13 c 53.4402,-5.1124 107.02,-7.7938 160.7463,-7.9753 57.6097,-0.1972 115.3809,2.5349 173.3195,8.0566 l -11.9222,4.0487 -11.0881,41.9718 0.9562,28.0152 c 18.0826,1.7284 36.0484,3.6911 53.8941,5.9407 l 12.146,-68.9087 -0.2238,-6.3273 c 6.7102,0.8059 13.4269,1.7009 20.1416,2.5839 l -12.9802,4.659 -11.556,42.338 -0.5696,26.5707 c 16.3466,2.1315 32.5877,4.4869 48.706,7.1207 l 15.8895,-68.5831 -0.2848,-6.6122 c 6.452,0.9914 12.9124,2.1317 19.3685,3.1942 l -12.146,4.5166 -14.6078,40.9749 -1.302,27.6693 c 16.8473,2.8388 33.5643,5.9819 50.1302,9.4401 l 14.9129,-69.458 -0.3255,-6.8359 c 6.6061,1.2237 13.226,2.5876 19.8364,3.8859 l -12.6343,4.3335 -15.0553,41.9718 0.1424,27.5472 c 14.9454,3.2096 29.7637,6.7066 44.4539,10.4777 l 16.093,-69.6208 -0.2238,-8.0363 c 9.1773,1.9715 18.3617,4.1104 27.5472,6.2256 l -20.5485,3.6011 -16.2964,41.9515 0.2034,27.6286 c 17.764,4.6826 35.3432,9.7887 52.6937,15.3808 l 16.2964,-68.3593 -0.4476,-12.6954 c 1.9214,0.4769 3.836,0.8801 5.7577,1.3632 L 2122.64,815.55178 V 788.5539 Z m -278.0354,466.28822 -0.5901,6.7343 9.5419,41.219 -16.4795,-40.1204 -12.8377,-4.5166 c 6.7885,-1.1274 13.5722,-2.2682 20.3654,-3.3163 z m -56.132,9.5419 -0.529,6.9173 8.4025,39.0828 -15.2791,-37.6993 -12.7361,-4.3335 c 6.7138,-1.3324 13.4235,-2.7125 20.1417,-3.9673 z m 838.9485,34.9731 -52.4292,12.8581 -14.3636,33.4676 0.041,26.4282 c 17.5838,5.0635 34.4559,10.0765 50.6999,15.0554 l 6.3273,-22.5423 0.3662,24.6378 c 17.8012,5.5029 34.6598,10.9454 51.0661,16.3574 l 7.548,-25.0244 -0.8952,27.242 c 15.0408,5.0039 29.5987,9.9759 43.6605,14.913 l 7.2022,-22.1355 -0.59,24.4548 c 16.7809,5.9383 33.0916,11.8414 48.7874,17.7002 l 8.2194,-21.5047 -1.6276,23.9461 c 16.779,6.3027 32.9505,12.5452 48.9095,18.7785 l 8.4839,-17.8019 -1.9531,20.3654 c 17.7402,6.9556 35.2536,13.8925 52.5716,20.7926 l 27.9948,-54.0365 -0.1628,-26.7334 -53.5278,3.4791 -18.5954,22.8271 12.1663,-25.5737 -0.4882,-26.7741 -52.4292,4.5776 -18.4327,28.5441 11.9222,-31.1686 -0.4882,-27.242 -51.1475,7.7311 -18.3309,33.7118 11.7391,-36.0718 -1.18,-26.1434 -44.0064,11.3729 -17.395,33.4269 10.7015,-35.4818 -0.59,-26.8961 -52.063,11.5559 -15.5843,29.5614 8.8298,-31.4331 z m -1047.8922,8.0363 -0.041,26.8148 9.5215,34.5052 -16.2354,-32.5114 -85.14404,0.2442 -0.93588,28.3813 10.27426,24.5565 -16.8864,-22.1761 -163.37077,38.859 -0.61035,27.242 27.99479,54.0365 c 62.14969,-25.9409 113.41623,-45.5284 160.31902,-62.0524 l -0.46794,-19.2464 7.08008,16.9067 c 27.20643,-9.4964 53.09783,-18.0106 78.51153,-25.9399 l -0.3052,-27.4658 6.9987,25.3499 c 25.3376,-7.837 50.4976,-15.2586 76.6399,-22.7865 l -0.9766,-26.8147 -13.3464,-33.0811 z m 535.9293,39.2456 c -13.454,-0.015 -26.8137,0.2173 -40.1408,0.5697 l 1.4039,80.5054 c 16.0318,-0.4257 32.3099,-0.6265 48.8281,-0.6307 l 0.4883,-80.3427 c -3.5222,-0.029 -7.066,-0.098 -10.5795,-0.1017 z m 17.5782,0.1831 -0.4883,80.2409 c 15.8889,0.056 32.0646,0.3553 48.4416,0.8342 l 7.7921,-79.3457 c -18.6986,-0.9136 -37.2812,-1.493 -55.7454,-1.7294 z m -64.7177,0.59 c -18.8925,0.5922 -37.6611,1.5489 -56.2947,2.889 l 5.2287,79.9764 c 17.2229,-1.0085 34.7053,-1.8005 52.4699,-2.3396 z m 127.4821,1.4649 -3.601,36.6211 c 15.4741,0.5867 30.8954,1.382 46.2443,2.4007 l 4.1911,-35.7666 c -15.6831,-1.2836 -31.3092,-2.4279 -46.8344,-3.2552 z m -190.7552,1.8921 c -18.1605,1.3999 -36.1866,3.148 -54.0975,5.2693 l 5.8594,78.7354 c 17.562,-1.5857 35.375,-2.9629 53.4668,-4.0894 z m 247.579,2.2176 -4.1708,35.6038 c 14.1065,1.0246 28.1577,2.2422 42.155,3.6418 l 4.9438,-34.9732 c -14.3701,-1.6039 -28.6803,-3.0211 -42.928,-4.2724 z m -308.6141,3.9266 c -16.129,1.9984 -32.1722,4.2642 -48.0957,6.8563 l 3.8655,35.2172 c 15.7071,-1.9741 31.3641,-3.7733 46.9564,-5.3507 z m 358.4798,1.1393 -4.9235,34.8918 c 14.4933,1.5145 28.9337,3.2237 43.3146,5.1269 l 6.0018,-34.3017 c -14.871,-2.1174 -29.665,-4.0139 -44.3929,-5.717 z m -110.9823,34.4238 -3.4993,35.6039 c 14.9232,0.4917 30.1379,1.2483 45.4915,2.1159 l 4.1301,-35.3394 c -15.3128,-1.0127 -30.6828,-1.7994 -46.1223,-2.3804 z m 56.1117,3.0721 -4.13,35.2377 c 13.5776,0.8364 27.326,1.8219 41.2394,2.95 l 4.9031,-34.5663 c -13.9473,-1.3916 -27.9552,-2.6034 -42.0125,-3.6214 z m 48.9705,4.3335 -4.8624,34.4442 c 13.8431,1.1707 27.8518,2.4745 42.0939,3.9876 l 5.839,-33.3455 c -14.3014,-1.8893 -28.6561,-3.583 -43.0705,-5.0863 z m -349.3245,0.7528 c -15.5185,1.5714 -31.098,3.3441 -46.7326,5.3101 l 3.7638,34.2203 c 15.0033,-1.7479 30.1956,-3.3194 45.5526,-4.7607 z m -64.3921,7.8532 c -28.8207,2.765 -58.4039,6.1381 -92.1427,12.8377 l 1.9734,29.2765 c 31.5881,-6.3171 62.2301,-11.4968 92.3259,-16.0115 z m 475.4435,10.8846 -7.9142,85.0016 179.1992,40.8529 5.2694,-91.5934 z m -574.5239,3.3976 c -24.8178,5.1804 -51.9018,12.1521 -82.6213,22.054 l 1.648,26.4079 c 28.4417,-7.3824 56.0486,-13.7307 82.9468,-19.226 z m 101.8066,18.8192 c -30.1399,4.5261 -60.8194,9.7137 -92.4275,16.0522 l 1.9531,29.0731 c 31.0364,-6.2809 61.9679,-11.6911 92.8345,-16.6016 z m -99.3449,17.4764 c -26.9146,5.514 -54.5265,11.8813 -82.9874,19.2871 l 1.831,29.1748 c 27.8005,-7.3005 55.4982,-13.7311 83.1096,-19.4295 z m 102.2746,18.0257 c -30.9101,4.9247 -61.8735,10.3645 -92.9158,16.6626 l 2.1972,32.6335 c 33.0472,-7.351 64.4283,-13.0167 93.4449,-16.3371 z m -99.8535,18.0664 c -27.6276,5.7172 -55.3346,12.1465 -83.1299,19.4702 l 2.1566,34.5459 c 28.6504,-7.99 56.4292,-15.1186 83.1909,-21.2199 z" id="path175" /><path d="m 1120.12,1255.04 c -115.05,30.43 -229.43,72.25 -343.18,125.25 l -210.59,-384.58 0.2,-29.54 461.68,-146.1 91.88,405.59 v 29.37 z" id="path14" /><path d="m 793.71,1454.22 c -101.52,53.5 -200.14,118.39 -294.55,195.11 L 49.98,1351.6 v -29.37 l 498.12,-317.19 245.61,419.8 v 29.37 z" id="path13" /><path d="m 2640.31,1673.83 -521.38,344.5 c -66.98,-36.69 -138.76,-66.61 -213.74,-88.93 v -29.37 l 104.21,-308.73 0.45,-2.2 18.5,-218.49 611.96,273.85 z" id="path12" /><path d="m 1885.22,1923.65 c -40.04,-11.12 -80.94,-20.07 -122.46,-26.75 v -29.37 l 49.74,-384.96 c 31.15,4.99 61.75,10.89 91.8,17.63 l 90.21,-6.26 v 29.37 l -5.34,63.06 -103.96,337.29 z" id="path11" /><path d="m 1742.18,1893.78 c -51.74,-7.33 -104.37,-11.13 -157.44,-11.13 -50.83,0 -102.07,3.48 -153.32,10.64 l -60.54,-478.85 v -29.37 l 215.09,15.41 213.78,-15.61 v 29.37 z" id="path10" /><path d="m 1410.88,1896.36 c -42.18,6.7 -84.32,15.93 -126.22,27.78 l -104.11,-337.78 -5.21,-61.58 v -29.37 l 91.07,4.55 c 30.46,-6.81 61.24,-12.21 92.3,-16.3 l 52.17,383.33 z" id="path9" /><path d="m 1264.73,1930 c -70.93,21.53 -141.04,50.69 -209.24,88.07 L 533.74,1672.24 v -29.37 l 607.36,-275.7 18.79,221.93 0.45,2.2 104.4,309.34 v 29.37 z" id="path8" /><path d="m 1955.1341,2114.62 c -251.4151,-0.1872 -502.8216,-0.3638 -754.2365,0 l -129.3548,-85.7726 2.602,-27.0715 216.6448,-57.7559 v -21.6 l 5.76,-1.57 288.19,-17.36 288.12,16.8 6.25,1.67 v 21.56 l 198.5769,51.997 19.5616,10.0036 3.28,25.5818 z" id="path6" /><path d="m 1230.5902,2127.9709 v 212.8296 h 717.977 v -212.8296 z" id="path4" style="clip-rule: evenodd; fill: rgb(102, 102, 102); fill-rule: evenodd; stroke: rgb(102, 102, 102); stroke-width: 3; stroke-miterlimit: 2.61313; shape-rendering: geometricprecision; text-rendering: geometricprecision;" /><text class="fil3 fnt0" id="text3" style="clip-rule: evenodd; fill-rule: evenodd; shape-rendering: geometricprecision; text-rendering: geometricprecision;" x="1404.66" y="2268.5034">STAGE</text></g><g id="sections"><g class="interactive-section" data-section-id="lawn" id="lawn-group" data-rows="9" data-seats-per-row="20" data-total-seats="180" data-price-min="25.00" data-price-max="500.00" data-current-price="190.79" data-available="true" onclick="showSectionInfo(evt)" style="cursor:pointer;"><title>Section lawn | 9 rows × 20 seats | $190.79</title><path class="section-path" d="M 361.3,335.65 C 1129.41,-51.04 2066.48,-46.21 2812.58,330.68 V 431.1 l 5.61,2.92 c 62.48,32.49 122.9,68.61 181.79,106.52 45.67,29.4 90.53,59.93 134.77,90.7 v 666.93 C 2691.63,901.95 2142.69,694.7 1588.04,693.53 1047.46,692.39 501.63,887 43.26,1293.07 v -664.7 c 42.9,-29.8 86.39,-59.35 130.63,-87.83 58.89,-37.91 119.31,-74.03 181.79,-106.52 l 5.61,-2.92 v -95.45 z" data-default-color="rgb(153, 153, 153)" data-id="2263112" id="lawn-section" style="fill:#f39c12; stroke: rgb(102, 102, 102); stroke-width: 0.0508; transition-delay: 0s; transition-duration: 0s;" fill="#f39c12" /><text class="section-label lawn-label" font-size="83.33px" id="tlawn" style="text-align: center; text-anchor: middle; font-family: Arial; fill: black; stroke: none;" x="1603.3027" y="444.13">LAWN</text><text class="section-label lawn-label" fill="#000000" font-size="12px" id="lawn-label" text-anchor="middle" x="543.97" y="291.25">LAWN</text></g><g class="interactive-section" data-section-id="200" id="200-group" data-rows="11" data-seats-per-row="34" data-total-seats="374" data-price-min="25.00" data-price-max="500.00" data-current-price="445.82" data-available="true" onclick="showSectionInfo(evt)" style="cursor:pointer;"><title>Section 200 | 11 rows × 34 seats | $445.82</title><path class="section-path" d="m 793.72,1424.83 c -101.52,53.5 -200.14,118.39 -294.55,195.11 L 49.99,1322.21 c 156.84,-140.5 324.16,-255.8 498.12,-346.56 l 245.61,449.17 z" data-default-color="rgb(153, 153, 153)" data-id="2263114" id="200-section" style="fill:#e74c3c; stroke: rgb(102, 102, 102); stroke-width: 0.0508; transition-delay: 0s; transition-duration: 0s;" fill="#e74c3c" /><text class="section-label 200-label" font-size="83.33px" id="t200" style="font-family: Arial; fill: black; stroke: none;" x="353.16" y="1327.26">200</text><text class="section-label 200-label" fill="#000000" font-size="12px" id="200-label" text-anchor="middle" x="163.58" y="313.37">200</text></g><g class="interactive-section" data-section-id="201" id="201-group" data-rows="15" data-seats-per-row="40" data-total-seats="600" data-price-min="25.00" data-price-max="500.00" data-current-price="357.69" data-available="true" onclick="showSectionInfo(evt)" style="cursor:pointer;"><title>Section 201 | 15 rows × 40 seats | $357.69</title><path class="section-path" d="M 1120.13,1225.65 C 1005.08,1256.08 890.7,1297.9 776.95,1350.9 L 566.57,966.15 C 716.53,889.61 871.3,831.21 1028.46,790.51 Z" data-default-color="rgb(153, 153, 153)" data-id="2263115" id="201-section" style="fill:#e74c3c; stroke: rgb(102, 102, 102); stroke-width: 0.0508; transition-delay: 0s; transition-duration: 0s;" fill="#e74c3c" /><text class="section-label 201-label" font-size="83.33px" id="t201" style="font-family: Arial; fill: black; stroke: none;" x="774.65997" y="1100.17">201</text><text class="section-label 201-label" fill="#000000" font-size="12px" id="201-label" text-anchor="middle" x="871.97" y="1076.0">201</text></g><g class="interactive-section" data-section-id="202" id="202-group" data-rows="10" data-seats-per-row="24" data-total-seats="240" data-price-min="25.00" data-price-max="500.00" data-current-price="229.41" data-available="true" onclick="showSectionInfo(evt)" style="cursor:pointer;"><title>Section 202 | 10 rows × 24 seats | $229.41</title><path class="section-path" d="m 2022.6,1221.3 c -151.2,-38.01 -301.29,-56.53 -450.28,-56.02 -145.05,0.49 -289.06,19.03 -432.06,55.17 l -91.65,-435.04 c 178.07,-44.35 359.04,-66.06 539.42,-65.68 179.96,0.38 359.34,22.74 534.62,66.44 l -100.06,435.13 z" data-default-color="rgb(153, 153, 153)" data-id="2263116" id="202-section" style="fill:#f39c12; stroke: rgb(102, 102, 102); stroke-width: 0.0508; transition-delay: 0s; transition-duration: 0s;" fill="#f39c12" /><text class="section-label 202-label" font-size="83.33px" id="t202" style="font-family: Arial; fill: black; stroke: none;" x="1516.9399" y="999.96997">202</text><text class="section-label 202-label" fill="#000000" font-size="12px" id="202-label" text-anchor="middle" x="147.49" y="70.6">202</text></g><g class="interactive-section" data-section-id="203" id="203-group" data-rows="21" data-seats-per-row="35" data-total-seats="735" data-price-min="25.00" data-price-max="500.00" data-current-price="168.80" data-available="true" onclick="showSectionInfo(evt)" style="cursor:pointer;"><title>Section 203 | 21 rows × 35 seats | $168.80</title><path class="section-path" d="m 2391.48,1351.91 c -116.91,-53.33 -233.15,-95.07 -348.73,-125.43 L 2142.82,791.3 c 158.72,41.13 313.96,99.85 463.12,175.66 l -214.46,384.94 z" data-default-color="rgb(153, 153, 153)" data-id="2263117" id="203-section" style="fill:#f39c12; stroke: rgb(102, 102, 102); stroke-width: 0.0508; transition-delay: 0s; transition-duration: 0s;" fill="#f39c12" /><text class="section-label 203-label" font-size="83.33px" id="t203" style="font-family: Arial; fill: black; stroke: none;" x="2255.6399" y="1101.0699">203</text><text class="section-label 203-label" fill="#000000" font-size="12px" id="203-label" text-anchor="middle" x="506.32" y="285.66">203</text></g><g class="interactive-section" data-section-id="204" id="204-group" data-rows="10" data-seats-per-row="28" data-total-seats="280" data-price-min="25.00" data-price-max="500.00" data-current-price="403.14" data-available="true" onclick="showSectionInfo(evt)" style="cursor:pointer;"><title>Section 204 | 10 rows × 28 seats | $403.14</title><path class="section-path" d="m 3124.71,1324.39 -449.37,296.92 c -94.93,-75.53 -196,-140.72 -301.51,-195.06 l 250.58,-449.78 c 177.03,91.98 345.28,208.18 500.3,347.92 z" data-default-color="rgb(153, 153, 153)" data-id="2263118" id="204-section" style="fill:#e74c3c; stroke: rgb(102, 102, 102); stroke-width: 0.0508; transition-delay: 0s; transition-duration: 0s;" fill="#e74c3c" /><text class="section-label 204-label" font-size="83.33px" id="t204" style="font-family: Arial; fill: black; stroke: none;" x="2680.5801" y="1328.34">204</text><text class="section-label 204-label" fill="#000000" font-size="12px" id="204-label" text-anchor="middle" x="372.9" y="156.48">204</text></g><g class="interactive-section" data-section-id="100" id="100-group" data-rows="8" data-seats-per-row="24" data-total-seats="192" data-price-min="25.00" data-price-max="500.00" data-current-price="311.87" data-available="true" onclick="showSectionInfo(evt)" style="cursor:pointer;"><title>Section 100 | 8 rows × 24 seats | $311.87</title><path class="section-path" d="m 1264.73,1900.62 c -70.93,21.53 -141.04,50.69 -209.24,88.07 L 533.74,1642.86 C 723.55,1495.54 929.5,1395 1141.1,1337.78 l 18.79,221.93 0.45,2.2 104.4,338.71 z" data-default-color="rgb(153, 153, 153)" data-id="2263119" id="100-section" style="fill:#e74c3c; stroke: rgb(102, 102, 102); stroke-width: 0.0508; transition-delay: 0s; transition-duration: 0s;" fill="#e74c3c" /><text class="section-label 100-label" font-size="83.33px" id="t100" style="font-family: Arial; fill: black; stroke: none;" x="903.65002" y="1720.4399">100</text><text class="section-label 100-label" fill="#000000" font-size="12px" id="100-label" text-anchor="middle" x="390.46" y="772.27">100</text></g><g class="interactive-section" data-section-id="101" id="101-group" data-rows="17" data-seats-per-row="37" data-total-seats="629" data-price-min="25.00" data-price-max="500.00" data-current-price="420.89" data-available="true" onclick="showSectionInfo(evt)" style="cursor:pointer;"><title>Section 101 | 17 rows × 37 seats | $420.89</title><path class="section-path" d="m 1410.89,1866.98 c -42.18,6.7 -84.32,15.93 -126.22,27.78 l -104.11,-337.78 -5.21,-61.58 c 30.27,-9.77 60.63,-18.02 91.07,-24.82 30.46,-6.81 61.24,-12.21 92.3,-16.3 z" data-default-color="rgb(153, 153, 153)" data-id="2263120" id="101-section" style="fill:#e74c3c; stroke: rgb(102, 102, 102); stroke-width: 0.0508; transition-delay: 0s; transition-duration: 0s;" fill="#e74c3c" /><text class="section-label 101-label" font-size="83.33px" id="t101" style="font-family: Arial; fill: black; stroke: none;" x="1233.74" y="1703.98">101</text><text class="section-label 101-label" fill="#000000" font-size="12px" id="101-label" text-anchor="middle" x="117.9" y="119.18">101</text></g><g class="interactive-section" data-section-id="102" id="102-group" data-rows="10" data-seats-per-row="34" data-total-seats="340" data-price-min="25.00" data-price-max="500.00" data-current-price="407.69" data-available="true" onclick="showSectionInfo(evt)" style="cursor:pointer;"><title>Section 102 | 10 rows × 34 seats | $407.69</title><path class="section-path" d="m 1742.19,1864.4 c -51.74,-7.33 -104.37,-11.13 -157.44,-11.13 -50.83,0 -102.07,3.48 -153.32,10.64 l -60.54,-478.85 c 71.74,-9.17 143.44,-13.9 215.09,-13.97 71.21,-0.07 142.48,4.46 213.78,13.77 z" data-default-color="rgb(153, 153, 153)" data-id="2263121" id="102-section" style="fill:#e74c3c; stroke: rgb(102, 102, 102); stroke-width: 0.0508; transition-delay: 0s; transition-duration: 0s;" fill="#e74c3c" /><text class="section-label 102-label" font-size="83.33px" id="t102" style="font-family: Arial; fill: black; stroke: none;" x="1516.62" y="1647.21">102</text><text class="section-label 102-label" fill="#000000" font-size="12px" id="102-label" text-anchor="middle" x="137.12" y="96.51">102</text></g><g class="interactive-section" data-section-id="103" id="103-group" data-rows="17" data-seats-per-row="36" data-total-seats="612" data-price-min="25.00" data-price-max="500.00" data-current-price="337.96" data-available="true" onclick="showSectionInfo(evt)" style="cursor:pointer;"><title>Section 103 | 17 rows × 36 seats | $337.96</title><path class="section-path" d="m 1885.23,1894.27 c -40.04,-11.12 -80.94,-20.07 -122.46,-26.75 l 49.74,-414.33 c 31.15,4.99 61.75,10.89 91.8,17.63 30.34,6.8 60.41,14.53 90.21,23.11 l -5.34,63.06 -103.96,337.29 z" data-default-color="rgb(153, 153, 153)" data-id="2263122" id="103-section" style="fill:#e74c3c; stroke: rgb(102, 102, 102); stroke-width: 0.0508; transition-delay: 0s; transition-duration: 0s;" fill="#e74c3c" /><text class="section-label 103-label" font-size="83.33px" id="t103" style="font-family: Arial; fill: black; stroke: none;" x="1796.13" y="1703.1899">103</text><text class="section-label 103-label" fill="#000000" font-size="12px" id="103-label" text-anchor="middle" x="149.84" y="146.18">103</text></g><g class="interactive-section" data-section-id="104" id="104-group" data-rows="17" data-seats-per-row="31" data-total-seats="527" data-price-min="25.00" data-price-max="500.00" data-current-price="369.84" data-available="true" onclick="showSectionInfo(evt)" style="cursor:pointer;"><title>Section 104 | 17 rows × 31 seats | $369.84</title><path class="section-path" d="m 2640.32,1644.44 -521.38,344.5 c -66.98,-36.69 -138.76,-66.61 -213.74,-88.93 l 104.21,-338.1 0.45,-2.2 18.5,-218.49 c 217.98,59.66 426.06,162.07 611.96,303.22 z" data-default-color="rgb(153, 153, 153)" data-id="2263123" id="104-section" style="fill:#e74c3c; stroke: rgb(102, 102, 102); stroke-width: 0.0508; transition-delay: 0s; transition-duration: 0s;" fill="#e74c3c" /><text class="section-label 104-label" font-size="83.33px" id="t104" style="font-family: Arial; fill: black; stroke: none;" x="2152.3601" y="1694.54">104</text><text class="section-label 104-label" fill="#000000" font-size="12px" id="104-label" text-anchor="middle" x="279.87" y="160.26">104</text></g><g class="interactive-section" data-section-id="pit" id="pit-group" data-rows="17" data-seats-per-row="26" data-total-seats="442" data-price-min="25.00" data-price-max="500.00" data-current-price="33.97" data-available="true" onclick="showSectionInfo(evt)" style="cursor:pointer;"><title>Section pit | 17 rows × 26 seats | $33.97</title><path class="section-path" d="m 1584.7372,1874.1049 c -97.4497,0 -196.3956,12.9974 -293.9453,40.5273 l 0.1017,0.3255 c -66.0021,20.1836 -152.7429,52.9868 -215.8,86.731 l 136.556,83.4961 c 131.2257,0.1114 377.3674,-0.3332 743.4935,-1.2817 l 140.8201,-79.3234 c -61.9716,-33.0915 -148.0449,-69.6546 -216.8738,-90.3544 l 0.02,-0.081 c -0.6677,-0.1848 -1.3461,-0.3453 -2.0142,-0.5289 -0.4544,-0.1358 -0.9084,-0.2718 -1.3631,-0.4069 l -0.02,0.061 c -93.3191,-25.5208 -191.3377,-39.1642 -290.9749,-39.1642 z" data-default-color="rgb(153, 153, 153)" data-id="2263124" id="pit-section" style="fill:#27ae60; stroke: rgb(102, 102, 102); stroke-width: 0.0508; transition-delay: 0s; transition-duration: 0s;" fill="#27ae60" /><text class="section-label pit-label" font-size="83.33px" id="tpit" style="font-family: Arial; fill: black; stroke: none;" x="1520.6799" y="2010.5881">PIT</text><text class="section-label pit-label" fill="#000000" font-size="12px" id="pit-label" text-anchor="middle" x="40.1" y="66.36">PIT</text></g><g class="interactive-section" data-section-id="lawnwc" id="lawnwc-group" data-rows="25" data-seats-per-row="20" data-total-seats="500" data-price-min="25.00" data-price-max="500.00" data-current-price="66.00" data-available="true" onclick="showSectionInfo(evt)" style="cursor:pointer;"><title>Section lawnwc | 25 rows × 20 seats | $66.00</title><path class="section-path" d="m 43.26,525.57 c 95.39,-66.82 194.77,-126.47 297.2,-179.2 v 72.11 c -60.91,31.94 -120.02,67.38 -177.8,104.57 -40.46,26.04 -80.2,52.91 -119.41,80.03 v -77.5 z M 2833.41,341.2 c 104.64,54.09 205.43,115.56 301.34,184.37 v 80.37 c -40.55,-28.09 -81.66,-55.93 -123.54,-82.89 -57.78,-37.19 -116.89,-72.63 -177.8,-104.57 z" data-default-color="rgb(153, 153, 153)" data-id="2263113" id="lawnwc-section" style="fill:#27ae60; stroke: rgb(102, 102, 102); stroke-width: 0.0508; transition-delay: 0s; transition-duration: 0s;" fill="#27ae60" /><text class="section-label lawnwc-label" font-size="41.67px" id="tlawnwc-1" style="font-family: Arial; fill: black; stroke: none;" transform="rotate(-32.302092)" x="-217.05392" y="510.03546">LAWN WC GA</text><text class="section-label lawnwc-label" font-size="41.67px" id="tlawnwc-2" style="font-family: Arial; fill: black; stroke: none;" transform="rotate(29.617224)" x="2702.1338" y="-1055.647">LAWN WC GA</text><text class="section-label lawnwc-label" fill="#000000" font-size="12px" id="lawnwc-label" text-anchor="middle" x="191.34" y="-20.3">LAWNWC</text></g><g class="interactive-section" data-section-id="boxes" id="boxes-group" style="cursor:pointer;" data-rows="5" data-seats-per-row="34" data-total-seats="170" data-price-min="25.00" data-price-max="500.00" data-current-price="439.15" data-available="true" onclick="showSectionInfo(evt)"><title>Section boxes | 5 rows × 34 seats | $439.15</title><path class="section-path" d="m 1424.703,1179.423 c -18.7432,2.2599 -37.3831,4.6034 -55.9082,7.0191 l 12.146,68.9087 c 17.8457,-2.2496 35.8114,-4.2124 53.894,-5.9408 z m 309.0007,0 -10.1319,69.987 c 18.0826,1.7284 36.0484,3.6912 53.8941,5.9408 l 12.146,-68.9087 c -18.5251,-2.4157 -37.165,-4.7592 -55.9082,-7.0191 z m -371.8466,7.9346 c -17.6887,2.3431 -35.2389,4.7763 -52.4699,7.4463 l 15.8895,68.5832 c 16.1183,-2.6338 32.3595,-4.9893 48.7061,-7.1208 z m 434.6924,0 -12.1256,68.9087 c 16.3466,2.1315 32.5877,4.487 48.706,7.1208 l 15.8895,-68.5832 c -17.231,-2.67 -34.7812,-5.1032 -52.4699,-7.4463 z m -494.0999,8.5449 c -16.692,2.6532 -33.1121,5.494 -49.1333,8.6263 l 14.9129,69.4581 c 16.5659,-3.4582 33.2829,-6.6014 50.1302,-9.4402 z m 553.5075,0 -15.9098,68.6442 c 16.8473,2.8388 33.5643,5.982 50.1302,9.4402 l 14.9129,-69.4581 c -16.0212,-3.1323 -32.4413,-5.9731 -49.1333,-8.6263 z m -609.5174,10.0098 c -15.6304,3.1575 -30.8772,6.5945 -45.634,10.376 l 16.0929,69.6208 c 14.6902,-3.7711 29.5086,-7.2681 44.454,-10.4777 z m 665.5273,0 -14.9129,69.5191 c 14.9454,3.2096 29.7637,6.7066 44.4539,10.4777 l 16.093,-69.6208 c -14.7568,-3.7815 -30.0036,-7.2185 -45.634,-10.376 z m -717.9362,12.1663 c -18.4859,4.9241 -36.214,10.3898 -52.8971,16.6016 l 16.2963,68.3594 c 17.3505,-5.5921 34.9297,-10.6983 52.6937,-15.3809 z m 770.3451,0 -16.093,69.5801 c 17.764,4.6826 35.3432,9.7888 52.6937,15.3809 l 16.2964,-68.3594 c -16.6831,-6.2118 -34.4112,-11.6775 -52.8971,-16.6016 z m -840.4542,27.3641 c -25.8853,6.7973 -51.5505,13.7688 -79.0608,21.993 l 16.7439,60.6893 c 25.3376,-7.837 50.4976,-15.2585 76.6399,-22.7864 z m 916.4429,0 -14.3229,59.8959 c 17.5838,5.0635 34.4559,10.0764 50.6999,15.0553 l 17.0085,-60.5875 c -16.3479,-4.5184 -33.9288,-9.2546 -53.3855,-14.3637 z m 60.14,16.2354 -17.0695,60.8114 c 17.8012,5.5029 34.6598,10.9454 51.0661,16.3574 l 18.6564,-61.8286 c -16.0533,-4.9028 -33.3635,-9.9622 -52.653,-15.3402 z m -1062.3576,7.7515 c -26.2178,7.9536 -54.40185,17.2181 -86.07992,28.6254 l 24.33269,58.1259 c 27.20643,-9.4964 53.09783,-18.0107 78.51153,-25.94 z m 1121.7041,9.6435 -18.6971,61.9914 c 15.0408,5.0039 29.5987,9.9758 43.6605,14.9129 l 20.223,-62.1338 c -14.1918,-4.9319 -29.1286,-9.7937 -45.1864,-14.7705 z m -579.0202,0.7935 c -13.454,-0.015 -26.8137,0.2172 -40.1408,0.5696 l 1.4039,80.5054 c 16.0318,-0.4257 32.3099,-0.6265 48.8281,-0.6307 l 0.4883,-80.3426 c -3.5222,-0.029 -7.066,-0.098 -10.5795,-0.1017 z m 17.5782,0.1831 -0.4883,80.2409 c 15.8889,0.056 32.0646,0.3552 48.4416,0.8341 l 7.7921,-79.3457 c -18.6986,-0.9136 -37.2812,-1.4929 -55.7454,-1.7293 z m -64.7177,0.59 c -18.8925,0.5922 -37.6611,1.5489 -56.2947,2.889 l 5.2287,79.9764 c 17.2229,-1.0085 34.7053,-1.8006 52.4699,-2.3397 z m 127.4821,1.4648 -3.601,36.6211 c 15.4741,0.5867 30.8954,1.382 46.2443,2.4007 l 4.1911,-35.7666 c -15.6831,-1.2836 -31.3092,-2.4279 -46.8344,-3.2552 z m -190.7552,1.8921 c -18.1605,1.3999 -36.1866,3.1481 -54.0975,5.2694 l 5.8594,78.7353 c 17.562,-1.5857 35.375,-2.9628 53.4668,-4.0893 z m 247.579,2.2176 -4.1708,35.6039 c 14.1065,1.0246 28.1577,2.2421 42.155,3.6417 l 4.9438,-34.9731 c -14.3701,-1.6039 -28.6803,-3.0212 -42.928,-4.2725 z m -308.6141,3.9266 c -16.129,1.9984 -32.1722,4.2642 -48.0957,6.8563 l 3.8655,35.2173 c 15.7071,-1.9741 31.3641,-3.7734 46.9564,-5.3508 z m 358.4798,1.1393 -4.9235,34.8918 c 14.4933,1.5145 28.9337,3.2238 43.3146,5.127 l 6.0018,-34.3018 c -14.871,-2.1174 -29.665,-4.0139 -44.3929,-5.717 z m 443.7663,4.9236 -20.2026,62.0931 c 16.7809,5.9383 33.0916,11.8413 48.7874,17.7001 l 23.0509,-60.2823 c -17.2915,-6.9265 -34.131,-13.3168 -51.6357,-19.5109 z m -1266.17436,4.2317 c -45.50126,16.5658 -98.3989,37.6424 -163.98112,66.1011 l 27.99479,54.0365 c 62.14969,-25.9409 113.41623,-45.5285 160.31902,-62.0525 z m 1324.32056,17.9037 -22.9696,60.0993 c 16.779,6.3027 32.9505,12.5451 48.9095,18.7784 l 26.9775,-56.6813 c -18.8295,-8.0848 -36.459,-15.5254 -52.9174,-22.1964 z m -612.8948,7.3649 -3.4993,35.6038 c 14.9232,0.4917 30.1379,1.2483 45.4915,2.1159 l 4.1301,-35.3394 c -15.3128,-1.0127 -30.6828,-1.7993 -46.1223,-2.3803 z m 56.1117,3.0721 -4.13,35.2376 c 13.5776,0.8364 27.326,1.8219 41.2394,2.95 l 4.9031,-34.5662 c -13.9473,-1.3916 -27.9552,-2.6034 -42.0125,-3.6214 z m 48.9705,4.3335 -4.8624,34.4441 c 13.8431,1.1707 27.8518,2.4746 42.0939,3.9877 l 5.839,-33.3456 c -14.3014,-1.8893 -28.6561,-3.5829 -43.0705,-5.0862 z m -349.3245,0.7527 c -15.5185,1.5714 -31.098,3.3441 -46.7326,5.3101 l 3.7638,34.2204 c 15.0033,-1.7479 30.1956,-3.3195 45.5526,-4.7608 z m -64.3921,7.8532 c -28.8207,2.765 -58.4039,6.1382 -92.1427,12.8378 l 1.9734,29.2765 c 31.5881,-6.3171 62.2301,-11.4969 92.3259,-16.0116 z m 980.8757,1.5666 -26.8758,56.4982 c 17.7402,6.9556 35.2536,13.8926 52.5716,20.7927 l 27.9948,-54.0365 c -19.8407,-8.61 -37.2548,-16.1741 -53.6906,-23.2544 z m -505.4322,9.318 -7.9142,85.0017 179.1992,40.8528 5.2694,-91.5934 z m -574.5239,3.3977 c -24.8178,5.1804 -51.9018,12.1521 -82.6213,22.054 l 1.648,26.4079 c 28.4417,-7.3824 56.0486,-13.7308 82.9468,-19.2261 z m 101.8066,18.8191 c -30.1399,4.5261 -60.8194,9.7138 -92.4275,16.0523 l 1.9531,29.0731 c 31.0364,-6.2809 61.9679,-11.6911 92.8345,-16.6016 z m -99.3449,17.4764 c -26.9146,5.514 -54.5265,11.8813 -82.9874,19.2871 l 1.831,29.1748 c 27.8005,-7.3005 55.4982,-13.7311 83.1096,-19.4295 z m 102.2746,18.0258 c -30.9101,4.9247 -61.8735,10.3644 -92.9158,16.6625 l 2.1972,32.6335 c 33.0472,-7.351 64.4283,-13.0167 93.4449,-16.3371 z m -99.8535,18.0664 c -27.6276,5.7172 -55.3346,12.1465 -83.1299,19.4702 l 2.1566,34.5459 c 28.6504,-7.99 56.4292,-15.1186 83.1909,-21.2199 z" data-default-color="rgb(153, 153, 153)" data-id="2299895" id="boxes-section" style="fill:#e74c3c; stroke: rgb(102, 102, 102); stroke-width: 0.0508; transition-delay: 0s; transition-duration: 0s;" fill="#e74c3c" /><text class="section-label boxes-label" id="tboxes-1" style="font-size: 29.2296px; text-align: center; writing-mode: lr-tb; direction: ltr; text-anchor: middle; clip-rule: evenodd; shape-rendering: geometricprecision; text-rendering: geometricprecision; font-family: Arial; fill: black; stroke: none;" x="1909.4319" xml:space="preserve" y="1422.4612"><tspan id="tspan2" style="fill: rgb(0, 0, 0); stroke: none; stroke-width: 1.16412;" x="1909.4319" y="1422.4612">ROCKBOX</tspan></text><text class="section-label boxes-label" id="tboxes-2" style="font-size: 29.5125px; text-align: center; writing-mode: lr-tb; direction: ltr; text-anchor: middle; font-family: Arial; fill: black; stroke: none;" x="877.90015" xml:space="preserve" y="1370.4349"><tspan id="tspan102" style="fill: rgb(0, 0, 0); stroke: none; stroke-width: 4.11385;" x="877.90015" y="1370.4349">SUITE1</tspan></text><text class="section-label boxes-label" id="tboxes-3" style="font-size: 29.5125px; text-align: center; writing-mode: lr-tb; direction: ltr; text-anchor: middle; font-family: Arial; fill: black; stroke: none;" x="1009.3577" xml:space="preserve" y="1322.7159"><tspan id="tspan103" style="fill: rgb(0, 0, 0); stroke: none; stroke-width: 4.11385;" x="1009.3577" y="1322.7159">S2</tspan></text><text class="section-label boxes-label" id="tboxes-4" style="font-size: 29.5125px; text-align: center; writing-mode: lr-tb; direction: ltr; text-anchor: middle; font-family: Arial; fill: black; stroke: none;" x="1094.6442" xml:space="preserve" y="1296.6743"><tspan id="tspan104" style="fill: rgb(0, 0, 0); stroke: none; stroke-width: 4.11385;" x="1094.6442" y="1296.6743">B1</tspan></text><text class="section-label boxes-label" id="tboxes-5" style="font-size: 29.5125px; text-align: center; writing-mode: lr-tb; direction: ltr; text-anchor: middle; font-family: Arial; fill: black; stroke: none;" x="1177.9775" xml:space="preserve" y="1270.6327"><tspan id="tspan105" style="fill: rgb(0, 0, 0); stroke: none; stroke-width: 4.11385;" x="1177.9775" y="1270.6327">B2</tspan></text><text class="section-label boxes-label" id="tboxes-6" style="font-size: 29.5125px; text-align: center; writing-mode: lr-tb; direction: ltr; text-anchor: middle; font-family: Arial; fill: black; stroke: none;" x="1234.6182" xml:space="preserve" y="1256.3098"><tspan id="tspan106" style="fill: rgb(0, 0, 0); stroke: none; stroke-width: 4.11385;" x="1234.6182" y="1256.3098">B3</tspan></text><text class="section-label boxes-label" id="tboxes-7" style="font-size: 29.5125px; text-align: center; writing-mode: lr-tb; direction: ltr; text-anchor: middle; font-family: Arial; fill: black; stroke: none;" x="1288.6547" xml:space="preserve" y="1244.5911"><tspan id="tspan107" style="fill: rgb(0, 0, 0); stroke: none; stroke-width: 4.11385;" x="1288.6547" y="1244.5911">B4</tspan></text><text class="section-label boxes-label" id="tboxes-8" style="font-size: 29.5125px; text-align: center; writing-mode: lr-tb; direction: ltr; text-anchor: middle; font-family: Arial; fill: black; stroke: none;" x="1345.9463" xml:space="preserve" y="1235.4764"><tspan id="tspan108" style="fill: rgb(0, 0, 0); stroke: none; stroke-width: 4.11385;" x="1345.9463" y="1235.4764">B5</tspan></text><text class="section-label boxes-label" id="tboxes-9" style="font-size: 29.5125px; text-align: center; writing-mode: lr-tb; direction: ltr; text-anchor: middle; font-family: Arial; fill: black; stroke: none;" x="1407.1442" xml:space="preserve" y="1227.6639"><tspan id="tspan109" style="fill: rgb(0, 0, 0); stroke: none; stroke-width: 4.11385;" x="1407.1442" y="1227.6639">S3</tspan></text><text class="section-label boxes-label" id="tboxes-10" style="font-size: 29.5125px; text-align: center; writing-mode: lr-tb; direction: ltr; text-anchor: middle; font-family: Arial; fill: black; stroke: none;" x="1755.1733" xml:space="preserve" y="1227.6639"><tspan id="tspan110" style="fill: rgb(0, 0, 0); stroke: none; stroke-width: 4.11385;" x="1755.1733" y="1227.6639">S4</tspan></text><text class="section-label boxes-label" id="tboxes-11" style="font-size: 29.5125px; text-align: center; writing-mode: lr-tb; direction: ltr; text-anchor: middle; font-family: Arial; fill: black; stroke: none;" x="1816.4006" xml:space="preserve" y="1236.4106"><tspan id="tspan111" style="fill: rgb(0, 0, 0); stroke: none; stroke-width: 4.11385;" x="1816.4006" y="1236.4106">B6</tspan></text><text class="section-label boxes-label" id="tboxes-12" style="font-size: 29.5125px; text-align: center; writing-mode: lr-tb; direction: ltr; text-anchor: middle; font-family: Arial; fill: black; stroke: none;" x="1872.5641" xml:space="preserve" y="1245.6178"><tspan id="tspan112" style="fill: rgb(0, 0, 0); stroke: none; stroke-width: 4.11385;" x="1872.5641" y="1245.6178">B7</tspan></text><text class="section-label boxes-label" id="tboxes-13" style="font-size: 29.5125px; text-align: center; writing-mode: lr-tb; direction: ltr; text-anchor: middle; font-family: Arial; fill: black; stroke: none;" x="1927.3464" xml:space="preserve" y="1255.2853"><tspan id="tspan113" style="fill: rgb(0, 0, 0); stroke: none; stroke-width: 4.11385;" x="1927.3464" y="1255.2853">B8</tspan></text><text class="section-label boxes-label" id="tboxes-14" style="font-size: 29.5125px; text-align: center; writing-mode: lr-tb; direction: ltr; text-anchor: middle; font-family: Arial; fill: black; stroke: none;" x="1983.9702" xml:space="preserve" y="1270.4771"><tspan id="tspan114" style="fill: rgb(0, 0, 0); stroke: none; stroke-width: 4.11385;" x="1983.9702" y="1270.4771">B9</tspan></text><text class="section-label boxes-label" id="tboxes-15" style="font-size: 29.5125px; text-align: center; writing-mode: lr-tb; direction: ltr; text-anchor: middle; font-family: Arial; fill: black; stroke: none;" x="2059.4685" xml:space="preserve" y="1294.4155"><tspan id="tspan115" style="fill: rgb(0, 0, 0); stroke: none; stroke-width: 4.11385;" x="2059.4685" y="1294.4155">B10</tspan></text><text class="section-label boxes-label" id="tboxes-16" style="font-size: 29.5125px; text-align: center; writing-mode: lr-tb; direction: ltr; text-anchor: middle; font-family: Arial; fill: black; stroke: none;" x="2118.394" xml:space="preserve" y="1310.9884"><tspan id="tspan116" style="fill: rgb(0, 0, 0); stroke: none; stroke-width: 4.11385;" x="2118.394" y="1310.9884">B11</tspan></text><text class="section-label boxes-label" id="tboxes-17" style="font-size: 29.5125px; text-align: center; writing-mode: lr-tb; direction: ltr; text-anchor: middle; font-family: Arial; fill: black; stroke: none;" x="2172.3347" xml:space="preserve" y="1328.0216"><tspan id="tspan117" style="fill: rgb(0, 0, 0); stroke: none; stroke-width: 4.11385;" x="2172.3347" y="1328.0216">B12</tspan></text><text class="section-label boxes-label" id="tboxes-18" style="font-size: 29.5125px; text-align: center; writing-mode: lr-tb; direction: ltr; text-anchor: middle; font-family: Arial; fill: black; stroke: none;" x="2227.4983" xml:space="preserve" y="1346.8962"><tspan id="tspan118" style="fill: rgb(0, 0, 0); stroke: none; stroke-width: 4.11385;" x="2227.4983" y="1346.8962">B13</tspan></text><text class="section-label boxes-label" id="tboxes-19" style="font-size: 29.5125px; text-align: center; writing-mode: lr-tb; direction: ltr; text-anchor: middle; font-family: Arial; fill: black; stroke: none;" x="2283.7966" xml:space="preserve" y="1368.5889"><tspan id="tspan119" style="fill: rgb(0, 0, 0); stroke: none; stroke-width: 4.11385;" x="2283.7966" y="1368.5889">B14</tspan></text><text class="section-label boxes-label" id="tboxes-20" style="font-size: 29.5125px; text-align: center; writing-mode: lr-tb; direction: ltr; text-anchor: middle; font-family: Arial; fill: black; stroke: none;" x="2343.0476" xml:space="preserve" y="1392.4716"><tspan id="tspan120" style="fill: rgb(0, 0, 0); stroke: none; stroke-width: 4.11385;" x="2343.0476" y="1392.4716">B15</tspan></text><text class="section-label boxes-label" id="tboxes-21" style="font-size: 29.5125px; text-align: center; writing-mode: lr-tb; direction: ltr; text-anchor: middle; font-family: Arial; fill: black; stroke: none;" x="1213.7557" xml:space="preserve" y="1390.3883"><tspan id="tspan121" style="fill: rgb(0, 0, 0); stroke: none; stroke-width: 4.11385;" x="1213.7557" y="1390.3883">S1</tspan></text><text class="section-label boxes-label" id="tboxes-22" style="font-size: 29.5125px; text-align: center; writing-mode: lr-tb; direction: ltr; text-anchor: middle; font-family: Arial; fill: black; stroke: none;" x="1305.8269" xml:space="preserve" y="1370.593"><tspan id="tspan122" style="fill: rgb(0, 0, 0); stroke: none; stroke-width: 4.11385;" x="1305.8269" y="1370.593">S2</tspan></text><text class="section-label boxes-label" id="tboxes-23" style="font-size: 29.5125px; text-align: center; writing-mode: lr-tb; direction: ltr; text-anchor: middle; font-family: Arial; fill: black; stroke: none;" x="1212.3746" xml:space="preserve" y="1426.2961"><tspan id="tspan123" style="fill: rgb(0, 0, 0); stroke: none; stroke-width: 4.11385;" x="1212.3746" y="1426.2961">S3</tspan></text><text class="section-label boxes-label" id="tboxes-24" style="font-size: 29.5125px; text-align: center; writing-mode: lr-tb; direction: ltr; text-anchor: middle; font-family: Arial; fill: black; stroke: none;" x="1309.0494" xml:space="preserve" y="1406.9612"><tspan id="tspan124" style="fill: rgb(0, 0, 0); stroke: none; stroke-width: 4.11385;" x="1309.0494" y="1406.9612">S4</tspan></text><text class="section-label boxes-label" id="tboxes-25" style="font-size: 29.5125px; text-align: center; writing-mode: lr-tb; direction: ltr; text-anchor: middle; font-family: Arial; fill: black; stroke: none;" x="1213.7557" xml:space="preserve" y="1464.0453"><tspan id="tspan125" style="fill: rgb(0, 0, 0); stroke: none; stroke-width: 4.11385;" x="1213.7557" y="1464.0453">S5</tspan></text><text class="section-label boxes-label" id="tboxes-26" style="font-size: 29.5125px; text-align: center; writing-mode: lr-tb; direction: ltr; text-anchor: middle; font-family: Arial; fill: black; stroke: none;" x="1313.653" xml:space="preserve" y="1443.3292"><tspan id="tspan126" style="fill: rgb(0, 0, 0); stroke: none; stroke-width: 4.11385;" x="1313.653" y="1443.3292">S6</tspan></text><text class="section-label boxes-label" id="tboxes-27" style="font-size: 29.5125px; text-align: center; writing-mode: lr-tb; direction: ltr; text-anchor: middle; font-family: Arial; fill: black; stroke: none;" x="1386.5696" xml:space="preserve" y="1321.5845"><tspan id="tspan127" style="fill: rgb(0, 0, 0); stroke: none; stroke-width: 4.11385;" x="1386.5696" y="1321.5845">B1</tspan></text><text class="section-label boxes-label" id="tboxes-28" style="font-size: 29.5125px; text-align: center; writing-mode: lr-tb; direction: ltr; text-anchor: middle; font-family: Arial; fill: black; stroke: none;" x="1393.08" xml:space="preserve" y="1361.9491"><tspan id="tspan128" style="fill: rgb(0, 0, 0); stroke: none; stroke-width: 4.11385;" x="1393.08" y="1361.9491">B5</tspan></text><text class="section-label boxes-label" id="tboxes-29" style="font-size: 29.5125px; text-align: center; writing-mode: lr-tb; direction: ltr; text-anchor: middle; font-family: Arial; fill: black; stroke: none;" x="1683.3011" xml:space="preserve" y="1313.2981"><tspan id="tspan129" style="fill: rgb(0, 0, 0); stroke: none; stroke-width: 4.11385;" x="1683.3011" y="1313.2981">B2</tspan></text><text class="section-label boxes-label" id="tboxes-30" style="font-size: 29.5125px; text-align: center; writing-mode: lr-tb; direction: ltr; text-anchor: middle; font-family: Arial; fill: black; stroke: none;" x="1677.382" xml:space="preserve" y="1353.6627"><tspan id="tspan130" style="fill: rgb(0, 0, 0); stroke: none; stroke-width: 4.11385;" x="1677.382" y="1353.6627">B6</tspan></text><text class="section-label boxes-label" id="tboxes-31" style="font-size: 29.5125px; text-align: center; writing-mode: lr-tb; direction: ltr; text-anchor: middle; font-family: Arial; fill: black; stroke: none;" x="1738.5438" xml:space="preserve" y="1316.5206"><tspan id="tspan131" style="fill: rgb(0, 0, 0); stroke: none; stroke-width: 4.11385;" x="1738.5438" y="1316.5206">B3</tspan></text><text class="section-label boxes-label" id="tboxes-32" style="font-size: 29.5125px; text-align: center; writing-mode: lr-tb; direction: ltr; text-anchor: middle; font-family: Arial; fill: black; stroke: none;" x="1732.6246" xml:space="preserve" y="1356.8853"><tspan id="tspan132" style="fill: rgb(0, 0, 0); stroke: none; stroke-width: 4.11385;" x="1732.6246" y="1356.8853">B7</tspan></text><text class="section-label boxes-label" id="tboxes-33" style="font-size: 29.5125px; text-align: center; writing-mode: lr-tb; direction: ltr; text-anchor: middle; font-family: Arial; fill: black; stroke: none;" x="1787.3416" xml:space="preserve" y="1321.1241"><tspan id="tspan133" style="fill: rgb(0, 0, 0); stroke: none; stroke-width: 4.11385;" x="1787.3416" y="1321.1241">B4</tspan></text><text class="section-label boxes-label" id="tboxes-34" style="font-size: 29.5125px; text-align: center; writing-mode: lr-tb; direction: ltr; text-anchor: middle; font-family: Arial; fill: black; stroke: none;" x="1781.4224" xml:space="preserve" y="1361.4888"><tspan id="tspan134" style="fill: rgb(0, 0, 0); stroke: none; stroke-width: 4.11385;" x="1781.4224" y="1361.4888">B8</tspan></text><text class="section-label boxes-label" id="tboxes-35" style="font-size: 29.5125px; text-align: center; writing-mode: lr-tb; direction: ltr; text-anchor: middle; font-family: Arial; fill: black; stroke: none;" x="1445.8141" xml:space="preserve" y="1337.2286"><tspan id="tspan135" style="fill: rgb(0, 0, 0); stroke: none; stroke-width: 4.11385;" x="1445.8141" y="1337.2286">S7</tspan></text><text class="section-label boxes-label" id="tboxes-36" style="font-size: 29.5125px; text-align: center; writing-mode: lr-tb; direction: ltr; text-anchor: middle; font-family: Arial; fill: black; stroke: none;" x="1508.3141" xml:space="preserve" y="1332.6714"><tspan id="tspan136" style="fill: rgb(0, 0, 0); stroke: none; stroke-width: 4.11385;" x="1508.3141" y="1332.6714">S8</tspan></text><text class="section-label boxes-label" id="tboxes-37" style="font-size: 29.5125px; text-align: center; writing-mode: lr-tb; direction: ltr; text-anchor: middle; font-family: Arial; fill: black; stroke: none;" x="1568.21" xml:space="preserve" y="1330.7183"><tspan id="tspan137" style="fill: rgb(0, 0, 0); stroke: none; stroke-width: 4.11385;" x="1568.21" y="1330.7183">S9</tspan></text><text class="section-label boxes-label" id="tboxes-38" style="font-size: 29.5125px; text-align: center; writing-mode: lr-tb; direction: ltr; text-anchor: middle; font-family: Arial; fill: black; stroke: none;" x="1623.5485" xml:space="preserve" y="1329.4161"><tspan id="tspan138" style="fill: rgb(0, 0, 0); stroke: none; stroke-width: 4.11385;" x="1623.5485" y="1329.4161">S10</tspan></text><text class="section-label boxes-label" fill="#000000" font-size="12px" id="boxes-label" text-anchor="middle" x="4.95" y="7.19">BOXES</text></g></g><g id="vip" style="display: inline;"><path d="M 83.539346,2095.012 H 442.20755 l 0.073,216.3837 H 83.613346 Z" data-default-color="rgb(255, 255, 255)" data-id="2263176" fill="#ffffff" id="vip-section" style="clip-rule: evenodd; fill-rule: evenodd; stroke-width: 5.6943; shape-rendering: geometricprecision; text-rendering: geometricprecision; transition-delay: 0s; transition-duration: 0s; fill: rgb(255, 255, 255);" /><path d="m 281.98625,2237.3692 -21.0462,-59.3921 h 10.1245 l 17.2196,50.7027 h -1.9932 l 17.1399,-50.7027 h 10.1244 l -21.0462,59.3921 z m 38.5562,0 v -59.3921 h 9.407 v 59.3921 z m 21.7203,0 v -59.3921 h 21.6042 c 3.9862,0 7.4939,0.7468 10.5232,2.2326 3.0831,1.4345 5.4748,3.5595 7.1748,6.378 1.7011,2.7619 2.5511,6.0852 2.5511,9.9649 0,3.8269 -0.8771,7.1216 -2.6309,9.8857 -1.7006,2.7613 -4.0659,4.8913 -7.0951,6.377 -3.0294,1.487 -6.5371,2.2326 -10.5231,2.2326 h -12.1972 v 22.3219 z m 9.407,-30.6923 h 12.4364 c 2.1264,0 3.9862,-0.3978 5.5807,-1.2745 1.5946,-0.8478 2.8439,-2.0203 3.7471,-3.5075 0.9037,-1.5446 1.3553,-3.3487 1.3553,-5.4214 0,-2.0731 -0.45,-3.8554 -1.3553,-5.3416 -0.9032,-1.5437 -2.1526,-2.7106 -3.7471,-3.5081 -1.5945,-0.848 -3.4543,-1.2744 -5.5807,-1.2744 h -12.4364 z" fill="#011327" id="path2-6" style="clip-rule: evenodd; display: inline; fill-rule: evenodd; stroke-width: 5.6943; shape-rendering: geometricprecision; text-rendering: geometricprecision;" /><path d="m 180.34265,2167.9589 c -2.2648,0 -4.4372,0.901 -6.039,2.4997 l -19.5852,19.5852 -11.044,-11.0439 c -1.1948,-1.1958 -2.714,-2.005 -4.3705,-2.3345 -1.6566,-0.341 -3.3775,-0.1827 -4.9383,0.5117 -1.5604,0.6441 -2.8986,1.7302 -3.8372,3.1382 -0.9386,1.4054 -1.4337,3.058 -1.4346,4.7491 v 45.2104 c 0.01,5.6603 2.2587,11.0888 6.2616,15.0915 4.0034,4.0035 9.4308,6.2553 15.0921,6.2619 h 59.7905 c 5.6615,-0.011 11.089,-2.2615 15.0921,-6.2619 4.0033,-4.0035 6.2546,-9.4306 6.2616,-15.0915 v -45.2108 c 5e-4,-1.6907 -0.4955,-3.3427 -1.4345,-4.7491 -0.9385,-1.4056 -2.2766,-2.4997 -3.837,-3.1486 -1.5611,-0.6499 -3.28,-0.8191 -4.9378,-0.5119 -1.6576,0.3452 -3.1781,1.1486 -4.3706,2.3455 l -11.0437,11.0431 -19.5854,-19.5854 c -1.6019,-1.5991 -3.7743,-2.4997 -6.0391,-2.4997 z m 0,8.541 22.5994,22.5993 c 0.8012,0.804 1.8924,1.2582 3.025,1.2582 1.1325,0 2.2237,-0.4558 3.0249,-1.2582 l 14.058,-14.0578 v 45.2103 c 0,3.3995 -1.3456,6.6607 -3.7483,9.0637 -2.403,2.4029 -5.6666,3.747 -9.0641,3.747 h -59.7904 c -3.398,0 -6.6611,-1.343 -9.0641,-3.747 -2.4026,-2.4026 -3.7482,-5.6661 -3.7482,-9.0637 v -45.2103 l 14.0689,14.0578 c 0.8008,0.804 1.8815,1.2582 3.0142,1.2582 1.1325,0 2.2135,-0.4558 3.0141,-1.2582 z" id="path3-4" style="clip-rule: evenodd; display: inline; fill: rgb(255, 156, 0); fill-opacity: 1; fill-rule: evenodd; stroke-width: 5.6943; shape-rendering: geometricprecision; text-rendering: geometricprecision;" /></g></g><g id="info-panel"><rect x="10" y="10" width="320" height="140" rx="8" fill="#1a1a2e" fill-opacity="0.95" stroke="#444" /><text x="25" y="40" fill="#FFD700" font-family="Arial" font-size="18" font-weight="bold">Freedom Mortgage Pavilion</text><text id="section-info" x="25" y="70" fill="white" font-family="monospace" font-size="13">Click a section to see details</text></g><script type="text/javascript">&lt;![CDATA[
function showSectionInfo(evt) {
    var g = evt.currentTarget;
    var id = g.getAttribute('data-section-id');
    var rows = g.getAttribute('data-rows');
    var spr = g.getAttribute('data-seats-per-row');
    var total = g.getAttribute('data-total-seats');
    var price = g.getAttribute('data-current-price');
    var avail = g.getAttribute('data-available');
    
    var info = document.getElementById('section-info');
    if (info) {
        while (info.firstChild) info.removeChild(info.firstChild);
        
        var lines = [
            'Section ' + id,
            'Rows: ' + rows + ' | Seats/Row: ' + spr,
            'Total Seats: ' + total,
            'Price: $' + price,
            'Available: ' + (avail === 'true' ? 'Yes' : 'No')
        ];
        
        lines.forEach(function(line, i) {
            var tspan = document.createElementNS('http://www.w3.org/2000/svg', 'tspan');
            tspan.setAttribute('x', '25');
            tspan.setAttribute('dy', i === 0 ? '0' : '18');
            tspan.textContent = line;
            info.appendChild(tspan);
        });
    }
}
]]&gt;</script></svg>