<?xml version="1.0" encoding="UTF-8"?>
<svg xmlns="http://www.w3.org/2000/svg" class="m h-full w-full p-2 lg:p-4 zoom-transition" data-zoom-enabled="false" height="3in" id="svg9" style="clip-rule: evenodd; fill-rule: evenodd; shape-rendering: geometricprecision; text-rendering: geometricprecision; transform-origin: 0px 0px 0px; transform: matrix(1, 0, 0, 1, 0, 0);" version="1.1" viewBox="0 0 1917.0001 3000" width="1.9170002in" xml:space="preserve"><defs id="defs1"><style id="style1" type="text/css">
   
    .str0 {stroke:#272626;stroke-width:3;stroke-miterlimit:2.61313}
    .str1 {stroke:black;stroke-width:3;stroke-miterlimit:2.61313}
    .str2 {stroke:#1A1A1A;stroke-width:3;stroke-miterlimit:2.61313}
    .fil0 {fill:none}
    .fil3 {fill:black}
    .fil1 {fill:#1A1A1A}
    .fil2 {fill:gray}
    .fil4 {fill:white}
    .fnt2 {font-weight:normal;font-size:56px;font-family:'Arial'}
    .fnt1 {font-weight:normal;font-size:111px;font-family:'Arial'}
    .fnt0 {font-weight:normal;font-size:139px;font-family:'Arial'}
    .section-path{fill:#CCCCCC;stroke:black;stroke-width:2}
    .section-label{fill:black;font-family:'Arial'}
    .static{fill:#999999; stroke:black;stroke-width:2}
    .static1 {fill:#333333} 
   
  </style></defs><g id="Layer_x0020_1"><metadata id="CorelCorpID_0Corel-Layer" /><g id="parent-group"><g id="static-elements"><path class="fil0 str0" d="m 1878,1870 c -59,291 -220,571 -440,769 l -46,41 v 2 c 58,2 115,3 173,5 l 73,2 4,73 c 2,45 4,90 7,135 l 4,85 -85,-3 c -201,-6 -401,-14 -602,-14 -201,0 -401,8 -601,14 l -85,3 4,-85 c 2,-45 4,-90 7,-135 l 4,-73 73,-2 c 53,-1 105,-3 158,-5 v -3 l -45,-40 C 268,2447 54,2080 17,1776 v 0 0 -112 c -1,-39 1,-76 3,-115 1,-8 1,-17 2,-25 9,-117 19,-233 28,-350 v 0 l 11,-134 c 7,-94 15,-187 22,-281 2,-27 5,-54 10,-81 3,-33 6,-66 9,-98 l 4,-47 v 0 c 9,-97 22,-193 31,-290 l 5,-49 47,-17 C 452,81 733,15 1015,18 c 252,2 494,58 724,162 l 42,19 4,45 c 25,265 54,523 75,790 l 11,133 v 0 c 9,119 19,238 28,356 1,8 1,16 2,24 5,68 4,135 2,203 v 0 21 l -22,98 z" id="path1" style="fill: rgb(255, 255, 255); stroke: rgb(0, 0, 0); stroke-width: 7; stroke-dasharray: none;" /><path class="fil1 str1" d="M 1012.0036,97.005207 C 764.00382,95.005209 498.00932,149.00808 214.0096,254.00797 206.00961,336.00789 197.99934,418.99699 190.99935,500.9969 330.99921,441.99696 466.00224,398.99818 598.00211,368.99821 c 131.99987,-29.99997 260.0068,-44.00635 386.00667,-44.00635 125.99992,2 249.98282,18.01435 373.98272,48.01432 123.9999,29.99997 247.0187,72.98769 369.0186,128.98763 -8,-82.99992 -15.0103,-165.98592 -23.0103,-247.98584 C 1491,156.00807 1261.0033,99.005205 1012.0036,97.005207 Z M 982.99153,330.99365 c -125.99988,0 -254.98337,15.00328 -386.98323,45.00325 -131.99987,30.99997 -267.99982,76.00983 -407.99968,135.00977 l -8.01595,50.9847 v 39.00146 c 140.99986,-59.99994 278.00778,-105.98635 412.00765,-135.98632 132.99987,-30.99997 263.99133,-46.00326 390.99121,-45.00326 127.99987,1 254.00807,17.99092 379.00797,48.99089 124.9999,30.99997 250.0032,76.016 374.0031,133.01595 v -39.00147 l -7.9956,-51.00504 C 1605.0071,455.00363 1481.9914,411.00485 1357.9915,380.00488 1233.9916,349.00491 1108.9914,332.99365 982.99153,330.99365 Z m 2.01416,103.007 c -127.99987,0 -258.0086,15.00019 -392.00846,46.00016 -133.99987,30.99997 -272.00161,77.00055 -414.00146,138.00049 l -10.98633,85.99853 v 30.00895 c 142.91959,-62.2859 282.06176,-108.81375 417.52115,-140.19775 -135.38338,31.626 -274.56063,78.40794 -417.52115,141.19466 -4,23.99998 -7.01286,47.00426 -9.01286,71.00423 l -21.993,241.98408 v 39.0014 c 52.99995,-23.9999 105.00282,-45.9993 157.00276,-65.9993 35.99997,-73.99994 73.98719,-144.0048 115.98715,-209.00473 98.9999,-31.99997 196.01262,-56.99807 292.01253,-72.99805 95.9999,-15.99998 189.99976,-23.98682 282.99967,-23.98682 16.00001,0 30.99711,-0.003 46.99711,0.99691 78.9999,3 156.9885,12.9979 233.9884,26.99789 76.9999,13.99998 154.0181,33.99758 231.0181,59.99755 51.9999,70.99993 92.9987,142.00968 131.9987,214.00965 49.9999,18.9999 99.9837,39.9883 149.9837,62.9882 v -39.0014 l -21.993,-236.00263 c -2,-24.99998 -4.9925,-48.99807 -8.9925,-72.99805 v 0.99691 C 1598.5687,653.76389 1442.87,599.16981 1280.9855,569.70214 1443.323,598.69338 1599.5982,652.89209 1750,730.99771 h 0.9969 v -29.9886 l -11.0067,-82.01091 c -123.9999,-57.99994 -249.0001,-102.98945 -375,-134.98942 -125.9999,-31.99996 -251.9846,-48.00813 -379.98451,-50.00813 z m -7.99561,500.9969 c -134.99986,0 -273.00469,17.9989 -413.00455,52.99886 -139.99986,35.99999 -283.01007,88.99979 -431.00993,157.99969 -11.99998,140.9998 -22.99659,281.9972 -33.996577,421.997 -0.999999,8 -0.993817,16.0072 -1.993816,24.0072 0,7 0.0031,13.9961 -0.996907,20.9961 -0.999999,4 -1.017253,7.0067 -1.017253,11.0067 0,3 -0.996907,21.9868 -0.996907,23.9868 v 39.0015 c 0.332764,-0.1686 0.664181,-0.3199 0.996907,-0.4883 v 30.4972 C 97.991044,1790.0002 108.00002,1862.01 125,1931.0099 c 62.99994,270.9997 218.00295,518.9885 407.00276,687.9883 105.9999,-68.9999 251.98876,-117.0062 404.98861,-123.0062 152.99983,-6 314.01543,32.0063 449.01533,123.0062 188.9998,-168.9998 344.0028,-416.9886 407.0027,-687.9883 18,-70.9999 27.9886,-145.0084 29.9886,-221.0083 v -28.9917 -39.0015 c 0,-1.9999 -0.9969,-15.0084 -0.9969,-17.0084 0,-4 -0.9969,-8.0067 -0.9969,-11.0067 0,-7 0,-13.9961 -0.9969,-20.9961 -1,-8 -1.0142,-16.0072 -2.0142,-24.0071 -11.9999,-142.9999 -22.9965,-284.999 -33.9965,-427.9989 v -0.9969 C 1648.9967,1075.9944 1514.0047,1026.0074 1380.0049,991.00748 1246.005,956.00751 1112.0099,936.99755 977.01008,934.99755 Z m -5.00488,506.99865 c 139.9999,1 279.9972,22.0118 421.9971,62.0118 124.8766,35.1765 249.7513,85.8517 376.6683,149.9226 l -376.6683,-122.9248 c -139.9999,-44.9999 -281.9972,-61.0117 -421.9971,-62.0117 -141.99986,1 -286.01007,19.9994 -431.00992,65.9994 l -396.993,127.299 c 134.51841,-65.1907 266.05602,-116.9169 395.99609,-154.2969 145.99985,-42 290.00697,-64.9994 432.00683,-65.9994 z m -5.00488,1226.0132 c -135.99987,0 -260.0053,50.9877 -347.00521,128.9876 -83.99991,2 -167.9939,4.9987 -251.99381,6.9987 v -0.9969 l -6.9987,97.0052 v 38.0046 c 200.9998,-6 403.0041,-14.0177 604.0039,-14.0177 200.9998,0 402.9838,8.0177 603.9836,14.0177 v -38.0046 l -6.9987,-96.0083 c -82,-2 -164.986,-4.9987 -247.9859,-6.9987 -86.9999,-77.9999 -210.0053,-128.9876 -347.00518,-128.9876 z" id="path2" style="fill: rgb(0, 0, 0); stroke: none;" /><g id="g1"><path class="fil2 str2" d="m 368,2766 c 84,-2 168,-5 252,-7 87,-78 211,-129 347,-129 137,0 260,50 347,129 83,2 166,5 248,7 2,45 4,90 7,135 -201,-6 -403,-14 -604,-14 -201,0 -403,8 -604,14 2,-45 4,-90 7,-135 z" id="path9" style="fill: rgb(102, 102, 102); stroke: none;" /><text class="fil3 fnt0" id="text9" style="font-size: 111.111px; stroke-width: 0.773932;" x="781.31592" y="2823.3425">STAGE</text></g></g><g id="sections"><g class="interactive-section" data-section-id="orch" id="orch-group" data-rows="7" data-seats-per-row="40" data-total-seats="280" data-price-min="25.00" data-price-max="500.00" data-current-price="475.06" data-available="true" onclick="showSectionInfo(evt)" style="cursor:pointer;"><title>Section orch | 7 rows × 40 seats | $475.06</title><path class="section-path" d="m 1823,1671 c -2,76 -12,150 -30,221 -63,271 -218,519 -407,688 -135,-91 -296,-129 -449,-123 -153,6 -299,54 -405,123 -189,-169 -344,-418 -407,-688 -17,-69 -27,-141 -30,-214 151,-78 300,-139 446,-181 146,-42 289,-65 431,-66 140,1 281,21 422,62 141,41 284,101 429,179 z" data-default-color="rgb(153, 153, 153)" data-id="1275071" id="orch-section" style="fill:#e74c3c; stroke: rgb(102, 102, 102); transition-delay: 0s; transition-duration: 0s;" fill="#e74c3c" /><text class="section-label orch-label" font-size="111px" id="torch" style="font-size: 83.3333px; text-align: center; text-anchor: middle;" x="952.84521" y="1983.6282">ORCHESTRA</text><text class="section-label orch-label" fill="#000000" font-size="12px" id="orch-label" text-anchor="middle" x="58.06" y="50.68">ORCH</text></g><g class="interactive-section" data-section-id="orch-stadium" id="orch-stadium-group" data-rows="5" data-seats-per-row="24" data-total-seats="120" data-price-min="25.00" data-price-max="500.00" data-current-price="410.35" data-available="true" onclick="showSectionInfo(evt)" style="cursor:pointer;"><title>Section orch-stadium | 5 rows × 24 seats | $410.35</title><path class="section-path" d="m 1784,1102 c 11,143 22,285 34,428 1,8 1,16 2,24 1,7 1,14 1,21 0,4 1,8 1,11 0,2 0,4 0,7 1,17 1,32 1,49 -145,-77 -287,-137 -429,-177 -142,-40 -282,-61 -422,-62 -142,1 -286,24 -432,65 -146,42 -294,102 -446,179 0,-19 0,-37 1,-55 0,-2 0,-4 0,-7 0,-3 0,-7 1,-11 1,-7 1,-14 1,-21 1,-8 1,-16 2,-24 11,-141 22,-281 34,-422 148,-70 291,-122 431,-158 140,-35 278,-53 413,-53 135,2 269,21 403,56 134,35 269,85 404,148 z" data-default-color="rgb(153, 153, 153)" data-id="1275072" id="orch-stadium-section" style="fill:#e74c3c; stroke: rgb(102, 102, 102); transition-delay: 0s; transition-duration: 0s;" fill="#e74c3c" /><text class="section-label orch-stadium-label" font-size="111px" id="torch-stadium" style="font-size: 83.3333px; text-align: center; text-anchor: middle;" x="952.55176" y="1246">ORCHESTRA STADIUM</text><text class="section-label orch-stadium-label" fill="#000000" font-size="12px" id="orch-stadium-label" text-anchor="middle" x="29.52" y="13.41">ORCH-STADIUM</text></g><g class="interactive-section" data-section-id="front-mezz" id="front-mezz-group" data-rows="21" data-seats-per-row="30" data-total-seats="630" data-price-min="25.00" data-price-max="500.00" data-current-price="287.29" data-available="true" onclick="showSectionInfo(evt)" style="cursor:pointer;"><title>Section front-mezz | 21 rows × 30 seats | $287.29</title><path class="section-path" d="m 1754,735 c 1,10 2,20 3,31 7,92 15,183 22,274 -50,-23 -100,-44 -150,-63 -39,-72 -80,-143 -132,-214 -77,-25 -154,-46 -231,-60 -77,-14 -155,-24 -234,-27 0,0 0,0 0,0 0,0 0,0 0,0 -16,-1 -31,-1 -47,-1 -93,0 -187,8 -283,24 -96,16 -193,41 -292,73 -42,65 -80,135 -116,208 -52,20 -104,42 -157,66 7,-93 15,-187 22,-281 1,-10 2,-20 3,-30 298,-132 580,-195 845,-193 264,2 513,67 747,193 z" data-default-color="rgb(153, 153, 153)" data-id="1275073" id="front-mezz-section" style="fill:#f39c12; stroke: rgb(102, 102, 102); transition-delay: 0s; transition-duration: 0s;" fill="#f39c12" /><text class="section-label front-mezz-label" font-size="56px" id="tfront-mezz" x="694" y="640">FRONT MEZZANINE</text><text class="section-label front-mezz-label" fill="#000000" font-size="12px" id="front-mezz-label" text-anchor="middle" x="35.25" y="7.81">FRONT-MEZZ</text></g><g class="interactive-section" data-section-id="mid-mezz" id="mid-mezz-group" data-rows="21" data-seats-per-row="28" data-total-seats="588" data-price-min="25.00" data-price-max="500.00" data-current-price="133.81" data-available="true" onclick="showSectionInfo(evt)" style="cursor:pointer;"><title>Section mid-mezz | 21 rows × 28 seats | $133.81</title><path class="section-path" d="M 1750,701 C 1517,580 1270,516 1008,515 744,513 464,575 168,704 c 1,-40 5,-79 11,-116 142,-61 280,-107 414,-138 134,-31 264,-46 392,-46 128,2 254,18 380,50 126,32 251,77 375,135 5,36 10,75 11,112 z" data-default-color="rgb(153, 153, 153)" data-id="1275074" id="mid-mezz-section" style="fill:#3498db; stroke: rgb(102, 102, 102); transition-delay: 0s; transition-duration: 0s;" fill="#3498db" /><text class="section-label mid-mezz-label" font-size="56px" id="tmid-mezz" x="685" y="490">MIDDLE MEZZANINE</text><text class="section-label mid-mezz-label" fill="#000000" font-size="12px" id="mid-mezz-label" text-anchor="middle" x="404.16" y="159.08">MID-MEZZ</text></g><g class="interactive-section" data-section-id="rear-mezz" id="rear-mezz-group" data-rows="10" data-seats-per-row="37" data-total-seats="370" data-price-min="25.00" data-price-max="500.00" data-current-price="67.81" data-available="true" onclick="showSectionInfo(evt)" style="cursor:pointer;"><title>Section rear-mezz | 10 rows × 37 seats | $67.81</title><path class="section-path" d="M 213,251 C 497,147 763,94 1011,96 c 249,2 479,59 692,155 10,106 24,209 33,312 -124,-57 -249,-102 -374,-133 -125,-31 -251,-48 -379,-50 -127,0 -258,15 -391,45 -134,30 -271,76 -412,136 9,-104 23,-205 33,-311 z" data-default-color="rgb(153, 153, 153)" data-id="1275075" id="rear-mezz-section" style="fill:#27ae60; stroke: rgb(102, 102, 102); transition-delay: 0s; transition-duration: 0s;" fill="#27ae60" /><text class="section-label rear-mezz-label" font-size="56px" id="trear-mezz" x="712" y="270">REAR MEZZANINE</text><text class="section-label rear-mezz-label" fill="#000000" font-size="12px" id="rear-mezz-label" text-anchor="middle" x="37.64" y="27.68">REAR-MEZZ</text></g></g><g id="seats" style="clip-rule: evenodd; fill-rule: evenodd; shape-rendering: geometricprecision; text-rendering: geometricprecision;"><text id="text1" style="font-size: 47.1561px; font-family: arial; text-align: center; text-anchor: middle; fill: rgb(0, 0, 0); stroke: none; stroke-width: 0.848811;" x="542.15643" xml:space="preserve" y="2542.092"><tspan id="tspan1" style="fill: rgb(0, 0, 0); stroke: none; stroke-width: 0.848811;" x="542.15643" y="2542.092">BB</tspan></text><text id="text2" style="font-size: 47.1561px; font-family: arial; text-align: center; text-anchor: middle; fill: rgb(0, 0, 0); stroke: none; stroke-width: 0.848811;" x="437.46329" xml:space="preserve" y="2435.5938"><tspan id="tspan2" style="fill: rgb(0, 0, 0); stroke: none; stroke-width: 0.848811;" x="437.46329" y="2435.5938">EE</tspan></text><text id="text3" style="font-size: 47.1561px; font-family: arial; text-align: center; text-anchor: middle; fill: rgb(0, 0, 0); stroke: none; stroke-width: 0.848811;" x="406.77737" xml:space="preserve" y="2390.4673"><tspan id="tspan3" style="fill: rgb(0, 0, 0); stroke: none; stroke-width: 0.848811;" x="406.77737" y="2390.4673">A</tspan></text><text id="text4" style="font-size: 47.1561px; font-family: arial; text-align: center; text-anchor: middle; fill: rgb(0, 0, 0); stroke: none; stroke-width: 0.848811;" x="123.38388" xml:space="preserve" y="1722.5973"><tspan id="tspan4" style="fill: rgb(0, 0, 0); stroke: none; stroke-width: 0.848811;" x="123.38388" y="1722.5973">P</tspan></text><text id="text5" style="font-size: 47.1561px; font-family: arial; text-align: center; text-anchor: middle; fill: rgb(0, 0, 0); stroke: none; stroke-width: 0.848811;" x="125.18893" xml:space="preserve" y="1603.4637"><tspan id="tspan5" style="fill: rgb(0, 0, 0); stroke: none; stroke-width: 0.848811;" x="125.18893" y="1603.4637">Q</tspan></text><text id="text6" style="font-size: 47.1561px; font-family: arial; text-align: center; text-anchor: middle; fill: rgb(0, 0, 0); stroke: none; stroke-width: 0.848811;" x="155.65585" xml:space="preserve" y="1203.6177"><tspan id="tspan6" style="fill: rgb(0, 0, 0); stroke: none; stroke-width: 0.848811;" x="155.65585" y="1203.6177">Z</tspan></text><text id="text7" style="font-size: 47.1561px; font-family: arial; text-align: center; text-anchor: middle; fill: rgb(0, 0, 0); stroke: none; stroke-width: 0.848811;" x="171.28195" xml:space="preserve" y="1144.6703"><tspan id="tspan7" style="fill: rgb(0, 0, 0); stroke: none; stroke-width: 0.848811;" x="171.28195" y="1144.6703">ZZ</tspan></text><text id="text8" style="font-size: 47.1561px; font-family: arial; text-align: center; text-anchor: middle; fill: rgb(0, 0, 0); stroke: none; stroke-width: 0.848811;" x="186.66248" xml:space="preserve" y="918.11212"><tspan id="tspan8" style="fill: rgb(0, 0, 0); stroke: none; stroke-width: 0.848811;" x="186.66248" y="918.11212">EE</tspan></text><text id="text10" style="font-size: 47.1561px; font-family: arial; text-align: center; text-anchor: middle; fill: rgb(0, 0, 0); stroke: none; stroke-width: 0.848811;" x="178.94016" xml:space="preserve" y="1009.3755"><tspan id="tspan9" style="fill: rgb(0, 0, 0); stroke: none; stroke-width: 0.848811;" x="178.94016" y="1009.3755">AA</tspan></text><text id="text11" style="font-size: 47.1561px; font-family: arial; text-align: center; text-anchor: middle; fill: rgb(0, 0, 0); stroke: none; stroke-width: 0.848811;" x="186.66248" xml:space="preserve" y="870.8866"><tspan id="tspan10" style="fill: rgb(0, 0, 0); stroke: none; stroke-width: 0.848811;" x="186.66248" y="870.8866">A</tspan></text><text id="text12" style="font-size: 47.1561px; font-family: arial; text-align: center; text-anchor: middle; fill: rgb(0, 0, 0); stroke: none; stroke-width: 0.848811;" x="187.41016" xml:space="preserve" y="774.75873"><tspan id="tspan11" style="fill: rgb(0, 0, 0); stroke: none; stroke-width: 0.848811;" x="187.41016" y="774.75873">D</tspan></text><text id="text13" style="font-size: 47.1561px; font-family: arial; text-align: center; text-anchor: middle; fill: rgb(0, 0, 0); stroke: none; stroke-width: 0.848811;" transform="translate(8.9345621,-98.280184)" x="187.41016" xml:space="preserve" y="774.75873"><tspan id="tspan12" style="fill: rgb(0, 0, 0); stroke: none; stroke-width: 0.848811;" x="187.41016" y="774.75873">F</tspan></text><text id="text14" style="font-size: 47.1561px; font-family: arial; text-align: center; text-anchor: middle; fill: rgb(0, 0, 0); stroke: none; stroke-width: 0.848811;" x="198.89745" xml:space="preserve" y="626.70026"><tspan id="tspan13" style="fill: rgb(0, 0, 0); stroke: none; stroke-width: 0.848811;" x="198.89745" y="626.70026">G</tspan></text><text id="text15" style="font-size: 47.1561px; font-family: arial; text-align: center; text-anchor: middle; fill: rgb(0, 0, 0); stroke: none; stroke-width: 0.848811;" x="212.93747" xml:space="preserve" y="533.52551"><tspan id="tspan14" style="fill: rgb(0, 0, 0); stroke: none; stroke-width: 0.848811;" x="212.93747" y="533.52551">H</tspan></text><text id="text16" style="font-size: 47.1561px; font-family: arial; text-align: center; text-anchor: middle; fill: rgb(0, 0, 0); stroke: none; stroke-width: 0.848811;" x="235.91206" xml:space="preserve" y="288.46323"><tspan id="tspan15" style="fill: rgb(0, 0, 0); stroke: none; stroke-width: 0.848811;" x="235.91206" y="288.46323">N</tspan></text><path d="M 236.12773,305.05149 218.2586,483.74274" id="path16" style="fill: none; stroke: rgb(0, 0, 0); stroke-width: 2; stroke-dasharray: none;" /><path d="m 190.17855,786.2415 -3.82911,39.56735" id="path17" style="fill: none; stroke: rgb(0, 0, 0); stroke-width: 2; stroke-dasharray: none;" /><path d="m 186.34944,926.64177 -2.55273,39.56734" id="path18" style="fill: none; stroke: rgb(0, 0, 0); stroke-width: 2; stroke-dasharray: none;" /><path d="m 156.99303,1215.1005 -26.80369,336.9607" id="path19" style="fill: none; stroke: rgb(0, 0, 0); stroke-width: 2; stroke-dasharray: none;" /><path d="m 128.91297,1734.5815 c 44.76612,260.5656 130.52408,468.6616 260.37868,620.3139" id="path20" style="fill: none; stroke: rgb(0, 0, 0); stroke-width: 2; stroke-dasharray: none;" /><path d="m 467.14998,2449.3465 43.39645,44.6729" id="path21" style="fill: none; stroke: rgb(0, 0, 0); stroke-width: 2; stroke-dasharray: none;" /></g></g></g><g id="info-panel"><rect x="10" y="10" width="320" height="140" rx="8" fill="#1a1a2e" fill-opacity="0.95" stroke="#444" /><text x="25" y="40" fill="#FFD700" font-family="Arial" font-size="18" font-weight="bold">Gershwin Theatre</text><text id="section-info" x="25" y="70" fill="white" font-family="monospace" font-size="13">Click a section to see details</text></g><script type="text/javascript">&lt;![CDATA[
function showSectionInfo(evt) {
    var g = evt.currentTarget;
    var id = g.getAttribute('data-section-id');
    var rows = g.getAttribute('data-rows');
    var spr = g.getAttribute('data-seats-per-row');
    var total = g.getAttribute('data-total-seats');
    var price = g.getAttribute('data-current-price');
    var avail = g.getAttribute('data-available');
    
    var info = document.getElementById('section-info');
    if (info) {
        while (info.firstChild) info.removeChild(info.firstChild);
        
        var lines = [
            'Section ' + id,
            'Rows: ' + rows + ' | Seats/Row: ' + spr,
            'Total Seats: ' + total,
            'Price: $' + price,
            'Available: ' + (avail === 'true' ? 'Yes' : 'No')
        ];
        
        lines.forEach(function(line, i) {
            var tspan = document.createElementNS('http://www.w3.org/2000/svg', 'tspan');
            tspan.setAttribute('x', '25');
            tspan.setAttribute('dy', i === 0 ? '0' : '18');
            tspan.textContent = line;
            info.appendChild(tspan);
        });
    }
}
]]&gt;</script></svg>