<?xml version="1.0" encoding="UTF-8"?>
<svg xmlns="http://www.w3.org/2000/svg" class="m h-full w-full p-2 lg:p-4 zoom-transition" data-zoom-enabled="false" height="3in" style="shape-rendering: geometricprecision; text-rendering: geometricprecision; fill-rule: evenodd; clip-rule: evenodd; transform-origin: 0px 0px 0px; transform: matrix(1, 0, 0, 1, 0, 0);" version="1.1" viewBox="0 0 2212 3000" width="2.212in" xml:space="preserve"><defs><style type="text/css">
   
    .str0 {stroke:black;stroke-width:2.78;stroke-miterlimit:2.61313}
    .str1 {stroke:black;stroke-width:3;stroke-miterlimit:2.61313}
    .str2 {stroke:#666666;stroke-width:3;stroke-miterlimit:2.61313}
    .fil3 {fill:black}
    .fil1 {fill:black}
    .fil2 {fill:#666666}
    .fil4 {fill:#CCCCCC}
    .fil0 {fill:white}
    .fnt3 {font-weight:normal;font-size:27.78px;font-family:'Arial'}
    .fnt4 {font-weight:normal;font-size:34.72px;font-family:'Arial'}
    .fnt2 {font-weight:normal;font-size:41.67px;font-family:'Arial'}
    .fnt0 {font-weight:normal;font-size:83.33px;font-family:'Arial'}
    .fnt1 {font-weight:normal;font-size:111.11px;font-family:'Arial'}
    .section-path{fill:#CCCCCC;stroke:#666666;stroke-width:2}
    .section-label{fill:#black;font-family:'Arial'}
    .static{fill:#999999; stroke:#848688;stroke-width:2}
   
  </style></defs><g id="Layer_x0020_1"><metadata id="CorelCorpID_0Corel-Layer" /><g id="parent-group"><g id="static-elements"><polygon class="fil0 str0" points="4.43,1252.49 446.48,1252.49 446.48,1090.03 412.46,1030.13 291.57,1099.92 49.37,681.7 315.73,528.38 404.66,685 493.09,685 493.09,418.75 801.62,252.24 801.62,5 1408.12,5 1408.12,254.38 1705.78,411.24 1705.78,471.19 1866.15,555.24 1813.07,686.74 2057.72,878.44 2057.72,969.04 2200.91,969.04 2200.91,1545.97 2061.77,1545.97 2061.77,2042.9 2206.24,2042.9 2206.24,2643.94 1771.16,2643.94 1771.16,2995 147.82,2995 147.82,1545.97 4.43,1545.97 " /><path class="fil1 str1" d="M1972.2 1777.9l0 364.09 144.48 0 0 412.37 -435.09 0 0 351.07 -1444.2 0 0 -1127.54 711.61 0 0 337.39 310.61 0 0 -337.39 712.6 0zm-712.6 -298.39l712.6 0 0 271.39 -712.6 0 0 -271.39zm-1022.22 0l711.61 0 0 271.39 -711.61 0 0 -271.39zm45 -818.93l-105.78 51.54 0 9.53 147.75 255.91 103.95 -60.02 0 -9.53 -145.92 -247.44zm1264.53 735.91l135.09 0 0 -318.94 -135.09 0 0 318.94zm-142.49 0l122.24 0 0 -318.94 -122.24 0 0 318.94zm-144.74 0l124.49 0 0 -318.94 -124.49 0 0 318.94zm-290.54 0l270.29 0 0 -318.94 -270.29 0 0 318.94zm-142.17 0l121.93 0 0 -318.94 -121.93 0 0 318.94zm-142.35 0l122.11 0 0 -318.94 -122.11 0 0 318.94zm-148.58 -318.94l0 318.94 128.33 0 0 -318.94 -128.33 0zm1010.87 -20.25l135.09 0 0 -273.21 -135.09 0 0 273.21zm-142.49 0l122.24 0 0 -273.21 -122.24 0 0 273.21zm-144.74 0l124.49 0 0 -273.21 -124.49 0 0 273.21zm-144.78 0l124.53 0 0 -273.21 -124.53 0 0 273.21zm-145.76 0l125.51 0 0 -273.21 -125.51 0 0 273.21zm-142.17 0l121.93 0 0 -273.21 -121.93 0 0 273.21zm-142.35 0l122.11 0 0 -273.21 -122.11 0 0 273.21zm-308.88 -273.21l155.15 273.21 133.48 0 0 -273.21 -288.63 -9.53 0 9.53zm206.91 -244.86l0 224.61 152.77 0 0 -304.78 -152.77 80.17zm152.77 -139.96l-152.77 82.45 0 34.74 152.77 -80.17 0 -37.03zm147.36 -7.84l-127.11 0 0 372.41 127.11 0 0 -372.41zm150.83 0l-130.59 0 0 372.41 130.59 0 0 -372.41zm274.72 0l-131.95 0 0 372.41 131.95 0 0 -372.41zm328.12 372.41l47.86 0 65.6 -158.81 0 -9.53 -113.46 -50.01 0 218.35zm-20.25 -251.75l0 -37.29 -144.31 -76.04 0 37.6 144.31 75.73zm-144.31 251.75l144.31 0 0 -228.98 -144.31 -75.72 0 304.7zm-20.25 -372.41l-123.06 0 0 372.41 123.06 0 0 -372.41zm-560.46 -287.33l427.37 0 0 255.57 -184.52 0 0 246.91 -59.94 0 0 -246.91 -182.91 0 0 -255.57zm368.5 1312.98l0 39.33 851.66 0 0 -388.26 -143.19 0 0 -136.56 -188.22 -147.48 -80.35 0 0 632.98 -439.91 0zm-310.78 0l0 39.33 -854.91 0 0 -104.81 421.54 0 0 65.49 433.37 0z" /><path class="fil2 str2" d="M969.15 1386.96l270.29 0c0,-106.31 0,-212.62 0,-318.94l-270.29 0 0 318.94z" /><path class="fil2 str2" d="M891.19 94.57l427.37 0c0,85.19 0,170.39 0,255.57l-184.52 0 0 246.91 -59.94 0 0 -246.91 -182.91 0 0 -255.57z" /><path class="fil2 str2" d="M1259.69 1407.54l0 39.33 851.66 0c0,-129.42 0,-258.84 0,-388.26l-143.19 0c0,-45.52 0,-91.04 0,-136.56l-188.22 -147.48 -80.35 0 0 632.98 -439.91 0z" /><path class="fil2 str2" d="M948.9 1407.54c0,13.11 0,26.22 0,39.33l-854.91 0 0 -104.81 421.54 0 0 65.49 433.37 0z" /><text class="fil3 fnt0" x="967.06" y="262.56">STAGE</text><text class="fil3 fnt0" x="1027.37" y="1257.33">MIX</text></g><g id="sections"><g class="interactive-section" data-section-id="ga" id="ga-group" data-rows="24" data-seats-per-row="11" data-total-seats="264" data-price-min="25.00" data-price-max="500.00" data-current-price="234.15" data-available="true" onclick="showSectionInfo(evt)" style="cursor:pointer;"><title>Section ga | 24 rows × 11 seats | $234.15</title><path class="section-path" d="M1972.2 1768.37c0,121.37 0,242.73 0,364.09l144.48 0 0 412.37 -435.09 0 0 351.07 -1444.2 0 0 -1127.54 711.61 0c0,112.46 0,224.93 0,337.39l310.61 0 0 -337.39 712.6 0z" data-default-color="rgb(204, 204, 204)" data-id="2991594" id="ga-section" style="transition-delay: 0s; transition-duration: 0s; fill:#f39c12;" fill="#f39c12" /><text class="section-label ga-label" font-size="111.11px" id="ga" x="829.35" y="2465.14">GENERAL</text><text class="section-label ga-label" font-size="111.11px" id="ga1" x="783.1" y="2589.26">ADMISSION</text><text class="section-label ga-label" fill="#000000" font-size="12px" id="ga-label" text-anchor="middle" x="116.01" y="145.29">GA</text></g><g class="interactive-section" data-section-id="ga-plus" id="ga-plus-group" data-rows="17" data-seats-per-row="29" data-total-seats="493" data-price-min="25.00" data-price-max="500.00" data-current-price="281.79" data-available="true" onclick="showSectionInfo(evt)" style="cursor:pointer;"><title>Section ga-plus | 17 rows × 29 seats | $281.79</title><path class="section-path" d="M237.39 1469.98l711.61 0c0,90.46 0,180.93 0,271.39l-711.61 0 0 -271.39zm1022.22 0l712.6 0c0,90.46 0,180.93 0,271.39l-712.6 0 0 -271.39z" data-default-color="rgb(204, 204, 204)" data-id="2991627" id="ga-plus-section" style="transition-delay: 0s; transition-duration: 0s; fill:#f39c12;" fill="#f39c12" /><text class="section-label ga-plus-label" font-size="111.11px" id="ga-plus" x="355.37" y="1645.45">GA PLUS</text><text class="section-label ga-plus-label" font-size="111.11px" id="ga-plus1" x="1378.08" y="1645.45">GA PLUS</text><text class="section-label ga-plus-label" fill="#000000" font-size="12px" id="ga-plus-label" text-anchor="middle" x="89.97" y="143.77">GA-PLUS</text></g><g class="interactive-section" data-section-id="pl1" id="pl1-group" data-rows="10" data-seats-per-row="33" data-total-seats="330" data-price-min="25.00" data-price-max="500.00" data-current-price="94.44" data-available="true" onclick="showSectionInfo(evt)" style="cursor:pointer;"><title>Section pl1 | 10 rows × 33 seats | $94.44</title><path class="section-path" d="M1636.46 754.31l47.86 0c21.87,-52.94 43.73,-105.87 65.6,-158.81l-113.46 -59.54 0 218.35z" data-default-color="rgb(204, 204, 204)" data-id="2991596" id="pl1-section" style="transition-delay: 0s; transition-duration: 0s; fill:#3498db;" fill="#3498db" /><text class="section-label pl1-label" font-size="41.67px" id="pl1" x="1655.15" y="630.67">PL1</text><text class="section-label pl1-label" fill="#000000" font-size="12px" id="pl1-label" text-anchor="middle" x="243.15" y="85.07">PL1</text></g><g class="interactive-section" data-section-id="pl2" id="pl2-group" data-rows="12" data-seats-per-row="31" data-total-seats="372" data-price-min="25.00" data-price-max="500.00" data-current-price="319.17" data-available="true" onclick="showSectionInfo(evt)" style="cursor:pointer;"><title>Section pl2 | 12 rows × 31 seats | $319.17</title><path class="section-path" d="M1471.9 754.31l144.31 0c0,-76.32 0,-152.65 0,-228.98l-144.31 -75.72 0 304.7z" data-default-color="rgb(204, 204, 204)" data-id="2991597" id="pl2-section" style="transition-delay: 0s; transition-duration: 0s; fill:#e74c3c;" fill="#e74c3c" /><text class="section-label pl2-label" font-size="41.67px" id="pl2" x="1507.34" y="638.19">PL2</text><text class="section-label pl2-label" fill="#000000" font-size="12px" id="pl2-label" text-anchor="middle" x="210.27" y="75.05">PL2</text></g><g class="interactive-section" data-section-id="pl3" id="pl3-group" data-rows="13" data-seats-per-row="22" data-total-seats="286" data-price-min="25.00" data-price-max="500.00" data-current-price="179.88" data-available="true" onclick="showSectionInfo(evt)" style="cursor:pointer;"><title>Section pl3 | 13 rows × 22 seats | $179.88</title><path class="section-path" d="M1451.65 381.9l-123.06 0 0 372.41 123.06 0c0,-124.14 0,-248.28 0,-372.41z" data-default-color="rgb(204, 204, 204)" data-id="2991598" id="pl3-section" style="transition-delay: 0s; transition-duration: 0s; fill:#f39c12;" fill="#f39c12" /><text class="section-label pl3-label" font-size="41.67px" id="pl3" x="1352.39" y="582.84">PL3</text><text class="section-label pl3-label" fill="#000000" font-size="12px" id="pl3-label" text-anchor="middle" x="207.38" y="1.35">PL3</text></g><g class="interactive-section" data-section-id="pl4" id="pl4-group" data-rows="10" data-seats-per-row="28" data-total-seats="280" data-price-min="25.00" data-price-max="500.00" data-current-price="426.21" data-available="true" onclick="showSectionInfo(evt)" style="cursor:pointer;"><title>Section pl4 | 10 rows × 28 seats | $426.21</title><path class="section-path" d="M1308.34 381.9l-131.95 0 0 372.41 131.95 0c0,-124.14 0,-248.28 0,-372.41z" data-default-color="rgb(204, 204, 204)" data-id="2991599" id="pl4-section" style="transition-delay: 0s; transition-duration: 0s; fill:#e74c3c;" fill="#e74c3c" /><text class="section-label pl4-label" font-size="41.67px" id="pl4" x="1204.69" y="583.02">PL4</text><text class="section-label pl4-label" fill="#000000" font-size="12px" id="pl4-label" text-anchor="middle" x="186.91" y="1.35">PL4</text></g><g class="interactive-section" data-section-id="pl5" id="pl5-group" data-rows="11" data-seats-per-row="33" data-total-seats="363" data-price-min="25.00" data-price-max="500.00" data-current-price="294.39" data-available="true" onclick="showSectionInfo(evt)" style="cursor:pointer;"><title>Section pl5 | 11 rows × 33 seats | $294.39</title><path class="section-path" d="M1033.62 381.9l-130.59 0 0 372.41 130.59 0c0,-124.14 0,-248.28 0,-372.41z" data-default-color="rgb(204, 204, 204)" data-id="2991600" id="pl5-section" style="transition-delay: 0s; transition-duration: 0s; fill:#f39c12;" fill="#f39c12" /><text class="section-label pl5-label" font-size="41.67px" id="pl5" x="930.49" y="582.78">PL5</text><text class="section-label pl5-label" fill="#000000" font-size="12px" id="pl5-label" text-anchor="middle" x="147.66" y="1.35">PL5</text></g><g class="interactive-section" data-section-id="pl6" id="pl6-group" data-rows="24" data-seats-per-row="13" data-total-seats="312" data-price-min="25.00" data-price-max="500.00" data-current-price="281.20" data-available="true" onclick="showSectionInfo(evt)" style="cursor:pointer;"><title>Section pl6 | 24 rows × 13 seats | $281.20</title><path class="section-path" d="M882.78 381.9l-127.11 0 0 372.41 127.11 0c0,-124.14 0,-248.28 0,-372.41z" data-default-color="rgb(204, 204, 204)" data-id="2991601" id="pl6-section" style="transition-delay: 0s; transition-duration: 0s; fill:#f39c12;" fill="#f39c12" /><text class="section-label pl6-label" font-size="41.67px" id="pl6" x="781.5" y="582.84">PL6</text><text class="section-label pl6-label" fill="#000000" font-size="12px" id="pl6-label" text-anchor="middle" x="126.11" y="1.35">PL6</text></g><g class="interactive-section" data-section-id="pl7" id="pl7-group" data-rows="21" data-seats-per-row="32" data-total-seats="672" data-price-min="25.00" data-price-max="500.00" data-current-price="428.13" data-available="true" onclick="showSectionInfo(evt)" style="cursor:pointer;"><title>Section pl7 | 21 rows × 32 seats | $428.13</title><path class="section-path" d="M582.65 529.7l0 224.61 152.77 0c0,-101.59 0,-203.18 0,-304.78l-152.77 80.17z" data-default-color="rgb(204, 204, 204)" data-id="2991602" id="pl7-section" style="transition-delay: 0s; transition-duration: 0s; fill:#e74c3c;" fill="#e74c3c" /><text class="section-label pl7-label" font-size="41.67px" id="pl7" x="621.32" y="638.13">PL7</text><text class="section-label pl7-label" fill="#000000" font-size="12px" id="pl7-label" text-anchor="middle" x="83.24" y="32.13">PL7</text></g><g class="interactive-section" data-section-id="ada-r" id="ada-r-group" data-rows="25" data-seats-per-row="28" data-total-seats="700" data-price-min="25.00" data-price-max="500.00" data-current-price="448.20" data-available="true" onclick="showSectionInfo(evt)" style="cursor:pointer;"><title>Section ada-r | 25 rows × 28 seats | $448.20</title><path class="section-path" d="M1616.21 502.57c0,-12.43 0,-24.86 0,-37.29l-144.31 -76.04 0 37.6 144.31 75.73z" data-default-color="rgb(204, 204, 204)" data-id="2991591" id="ada-r-section" style="transition-delay: 0s; transition-duration: 0s; fill:#e74c3c;" fill="#e74c3c" /><text class="section-label ada-r-label" font-size="27.78px" id="ada-r" transform="matrix(0.889478 0.456979 -0.456979 0.889478 1205.93 -1403.57)" x="1106" y="1500">ADA R</text><text class="section-label ada-r-label" fill="#000000" font-size="12px" id="ada-r-label" text-anchor="middle" x="230.89" y="66.47">ADA-R</text></g><g class="interactive-section" data-section-id="ada-l" id="ada-l-group" data-rows="15" data-seats-per-row="29" data-total-seats="435" data-price-min="25.00" data-price-max="500.00" data-current-price="125.78" data-available="true" onclick="showSectionInfo(evt)" style="cursor:pointer;"><title>Section ada-l | 15 rows × 29 seats | $125.78</title><path class="section-path" d="M735.42 389.74l-152.77 82.45 0 34.74 152.77 -80.17c0,-12.34 0,-24.69 0,-37.03z" data-default-color="rgb(204, 204, 204)" data-id="2991592" id="ada-l-section" style="transition-delay: 0s; transition-duration: 0s; fill:#3498db;" fill="#3498db" /><text class="section-label ada-l-label" font-size="27.78px" id="ada-l" transform="matrix(0.878936 -0.47694 0.47694 0.878936 -1053.16 -317.631)" x="1106" y="1500">ADA L</text><text class="section-label ada-l-label" fill="#000000" font-size="12px" id="ada-l-label" text-anchor="middle" x="105.06" y="50.39">ADA-L</text></g><g class="interactive-section" data-section-id="pr1" id="pr1-group" data-rows="18" data-seats-per-row="24" data-total-seats="432" data-price-min="25.00" data-price-max="500.00" data-current-price="28.86" data-available="true" onclick="showSectionInfo(evt)" style="cursor:pointer;"><title>Section pr1 | 18 rows × 24 seats | $28.86</title><path class="section-path" d="M1546.91 1047.78l135.09 0c0,-91.07 0,-182.14 0,-273.21l-135.09 0 0 273.21z" data-default-color="rgb(204, 204, 204)" data-id="2991626" id="pr1-section" style="transition-delay: 0s; transition-duration: 0s; fill:#27ae60;" fill="#27ae60" /><text class="section-label pr1-label" font-size="41.67px" id="pr1" x="1576.16" y="926.15">PR1</text><text class="section-label pr1-label" fill="#000000" font-size="12px" id="pr1-label" text-anchor="middle" x="220.99" y="110.65">PR1</text></g><g class="interactive-section" data-section-id="pr2" id="pr2-group" data-rows="7" data-seats-per-row="22" data-total-seats="154" data-price-min="25.00" data-price-max="500.00" data-current-price="322.21" data-available="true" onclick="showSectionInfo(evt)" style="cursor:pointer;"><title>Section pr2 | 7 rows × 22 seats | $322.21</title><path class="section-path" d="M1404.43 1047.78l122.24 0c0,-91.07 0,-182.14 0,-273.21l-122.24 0 0 273.21z" data-default-color="rgb(204, 204, 204)" data-id="2991628" id="pr2-section" style="transition-delay: 0s; transition-duration: 0s; fill:#e74c3c;" fill="#e74c3c" /><text class="section-label pr2-label" font-size="41.67px" id="pr2" x="1424.52" y="926.15">PR2</text><text class="section-label pr2-label" fill="#000000" font-size="12px" id="pr2-label" text-anchor="middle" x="200.63" y="110.65">PR2</text></g><g class="interactive-section" data-section-id="pr3" id="pr3-group" data-rows="9" data-seats-per-row="24" data-total-seats="216" data-price-min="25.00" data-price-max="500.00" data-current-price="459.17" data-available="true" onclick="showSectionInfo(evt)" style="cursor:pointer;"><title>Section pr3 | 9 rows × 24 seats | $459.17</title><path class="section-path" d="M1259.69 1047.78l124.49 0c0,-91.07 0,-182.14 0,-273.21l-124.49 0 0 273.21z" data-default-color="rgb(204, 204, 204)" data-id="2991613" id="pr3-section" style="transition-delay: 0s; transition-duration: 0s; fill:#e74c3c;" fill="#e74c3c" /><text class="section-label pr3-label" font-size="41.67px" id="pr3" x="1280.74" y="925.9">PR3</text><text class="section-label pr3-label" fill="#000000" font-size="12px" id="pr3-label" text-anchor="middle" x="179.96" y="110.65">PR3</text></g><g class="interactive-section" data-section-id="pr4" id="pr4-group" data-rows="5" data-seats-per-row="11" data-total-seats="55" data-price-min="25.00" data-price-max="500.00" data-current-price="54.75" data-available="true" onclick="showSectionInfo(evt)" style="cursor:pointer;"><title>Section pr4 | 5 rows × 11 seats | $54.75</title><path class="section-path" d="M1114.91 1047.78l124.53 0c0,-91.07 0,-182.14 0,-273.21l-124.53 0 0 273.21z" data-default-color="rgb(204, 204, 204)" data-id="2991614" id="pr4-section" style="transition-delay: 0s; transition-duration: 0s; fill:#27ae60;" fill="#27ae60" /><text class="section-label pr4-label" font-size="41.67px" id="pr4" x="1136.05" y="926.08">PR4</text><text class="section-label pr4-label" fill="#000000" font-size="12px" id="pr4-label" text-anchor="middle" x="159.27" y="110.65">PR4</text></g><g class="interactive-section" data-section-id="pr5" id="pr5-group" data-rows="17" data-seats-per-row="23" data-total-seats="391" data-price-min="25.00" data-price-max="500.00" data-current-price="430.84" data-available="true" onclick="showSectionInfo(evt)" style="cursor:pointer;"><title>Section pr5 | 17 rows × 23 seats | $430.84</title><path class="section-path" d="M969.15 1047.78l125.51 0c0,-91.07 0,-182.14 0,-273.21l-125.51 0 0 273.21z" data-default-color="rgb(204, 204, 204)" data-id="2991615" id="pr5-section" style="transition-delay: 0s; transition-duration: 0s; fill:#e74c3c;" fill="#e74c3c" /><text class="section-label pr5-label" font-size="41.67px" id="pr5" x="990.61" y="925.83">PR5</text><text class="section-label pr5-label" fill="#000000" font-size="12px" id="pr5-label" text-anchor="middle" x="138.45" y="110.65">PR5</text></g><g class="interactive-section" data-section-id="pr6" id="pr6-group" data-rows="13" data-seats-per-row="19" data-total-seats="247" data-price-min="25.00" data-price-max="500.00" data-current-price="234.33" data-available="true" onclick="showSectionInfo(evt)" style="cursor:pointer;"><title>Section pr6 | 13 rows × 19 seats | $234.33</title><path class="section-path" d="M826.98 1047.78l121.93 0c0,-91.07 0,-182.14 0,-273.21l-121.93 0 0 273.21z" data-default-color="rgb(204, 204, 204)" data-id="2991616" id="pr6-section" style="transition-delay: 0s; transition-duration: 0s; fill:#f39c12;" fill="#f39c12" /><text class="section-label pr6-label" font-size="41.67px" id="pr6" x="846.75" y="925.9">PR6</text><text class="section-label pr6-label" fill="#000000" font-size="12px" id="pr6-label" text-anchor="middle" x="118.14" y="110.65">PR6</text></g><g class="interactive-section" data-section-id="pr7" id="pr7-group" data-rows="20" data-seats-per-row="34" data-total-seats="680" data-price-min="25.00" data-price-max="500.00" data-current-price="139.09" data-available="true" onclick="showSectionInfo(evt)" style="cursor:pointer;"><title>Section pr7 | 20 rows × 34 seats | $139.09</title><path class="section-path" d="M684.62 1047.78l122.11 0c0,-91.07 0,-182.14 0,-273.21l-122.11 0 0 273.21z" data-default-color="rgb(204, 204, 204)" data-id="2991617" id="pr7-section" style="transition-delay: 0s; transition-duration: 0s; fill:#3498db;" fill="#3498db" /><text class="section-label pr7-label" font-size="41.67px" id="pr7" x="704.51" y="926.08">PR7</text><text class="section-label pr7-label" fill="#000000" font-size="12px" id="pr7-label" text-anchor="middle" x="97.8" y="110.65">PR7</text></g><g class="interactive-section" data-section-id="festival" id="festival-group" data-rows="25" data-seats-per-row="32" data-total-seats="800" data-price-min="25.00" data-price-max="500.00" data-current-price="439.67" data-available="true" onclick="showSectionInfo(evt)" style="cursor:pointer;"><title>Section festival | 25 rows × 32 seats | $439.67</title><path class="section-path" d="M375.74 774.56l155.15 273.21 133.48 0c0,-91.07 0,-182.14 0,-273.21l-288.63 0z" data-default-color="rgb(204, 204, 204)" data-id="2991593" id="festival-section" style="transition-delay: 0s; transition-duration: 0s; fill:#e74c3c;" fill="#e74c3c" /><text class="section-label festival-label" font-size="34.72px" id="festival" x="479.94" y="904.2">FESTIVAL</text><text class="section-label festival-label" font-size="34.72px" id="festival1" x="486.38" y="942.99">GARDEN</text><text class="section-label festival-label" fill="#000000" font-size="12px" id="festival-label" text-anchor="middle" x="53.68" y="71.62">FESTIVAL</text></g><g class="interactive-section" data-section-id="titanium" id="titanium-group" data-rows="14" data-seats-per-row="16" data-total-seats="224" data-price-min="25.00" data-price-max="500.00" data-current-price="275.57" data-available="true" onclick="showSectionInfo(evt)" style="cursor:pointer;"><title>Section titanium | 14 rows × 16 seats | $275.57</title><path class="section-path" d="M282.39 651.05l-105.78 61.07 147.75 255.91 103.95 -60.02c-48.64,-85.65 -97.28,-171.31 -145.92,-256.97z" data-default-color="rgb(204, 204, 204)" data-id="2991620" id="titanium-section" style="transition-delay: 0s; transition-duration: 0s; fill:#f39c12;" fill="#f39c12" /><text class="section-label titanium-label" font-size="41.67px" id="titanium" transform="matrix(0.504567 0.863372 -0.863372 0.504567 978.497 -977.45)" x="1106" y="1500">TITANIUM</text><g class="interactive-section" data-section-id="pr8" id="pr8-group" data-rows="21" data-seats-per-row="36" data-total-seats="756" data-price-min="25.00" data-price-max="500.00" data-current-price="167.23" data-available="true" onclick="showSectionInfo(evt)" style="cursor:pointer;"><title>Section pr8 | 21 rows × 36 seats | $167.23</title><path class="section-path" d="M1546.91 1386.96l135.09 0c0,-106.31 0,-212.62 0,-318.94l-135.09 0 0 318.94z" data-default-color="rgb(204, 204, 204)" data-id="2991618" id="pr8-section" style="transition-delay: 0s; transition-duration: 0s; fill:#f39c12;" fill="#f39c12" /><text class="section-label pr8-label" font-size="41.67px" id="pr8" x="1573.29" y="1242.41">PR8</text><text class="section-label pr8-label" fill="#000000" font-size="12px" id="pr8-label" text-anchor="middle" x="220.99" y="152.58">PR8</text></g><g class="interactive-section" data-section-id="pr9" id="pr9-group" data-rows="14" data-seats-per-row="15" data-total-seats="210" data-price-min="25.00" data-price-max="500.00" data-current-price="475.78" data-available="true" onclick="showSectionInfo(evt)" style="cursor:pointer;"><title>Section pr9 | 14 rows × 15 seats | $475.78</title><path class="section-path" d="M1404.43 1386.96l122.24 0c0,-106.31 0,-212.62 0,-318.94l-122.24 0 0 318.94z" data-default-color="rgb(204, 204, 204)" data-id="2991619" id="pr9-section" style="transition-delay: 0s; transition-duration: 0s; fill:#e74c3c;" fill="#e74c3c" /><text class="section-label pr9-label" font-size="41.67px" id="pr9" x="1424.33" y="1242.22">PR9</text><text class="section-label pr9-label" fill="#000000" font-size="12px" id="pr9-label" text-anchor="middle" x="200.63" y="152.58">PR9</text></g><g class="interactive-section" data-section-id="pr10" id="pr10-group" data-rows="10" data-seats-per-row="22" data-total-seats="220" data-price-min="25.00" data-price-max="500.00" data-current-price="347.84" data-available="true" onclick="showSectionInfo(evt)" style="cursor:pointer;"><title>Section pr10 | 10 rows × 22 seats | $347.84</title><path class="section-path" d="M1259.69 1386.96l124.49 0c0,-106.31 0,-212.62 0,-318.94l-124.49 0 0 318.94z" data-default-color="rgb(204, 204, 204)" data-id="2991603" id="pr10-section" style="transition-delay: 0s; transition-duration: 0s; fill:#e74c3c;" fill="#e74c3c" /><text class="section-label pr10-label" font-size="41.67px" id="pr10" x="1269.22" y="1242.22">PR10</text><text class="section-label pr10-label" fill="#000000" font-size="12px" id="pr10-label" text-anchor="middle" x="179.96" y="152.58">PR10</text></g><g class="interactive-section" data-section-id="pr11" id="pr11-group" data-rows="21" data-seats-per-row="34" data-total-seats="714" data-price-min="25.00" data-price-max="500.00" data-current-price="429.17" data-available="true" onclick="showSectionInfo(evt)" style="cursor:pointer;"><title>Section pr11 | 21 rows × 34 seats | $429.17</title><path class="section-path" d="M826.98 1386.96l121.93 0c0,-106.31 0,-212.62 0,-318.94l-121.93 0 0 318.94z" data-default-color="rgb(204, 204, 204)" data-id="2991624" id="pr11-section" style="transition-delay: 0s; transition-duration: 0s; fill:#e74c3c;" fill="#e74c3c" /><text class="section-label pr11-label" font-size="41.67px" id="pr11" x="839.6" y="1242.47">PR11</text><text class="section-label pr11-label" fill="#000000" font-size="12px" id="pr11-label" text-anchor="middle" x="118.14" y="152.58">PR11</text></g><g class="interactive-section" data-section-id="pr12" id="pr12-group" data-rows="15" data-seats-per-row="12" data-total-seats="180" data-price-min="25.00" data-price-max="500.00" data-current-price="223.01" data-available="true" onclick="showSectionInfo(evt)" style="cursor:pointer;"><title>Section pr12 | 15 rows × 12 seats | $223.01</title><path class="section-path" d="M684.62 1386.96l122.11 0c0,-106.31 0,-212.62 0,-318.94l-122.11 0 0 318.94z" data-default-color="rgb(204, 204, 204)" data-id="2991623" id="pr12-section" style="transition-delay: 0s; transition-duration: 0s; fill:#f39c12;" fill="#f39c12" /><text class="section-label pr12-label" font-size="41.67px" id="pr12" x="693.07" y="1242.47">PR12</text><text class="section-label pr12-label" fill="#000000" font-size="12px" id="pr12-label" text-anchor="middle" x="97.8" y="152.58">PR12</text></g><g class="interactive-section" data-section-id="pr13" id="pr13-group" data-rows="23" data-seats-per-row="38" data-total-seats="874" data-price-min="25.00" data-price-max="500.00" data-current-price="127.06" data-available="true" onclick="showSectionInfo(evt)" style="cursor:pointer;"><title>Section pr13 | 23 rows × 38 seats | $127.06</title><path class="section-path" d="M536.04 1068.02l0 318.94 128.33 0c0,-106.31 0,-212.62 0,-318.94l-128.33 0z" data-default-color="rgb(204, 204, 204)" data-id="2991622" id="pr13-section" style="transition-delay: 0s; transition-duration: 0s; fill:#3498db;" fill="#3498db" /><text class="section-label pr13-label" font-size="41.67px" id="pr13" x="547.43" y="1242.22">PR13</text><text class="section-label pr13-label" fill="#000000" font-size="12px" id="pr13-label" text-anchor="middle" x="76.58" y="107.01">PR13</text></g><text class="section-label titanium-label" fill="#000000" font-size="12px" id="titanium-label" text-anchor="middle" x="19.5" y="56.3">TITANIUM</text></g></g></g></g><g id="info-panel"><rect x="10" y="10" width="320" height="140" rx="8" fill="#1a1a2e" fill-opacity="0.95" stroke="#444" /><text x="25" y="40" fill="#FFD700" font-family="Arial" font-size="18" font-weight="bold">Hard Rock Stadium</text><text id="section-info" x="25" y="70" fill="white" font-family="monospace" font-size="13">Click a section to see details</text></g><script type="text/javascript">&lt;![CDATA[
function showSectionInfo(evt) {
    var g = evt.currentTarget;
    var id = g.getAttribute('data-section-id');
    var rows = g.getAttribute('data-rows');
    var spr = g.getAttribute('data-seats-per-row');
    var total = g.getAttribute('data-total-seats');
    var price = g.getAttribute('data-current-price');
    var avail = g.getAttribute('data-available');
    
    var info = document.getElementById('section-info');
    if (info) {
        while (info.firstChild) info.removeChild(info.firstChild);
        
        var lines = [
            'Section ' + id,
            'Rows: ' + rows + ' | Seats/Row: ' + spr,
            'Total Seats: ' + total,
            'Price: $' + price,
            'Available: ' + (avail === 'true' ? 'Yes' : 'No')
        ];
        
        lines.forEach(function(line, i) {
            var tspan = document.createElementNS('http://www.w3.org/2000/svg', 'tspan');
            tspan.setAttribute('x', '25');
            tspan.setAttribute('dy', i === 0 ? '0' : '18');
            tspan.textContent = line;
            info.appendChild(tspan);
        });
    }
}
]]&gt;</script></svg>