<?xml version="1.0" encoding="UTF-8"?>
<svg xmlns="http://www.w3.org/2000/svg" class="m h-full w-full p-2 lg:p-4 zoom-transition" data-zoom-enabled="false" height="2.1437252in" id="svg9" style="clip-rule: evenodd; fill-rule: evenodd; shape-rendering: geometricprecision; text-rendering: geometricprecision; transform-origin: 0px 0px 0px; transform: matrix(1, 0, 0, 1, 0, 0);" version="1.1" viewBox="0 0 3757.5555 2143.7254" width="3.7575555in" xml:space="preserve"><defs id="defs1"><style id="style1" type="text/css">
   
    .str0 {stroke:black;stroke-width:3;stroke-miterlimit:2.61313}
    .fil0 {fill:white}
    .fil3 {fill:black}
    .fil1 {fill:black}
    .fil2 {fill:#999999}
    .fil4 {fill:#E6E6E6}
    .fnt4 {font-weight:normal;font-size:23px;font-family:'Arial'}
    .fnt3 {font-weight:normal;font-size:38px;font-family:'Arial'}
    .fnt2 {font-weight:normal;font-size:84px;font-family:'Arial'}
    .fnt1 {font-weight:normal;font-size:93px;font-family:'Arial'}
    .fnt0 {font-weight:normal;font-size:103px;font-family:'Arial'}
    .section-path{fill:#CCCCCC;stroke:black;stroke-width:2}
        .section-label{fill:black;font-family:'Arial'}
        .static{fill:#999999; stroke:black;stroke-width:2}
        .static1 {fill:#333333} 
   
  </style></defs><g id="parent-group" transform="translate(-48.285284,-29.954322)"><g id="static-elements"><path d="M 137.12566,147.17611 V 2079.9155 h 364.46129 v -113.8306 h 81.70573 l -1.30999,-20.3528 -146.14312,-13.0326 -144.45282,-286.9104 c -26.62901,-52.8903 -50.07806,-109.4807 -68.58136,-169.4056 -1.55162,-5.0251 -3.07103,-10.0723 -4.55783,-15.1412 C 201.57574,1404.4042 189.00416,1344.85 181.09132,1283.3456 139.66968,961.38647 226.35844,585.54191 522.90857,266.15399 l 5.57454,-6.0018 94.95037,105.28566 c 85.657,-83.87626 190.0951,-155.30953 314.92108,-207.90611 v -28.6937 z m 801.2289,26.75375 C 536.39663,346.1115 350.04589,715.59461 330.76988,1067.5049 311.58895,1417.6796 458.4357,1748.4893 720.8049,1849.1212 730.96978,1798.7166 718.17281,1739.3719 662.61805,1685.8521 265.10902,1405.2195 358.23803,559.30184 938.35456,298.8078 Z M 528.40173,282.45037 C 239.36508,597.28185 155.3493,965.59157 195.9839,1281.4332 c 5.30937,41.2683 12.75316,81.6316 22.14792,120.8527 62.969,262.8819 213.5845,474.4541 396.61432,563.3311 l -0.2238,0.4679 h 1.6683 c 42.269,-7.1939 84.86411,-48.2008 101.09457,-102.2339 l 2.03713,-22.0622 -143.65883,-60.8346 c -50.4373,-21.3585 -79.74192,-76.711 -112.26127,-123.9767 -11.29238,-16.4131 -21.98144,-33.4832 -32.05432,-51.1489 -85.25299,-149.5151 -126.36753,-341.6849 -115.552,-539.1375 13.42849,-245.15592 107.2377,-499.16264 296.93606,-690.73486 l 0.13981,-21.60954 z M 2710.2256,147.17611 v 12.22738 c 123.7215,53.96135 227.3278,125.00614 312.8866,207.17368 l 92.9769,-106.05876 5.6152,4.6997 c 116.8991,97.85623 266.4296,341.55201 327.2299,633.80946 60.8,292.25733 31.838,633.35083 -211.9955,921.91573 l -5.5338,6.5511 -97.1884,-107.4015 c -51.5957,57.7327 -111.8943,105.2481 -180.6918,138.4171 -3.5142,1.6943 -7.0349,3.3863 -10.6093,4.9701 l -10.2912,-17.722 0.868,21.8974 c 10.9652,31.8911 32.3694,63.4197 67.3829,92.6107 l 15.157,9.257 h 133.6874 v 111.1654 H 3699.28 V 147.17611 Z m 0,28.66618 v 122.07032 c 28.8257,16.61248 84.803,43.26937 149.882,90.94239 69.081,50.60434 148.1841,125.1891 217.2852,238.17955 l 0.02,0.061 0.041,0.0407 c 88.5137,147.06838 168.364,360.6787 137.6343,621.39895 v 0.02 c -17.6477,148.1935 -63.8743,246.756 -112.3047,313.4969 -48.1712,66.3845 -99.0335,102.0167 -121.5413,122.2331 -37.3209,38.6513 -57.8718,86.096 -56.8034,134.0535 0.2575,11.5585 1.8196,23.1994 4.659,34.8308 531.3406,-231.3487 589.6245,-1319.17806 -218.8721,-1677.32763 z m 407.3894,105.69256 -85.1282,74.28342 1.6728,20.91108 c 368.9146,364.94712 383.1253,944.51845 152.1533,1277.45805 -1.5855,2.2855 -3.0857,4.6317 -4.7913,6.8216 l -38.9154,27.2857 1.6608,20.5473 86.6496,95.7642 c 235.3356,-283.1383 263.0169,-615.7098 203.3488,-902.52688 -59.1571,-284.3585 -205.0422,-523.3755 -316.6504,-620.54447 z M 944.66153,328.93882 C 288.04026,701.73695 393.80274,1484.6002 700.19536,1674.1944 c 92.28867,107.5628 50.10896,221.3981 6.20501,275.8062 l -15.99223,-0.4062 -2.58257,19.9288 H 1719.7267 v -122.3755 h 220.1538 v 122.3755 H 2959.188 c -46.1886,-45.7519 -68.5875,-98.5304 -69.7428,-150.3906 -1.3067,-58.6532 23.9226,-115.1847 67.0369,-159.6273 l 0.4069,-0.4069 0.4273,-0.3866 c 26.3465,-23.7937 72.0848,-55.1279 117.1468,-117.2282 45.0603,-62.0966 88.8346,-154.1576 105.8553,-297.0581 29.6411,-251.48439 -47.2297,-456.93944 -132.8125,-599.16179 -66.4786,-108.68688 -141.953,-179.74263 -208.0892,-228.19012 -61.449,-45.01385 -113.1841,-69.56241 -145.4671,-88.13477 l -233.2642,-19.75437 -0.3784,19.75437 -1.7904,5.5542 c 186.5579,132.32556 232.6157,234.01562 294.2098,338.43997 l 39.2456,-24.23096 75.5209,174.82504 81.9905,-42.70427 2.767,8.38217 c 70.2572,213.16043 86.2191,433.74353 17.4764,664.59153 l -2.4414,8.2194 -94.5435,-42.6636 -80.5054,176.5137 -39.3066,-24.1089 c -146.6061,223.6504 -308.4435,248.5083 -468.0787,263.6922 l -0.2034,0.02 -0.2035,-0.02 c -161.4329,-11.9932 -283.8384,-75.3372 -468.2414,-80.2205 -156.611,6.0018 -319.8974,83.9683 -479.0446,79.4271 h -0.061 -0.061 C 1081.722,1814.9644 982.87069,1701.6895 899.82103,1580.363 l -44.00635,28.0355 -90.82032,-206.7464 41.80908,-18.3716 -1.05059,-19.2663 c -181.94227,-62.7629 -93.2775,-123.8451 -38.88589,-185.1401 -6.69813,-86.7215 3.68874,-187.91925 55.19527,-323.46633 l -47.97363,-21.26058 77.39258,-180.94891 38.89974,20.16195 C 980.08562,501.95275 1084.4346,414.45894 1190.328,338.17547 l -0.8748,-30.30798 z m 1995.97177,473.40905 -115.2193,39.00809 0.4936,20.72499 c 75.9976,218.74355 43.3312,405.28885 18.2527,498.04475 -0.7589,2.8069 -1.4798,5.5368 -2.2526,8.1612 l -4.3722,0.1264 -1.0078,18.1428 121.1141,54.6671 c 64.1097,-221.6772 49.3242,-433.2078 -17.0085,-638.87533 z M 1734.721,1862.142 v 144.0573 h 190.1449 V 1862.142 Z M 1262.9669,360.17572 C 823.6483,635.05298 691.46015,1266.1663 994.7174,1609.8706 l 68.8883,-79.4271 c 78.7743,65.583 152.9757,135.9445 290.9343,139.384 147.6336,21.3617 252.5085,-97.6521 448.995,-95.6218 259.6267,0.8791 320.5449,98.8101 491.1296,93.2007 109.1401,-1.7521 197.6819,-54.9742 276.3468,-132.9142 l 72.1232,87.5244 C 3008.6705,1171.3105 2741.0828,589.54261 2391.9139,360.17572 h -189.3717 v 292.0329 h -747.7825 v -292.0329 z" id="path2" style="clip-rule: evenodd; opacity: 1; fill: rgb(0, 0, 0); fill-rule: evenodd; stroke: rgb(0, 0, 0); stroke-width: 5; stroke-dasharray: none; shape-rendering: geometricprecision; text-rendering: geometricprecision;" /><path d="m 1474.5549,314.41052 h 706.2084 v 315.37834 h -706.2084 z" id="path28-6" style="clip-rule: evenodd; display: inline; fill: rgb(0, 0, 0); fill-rule: evenodd; stroke: rgb(102, 102, 102); stroke-width: 5; stroke-dasharray: none; shape-rendering: geometricprecision; text-rendering: geometricprecision;" /><path class="fil0 str0" d="M 2387.711,-95.43296 V 1177.6615 h 311.4165 v -72.5793 l 685.5124,-0.6073 V 1119.1 h 128.6505 v -14.7345 l 685.2694,-0.6073 v 75.2273 H 4625.678 V -95.43296 H 3912.2636 V 17.531972 H 3734.6479 V 9.7133139 H 3141.2717 V 21.491943 h -176.3038 l -1.3119,-99.760977 V -95.43296 Z" id="path1-5" style="clip-rule: evenodd; fill: none; fill-rule: evenodd; stroke: rgb(0, 0, 0); stroke-width: 5.50716; stroke-miterlimit: 2.61313; stroke-dasharray: none; shape-rendering: geometricprecision; text-rendering: geometricprecision;" transform="matrix(1.6748826,0,0,1.6748826,-3946.2384,194.40525)" /><path d="m 1474.5549,293.57719 h 706.2084 v 315.37834 h -706.2084 z" id="path28" style="clip-rule: evenodd; display: inline; fill: rgb(102, 102, 102); fill-rule: evenodd; stroke: rgb(102, 102, 102); stroke-width: 5; stroke-dasharray: none; shape-rendering: geometricprecision; text-rendering: geometricprecision;" /><path d="m 1734.721,1841.3087 v 144.0573 h 190.1449 v -144.0573 z" id="path25" style="clip-rule: evenodd; display: inline; fill: rgb(102, 102, 102); fill-rule: evenodd; stroke: rgb(102, 102, 102); stroke-width: 5; stroke-dasharray: none; shape-rendering: geometricprecision; text-rendering: geometricprecision;" /><text id="text293" style="font-style: normal; font-variant: normal; font-weight: normal; font-stretch: normal; font-size: 119.844px; font-family: Arial; text-align: center; text-anchor: middle; clip-rule: evenodd; opacity: 1; fill: rgb(0, 0, 0); fill-rule: evenodd; stroke: none; stroke-width: 17.2575; stroke-dasharray: none; shape-rendering: geometricprecision; text-rendering: geometricprecision;" x="1828.1858" xml:space="preserve" y="494.15976"><tspan id="tspan293" style="fill: rgb(0, 0, 0); stroke: none; stroke-width: 17.2575;" x="1828.1858" y="494.15976">STAGE</tspan></text><text id="text293-8" style="font-style: normal; font-variant: normal; font-weight: normal; font-stretch: normal; font-size: 94.2257px; font-family: Arial; text-align: center; text-anchor: middle; clip-rule: evenodd; fill: rgb(0, 0, 0); fill-rule: evenodd; stroke: none; stroke-width: 13.5685; stroke-dasharray: none; shape-rendering: geometricprecision; text-rendering: geometricprecision;" x="1826.5958" xml:space="preserve" y="1947.0616"><tspan id="tspan293-7" style="fill: rgb(0, 0, 0); stroke: none; stroke-width: 13.5685;" x="1826.5958" y="1947.0616">MIX</tspan></text></g><g id="sections"><g class="interactive-section" data-section-id="balcony" id="balcony-group" style="cursor:pointer;" transform="matrix(1.6748826,0,0,1.6748826,-3946.2384,194.40525)" data-rows="23" data-seats-per-row="38" data-total-seats="874" data-price-min="25.00" data-price-max="500.00" data-current-price="246.18" data-available="true" onclick="showSectionInfo(evt)"><title>Section balcony | 23 rows × 38 seats | $246.18</title><path class="section-path" d="m 2710.2256,126.34273 v 12.22738 c 123.7215,53.96135 227.3278,125.00614 312.8866,207.17368 l 92.9769,-106.05876 5.6152,4.6997 c 116.8991,97.85623 266.4296,341.55201 327.2299,633.80946 60.8,292.25741 31.838,633.35091 -211.9955,921.91581 l -5.5338,6.5511 -97.1884,-107.4015 c -56.545,63.2707 -123.5426,114.2699 -200.7243,147.5626 10.9652,31.8911 32.3694,63.4197 67.3829,92.6107 l 15.157,9.257 h 133.6874 v 111.1654 H 3699.28 V 126.34273 Z" data-default-color="rgb(153, 153, 153)" data-id="2908479" id="balcony-section" style="fill:#f39c12; stroke: rgb(102, 102, 102); stroke-width: 0.002in; transition-delay: 0s; transition-duration: 0s;" transform="matrix(0.59705675,0,0,0.59705675,2356.1284,-116.07097)" fill="#f39c12" /><text class="section-label balcony-label" font-size="93px" id="tbalcony-1" style="font-style: normal; font-variant: normal; font-weight: normal; font-stretch: normal; font-size: 62.1934px; clip-rule: evenodd; shape-rendering: geometricprecision; text-rendering: geometricprecision; font-family: Arial; fill: black; stroke: none;" x="4227.8203" y="1016.8533">BALCONY</text><text class="section-label balcony-label" font-size="93px" id="tbalcony-2" style="font-style: normal; font-variant: normal; font-weight: normal; font-stretch: normal; font-size: 62.1934px; clip-rule: evenodd; shape-rendering: geometricprecision; text-rendering: geometricprecision; font-family: Arial; fill: black; stroke: none;" x="4236.0557" y="19.228533">BALCONY</text><text class="section-label balcony-label" fill="#000000" font-size="12px" id="balcony-label" text-anchor="middle" x="274.45" y="215.45">BALCONY</text></g><g class="interactive-section" data-section-id="left-balcony" id="left-balcony-group" style="cursor:pointer;" transform="matrix(1.6748826,0,0,1.6748826,-3946.2384,194.40525)" data-rows="8" data-seats-per-row="32" data-total-seats="256" data-price-min="25.00" data-price-max="500.00" data-current-price="201.83" data-available="true" onclick="showSectionInfo(evt)"><title>Section left-balcony | 8 rows × 32 seats | $201.83</title><path class="section-path" d="M 528.40173,261.61699 C 239.36508,576.44847 155.34931,944.75819 195.9839,1260.5999 c 40.89578,317.8717 208.42498,582.0466 418.76224,684.1838 l -0.2238,0.4679 h 1.6683 c 42.269,-7.1939 84.86411,-48.2008 101.09457,-102.2339 -271.96223,-102.9706 -420.97095,-441.495 -401.48929,-797.1599 13.42851,-245.156 107.2377,-499.16272 296.93606,-690.73494 z" data-default-color="rgb(153, 153, 153)" data-id="2908482" id="left-balcony-section" style="fill:#f39c12; stroke: rgb(102, 102, 102); stroke-width: 0.002in; transition-delay: 0s; transition-duration: 0s;" transform="matrix(0.59705675,0,0,0.59705675,2356.1284,-116.07097)" fill="#f39c12" /><text class="section-label left-balcony-label" font-size="63.6455px" id="tleft-balcony" style="font-style: normal; font-variant: normal; font-weight: normal; font-stretch: normal; font-size: 49.7547px; clip-rule: evenodd; shape-rendering: geometricprecision; text-rendering: geometricprecision; font-family: Arial; fill: black; stroke: none;" transform="rotate(-90)" x="-728.78314" y="2537.8376">LEFT BALCONY</text><text class="section-label left-balcony-label" fill="#000000" font-size="12px" id="left-balcony-label" text-anchor="middle" x="-63.65" y="245.85">LEFT-BALCONY</text></g><g class="interactive-section" data-section-id="left-balc-tables" id="left-balc-tables-group" style="cursor:pointer;" transform="matrix(1.6748826,0,0,1.6748826,-3946.2384,194.40525)" data-rows="20" data-seats-per-row="40" data-total-seats="800" data-price-min="25.00" data-price-max="500.00" data-current-price="327.09" data-available="true" onclick="showSectionInfo(evt)"><title>Section left-balc-tables | 20 rows × 40 seats | $327.09</title><path class="section-path" d="M 938.35456,153.09648 C 536.39663,325.27812 350.04589,694.76123 330.76988,1046.6716 311.58895,1396.8463 458.4357,1727.656 720.8049,1828.2879 730.96978,1777.8833 718.17281,1718.5386 662.61805,1665.0188 265.10902,1384.3862 358.23803,538.46846 938.35456,277.97442 Z" data-default-color="rgb(153, 153, 153)" data-id="2908484" id="left-balc-tables-section" style="fill:#e74c3c; stroke: rgb(102, 102, 102); stroke-width: 0.002in; transition-delay: 0s; transition-duration: 0s;" transform="matrix(0.59705675,0,0,0.59705675,2356.1284,-116.07097)" fill="#e74c3c" /><text class="section-label left-balc-tables-label" font-size="38.5223px" id="tleft-balc-tables" style="font-style: normal; font-variant: normal; font-weight: normal; font-stretch: normal; font-size: 31.0967px; clip-rule: evenodd; shape-rendering: geometricprecision; text-rendering: geometricprecision; font-family: Arial; fill: black; stroke: none;" transform="rotate(-90)" x="-716.24023" y="2601.738">LEFT BALCONY TABLES</text><text class="section-label left-balc-tables-label" fill="#000000" font-size="12px" id="left-balc-tables-label" text-anchor="middle" x="563.07" y="1118.07">LEFT-BALC-TABLES</text></g><g class="interactive-section" data-section-id="right-balc-tables" id="right-balc-tables-group" style="cursor:pointer;" transform="matrix(1.6748826,0,0,1.6748826,-3946.2384,194.40525)" data-rows="12" data-seats-per-row="14" data-total-seats="168" data-price-min="25.00" data-price-max="500.00" data-current-price="232.81" data-available="true" onclick="showSectionInfo(evt)"><title>Section right-balc-tables | 12 rows × 14 seats | $232.81</title><path class="section-path" d="m 2710.2256,155.00891 v 122.07032 c 28.8257,16.61248 84.803,43.26937 149.882,90.94239 69.081,50.60434 148.1841,125.1891 217.2852,238.17955 l 0.02,0.061 0.041,0.0407 c 88.5137,147.06838 168.364,360.6787 137.6343,621.39903 v 0.02 c -17.6477,148.1935 -63.8743,246.756 -112.3047,313.4969 -48.1712,66.3845 -99.0335,102.0167 -121.5413,122.2331 -37.3209,38.6513 -57.8718,86.096 -56.8034,134.0535 0.2575,11.5585 1.8196,23.1994 4.659,34.8308 531.3406,-231.3487 589.6245,-1319.17814 -218.8721,-1677.32771 z" data-default-color="rgb(153, 153, 153)" data-id="2908485" id="right-balc-tables-section" style="fill:#f39c12; stroke: rgb(102, 102, 102); stroke-width: 0.002in; transition-delay: 0s; transition-duration: 0s;" transform="matrix(0.59705675,0,0,0.59705675,2356.1284,-116.07097)" fill="#f39c12" /><text class="section-label right-balc-tables-label" font-size="23px" id="tright-balc-tables" style="clip-rule: evenodd; shape-rendering: geometricprecision; text-rendering: geometricprecision; font-family: Arial; fill: black; stroke: none;" transform="rotate(90)" x="398.3262" y="-4295.1328">RIGHT BALCONY TABLES</text><text class="section-label right-balc-tables-label" fill="#000000" font-size="12px" id="right-balc-tables-label" text-anchor="middle" x="172.16" y="-23.31">RIGHT-BALC-TABLES</text></g><g class="interactive-section" data-section-id="right-balcony" id="right-balcony-group" style="cursor:pointer;" transform="matrix(1.6748826,0,0,1.6748826,-3946.2384,194.40525)" data-rows="24" data-seats-per-row="10" data-total-seats="240" data-price-min="25.00" data-price-max="500.00" data-current-price="306.04" data-available="true" onclick="showSectionInfo(evt)"><title>Section right-balcony | 24 rows × 10 seats | $306.04</title><path class="section-path" d="m 3117.615,260.70147 -83.4554,95.1945 C 3424.188,741.72984 3417.7497,1367.4579 3144.267,1688.0087 l 86.6496,95.7642 c 235.3356,-283.1383 263.0169,-615.7098 203.3488,-902.52696 -59.1571,-284.3585 -205.0422,-523.3755 -316.6504,-620.54447 z" data-default-color="rgb(153, 153, 153)" data-id="2908483" id="right-balcony-section" style="fill:#e74c3c; stroke: rgb(102, 102, 102); stroke-width: 0.002in; transition-delay: 0s; transition-duration: 0s;" transform="matrix(0.59705675,0,0,0.59705675,2356.1284,-116.07097)" fill="#e74c3c" /><text class="section-label right-balcony-label" font-size="38px" id="tright-balcony" style="clip-rule: evenodd; shape-rendering: geometricprecision; text-rendering: geometricprecision; font-family: Arial; fill: black; stroke: none;" transform="rotate(90)" x="366.05029" y="-4360.8315">RIGHT BALCONY</text><text class="section-label right-balcony-label" fill="#000000" font-size="12px" id="right-balcony-label" text-anchor="middle" x="1102.32" y="84.93">RIGHT-BALCONY</text></g><g class="interactive-section" data-section-id="ga" id="ga-group" style="cursor:pointer;" transform="matrix(1.6748826,0,0,1.6748826,-3946.2384,194.40525)" data-rows="22" data-seats-per-row="32" data-total-seats="704" data-price-min="25.00" data-price-max="500.00" data-current-price="206.26" data-available="true" onclick="showSectionInfo(evt)"><title>Section ga | 22 rows × 32 seats | $206.26</title><path class="section-path" d="M 137.12566,126.34273 V 2059.0822 h 364.46129 v -113.8306 h 81.70573 C 392.63862,1839.8351 242.6284,1606.7738 190.85056,1325.0548 c -3.78571,-20.5977 -7.04629,-41.4555 -9.75924,-62.5425 -3.6825,-28.6231 -6.35247,-57.6722 -7.95243,-87.0696 -16.39673,-301.27082 79.58375,-639.12872 349.76968,-930.12209 l 5.57454,-6.0018 94.95037,105.28566 c 85.657,-83.87626 190.0951,-155.30953 314.92108,-207.90611 V 126.34273 Z M 944.66153,308.10544 C 288.04026,680.90357 393.80274,1463.7669 700.19536,1653.3611 c 105.50248,122.9636 35.27382,254.1243 -12.36979,295.3288 H 1719.7267 v -122.3755 h 220.1538 v 122.3755 H 2959.188 c -46.1886,-45.7519 -68.5875,-98.5304 -69.7428,-150.3906 -1.3067,-58.6532 23.9226,-115.1847 67.0369,-159.6273 l 0.4069,-0.4069 0.4273,-0.3866 c 26.3465,-23.7937 72.0848,-55.1279 117.1468,-117.2282 45.0603,-62.0966 88.8346,-154.1576 105.8553,-297.0581 29.6411,-251.48447 -47.2297,-456.93952 -132.8125,-599.16187 -66.4786,-108.68688 -141.953,-179.74263 -208.0892,-228.19012 -61.449,-45.01385 -113.1841,-69.56241 -145.4671,-88.13477 H 2460.307 l -1.7904,5.5542 c 186.5579,132.32556 232.6157,234.01562 294.2098,338.43997 l 39.2456,-24.23096 75.5209,174.82504 81.9905,-42.70427 2.767,8.38217 c 70.2572,213.16044 86.2191,433.74361 17.4764,664.59161 l -2.4414,8.2194 -94.5435,-42.6636 -80.5054,176.5137 -39.3066,-24.1089 c -146.6061,223.6504 -308.4435,248.5083 -468.0787,263.6922 l -0.2034,0.02 -0.2035,-0.02 c -161.4329,-11.9932 -283.8384,-75.3372 -468.2414,-80.2205 -156.611,6.0018 -319.8974,83.9683 -479.0446,79.4271 h -0.061 -0.061 C 1081.722,1794.1311 982.87069,1680.8562 899.82103,1559.5297 l -44.00635,28.0355 -90.82032,-206.7464 41.80908,-18.3716 C 792.6632,1303.3301 776.3745,1245.7809 769.01856,1180.637 758.65787,1088.8831 766.01815,982.06276 822.06223,834.57439 L 774.0886,813.31381 851.48118,632.3649 890.38092,652.52685 C 980.08562,481.11937 1084.4346,393.62556 1190.328,317.34209 l -0.8748,-9.23665 z m 318.30537,31.2369 C 823.6483,614.2196 691.46015,1245.333 994.7174,1589.0373 l 68.8883,-79.4271 c 78.7743,65.583 152.9757,135.9445 290.9343,139.384 147.6336,21.3617 252.5085,-97.6521 448.995,-95.6218 259.6267,0.8791 320.5449,98.8101 491.1296,93.2007 109.1401,-1.7521 197.6819,-54.9742 276.3468,-132.9142 l 72.1232,87.5244 C 3008.6705,1150.4772 2741.0828,568.70923 2391.9139,339.34234 h -189.3717 v 292.0329 h -747.7825 v -292.0329 z" data-default-color="rgb(153, 153, 153)" data-id="2908480" id="ga-section" style="fill:#f39c12; stroke: rgb(102, 102, 102); stroke-width: 0.002in; transition-delay: 0s; transition-duration: 0s;" transform="matrix(0.59705675,0,0,0.59705675,2356.1284,-116.07097)" fill="#f39c12" /><text class="section-label ga-label" font-size="84px" id="tga-1" style="font-style: normal; font-variant: normal; font-weight: normal; font-stretch: normal; font-size: 74.6321px; clip-rule: evenodd; shape-rendering: geometricprecision; text-rendering: geometricprecision; font-family: Arial; fill: black; stroke: none;" x="2670.657" y="540.02325">GA</text><text class="section-label ga-label" font-size="84px" id="tga-2" style="font-size: 87.7305px; text-align: center; text-anchor: middle; clip-rule: evenodd; shape-rendering: geometricprecision; text-rendering: geometricprecision; font-family: Arial; fill: black; stroke: none;" x="3456.0903" y="496.48514"><tspan id="tspan30" style="stroke-width: 1.32244;" x="3456.0903" y="496.48514">GENERAL</tspan><tspan id="tspan286" style="stroke-width: 1.32244;" x="3456.0903" y="606.14825">ADMISSION</tspan></text><text class="section-label ga-label" font-size="84px" id="tga-3" style="font-style: normal; font-variant: normal; font-weight: normal; font-stretch: normal; font-size: 74.6321px; clip-rule: evenodd; shape-rendering: geometricprecision; text-rendering: geometricprecision; font-family: Arial; fill: black; stroke: none;" x="2478.626" y="37.556915">GA</text><text class="section-label ga-label" font-size="84px" id="tga-4" style="font-style: normal; font-variant: normal; font-weight: normal; font-stretch: normal; font-size: 74.6321px; clip-rule: evenodd; shape-rendering: geometricprecision; text-rendering: geometricprecision; font-family: Arial; fill: black; stroke: none;" x="2478.47" y="1062.8518">GA</text><text class="section-label ga-label" fill="#000000" font-size="12px" id="ga-label" text-anchor="middle" x="278.7" y="257.53">GA</text></g><g class="interactive-section" data-section-id="accessible" id="accessible-group" style="cursor:pointer;" transform="matrix(1.6748826,0,0,1.6748826,-3946.2384,194.40525)" data-rows="8" data-seats-per-row="12" data-total-seats="96" data-price-min="25.00" data-price-max="500.00" data-current-price="199.40" data-available="true" onclick="showSectionInfo(evt)"><title>Section accessible | 8 rows × 12 seats | $199.40</title><path class="section-path" d="m 2940.6333,781.51449 -114.7257,59.73308 c 84.1127,242.10123 35.1159,444.76073 10.6201,524.47523 l 121.1141,54.6671 c 64.1097,-221.6772 49.3242,-433.20786 -17.0085,-638.87541 z" data-default-color="rgb(153, 153, 153)" data-id="2908494" id="accessible-section" style="fill:#f39c12; stroke: rgb(102, 102, 102); stroke-width: 0.002in; transition-delay: 0s; transition-duration: 0s;" transform="matrix(0.59705675,0,0,0.59705675,2356.1284,-116.07097)" fill="#f39c12" /><text class="section-label accessible-label" font-size="84px" id="taccessible" style="font-style: normal; font-variant: normal; font-weight: normal; font-stretch: normal; font-size: 43.5354px; clip-rule: evenodd; shape-rendering: geometricprecision; text-rendering: geometricprecision; font-family: Arial; fill: black; stroke: none;" transform="rotate(90)" x="410.53928" y="-4086.6819">ACCESSIBLE</text><text class="section-label accessible-label" fill="#000000" font-size="12px" id="accessible-label" text-anchor="middle" x="352.59" y="90.39">ACCESSIBLE</text></g></g></g><g id="info-panel"><rect x="10" y="10" width="320" height="140" rx="8" fill="#1a1a2e" fill-opacity="0.95" stroke="#444" /><text x="25" y="40" fill="#FFD700" font-family="Arial" font-size="18" font-weight="bold">Hollywood Palladium</text><text id="section-info" x="25" y="70" fill="white" font-family="monospace" font-size="13">Click a section to see details</text></g><script type="text/javascript">&lt;![CDATA[
function showSectionInfo(evt) {
    var g = evt.currentTarget;
    var id = g.getAttribute('data-section-id');
    var rows = g.getAttribute('data-rows');
    var spr = g.getAttribute('data-seats-per-row');
    var total = g.getAttribute('data-total-seats');
    var price = g.getAttribute('data-current-price');
    var avail = g.getAttribute('data-available');
    
    var info = document.getElementById('section-info');
    if (info) {
        while (info.firstChild) info.removeChild(info.firstChild);
        
        var lines = [
            'Section ' + id,
            'Rows: ' + rows + ' | Seats/Row: ' + spr,
            'Total Seats: ' + total,
            'Price: $' + price,
            'Available: ' + (avail === 'true' ? 'Yes' : 'No')
        ];
        
        lines.forEach(function(line, i) {
            var tspan = document.createElementNS('http://www.w3.org/2000/svg', 'tspan');
            tspan.setAttribute('x', '25');
            tspan.setAttribute('dy', i === 0 ? '0' : '18');
            tspan.textContent = line;
            info.appendChild(tspan);
        });
    }
}
]]&gt;</script></svg>