<?xml version="1.0" encoding="UTF-8"?>
<svg xmlns="http://www.w3.org/2000/svg" class="m h-full w-full p-2 lg:p-4 zoom-transition" data-zoom-enabled="false" height="2.9899998in" id="svg23" style="clip-rule: evenodd; fill-rule: evenodd; shape-rendering: geometricprecision; text-rendering: geometricprecision; transform-origin: 0px 0px 0px; transform: matrix(1, 0, 0, 1, 0, 0);" version="1.1" viewBox="0 0 2698.7305 2989.9998" width="2.6987305in" xml:space="preserve"><defs id="defs1"><style id="style1" type="text/css">
   
    .str0 {stroke:black;stroke-width:6.94488}
    .str1 {stroke:#CCCCCC;stroke-width:6.94488}
    .fil0 {fill:none}
    .fil3 {fill:black}
    .fil1 {fill:black}
    .fil2 {fill:#CCCCCC}
    .fil4 {fill:black;fill-rule:nonzero}
    .fnt3 {font-weight:normal;font-size:41.6654px;font-family:'Arial'}
    .fnt1 {font-weight:normal;font-size:55.5551px;font-family:'Arial'}
    .fnt2 {font-weight:normal;font-size:69.4449px;font-family:'Arial'}
    .fnt0 {font-weight:normal;font-size:166.665px;font-family:'Arial'}
    .section-path{fill:#CCCCCC;stroke:black;stroke-width:2}
    .section-label{fill:#black;font-family:'Arial'}
    .static{fill:#999999; stroke:black;stroke-width:2}
   
  </style></defs><g id="parent-group" transform="matrix(1.7596125,0,0,1.7596125,-3.0248298,-7.4163989)"><g id="static-elements"><path class="cls-8" d="m 1455.93,429.37 -172.31,22.19 -30,-121.26 -79.75,-126.3 -11,-115.735209 h -452 L 698.76,204 618.48,330.3 588.67,452 415.85,429.4 l -130.6,282.33 -79.7,373.68 h 65.2 l 5.69,23.63 -106.52739,558.06 c 506.29578,157.9479 1033.40869,158.0085 1531.50459,0 L 1597.44,1109 l 3.31,-23.63 H 1668 l -79.4,-372.08 z" id="background" style="fill: rgb(255, 255, 255); stroke: rgb(0, 0, 0); stroke-width: 1.92; stroke-dasharray: none;" transform="translate(-167.09,-83.09)" /><path d="M 593.97848,96.137304 V 124.14104 H 941.51613 V 96.137304 Z m -259.6531,308.896656 -27.41406,64.43634 -42.42184,-5.6655 v 10.4407 l 38.20162,5.13363 -10.30195,24.15351 -18.81175,44.13305 -43.49713,-6.0008 v 10.99569 l 39.04567,5.388 -10.00134,23.56383 -24.04944,56.40058 -44.74585,-6.35923 V 667.647 l 31.02147,4.41677 h 14.48748 l 33.22987,-77.99883 v -11.01881 l 4.45146,0.6128 29.1137,-68.275 v -10.47538 l 4.22022,0.56655 27.47187,-64.4479 z m 868.93662,0 v 35.99324 l 27.4256,64.4479 4.2202,-0.56655 v 10.47538 l 29.0675,68.275 4.4399,-0.6128 v 11.06506 l 33.912,79.79098 h 1.5609 l 3.7462,-0.53186 v 0.53186 h 0.3122 l -0.1041,-0.58968 -0.1156,-0.65904 h 4.7868 l 34.756,-4.94864 v -35.99324 l -44.7458,6.35923 -24.0032,-56.40058 -10.0014,-23.56383 39.0688,-5.39956 v -10.99569 l -43.5086,6.0008 -18.7887,-44.13305 -10.3829,-24.19976 38.2248,-5.13363 v -10.4407 l -42.445,5.6655 z m -507.82491,45.78645 c -2.93636,0.001 -5.82585,0.73674 -8.40574,2.13902 l -0.0694,-0.0116 -33.75016,66.36723 h -57.56837 l 10.74132,36.0048 h 46.82705 l 33.81954,-66.35566 c 4.9589,-2.7025 10.9165,-2.84885 16.00213,-0.39312 l 0.80935,-35.61168 c -2.57989,-1.40228 -5.46938,-2.13756 -8.40574,-2.13902 z m 146.38945,0 c -2.92754,0.002 -5.80854,0.73294 -8.38262,2.12745 l 0.78623,35.62325 c 5.08305,-2.46265 11.04223,-2.32055 16.00214,0.38155 l 33.77328,66.35567 h 46.90799 L 941.678,519.31509 h -57.67243 l -33.78485,-66.36723 c -2.5775,-1.39637 -5.46271,-2.12761 -8.39418,-2.12745 z m -379.17192,32.22395 v 35.99324 l 23.25165,63.23386 120.89473,10.37132 v -36.0048 L 485.90627,546.26666 Z m 611.95438,0.0347 -23.2979,63.23386 -120.90628,10.37132 v 35.99324 l 120.90628,-10.37132 23.2979,-63.2223 z m 89.3414,27.26375 c -1.9,19.61992 -7.3959,34.61373 -17.0659,43.32369 5.112,2.39123 9.9339,5.35887 14.3719,8.84511 3.4456,-14.09655 4.2232,-31.81901 2.694,-52.1688 z m -2.694,52.1688 v 0.0231 h 0.035 z M 373.42886,510.35436 c -1.52,20.35992 -0.79067,38.09199 2.65931,52.19193 4.44772,-3.49658 9.28145,-6.47206 14.40654,-8.86824 -9.66996,-8.70996 -15.16587,-23.70377 -17.06585,-43.32369 z m 328.80682,8.96073 v 35.99324 h 37.45008 v -35.99324 z m 95.21501,0 v 35.99324 h 37.46164 V 519.31509 Z M 514.1875,603.46504 C 455.90774,688.1847 398.90474,865.05773 387.53478,950.29739 h -0.0116 C 347.25342,936.20745 278.14235,912.78465 241.64251,888.40475 v 36.00479 c 36.49984,24.37992 105.61087,47.80269 145.88071,61.89265 11.38996,-85.23966 68.38452,-262.1127 126.66428,-346.83236 z m 508.9118,0 v 36.00479 c 47.9998,52.7298 114.5216,230.31282 126.4214,346.83236 40.2698,-14.08996 109.3956,-37.51273 145.9154,-61.89265 v -36.00479 c -36.5298,24.3799 -105.6224,47.8027 -145.8922,61.89264 h -0.023 c -11.9,-116.51954 -78.4316,-294.10257 -126.4214,-346.83235 z m -739.57838,99.74739 v 35.99324 l 25.44848,20.77734 c 3.37331,-9.69998 6.27304,-19.33407 8.70636,-28.89403 z m 970.16398,0 -34.1664,27.87655 c 2.44,9.5733 5.3415,19.20563 8.6948,28.90559 l 25.4716,-20.7889 z M 167.57483,762.85044 v 0.62436 h 46.32987 l -4.15084,23.85289 -10.46382,60.07737 h -49.92573 v 12.89189 h 47.68266 l -4.00054,23.11291 -13.20407,75.85982 h -51.68319 v 36.0048 h 51.6485 l 17.2393,-99.00742 v -12.79939 h 2.25463 c 6.97425,-40.21074 13.99839,-80.41276 21.00858,-120.61723 z m 1155.92287,0.68217 v 0.0231 l 46.3761,-0.0231 z m 0,0.0231 h -6.7524 c 7.7152,39.86862 14.2909,79.95071 21.2399,119.95818 h 2.2315 v 12.88033 l 17.193,99.00741 h 51.6485 v -36.00479 l -51.5676,-0.0694 -13.1809,-75.85982 -4.0005,-23.11291 h 47.7057 v -12.88033 h -49.9372 L 1327.637,787.3855 Z m -860.1031,87.67642 v 35.99324 l 11.15756,6.68297 c 3.63998,-9.73329 7.64162,-19.33802 12.0016,-28.82465 z m 610.4744,2.76338 -24.5582,11.09974 c 4.954,9.75536 9.3772,19.77136 13.2504,30.004 l 11.3078,-5.09895 z m 10.961,118.20072 c -44.2098,13.36994 -93.55526,23.2459 -146.13506,30.90587 h -0.0116 l 1.75746,35.7389 c 51.9198,-7.62 100.6494,-17.4201 144.3892,-30.6399 z m -632.9167,1.9887 v 35.99327 c 40.16984,11.48 87.6432,20.0004 142.86298,25.2404 l 1.81527,-35.83144 C 540.62177,994.34721 492.54314,985.79492 451.9133,974.18496 Z m -268.2554,36.18987 v 35.9932 c 1.37,23.1498 6.59627,39.7105 13.51625,53.6603 l 14.23311,-12.1866 c -13.23994,-19.8098 -25.49938,-40.0171 -27.74936,-77.4669 z m 1169.6125,0 c -2.23,37.4498 -14.5456,57.6571 -27.7956,77.4669 l 14.2447,12.2098 c 6.93,-14 12.1709,-30.5237 13.5509,-53.6835 z m -759.81222,51.0357 v 36.0048 c 127.4195,7.4898 246.36304,9.1998 348.09264,0 v -36.0048 c -101.7096,9.1998 -220.64002,7.4998 -348.06952,0 z m 468.13172,94.209 v 36.0048 l 29.6225,363.3895 h 27.865 l 5.758,64.9913 c 105.5894,-13.7798 206.6634,-38.6009 301.913,-75.5707 v -35.9933 c -95.2496,36.97 -196.3236,61.7908 -301.913,75.5708 l -5.758,-65.0029 h -27.865 z m -586.35557,0.035 -29.86525,363.4011 h -27.86499 l -5.80424,64.9913 c -105.55958,-13.78 -206.64564,-38.6008 -301.85526,-75.5708 v 36.0048 c 95.20962,37 196.29568,61.7908 301.85526,75.5708 l 5.80424,-65.0029 h 27.86499 l 29.86525,-363.3895 z m 507.45492,365.1007 1.94245,36.0048 h 21.0548 v -36.0048 z m -452.16431,6.0124 v 36.0048 h 25.29817 l 1.93089,-36.0048 z m 23.28634,73.5242 v 35.9933 c 149.2494,8.9098 294.3581,9.5998 433.16756,0 v -35.9933 c -138.80946,9.62 -283.91816,8.91 -433.16756,0 z" id="path4" /><polygon class="cls-9" id="stage" points="937.29,34.05 941.52,96.14 593.98,96.14 598.31,34.05 " style="fill: rgb(102, 102, 102); stroke: rgb(102, 102, 102);" /><text class="cls-10" id="text10" style="font-style: normal; font-variant: normal; font-weight: normal; font-stretch: normal; font-size: 35px; font-family: Arial; fill: rgb(0, 0, 0);" transform="translate(711.07,78.77)">S<tspan class="cls-11" id="tspan9" style="font-style: normal; font-variant: normal; font-weight: normal; font-stretch: normal; font-family: Arial; fill: rgb(0, 0, 0);" x="23.34" y="0">T</tspan><tspan id="tspan10" style="font-style: normal; font-variant: normal; font-weight: normal; font-stretch: normal; font-family: Arial; fill: rgb(0, 0, 0);" x="42.130001" y="0">AGE</tspan></text><g id="rows"><text class="cls-12" id="text11" style="font-style: normal; font-variant: normal; font-weight: normal; font-stretch: normal; font-size: 24px; font-family: Arial; fill: rgb(0, 0, 0);" transform="translate(753.17,157.77)">A<tspan class="cls-13" id="tspan11" style="font-style: normal; font-variant: normal; font-weight: normal; font-stretch: normal; font-family: Arial; fill: rgb(0, 0, 0);" x="17.33" y="0">A</tspan></text><text class="cls-14" id="text12" style="font-style: normal; font-variant: normal; font-weight: normal; font-stretch: normal; font-size: 24px; font-family: Arial; letter-spacing: -0.04em; fill: rgb(0, 0, 0);" transform="translate(760.59,190.91)">A</text><text class="cls-15" id="text13" style="font-style: normal; font-variant: normal; font-weight: normal; font-stretch: normal; font-size: 24px; font-family: Arial; letter-spacing: -0.02em; fill: rgb(0, 0, 0);" transform="translate(761.2,520.34)">Y</text><text class="cls-12" id="text14" style="font-style: normal; font-variant: normal; font-weight: normal; font-stretch: normal; font-size: 24px; font-family: Arial; fill: rgb(0, 0, 0);" transform="translate(754.54,564.34)">ZZ</text><line class="cls-16" id="path" style="fill: none; stroke: rgb(0, 0, 0); stroke-width: 2px; stroke-miterlimit: 10;" x1="769.20001" x2="769.20001" y1="202.63" y2="487.20001" /></g><g data-name="rows" id="rows-2"><text class="cls-14" id="text15" style="font-style: normal; font-variant: normal; font-weight: normal; font-stretch: normal; font-size: 24px; font-family: Arial; letter-spacing: -0.04em; fill: rgb(0, 0, 0);" transform="translate(760.32,670.91)">A</text><text class="cls-12" id="text16" style="font-style: normal; font-variant: normal; font-weight: normal; font-stretch: normal; font-size: 24px; font-family: Arial; fill: rgb(0, 0, 0);" transform="translate(758.94,1052.77)">M</text><line class="cls-16" data-name="path" id="path-2" style="fill: rgb(204, 204, 204); stroke: rgb(102, 102, 102); stroke-width: 2px; stroke-miterlimit: 10;" x1="768.94" x2="768.94" y1="690.20001" y2="745.47998" /><line class="cls-16" data-name="path" id="path-3" style="fill: rgb(204, 204, 204); stroke: rgb(102, 102, 102); stroke-width: 2px; stroke-miterlimit: 10;" x1="768.94" x2="768.94" y1="885.63" y2="1016.77" /></g><g data-name="rows" id="rows-3"><text class="cls-14" id="text17" style="font-style: normal; font-variant: normal; font-weight: normal; font-stretch: normal; font-size: 24px; font-family: Arial; letter-spacing: -0.04em; fill: rgb(0, 0, 0);" transform="translate(526.48,631.02)">A</text><text class="cls-12" id="text18" style="font-style: normal; font-variant: normal; font-weight: normal; font-stretch: normal; font-size: 24px; font-family: Arial; fill: rgb(0, 0, 0);" transform="translate(439.39,848.34)">H</text><text class="cls-12" id="text19" style="font-style: normal; font-variant: normal; font-weight: normal; font-stretch: normal; font-size: 24px; font-family: Arial; fill: rgb(0, 0, 0);" transform="translate(429.95,885.79)">J</text><text class="cls-15" id="text20" style="font-style: normal; font-variant: normal; font-weight: normal; font-stretch: normal; font-size: 24px; font-family: Arial; letter-spacing: -0.02em; fill: rgb(0, 0, 0);" transform="translate(416.94,964.48)">L</text><path class="cls-16" d="M 692.57,728.15 C 653.29,796.93 639.71,844.72 619,899.27" data-name="path" id="path-4" style="fill: none; stroke: rgb(0, 0, 0); stroke-width: 2px; stroke-miterlimit: 10;" transform="translate(-167.09,-83.09)" /><path class="cls-16" d="m 598.82,979.64 c -2.57,10.69 -4.53,22.94 -6.86,39.43" data-name="path" id="path-5" style="fill: rgb(204, 204, 204); stroke: rgb(0, 0, 0); stroke-width: 2px; stroke-miterlimit: 10;" transform="translate(-167.09,-83.09)" /></g><g data-name="rows" id="rows-4"><text class="cls-14" id="text21" style="font-style: normal; font-variant: normal; font-weight: normal; font-stretch: normal; font-size: 24px; font-family: Arial; letter-spacing: -0.04em; fill: rgb(0, 0, 0);" transform="translate(993.12,631.02)">A</text><text class="cls-12" id="text22" style="font-style: normal; font-variant: normal; font-weight: normal; font-stretch: normal; font-size: 24px; font-family: Arial; fill: rgb(0, 0, 0);" transform="translate(1085.25,848.34)">H</text><text class="cls-12" id="text23" style="font-style: normal; font-variant: normal; font-weight: normal; font-stretch: normal; font-size: 24px; font-family: Arial; fill: rgb(0, 0, 0);" transform="translate(1093.67,885.79)">J</text><text class="cls-15" id="text24" style="font-style: normal; font-variant: normal; font-weight: normal; font-stretch: normal; font-size: 24px; font-family: Arial; letter-spacing: -0.02em; fill: rgb(0, 0, 0);" transform="translate(1108.23,964.48)">L</text><path class="cls-16" d="m 1174.43,724.57 c 35.67,62 62.86,121.69 79.28,178.28" data-name="path" id="path-6" style="fill: none; stroke: rgb(0, 0, 0); stroke-width: 2px; stroke-miterlimit: 10;" transform="translate(-167.09,-83.09)" /><path class="cls-16" d="m 1270.86,980.28 a 181.14,181.14 0 0 1 7.28,38.15" data-name="path" id="path-7" style="fill: rgb(204, 204, 204); stroke: rgb(0, 0, 0); stroke-width: 2px; stroke-miterlimit: 10;" transform="translate(-167.09,-83.09)" /></g><g data-name="rows" id="rows-5"><g id="g26"><text class="cls-17" id="text25" style="font-style: normal; font-variant: normal; font-weight: normal; font-stretch: normal; font-size: 30px; font-family: Arial; letter-spacing: -0.04em; fill: rgb(0, 0, 0);" transform="translate(507.64,1179.84)">A</text><text class="cls-18" id="text26" style="font-style: normal; font-variant: normal; font-weight: normal; font-stretch: normal; font-size: 30px; font-family: Arial; fill: rgb(0, 0, 0);" transform="translate(475.22,1597.61)">H</text><line class="cls-16" data-name="path" id="path-8" style="fill: none; stroke: rgb(0, 0, 0); stroke-width: 2px; stroke-miterlimit: 10;" x1="514.06" x2="490.48001" y1="1207.05" y2="1544.77" /></g><text class="cls-17" id="text27" style="font-style: normal; font-variant: normal; font-weight: normal; font-stretch: normal; font-size: 30px; font-family: Arial; letter-spacing: -0.04em; fill: rgb(0, 0, 0);" transform="translate(1009.92,1179.84)">A</text><text class="cls-18" id="text28" style="font-style: normal; font-variant: normal; font-weight: normal; font-stretch: normal; font-size: 30px; font-family: Arial; fill: rgb(0, 0, 0);" transform="translate(1044.65,1597.61)">H</text><line class="cls-16" data-name="path" id="path-9" style="fill: none; stroke: rgb(0, 0, 0); stroke-width: 2px; stroke-miterlimit: 10;" x1="1022.77" x2="1051.0601" y1="1207.05" y2="1544.77" /></g></g><g id="sections"><g class="interactive-section" data-section-id="boxes-group" id="boxes-group" data-rows="19" data-seats-per-row="10" data-total-seats="190" data-price-min="25.00" data-price-max="500.00" data-current-price="93.67" data-available="true" onclick="showSectionInfo(evt)" style="cursor:pointer;"><title>Section boxes-group | 19 rows × 10 seats | $93.67</title><path class="section-path" d="m 332.36,846.62 -15.91,83.94 h 49.94 L 381,846.62 Z m -37.11,195.8 h 51.65 l 17.24,-99 H 314 Z m 164.64,-559.72 -28.36,64.19 42.47,5.67 27.48,-64.44 z m -32.72,74.05 -30.05,68 43.5,6 29.11,-68.28 z m -69.84,158 44.75,6.36 34.09,-80 -43.65,-6 z m 1133.2,131.82 14.58,83.94 h 49.94 l -15.86,-83.94 z m 67,96.83 h -50.14 l 17.19,99 h 51.65 z m -187.19,-455.28 27.43,64.44 42.44,-5.67 -28.33,-64.19 z m 31.66,74.35 29.07,68.28 43.51,-6 -30,-68 z m 77.17,72.7 -43.66,6 34,80 44.75,-6.36 z" data-default-color="rgb(204, 204, 204)" data-id="1861487" id="boxes-section" style="fill:#3498db; stroke: rgb(102, 102, 102); transition-delay: 0s; transition-duration: 0s;" transform="translate(-167.09,-83.09)" fill="#3498db" /><text class="section-label cr2-label" id="cr2-label" style="font-style: normal; font-variant: normal; font-weight: normal; font-stretch: normal; font-size: 36px; font-family: Arial; fill: rgb(0, 0, 0);" x="1362.9596" y="921.40997">C</text><text class="section-label br2-label" id="br2-label" style="font-style: normal; font-variant: normal; font-weight: normal; font-stretch: normal; font-size: 36px; font-family: Arial; fill: rgb(0, 0, 0);" transform="translate(1343.72,818.9)">B</text><text class="section-label cr-label" id="cr-label" style="font-style: normal; font-variant: normal; font-weight: normal; font-stretch: normal; font-size: 36px; font-family: Arial; fill: rgb(0, 0, 0);" transform="translate(1294.82,609.36)">C</text><text class="section-label br-label" id="br-label" style="font-style: normal; font-variant: normal; font-weight: normal; font-stretch: normal; font-size: 36px; font-family: Arial; fill: rgb(0, 0, 0);" transform="translate(1259.48,524.8)">B</text><text class="section-label ar-label" id="ar-label" style="font-style: normal; font-variant: normal; font-weight: normal; font-stretch: normal; font-size: 36px; font-family: Arial; letter-spacing: -0.04em; fill: rgb(0, 0, 0);" transform="translate(1228.14,448.76)">A</text><text class="section-label cl2-label" id="cl2-label" style="font-style: normal; font-variant: normal; font-weight: normal; font-stretch: normal; font-size: 36px; font-family: Arial; fill: rgb(0, 0, 0);" x="149.48822" y="921.40997">C</text><text class="section-label bl2-label" id="bl2-label" style="font-style: normal; font-variant: normal; font-weight: normal; font-stretch: normal; font-size: 36px; font-family: Arial; fill: rgb(0, 0, 0);" transform="translate(170.8,819.69)">B</text><text class="section-label cl-label" id="cl-label" style="font-style: normal; font-variant: normal; font-weight: normal; font-stretch: normal; font-size: 36px; font-family: Arial; fill: rgb(0, 0, 0);" transform="translate(217.81,609.36)">C</text><text class="section-label bl-label" id="bl-label" style="font-style: normal; font-variant: normal; font-weight: normal; font-stretch: normal; font-size: 36px; font-family: Arial; fill: rgb(0, 0, 0);" transform="translate(253.34,525.36)">B</text><text class="section-label al-label" id="al-label" style="font-style: normal; font-variant: normal; font-weight: normal; font-stretch: normal; font-size: 36px; font-family: Arial; letter-spacing: -0.04em; fill: rgb(0, 0, 0);" transform="translate(286.08,443.64)">A</text><text class="section-label boxes-group-label" fill="#000000" font-size="12px" id="boxes-group-label" text-anchor="middle" x="45.96" y="66.17">BOXES-GROUP</text></g><g class="interactive-section" data-section-id="balcc-group" id="balcc-group" data-rows="16" data-seats-per-row="24" data-total-seats="384" data-price-min="25.00" data-price-max="500.00" data-current-price="466.22" data-available="true" onclick="showSectionInfo(evt)" style="cursor:pointer;"><title>Section balcc-group | 16 rows × 24 seats | $466.22</title><path class="section-path" d="m 1492.56,1170.93 36.22,31 65.06,389.58 c -95.25,37 -196.33,61.79 -301.92,75.57 l -5.75,-65 h -27.87 l -29.62,-363.39 c 137,-8.21 239.32,-63.43 255.2,-153.34 l 36.48,8 c -2.23,37.56 -14.55,57.77 -27.8,77.58 z m -772.88,74.18 -22.07,364.75 h 27.23 l -3.94,73.52 c 149.25,8.91 294.36,9.6 433.17,0 l -4.29,-79.53 h 23 l -21.45,-358.74 c -141.79,16.89 -286.39,16.51 -431.65,0 z m -332.42,-159.7 -36.51,8 c 2.21,37.45 14.51,57.66 27.75,77.47 l -36.23,31 -65.33,389.58 c 95.21,37 196.29,61.79 301.85,75.57 l 5.8,-65 h 27.87 l 29.87,-363.39 c -136.93,-8.1 -239.28,-63.32 -255.07,-153.23 z" data-default-color="rgb(204, 204, 204)" data-id="1861486" id="balc-section" style="fill:#e74c3c; stroke: rgb(102, 102, 102); transition-delay: 0s; transition-duration: 0s;" transform="translate(-167.09,-83.09)" fill="#e74c3c" /><text class="section-label balcr-label" id="balcr-label" style="font-style: normal; font-variant: normal; font-weight: normal; font-stretch: normal; font-size: 48px; font-family: Arial; fill: rgb(0, 0, 0);" transform="translate(1184.24,1315.05)">BALC<tspan id="tspan1" style="font-style: normal; font-variant: normal; font-weight: normal; font-stretch: normal; font-family: Arial; fill: rgb(0, 0, 0);" x="-8" y="57.599998">RIGHT</tspan></text><text class="section-label balcc-label" id="balcc-label" style="font-style: normal; font-variant: normal; font-weight: normal; font-stretch: normal; font-size: 48px; font-family: Arial; fill: rgb(0, 0, 0);" transform="translate(709.27,1370.34)">BALC<tspan id="tspan2" style="font-style: normal; font-variant: normal; font-weight: normal; font-stretch: normal; font-family: Arial; fill: rgb(0, 0, 0);" x="-32.02" y="57.599998">CENTER</tspan></text><text class="section-label balcl-label" id="balcl-label" style="font-style: normal; font-variant: normal; font-weight: normal; font-stretch: normal; font-size: 48px; font-family: Arial; fill: rgb(0, 0, 0);" transform="translate(235.42,1315.06)">BALC<tspan id="tspan3" style="font-style: normal; font-variant: normal; font-weight: normal; font-stretch: normal; font-family: Arial; fill: rgb(0, 0, 0);" x="6.6700001" y="57.599998">LEFT</tspan></text><text class="section-label balcc-group-label" fill="#000000" font-size="12px" id="balcc-group-label" text-anchor="middle" x="35.2" y="6.31">BALCC-GROUP</text></g><g class="interactive-section" data-section-id="dc-group" id="dc-group" data-rows="20" data-seats-per-row="34" data-total-seats="680" data-price-min="25.00" data-price-max="500.00" data-current-price="227.49" data-available="true" onclick="showSectionInfo(evt)" style="cursor:pointer;"><title>Section dc-group | 20 rows × 34 seats | $227.49</title><path class="section-path" d="m 1314,636.76 c 37.13,17 71.41,79.26 106.83,149.54 l -34.17,27.88 c 12.85,50.51 38.73,102.93 75.94,157.32 -36.52,24.38 -105.65,47.8 -145.92,61.89 -11.9,-116.52 -78.43,-294.1 -126.42,-346.83 70.33,-38.86 93.82,-90.18 85.24,-148.91 h 53.43 c 6.35,47 2.51,83.35 -14.93,99.11 z m -585.69,61.68 c -39.06,67.25 -71.88,145.25 -97.8,235.88 l 23.12,13.83 c -16,34.87 -27,71.31 -34.61,109.12 40.61,11.61 88.69,20.17 144.68,25.41 l -3.13,61.82 c 127.42,7.49 246.36,9.2 348.09,0 l -2.87,-58.31 c 52.58,-7.66 101.92,-17.53 146.15,-30.9 -8.9,-39.95 -19.87,-76.54 -35.52,-107.14 L 1241,937.07 a 802.29,802.29 0 0 0 -96.28,-238.63 c -137.01,35.11 -277.41,34.56 -416.41,0 z M 557.57,636.76 c -37.14,17 -71.46,79.26 -106.93,149.54 l 34.16,27.88 c -12.89,50.51 -38.8,102.93 -76.05,157.32 36.5,24.38 105.61,47.8 145.88,61.89 C 566,948.15 623,771.28 681.28,686.56 610.98,647.7 587.52,596.38 596.14,537.65 H 542.7 c -6.43,47 -2.61,83.35 14.87,99.11 z" data-default-color="rgb(204, 204, 204)" data-id="1861485" id="dc-section" style="fill:#f39c12; stroke: rgb(102, 102, 102); transition-delay: 0s; transition-duration: 0s;" transform="translate(-167.09,-83.09)" fill="#f39c12" /><text class="section-label dcr-label" id="dcr-label" style="font-style: normal; font-variant: normal; font-weight: normal; font-stretch: normal; font-size: 36px; font-family: Arial; fill: rgb(0, 0, 0);" transform="translate(1131.21,657.78)">DC<tspan id="tspan4" style="font-style: normal; font-variant: normal; font-weight: normal; font-stretch: normal; font-family: Arial; fill: rgb(0, 0, 0);" x="-30" y="43.200001">RIGHT</tspan></text><text class="section-label dcc-label" id="dcc-label" style="font-style: normal; font-variant: normal; font-weight: normal; font-stretch: normal; font-size: 48px; font-family: Arial; fill: rgb(0, 0, 0);" transform="translate(737.95,796.72)">DC<tspan id="tspan5" style="font-style: normal; font-variant: normal; font-weight: normal; font-stretch: normal; font-family: Arial; fill: rgb(0, 0, 0);" x="-64.010002" y="57.599998">CENTER</tspan></text><text class="section-label dcl-label" id="dcl-label" style="font-style: normal; font-variant: normal; font-weight: normal; font-stretch: normal; font-size: 36px; font-family: Arial; fill: rgb(0, 0, 0);" transform="translate(366.05,657.78)">DC<tspan id="tspan6" style="font-style: normal; font-variant: normal; font-weight: normal; font-stretch: normal; font-family: Arial; fill: rgb(0, 0, 0);" x="-18.99" y="43.200001">LEFT</tspan></text><text class="section-label dc-group-label" fill="#000000" font-size="12px" id="dc-group-label" text-anchor="middle" x="112.29" y="115.92">DC-GROUP</text></g><g class="interactive-section" data-section-id="orch-group" id="orch-group" data-rows="15" data-seats-per-row="27" data-total-seats="405" data-price-min="25.00" data-price-max="500.00" data-current-price="131.21" data-available="true" onclick="showSectionInfo(evt)" style="cursor:pointer;"><title>Section orch-group | 15 rows × 27 seats | $131.21</title><path class="section-path" d="m 911.8,219 -1.17,119.89 -3.78,263.5 h -37.46 l 1.51,-66.36 a 17.62,17.62 0 0 0 -16.78,0 l -33.82,66.38 h -57.57 l 11.13,37.32 -120.86,-10.37 -23.26,-63.23 51,-227.22 14.17,-23.78 63.62,-104.22 c 18.81,7.36 40.06,12.12 63.41,14.59 l 3.27,-12.63 c 31.07,3.63 60.54,6.13 86.59,6.13 z m 279.14,119.89 -14.15,-23.78 -63.54,-104.22 c -18.82,7.36 -40.07,12.12 -63.43,14.59 l -3.26,-12.63 C 1015.45,216.5 986,219 959.92,219 l 1.08,119.91 3.6,263.5 h 37.46 l -1.47,-66.36 a 17.62,17.62 0 0 1 16.78,0 l 33.78,66.36 h 57.58 l -11.17,37.32 120.9,-10.37 23.3,-63.23 z" data-default-color="rgb(204, 204, 204)" data-id="1861484" id="orch-section" style="fill:#3498db; stroke: rgb(102, 102, 102); transition-delay: 0s; transition-duration: 0s;" transform="translate(-167.09,-83.09)" fill="#3498db" /><text class="section-label orchl-label" id="orchl-label" style="font-style: normal; font-variant: normal; font-weight: normal; font-stretch: normal; font-size: 48px; font-family: Arial; fill: rgb(0, 0, 0);" x="566.27435" y="328.51999">LEFT<tspan id="tspan7" style="font-style: normal; font-variant: normal; font-weight: normal; font-stretch: normal; font-family: Arial; fill: rgb(0, 0, 0);" x="555.59436" y="386.12">ORCH</tspan></text><text class="section-label orchr-label" id="orchr-label" style="font-style: normal; font-variant: normal; font-weight: normal; font-stretch: normal; font-size: 48px; font-family: Arial; fill: rgb(0, 0, 0);" transform="translate(851.06,328.52)">RGHT<tspan id="tspan8" style="font-style: normal; font-variant: normal; font-weight: normal; font-stretch: normal; font-family: Arial; fill: rgb(0, 0, 0);" x="-2.6700001" y="57.599998">ORCH</tspan></text><text class="section-label orch-group-label" fill="#000000" font-size="12px" id="orch-group-label" text-anchor="middle" x="36.96" y="92.95">ORCH-GROUP</text></g></g></g><g id="info-panel"><rect x="10" y="10" width="320" height="140" rx="8" fill="#1a1a2e" fill-opacity="0.95" stroke="#444" /><text x="25" y="40" fill="#FFD700" font-family="Arial" font-size="18" font-weight="bold">Lyric Theatre</text><text id="section-info" x="25" y="70" fill="white" font-family="monospace" font-size="13">Click a section to see details</text></g><script type="text/javascript">&lt;![CDATA[
function showSectionInfo(evt) {
    var g = evt.currentTarget;
    var id = g.getAttribute('data-section-id');
    var rows = g.getAttribute('data-rows');
    var spr = g.getAttribute('data-seats-per-row');
    var total = g.getAttribute('data-total-seats');
    var price = g.getAttribute('data-current-price');
    var avail = g.getAttribute('data-available');
    
    var info = document.getElementById('section-info');
    if (info) {
        while (info.firstChild) info.removeChild(info.firstChild);
        
        var lines = [
            'Section ' + id,
            'Rows: ' + rows + ' | Seats/Row: ' + spr,
            'Total Seats: ' + total,
            'Price: $' + price,
            'Available: ' + (avail === 'true' ? 'Yes' : 'No')
        ];
        
        lines.forEach(function(line, i) {
            var tspan = document.createElementNS('http://www.w3.org/2000/svg', 'tspan');
            tspan.setAttribute('x', '25');
            tspan.setAttribute('dy', i === 0 ? '0' : '18');
            tspan.textContent = line;
            info.appendChild(tspan);
        });
    }
}
]]&gt;</script></svg>