<?xml version="1.0" encoding="UTF-8"?>
<svg xmlns="http://www.w3.org/2000/svg" class="m h-full w-full p-2 lg:p-4 zoom-transition" data-zoom-enabled="false" height="3.0215421in" id="svg24" style="clip-rule: evenodd; fill-rule: evenodd; shape-rendering: geometricprecision; text-rendering: geometricprecision; transform-origin: 0px 0px 0px; transform: matrix(1, 0, 0, 1, 0, 0);" version="1.1" viewBox="0 0 1913.4471 3021.5421" width="1.9134471in" xml:space="preserve"><defs id="defs1"><style id="style1" type="text/css">
   
    .str0 {stroke:black;stroke-width:3}
    .str1 {stroke:#CCCCCC;stroke-width:3}
    .fil0 {fill:none}
    .fil4 {fill:black}
    .fil1 {fill:black}
    .fil2 {fill:#CCCCCC}
    .fil3 {fill:black;fill-rule:nonzero}
    .fnt0 {font-weight:normal;font-size:41.6654px;font-family:'Arial'}
    .fnt1 {font-weight:normal;font-size:55.5551px;font-family:'Arial'}
    .fnt2 {font-weight:normal;font-size:83.3307px;font-family:'Arial'}
    .section-path{fill:#CCCCCC;stroke:black;stroke-width:3}
    .section-label{fill:#black;font-family:'Arial'}
    .static{fill:#999999; stroke:black;stroke-width:3}
   
  </style></defs><g id="Layer_x0020_1" transform="translate(-540.96467,559.45918)"><metadata id="CorelCorpID_0Corel-Layer" /><g id="parent-group" transform="rotate(-90,1500.0276,949.00507)"><g id="static-elements"><path class="fil0 str0" d="m 1837,73 c 150,39 299,78 449,118 174,-60 349,-121 524,-181 237,690 244,1185 35,1878 l -110,-37 c -145,-50 -290,-99 -435,-149 l -463,114 -156,40 H 1169 798 C 577,1804 396,1707 226,1558 l -39,-33 v -33 H 121 5 L 4.9464071,393 H 144 192 l 74,-75 C 436,187 613,97 821,44 h 858 z" id="path1" style="fill: rgb(255, 255, 255); stroke-width: 5.90551; stroke-dasharray: none;" /><path d="m 1553.9245,-395.31357 c -27.3438,-0.29687 -54.6592,-0.17447 -81.9092,0.32552 -107.9999,2 -215.9951,12.01207 -323.995,29.01205 V -10.975195 344.02562 c 107.9999,-17.99998 215.9951,-26.99479 323.995,-27.99479 108.9999,-1 219.003,5.99301 328.0029,21.993 V -20.98496 -379.9734 c -81.7499,-9.74999 -164.0626,-14.44954 -246.0937,-15.34017 z m 336.1002,27.34375 c 0,119.99988 0.9969,240.98238 0.9969,360.9822564 V 353.01813 c 15,3 30.9971,6.01286 46.9971,9.01286 v 302.99886 c 77.9999,21.99997 157.0027,48.99368 236.0026,80.99365 h 0.9969 c 14,-37.99996 28.0125,-77.00753 42.0125,-116.00749 v -0.99691 l 1.8419,-34.26674 -35.8588,-91.73016 c -63.9999,-15.99999 -126.9994,-30.99709 -190.9993,-46.99707 -3,0 -5.9926,-0.99382 -8.9926,-1.99382 1,-2.99999 1.9939,-6.01595 1.9939,-8.01595 15.9999,-58.99994 30.997,-118.00201 46.997,-177.00195 1,-3 2.0142,-4.99561 2.0142,-7.9956 3,1 5.9925,0.99381 8.9925,1.99381 27,6 53.9937,13.00229 80.9937,19.00228 l 1.771,-34.69497 -27.7517,-65.30096 c 53,-154.999847 105.9967,-311.00048 158.9966,-467.00032 l 0.3277,-37.0516 z m -828.9998,17.98503 -357.00646,58.99701 0.0118,37.01129 155.98551,449.99186 -29.27548,67.33272 1.35808,34.98388 c 23.99998,-8 49.9145,-16.31059 74.91447,-25.31058 3,0 5.01596,-0.99382 8.01595,-1.99382 1,3 1.99073,4.99561 2.99073,7.99561 17.99998,56.99994 37.01303,114.99712 55.01302,171.99707 l 2.99072,8.99251 c -3,1 -5.99561,2.01416 -7.99561,2.01416 -63.99993,16.99998 -127.99632,32.9909 -191.99625,48.99088 l -33.2967,87.52801 0.29702,36.47508 v 0.99691 c 15.99999,35.99997 30.99709,72.00883 46.99707,109.00879 v -0.99691 C 866.0287,713.02971 941.01861,686.02982 1017.0185,665.02985 V 370.02659 c 14,-2.99999 29.0064,-7.00976 44.0064,-10.00976 V 5.0160164 Z m 986.0026,625.9969 -43.4148,124.04369 1.4022,35.97014 c 58,13.99999 115.0144,27.9922 173.0144,41.99219 l 0.4874,-35.10393 -49.4987,-146.88256 c -26.9999,-5.99999 -53.9906,-13.01954 -81.9905,-20.01953 z M 904.02212,287.01878 c -25.99997,7.99999 -51.00914,17.00408 -76.00911,25.00407 l -49.00812,140.1894 2.01105,34.81874 C 839.01588,472.031 896.03032,458.02463 954.03026,443.02464 l 1.47917,-36.09124 z m 569.01038,431.00993 c -122.9998,0.99999 -245.0045,12.98423 -367.0044,37.98421 v 448.01838 447.998 c 38,141.9999 76.9903,282.9879 114.9903,424.9878 84.9999,-17 169.008,-24.9899 254.0079,-22.9899 85,2 170.9988,13.9873 256.9987,36.9873 37,-141.9999 74.9996,-284.0021 111.9996,-427.002 0,-137.9998 0,-275.9812 0.9969,-413.9811 V 834.01585 c -124.9999,-21.99998 -245.9891,-35.99838 -371.989,-39.99838 z M 1019.0124,776.0121 C 915.01248,802.01208 811.02088,837.01296 707.02098,881.01292 v 385.00968 384.9895 c 47.99996,182.9998 135.99573,353.0099 257.99561,510.0097 56.99991,-26 113.99711,-46.0086 171.99711,-63.0086 -1.7054,-6.2532 2.3687,-29.269 0.6633,-35.5259 -37.2933,-136.8261 -80.3528,-257.7201 -117.6474,-394.4668 0,-3 -1.0172,-7.0067 -1.0172,-11.0067 v -439.982 z m 916.0156,74.0153 c 0,136.99987 0,273.9905 -0.9969,410.9904 v 410.0138 c -1,4 -1.0173,6.9863 -1.0173,10.9863 -36.9409,137.3441 -79.3333,261.3962 -115.3286,397.8906 -2.0064,7.6084 2.3447,28.5071 0.3384,36.1101 55.9999,18.9999 112.0064,43.0073 169.0063,70.0073 125.9999,-143.9999 222.9992,-310.0069 269.9992,-511.0067 V 1317.0277 958.01894 C 2149.0292,913.01898 2042.0279,877.02738 1935.028,850.0274 Z m -490.0513,1253.7638 c -130.1988,0.5859 -259.5818,26.6643 -388.9567,78.2267 v 180.8065 l 836.9954,2.1972 V 2203.014 c -140.9998,-62.9999 -281.9972,-95.999 -421.997,-98.999 -8.6875,-0.1875 -17.3618,-0.2629 -26.0417,-0.2238 z" id="path3-4" style="clip-rule: evenodd; fill: rgb(0, 0, 0); fill-rule: evenodd; stroke: none; stroke-width: 3; shape-rendering: geometricprecision; text-rendering: geometricprecision;" transform="rotate(90,1500.0276,949.00507)" /><path class="static" d="M 123.19367,505 H 304 c 55,138 81,276 78,415 -3,140 -36,281 -99,422 H 121 Z" id="path3" style="fill: rgb(102, 102, 102);" /><path class="fil3" d="m 1736,218 -41,-94 -185,-1 v -3 c 62,0 124,1 186,1 v 0 l 1,1 42,95 z" id="path4" /><text class="fil4 fnt0" id="text4" style="font-style: normal; font-variant: normal; font-weight: normal; font-stretch: normal; font-family: arial;" x="1006" y="137">MEZZANINE OVERHANG</text><text class="fil4 fnt0" id="text5" style="font-style: normal; font-variant: normal; font-weight: normal; font-stretch: normal; font-family: arial;" x="976" y="1801">MEZZANINE OVERHANG</text><path class="fil3" d="m 992,123 c -53,0 -106,0 -159,0 v 28 h -3 v -29 -2 h 2 160 z" id="path5" /><path class="fil3" d="m 1479,1785 h 211 c 16,-34 32,-68 48,-102 l 3,2 -49,102 v 1 h -1 -212 z" id="path6" /><path class="fil3" d="m 966,1789 h -151 -2 v -2 c 0,-10 0,-20 0,-30 h 3 v 29 h 150 z" id="path7" /><text class="fil4 fnt1" id="text7" style="font-style: normal; font-variant: normal; font-weight: normal; font-stretch: normal; font-size: 111.111px; font-family: arial; stroke-width: 2.37209;" transform="rotate(90)" x="723.22083" y="-189.16394">STAGE</text><text class="fil4 fnt0" id="text8" style="font-style: normal; font-variant: normal; font-weight: normal; font-stretch: normal; font-family: arial;" transform="rotate(90)" x="612.6626" y="-396.98279">A</text><text class="fil4 fnt0" id="text9" style="font-style: normal; font-variant: normal; font-weight: normal; font-stretch: normal; font-family: arial;" transform="rotate(90)" x="1214.1146" y="-383.42569">A</text><text class="fil4 fnt0" id="text10" style="font-style: normal; font-variant: normal; font-weight: normal; font-stretch: normal; font-family: arial;" transform="rotate(90)" x="1312.4873" y="-1604.3315">ZZ</text><text class="fil4 fnt0" id="text11" style="font-style: normal; font-variant: normal; font-weight: normal; font-stretch: normal; font-family: arial;" transform="rotate(90)" x="487.47015" y="-1636.6482">ZZ</text><text class="fil4 fnt0" id="text12" style="font-style: normal; font-variant: normal; font-weight: normal; font-stretch: normal; font-family: arial;" transform="rotate(90)" x="482.33978" y="-1829.295">BB</text><text class="fil4 fnt0" id="text13" style="font-style: normal; font-variant: normal; font-weight: normal; font-stretch: normal; font-family: arial;" transform="rotate(90)" x="543.22363" y="-2787.457">L</text><text class="fil4 fnt0" id="text14" style="font-style: normal; font-variant: normal; font-weight: normal; font-stretch: normal; font-family: arial;" transform="rotate(90)" x="1314.7157" y="-1826.295">BB</text><text class="fil4 fnt0" id="text15" style="font-style: normal; font-variant: normal; font-weight: normal; font-stretch: normal; font-family: arial;" transform="rotate(90)" x="1279.5538" y="-2828.457">L</text><path class="fil3" d="M 1625.6665,512.3836 H 834.9041 l -397,106 -1,-2 c 132,-36 265,-72 398,-107 v 0 h 790.7624 z" id="path15" /><path class="fil3" d="m 2776,558.50548 h -676 -1 l -1,-1 -11,-48 h -207 v -3 h 209 1 v 2 l 11,47 c 225,0 450,0 675,0 z" id="path16" /><path class="fil3" d="M 1592.0536,1340.1937 H 823.71498 v -1 l -400,-107 v -3 l 400,108 h 768.33862 z" id="path17" /><path class="fil3" d="m 2815,1295.8357 h -713 l -10,47 -1,2 h -1 l -211,-1 v -3 l 210,1 10,-48 1,-1 h 1 c 238,0 476,0 714,0 z" id="path18" /><text id="text25" style="font-style: normal; font-variant: normal; font-weight: normal; font-stretch: normal; font-size: 41.6667px; font-family: arial; clip-rule: evenodd; fill: rgb(0, 0, 0); fill-rule: evenodd; stroke: none; stroke-width: 10.4167; shape-rendering: geometricprecision; text-rendering: geometricprecision;" transform="rotate(90,1500.0276,949.00507)" x="1014.8867" xml:space="preserve" y="765.21082"><tspan id="tspan24" style="font-style: normal; font-variant: normal; font-weight: normal; font-stretch: normal; font-size: 41.6667px; font-family: arial; fill: rgb(0, 0, 0); stroke: none; stroke-width: 10.4167;" x="1014.8867" y="765.21082"> ZZZ</tspan></text></g><g id="sections"><g class="interactive-section" data-section-id="orch" id="orch-group" data-rows="15" data-seats-per-row="15" data-total-seats="225" data-price-min="25.00" data-price-max="500.00" data-current-price="176.38" data-available="true" onclick="showSectionInfo(evt)" style="cursor:pointer;"><title>Section orch | 15 rows × 15 seats | $176.38</title><path class="section-path" d="m 835,156 c 128,0 257,0 385,0 128,0 256,0 385,0 44,104 79,208 105,312 -147,0 -294,0 -441,0 -146,0 -293,0 -440,0 -4,0 -8,1 -11,1 C 675,508 531,547 388,586 371,528 351,471 325,414 482,292 652,204 835,156 Z m 895,399 c 25,122 37,244 38,367 -26,0 -51,0 -76,0 -4,126 -18,247 -40,372 -139,0 -277,0 -416,0 -138,-1 -276,-1 -414,-1 -143,-37 -285,-75 -427,-112 23,-86 35,-172 37,-257 2,-85 -6,-169 -23,-254 142,-38 283,-77 425,-115 149,0 298,0 448,0 149,0 298,0 448,0 z m -94,829 c -27,107 -63,214 -108,322 -120,0 -240,0 -359,0 -119,0 -239,0 -358,0 -201,-47 -367,-144 -511,-270 27,-57 51,-113 70,-169 144,38 289,76 434,115 4,0 7,0 11,1 137,0 273,0 410,0 137,1 274,1 411,1 z" data-default-color="rgb(204, 204, 204)" data-id="8357" id="orch-section" style="stroke: rgb(102, 102, 102); stroke-width: 1.9685; stroke-dasharray: none; transition-delay: 0s; transition-duration: 0s; fill:#f39c12;" fill="#f39c12" /><text class="section-label orch-label" font-size="83.3307px" id="torch" style="font-style: normal; font-variant: normal; font-weight: normal; font-stretch: normal; font-family: arial; text-align: center; text-anchor: middle;" transform="rotate(90)" x="1550.4252" y="-1104.6398"><tspan id="tspan30" x="1550.4252" y="-1104.6398">LEFT</tspan><tspan id="tspan31" x="1550.4252" y="-1000.4764">ORCH</tspan></text><text class="fil4 fnt2" font-size="83.3307px" id="text18" style="font-style: normal; font-variant: normal; font-weight: normal; font-stretch: normal; font-family: arial;" transform="rotate(90)" x="916.79352" y="-1104.927"><tspan id="tspan28" style="font-style: normal; font-variant: normal; font-weight: normal; font-stretch: normal; font-family: arial; text-align: center; text-anchor: middle;" x="916.79352" y="-1104.927">CENTER</tspan><tspan id="tspan29" style="font-style: normal; font-variant: normal; font-weight: normal; font-stretch: normal; font-family: arial; text-align: center; text-anchor: middle;" x="916.79352" y="-1000.7636">ORCH</tspan></text><text class="fil4 fnt2" font-size="83.3307px" id="text19" style="font-style: normal; font-variant: normal; font-weight: normal; font-stretch: normal; font-family: arial; stroke-width: 0.721212;" transform="rotate(90)" x="312.54935" y="-1102.4452"><tspan id="tspan26" style="font-style: normal; font-variant: normal; font-weight: normal; font-stretch: normal; font-family: arial; text-align: center; text-anchor: middle; stroke-width: 0.721212;" x="312.54935" y="-1102.4452">RIGHT</tspan><tspan id="tspan27" style="font-style: normal; font-variant: normal; font-weight: normal; font-stretch: normal; font-family: arial; text-align: center; text-anchor: middle; stroke-width: 0.721212;" x="312.54935" y="-998.2818">ORCH</tspan></text><text class="section-label orch-label" fill="#000000" font-size="12px" id="orch-label" text-anchor="middle" x="69.71" y="64.33">ORCH</text></g><g class="interactive-section" data-section-id="boxes" id="boxes-group" data-rows="12" data-seats-per-row="15" data-total-seats="180" data-price-min="25.00" data-price-max="500.00" data-current-price="86.27" data-available="true" onclick="showSectionInfo(evt)" style="cursor:pointer;"><title>Section boxes | 12 rows × 15 seats | $86.27</title><path class="section-path" d="m 2190,1578 c -61,17 -122,33 -182,49 14,-58 28,-115 42,-173 53,14 106,28 160,42 -7,28 -14,55 -20,82 z M 1999,230 c 58,16 116,31 175,47 8,25 17,50 25,76 -52,17 -104,33 -156,50 -15,-58 -29,-115 -44,-173 z" data-default-color="rgb(204, 204, 204)" data-id="8358" id="boxes-section" style="stroke: rgb(102, 102, 102); stroke-width: 1.9685; stroke-dasharray: none; transition-delay: 0s; transition-duration: 0s; fill:#3498db;" fill="#3498db" /><text class="section-label boxes-label" font-size="41.6654px" id="tboxes" style="font-style: normal; font-variant: normal; font-weight: normal; font-stretch: normal; font-size: 34.7222px; font-family: arial;" transform="rotate(90)" x="1492.4789" y="-2110.5266">LEFT</text><text class="fil4 fnt0" font-size="41.6654px" id="text20" style="font-style: normal; font-variant: normal; font-weight: normal; font-stretch: normal; font-size: 34.7222px; font-family: arial;" transform="rotate(90)" x="1498.4789" y="-2071.7002">BOX</text><text class="fil4 fnt0" font-size="41.6654px" id="text21" style="font-style: normal; font-variant: normal; font-weight: normal; font-stretch: normal; font-size: 34.7222px; font-family: arial; stroke-width: 0.842498;" transform="rotate(90)" x="264.14182" y="-2090.7332">RIGHT</text><text class="fil4 fnt0" font-size="41.6654px" id="text22" style="font-style: normal; font-variant: normal; font-weight: normal; font-stretch: normal; font-size: 34.7222px; font-family: arial; stroke-width: 0.842498;" transform="rotate(90)" x="281.83426" y="-2052.7708">BOX</text><text class="section-label boxes-label" fill="#000000" font-size="12px" id="boxes-label" text-anchor="middle" x="160.96" y="69.58">BOXES</text></g><g class="interactive-section" data-section-id="mezz" id="mezz-group" data-rows="17" data-seats-per-row="33" data-total-seats="561" data-price-min="25.00" data-price-max="500.00" data-current-price="392.18" data-available="true" onclick="showSectionInfo(evt)" style="cursor:pointer;"><title>Section mezz | 17 rows × 33 seats | $392.18</title><path class="section-path" d="m 1850,192 c 1,0 1,0 1,0 41,11 83,22 124,33 16,64 32,128 49,192 0,2 1,5 2,8 3,-1 6,-2 9,-3 57,-18 115,-37 172,-55 3,-1 5,-2 8,-3 -1,-3 -2,-5 -2,-8 -9,-25 -17,-50 -25,-74 34,8 68,18 102,27 150,-52 300,-104 450,-156 41,119 73,237 96,357 -118,0 -236,0 -355,0 -118,0 -237,0 -355,0 -3,-15 -7,-30 -10,-44 -98,0 -196,0 -295,0 -21,-76 -48,-151 -79,-227 h -1 c 37,-16 73,-31 109,-47 z m 1002,405 c 17,108 27,216 29,324 2,109 -2,219 -15,328 -120,0 -240,0 -359,0 -120,0 -239,0 -359,0 16,-109 23,-219 22,-328 -1,-108 -10,-216 -28,-324 118,0 237,0 355,0 118,0 237,0 355,0 z m 2,742 c -18,122 -46,245 -83,367 -156,-53 -312,-106 -467,-159 -33,9 -67,17 -100,26 6,-27 13,-54 19,-81 1,-3 1,-6 2,-9 -3,0 -5,-1 -8,-2 -59,-16 -118,-31 -177,-47 -2,0 -5,-1 -8,-2 -1,3 -2,6 -2,9 -16,64 -31,127 -47,191 -42,11 -84,23 -126,34 0,0 -1,0 -1,0 -39,-14 -78,-28 -116,-42 0,0 0,0 0,-1 32,-79 59,-158 81,-236 101,0 202,0 303,0 3,-16 6,-32 9,-47 120,0 240,0 360,0 120,0 241,-1 361,-1 z" data-default-color="rgb(204, 204, 204)" data-id="8356" id="mezz-section" style="stroke: rgb(102, 102, 102); stroke-width: 1.9685; stroke-dasharray: none; transition-delay: 0s; transition-duration: 0s; fill:#e74c3c;" fill="#e74c3c" /><text class="section-label mezz-label" font-size="55.5551px" id="tmezz" style="font-style: normal; font-variant: normal; font-weight: normal; font-stretch: normal; font-family: arial; text-align: center; text-anchor: middle;" transform="rotate(90)" x="1472.1248" y="-2540.686"><tspan id="tspan34" x="1472.1248" y="-2540.686">LEFT</tspan><tspan id="tspan35" x="1472.1248" y="-2471.2422">MEZZ</tspan></text><text class="fil4 fnt1" font-size="55.5551px" id="text23" style="font-style: normal; font-variant: normal; font-weight: normal; font-stretch: normal; font-family: arial;" transform="rotate(90)" x="727.44977" y="-2510.4036">CENTER MEZZ</text><text class="fil4 fnt1" font-size="55.5551px" id="text24" style="font-style: normal; font-variant: normal; font-weight: normal; font-stretch: normal; font-family: arial; text-align: center; text-anchor: middle;" transform="rotate(90)" x="384.58545" y="-2541.0889"><tspan id="tspan32" x="384.58545" y="-2541.0889">RIGHT</tspan><tspan id="tspan33" x="384.58545" y="-2471.645">MEZZ</tspan></text><text class="section-label mezz-label" fill="#000000" font-size="12px" id="mezz-label" text-anchor="middle" x="19.53" y="11.55">MEZZ</text></g></g></g></g><g id="info-panel"><rect x="10" y="10" width="320" height="140" rx="8" fill="#1a1a2e" fill-opacity="0.95" stroke="#444" /><text x="25" y="40" fill="#FFD700" font-family="Arial" font-size="18" font-weight="bold">Minskoff Theatre</text><text id="section-info" x="25" y="70" fill="white" font-family="monospace" font-size="13">Click a section to see details</text></g><script type="text/javascript">&lt;![CDATA[
function showSectionInfo(evt) {
    var g = evt.currentTarget;
    var id = g.getAttribute('data-section-id');
    var rows = g.getAttribute('data-rows');
    var spr = g.getAttribute('data-seats-per-row');
    var total = g.getAttribute('data-total-seats');
    var price = g.getAttribute('data-current-price');
    var avail = g.getAttribute('data-available');
    
    var info = document.getElementById('section-info');
    if (info) {
        while (info.firstChild) info.removeChild(info.firstChild);
        
        var lines = [
            'Section ' + id,
            'Rows: ' + rows + ' | Seats/Row: ' + spr,
            'Total Seats: ' + total,
            'Price: $' + price,
            'Available: ' + (avail === 'true' ? 'Yes' : 'No')
        ];
        
        lines.forEach(function(line, i) {
            var tspan = document.createElementNS('http://www.w3.org/2000/svg', 'tspan');
            tspan.setAttribute('x', '25');
            tspan.setAttribute('dy', i === 0 ? '0' : '18');
            tspan.textContent = line;
            info.appendChild(tspan);
        });
    }
}
]]&gt;</script></svg>