<?xml version="1.0" encoding="UTF-8"?>
<svg xmlns="http://www.w3.org/2000/svg" class="m h-full w-full p-2 lg:p-4 zoom-transition" data-zoom-enabled="false" height="2.7556539in" id="svg2" style="clip-rule: evenodd; fill-rule: evenodd; shape-rendering: geometricprecision; text-rendering: geometricprecision; transform-origin: 0px 0px 0px; transform: matrix(1, 0, 0, 1, 0, 0);" version="1.1" viewBox="0 0 2663.9975 2755.6539" width="2.6639974in" xml:space="preserve"><defs id="defs1"><style id="style1" type="text/css">
   
    .str0 {stroke:black;stroke-width:6.94488}
    .str1 {stroke:black;stroke-width:6.94488}
    .fil0 {fill:none}
    .fil1 {fill:black}
    .fnt5 {font-weight:normal;font-size:68.0827px;font-family:'Arial'}
    .fnt3 {font-weight:normal;font-size:108.685px;font-family:'Arial'}
    .fnt1 {font-family:'Arial'}
    .fnt4 {font-weight:normal;font-size:151.374px;font-family:'Arial'}
    .fnt2 {font-weight:normal;font-size:151.382px;font-family:'Arial'}
    .fnt0 {font-weight:normal;font-size:218.059px;font-family:'Arial'}
    .section-path{fill:#CCCCCC;stroke:black;stroke-width:3}
    .section-label{fill:#black;font-family:'Arial'}
    .static{fill:#999999}
   
  </style></defs><g id="Layer_x0020_1" transform="translate(-8.4459347,-239.79084)"><metadata id="CorelCorpID_0Corel-Layer" /><g id="parent-group" transform="matrix(0.56005952,0,0,0.56005952,4.1365485,7.231812)"><g id="static-elements"><path class="fil0 str0" d="m 4564,1658 -60,58 c -73,70 -150,137 -231,198 l 2,2 -6,4 c 143,182 244,385 292,614 l 14,63 -76,78 257,344 -61,58 56,79 -67,88 v 1 l -8,10 -61,447 -154,98 v 0 l -12,7 24,42 -6,3 68,116 -23,55 c -86,211 -205,405 -356,576 l -37,41 -116,114 c -129,116 -272,215 -426,296 l -80,41 -106,47 c -173,72 -354,123 -539,154 l -88,14 c -174,24 -415,29 -585,17 l -89,-8 -112,-15 c -185,-27 -369,-72 -544,-137 l -130,-52 C 1177,5059 914,4900 817,4821 l -110,-96 -51,-50 C 482,4496 353,4283 291,4040 l -13,-48 52.69674,-87.0374 L 129.8858,3795.4395 C 118.0132,3652.7211 97.2092,3478.246 77.613247,3336.4549 L 20,3237.8416 14,3020 l 265,-365 -81,-60 28,-83 c 72,-217 161,-401 306,-573 l -23,-18 1,-3 C 436,1853 366,1783 301,1708 l -49,-56 C 1158.3223,65.235922 3431.998,-44.579442 4564,1658 Z" id="path1" style="fill: rgb(255, 255, 255); stroke-width: 12.4987; stroke-dasharray: none;" /><path class="fil1" d="M 2340.806,568.75601 419.04928,1609.4298 l -0.46472,33.6851 C 1609.0573,3049.4658 3212.9272,3002.4628 4407.8252,1656.4104 l 0.1663,-33.3524 z M 3893.9856,2198.0035 v 36.4356 l 412.0162,499.9991 136.9875,-138.9855 v -36.4356 l -136.9875,138.9856 z M 897.00573,2214.968 516.739,2673.2643 345.74975,2545.2494 l 2.43388,-7.338 -7.19267,12.0967 v 36.4356 l 171.02558,127.9786 384.98919,-463.9632 v -0.036 z m 2795.98487,163.0337 v 36.4356 l 10.0261,203.0293 c 96,163 190.9801,325.973 286.9801,489.973 l 350.8422,-269.7975 -0.8355,-36.6536 -350.0067,270.0156 c -96,-164 -190.9801,-327.0094 -286.9801,-490.0094 z M 1108.8261,2596.2882 802.99252,3059.9971 463.01197,2798.9906 v 36.4719 l 339.98055,260.9702 306.01518,-463.9995 z m 314.1886,176.7289 -148.0308,405.9859 -375.98021,-193.0031 v 36.4355 l 375.98021,193.0032 148.0308,-405.986 z m 1947.977,13.9857 v 36.4356 l 164.0146,393.0173 361.9944,-189.0072 v -36.4356 l -361.9944,188.9709 z m -1573.9947,115.9908 -128.0149,524.011 c -135,-33 -266.9962,-74.9977 -395.9962,-126.9977 v 36.4356 c 129,52 260.9962,93.9977 395.9962,126.9977 l 128.0149,-523.9747 z m 1204.0084,9.9898 v 36.4719 l 142.0006,518.998 c 137,-34 268.9962,-81.0027 395.9962,-140.0027 v -36.4356 c -127,59 -258.9962,106.0027 -395.9962,140.0027 z m 1323.9952,20.016 v 36.4355 l 229.9836,281.0225 46.0258,-60.9923 v -36.4719 l -46.0258,60.9923 z m -3857.9927,37.0168 -220.79301,290.8306 -78.21114,-107.8536 v 36.4719 l 77.99318,108.0716 221.01097,-291.085 z m 1755.0101,8.9726 -35.0188,528.007 c -163,-12 -322.0024,-35.9822 -479.0024,-70.9822 v 36.4356 c 157,35 316.0024,59.0185 479.0024,71.0185 l 35.0188,-528.007 z m 351.9684,3.9959 v 36.4719 l 41.0127,526.009 c 169,-9 331.9922,-30.0225 488.9922,-67.0225 v -36.4356 c -157,37 -319.9922,57.9862 -488.9922,66.9862 z m -2399.98876,22.014 v 36.4355 l 44.35476,41.4123 15.65676,-21.8322 z m 4420.00136,0 -58.9944,56.0156 15.5478,21.6869 43.4466,-41.267 z m -604.0022,166.9933 v 36.4719 l 340.0168,566.9854 172.9873,-109.0161 47.9874,-356.0006 v -36.4356 l -47.9874,356.0006 -172.9873,109.0161 z M 802.0117,3207.9916 486.98752,3781.0072 304.0105,3696.003 249.01204,3326.0167 v 36.4356 l 54.99846,369.9863 182.97702,85.0042 315.02418,-572.9793 z m 1434.9729,145.0158 v 36.4355 l 140.0027,9.9899 1.0171,53.0005 189.0072,-8.9727 v -36.4719 l -189.0072,9.009 -1.0171,-53.0005 z m 1334.0213,36.9804 v 36.4719 l 253.9955,653.9876 c 160,-69 320.9812,-148.0098 481.9812,-240.0098 v -36.4355 c -161,92 -321.9812,171.0097 -481.9812,240.0097 z m -2340.0135,25.0291 -246.98449,654.9684 c -159,-64 -320.65628,-144.7294 -479.65628,-229.7294 l 2.65184,42.2115 c 12.02,6.43 24.05231,12.7978 36.07231,19.1078 146.98,77.17 293.95213,145.7219 440.93213,204.8819 l 246.98449,-655.0047 z m 1933.0104,298.9678 v 36.4719 l 130.9937,513.9849 c 164,-45 327.9881,-100.9913 492.9881,-168.9913 v -36.4356 c -165,68 -328.9881,123.9913 -492.9881,168.9913 z m -1518.0155,8.0282 -119.9867,523.9747 c -169,-42 -337.0122,-94.9995 -505.0122,-160.9995 v 36.4719 c 168,66 336.0122,118.9995 505.0122,160.9995 l 119.9867,-524.0111 z m 1013.0033,79.9911 v 36.4356 l 37.0168,534.0008 c 186,-17 372.9915,-49.9728 560.9915,-97.9728 v -36.4719 c -188,48 -374.9915,81.0092 -560.9915,98.0092 z m -513.4764,37.3437 -20.5245,502.651 c -187,-14 -373.9743,-42.985 -559.9743,-85.985 v 36.4356 c 186,43 372.9743,71.985 559.9743,85.985 l 22.0139,-538.9776 z m 2255.4816,137.6415 c -91,220 -211.9814,408.0046 -356.9814,566.0046 l -185.0113,-429.9979 v 36.4719 l 185.0113,429.9979 c 145,-158 265.9814,-346.0046 356.9814,-566.0046 z m -3992.98228,33.0209 v 36.4355 c 4.45,17.42 9.25798,34.6854 14.45798,51.7654 7.28,23.93 15.29188,47.5205 24.01188,70.8005 67.65,180.51 177.83867,341.2255 319.52867,480.4555 l 181.99621,-487.0306 v -36.4355 l -181.99621,486.9942 c -173,-170 -298.99853,-371.985 -357.99853,-602.985 z m 2247.99828,329.9907 c -164,13 -328.0265,15.0131 -491.0265,5.0131 v 36.4355 c 163,10 327.0265,7.987 491.0265,-5.013 z m 678.9803,39.9956 v 36.4355 l 140.0026,587.0014 c 198,-99 381.0139,-229.0002 539.0139,-392.0002 v -36.4356 c -158,163 -341.0139,293.0002 -539.0139,392.0002 z m -628.9949,7.9918 v 36.4719 l 56.9964,795.9882 c 234,-34 463.0035,-98.997 674.0035,-198.997 v -36.4356 c -211,100 -440.0035,164.997 -674.0035,198.997 z m -1217.0134,14.0221 -140.9835,596.9911 c -209,-92 -397.00167,-210.9834 -551.00167,-354.9834 v 36.4356 c 10.44,9.76 21.04576,19.3959 31.78576,28.9159 147.8,131.07 324.38591,240.2975 519.21591,326.0675 l 140.9835,-596.9912 z m 620.0949,22.5225 -54.9622,754.4669 c -235.19,-27.56 -459.8486,-78.8758 -668.1186,-164.5958 v 36.036 c 211,88 441.9783,148.0023 680.9783,176.0023 l 54.0176,-801.0013 z m 613.9193,764.4567 c -205,26 -412.9899,26.9939 -615.9899,5.9939 v 36.4719 c 203,21 410.9899,20.0061 615.9899,-5.9939 z" id="path2" /><path class="static" d="M 4407.8205,1623.2186 C 3407.483,325.281 1589.3507,32.974435 418.58826,1609.9433 1609.061,3016.2942 3212.9225,2969.271 4407.8205,1623.2186 Z" id="polygon2" style="fill: rgb(102, 102, 102); stroke: rgb(102, 102, 102);" /><g id="g2" transform="translate(-452.102,-1309.75)"><text class="fil3 fnt0" id="text2" style="font-style: normal; font-variant: normal; font-weight: normal; font-stretch: normal; font-size: 173.593px; font-family: arial; fill: rgb(0, 0, 0); stroke: none;" x="2506.8101" y="2963.9973">SCREEN</text></g></g><g id="sections"><g class="interactive-section" data-section-id="201" id="201-group" data-rows="22" data-seats-per-row="23" data-total-seats="506" data-price-min="25.00" data-price-max="500.00" data-current-price="306.50" data-available="true" onclick="showSectionInfo(evt)" style="cursor:pointer;"><title>Section 201 | 22 rows × 23 seats | $306.50</title><path class="section-path" d="M 897,2214 C 818,2139 741,2060 663,1973 491,2161 406,2355 341,2550 l 171,128 z" data-default-color="rgb(153, 153, 153)" data-id="771962" id="201-section" style="fill:#e74c3c; stroke: rgb(102, 102, 102); stroke-width: 3.93701; stroke-dasharray: none; transition-delay: 0s; transition-duration: 0s;" fill="#e74c3c" /><text class="section-label 201-label" font-size="151.382px" id="201" style="font-style: normal; font-variant: normal; font-weight: normal; font-stretch: normal; font-size: 123.995px; font-family: arial; fill: rgb(0, 0, 0); stroke: none;" x="487.74405" y="2384.5413">201</text><text class="section-label 201-label" fill="#000000" font-size="12px" id="201-label" text-anchor="middle" x="566.0" y="1947.5">201</text></g><g class="interactive-section" data-section-id="202" id="202-group" data-rows="23" data-seats-per-row="34" data-total-seats="782" data-price-min="25.00" data-price-max="500.00" data-current-price="41.96" data-available="true" onclick="showSectionInfo(evt)" style="cursor:pointer;"><title>Section 202 | 23 rows × 34 seats | $41.96</title><path class="section-path" d="m 1109,2596 -1,-200 c -63,-50 -123,-101 -181,-155 l -464,558 340,261 z" data-default-color="rgb(153, 153, 153)" data-id="771963" id="202-section" style="fill:#27ae60; stroke: rgb(102, 102, 102); stroke-width: 3.93701; stroke-dasharray: none; transition-delay: 0s; transition-duration: 0s;" fill="#27ae60" /><text class="section-label 202-label" font-size="151.382px" id="202" style="font-style: normal; font-variant: normal; font-weight: normal; font-stretch: normal; font-size: 123.995px; font-family: arial; fill: rgb(0, 0, 0); stroke: none;" x="717.04205" y="2730.541">202</text><text class="section-label 202-label" fill="#000000" font-size="12px" id="202-label" text-anchor="middle" x="88.14" y="415.57">202</text></g><g class="interactive-section" data-section-id="203" id="203-group" data-rows="7" data-seats-per-row="27" data-total-seats="189" data-price-min="25.00" data-price-max="500.00" data-current-price="27.79" data-available="true" onclick="showSectionInfo(evt)" style="cursor:pointer;"><title>Section 203 | 7 rows × 27 seats | $27.79</title><path class="section-path" d="m 1423,2773 c -98,-42 -195,-89 -290,-141 l -234,354 376,193 z" data-default-color="rgb(153, 153, 153)" data-id="771964" id="203-section" style="fill:#27ae60; stroke: rgb(102, 102, 102); stroke-width: 3.93701; stroke-dasharray: none; transition-delay: 0s; transition-duration: 0s;" fill="#27ae60" /><text class="section-label 203-label" font-size="151.382px" id="203" style="font-style: normal; font-variant: normal; font-weight: normal; font-stretch: normal; font-size: 123.995px; font-family: arial; fill: rgb(0, 0, 0); stroke: none;" x="1064.6874" y="2944.0283">203</text><text class="section-label 203-label" fill="#000000" font-size="12px" id="203-label" text-anchor="middle" x="163.67" y="508.0">203</text></g><g class="interactive-section" data-section-id="204" id="204-group" data-rows="16" data-seats-per-row="27" data-total-seats="432" data-price-min="25.00" data-price-max="500.00" data-current-price="183.66" data-available="true" onclick="showSectionInfo(evt)" style="cursor:pointer;"><title>Section 204 | 16 rows × 27 seats | $183.66</title><path class="section-path" d="m 1797,2903 c -113,-30 -226,-69 -337,-114 l -187,511 c 129,52 261,94 396,127 z" data-default-color="rgb(153, 153, 153)" data-id="771965" id="204-section" style="fill:#f39c12; stroke: rgb(102, 102, 102); stroke-width: 3.93701; stroke-dasharray: none; transition-delay: 0s; transition-duration: 0s;" fill="#f39c12" /><text class="section-label 204-label" font-size="151.382px" id="204" style="font-style: normal; font-variant: normal; font-weight: normal; font-stretch: normal; font-size: 123.995px; font-family: arial; fill: rgb(0, 0, 0); stroke: none;" x="1443.7688" y="3149.989">204</text><text class="section-label 204-label" fill="#000000" font-size="12px" id="204-label" text-anchor="middle" x="215.0" y="434.25">204</text></g><g class="interactive-section" data-section-id="205" id="205-group" data-rows="15" data-seats-per-row="28" data-total-seats="420" data-price-min="25.00" data-price-max="500.00" data-current-price="457.18" data-available="true" onclick="showSectionInfo(evt)" style="cursor:pointer;"><title>Section 205 | 15 rows × 28 seats | $457.18</title><path class="section-path" d="m 2222,2979 c -130,-12 -259,-34 -386,-66 l -128,523 c 157,35 316,59 479,71 z" data-default-color="rgb(153, 153, 153)" data-id="771966" id="205-section" style="fill:#e74c3c; stroke: rgb(102, 102, 102); stroke-width: 3.93701; stroke-dasharray: none; transition-delay: 0s; transition-duration: 0s;" fill="#e74c3c" /><text class="section-label 205-label" font-size="151.382px" id="205" style="font-style: normal; font-variant: normal; font-weight: normal; font-stretch: normal; font-size: 123.995px; font-family: arial; fill: rgb(0, 0, 0); stroke: none;" x="1874.6271" y="3256.7029">205</text><text class="section-label 205-label" fill="#000000" font-size="12px" id="205-label" text-anchor="middle" x="283.88" y="444.38">205</text></g><g class="interactive-section" data-section-id="206" id="206-group" data-rows="23" data-seats-per-row="39" data-total-seats="897" data-price-min="25.00" data-price-max="500.00" data-current-price="91.63" data-available="true" onclick="showSectionInfo(evt)" style="cursor:pointer;"><title>Section 206 | 23 rows × 39 seats | $91.63</title><path class="section-path" d="m 2534,2985 c -91,4 -182,3 -272,-3 l -25,371 140,10 1,53 189,-9 z" data-default-color="rgb(153, 153, 153)" data-id="771967" id="206-section" style="fill:#3498db; stroke: rgb(102, 102, 102); stroke-width: 3.93701; stroke-dasharray: none; transition-delay: 0s; transition-duration: 0s;" fill="#3498db" /><text class="section-label 206-label" font-size="151.382px" id="206" style="font-style: normal; font-variant: normal; font-weight: normal; font-stretch: normal; font-size: 123.995px; font-family: arial; fill: rgb(0, 0, 0); stroke: none;" x="2288.1418" y="3212.9119">206</text><text class="section-label 206-label" fill="#000000" font-size="12px" id="206-label" text-anchor="middle" x="286.75" y="426.75">206</text></g><g class="interactive-section" data-section-id="207" id="207-group" data-rows="10" data-seats-per-row="23" data-total-seats="230" data-price-min="25.00" data-price-max="500.00" data-current-price="278.91" data-available="true" onclick="showSectionInfo(evt)" style="cursor:pointer;"><title>Section 207 | 10 rows × 23 seats | $278.91</title><path class="section-path" d="m 2963,2923 c -131,31 -260,51 -389,60 l 41,526 c 169,-9 332,-30 489,-67 z" data-default-color="rgb(153, 153, 153)" data-id="771968" id="207-section" style="fill:#f39c12; stroke: rgb(102, 102, 102); stroke-width: 3.93701; stroke-dasharray: none; transition-delay: 0s; transition-duration: 0s;" fill="#f39c12" /><text class="section-label 207-label" font-size="151.382px" id="207" style="font-style: normal; font-variant: normal; font-weight: normal; font-stretch: normal; font-size: 123.995px; font-family: arial; fill: rgb(0, 0, 0); stroke: none;" x="2707.9688" y="3256.7029">207</text><text class="section-label 207-label" fill="#000000" font-size="12px" id="207-label" text-anchor="middle" x="401.75" y="435.62">207</text></g><g class="interactive-section" data-section-id="208" id="208-group" data-rows="16" data-seats-per-row="24" data-total-seats="384" data-price-min="25.00" data-price-max="500.00" data-current-price="457.61" data-available="true" onclick="showSectionInfo(evt)" style="cursor:pointer;"><title>Section 208 | 16 rows × 24 seats | $457.61</title><path class="section-path" d="m 3334,2802 c -112,46 -223,83 -333,111 l 142,519 c 137,-34 269,-81 396,-140 z" data-default-color="rgb(153, 153, 153)" data-id="771969" id="208-section" style="fill:#e74c3c; stroke: rgb(102, 102, 102); stroke-width: 3.93701; stroke-dasharray: none; transition-delay: 0s; transition-duration: 0s;" fill="#e74c3c" /><text class="section-label 208-label" font-size="151.382px" id="208" style="font-style: normal; font-variant: normal; font-weight: normal; font-stretch: normal; font-size: 123.995px; font-family: arial; fill: rgb(0, 0, 0); stroke: none;" x="3148.0386" y="3149.989">208</text><text class="section-label 208-label" fill="#000000" font-size="12px" id="208-label" text-anchor="middle" x="451.25" y="413.25">208</text></g><g class="interactive-section" data-section-id="209" id="209-group" data-rows="17" data-seats-per-row="21" data-total-seats="357" data-price-min="25.00" data-price-max="500.00" data-current-price="432.59" data-available="true" onclick="showSectionInfo(evt)" style="cursor:pointer;"><title>Section 209 | 17 rows × 21 seats | $432.59</title><path class="section-path" d="m 3685,2628 c -105,61 -210,114 -314,159 l 164,393 362,-189 z" data-default-color="rgb(153, 153, 153)" data-id="771970" id="209-section" style="fill:#e74c3c; stroke: rgb(102, 102, 102); stroke-width: 3.93701; stroke-dasharray: none; transition-delay: 0s; transition-duration: 0s;" fill="#e74c3c" /><text class="section-label 209-label" font-size="151.382px" id="209" style="font-style: normal; font-variant: normal; font-weight: normal; font-stretch: normal; font-size: 123.995px; font-family: arial; fill: rgb(0, 0, 0); stroke: none;" x="3513.5222" y="2944.0618">209</text><text class="section-label 209-label" fill="#000000" font-size="12px" id="209-label" text-anchor="middle" x="597.0" y="527.67">209</text></g><g class="interactive-section" data-section-id="210" id="210-group" data-rows="22" data-seats-per-row="38" data-total-seats="836" data-price-min="25.00" data-price-max="500.00" data-current-price="112.12" data-available="true" onclick="showSectionInfo(evt)" style="cursor:pointer;"><title>Section 210 | 22 rows × 38 seats | $112.12</title><path class="section-path" d="m 3864,2224 -171,154 10,203 c 96,163 191,326 287,490 l 350,-270 z" data-default-color="rgb(153, 153, 153)" data-id="771971" id="210-section" style="fill:#3498db; stroke: rgb(102, 102, 102); stroke-width: 3.93701; stroke-dasharray: none; transition-delay: 0s; transition-duration: 0s;" fill="#3498db" /><text class="section-label 210-label" font-size="151.382px" id="210" style="font-style: normal; font-variant: normal; font-weight: normal; font-stretch: normal; font-size: 123.995px; font-family: arial; fill: rgb(0, 0, 0); stroke: none;" x="3880.8552" y="2730.541">210</text><text class="section-label 210-label" fill="#000000" font-size="12px" id="210-label" text-anchor="middle" x="661.0" y="470.0">210</text></g><g class="interactive-section" data-section-id="211" id="211-group" data-rows="21" data-seats-per-row="40" data-total-seats="840" data-price-min="25.00" data-price-max="500.00" data-current-price="346.50" data-available="true" onclick="showSectionInfo(evt)" style="cursor:pointer;"><title>Section 211 | 21 rows × 40 seats | $346.50</title><path class="section-path" d="m 4151,1967 -257,231 412,500 137,-139 c -48,-226 -150,-420 -292,-592 z" data-default-color="rgb(153, 153, 153)" data-id="771972" id="211-section" style="fill:#e74c3c; stroke: rgb(102, 102, 102); stroke-width: 3.93701; stroke-dasharray: none; transition-delay: 0s; transition-duration: 0s;" fill="#e74c3c" /><text class="section-label 211-label" font-size="151.382px" id="211" style="font-style: normal; font-variant: normal; font-weight: normal; font-stretch: normal; font-size: 123.995px; font-family: arial; fill: rgb(0, 0, 0); stroke: none;" x="4099.6289" y="2385.3823">211</text><text class="section-label 211-label" fill="#000000" font-size="12px" id="211-label" text-anchor="middle" x="564.71" y="188.71">211</text></g><g class="interactive-section" data-section-id="311" id="301-group" data-rows="9" data-seats-per-row="40" data-total-seats="360" data-price-min="25.00" data-price-max="500.00" data-current-price="235.16" data-available="true" onclick="showSectionInfo(evt)" style="cursor:pointer;"><title>Section 311 | 9 rows × 40 seats | $235.16</title><path class="section-path" d="m 467,2970 c -55,-46 -109,-94 -162,-145 l -131,180 60,56 -66,92 69,97 3,19 z" data-default-color="rgb(153, 153, 153)" data-id="771973" id="301-section" style="fill:#f39c12; stroke: rgb(102, 102, 102); stroke-width: 3.93701; stroke-dasharray: none; transition-delay: 0s; transition-duration: 0s;" fill="#f39c12" /><text class="section-label 301-label" font-size="108.685px" id="301" style="font-style: normal; font-variant: normal; font-weight: normal; font-stretch: normal; font-size: 99.1958px; font-family: arial; fill: rgb(0, 0, 0); stroke: none;" x="239.52396" y="3027.1384">301</text><text class="section-label 311-label" fill="#000000" font-size="12px" id="311-label" text-anchor="middle" x="8.44" y="347.67">311</text></g><g class="interactive-section" data-section-id="302" id="302-group" data-rows="22" data-seats-per-row="25" data-total-seats="550" data-price-min="25.00" data-price-max="500.00" data-current-price="99.32" data-available="true" onclick="showSectionInfo(evt)" style="cursor:pointer;"><title>Section 302 | 22 rows × 25 seats | $99.32</title><path class="section-path" d="M 802,3208 C 697,3145 596,3074 499,2996 l -250,330 55,370 183,85 z" data-default-color="rgb(153, 153, 153)" data-id="771974" id="302-section" style="fill:#3498db; stroke: rgb(102, 102, 102); stroke-width: 3.93701; stroke-dasharray: none; transition-delay: 0s; transition-duration: 0s;" fill="#3498db" /><text class="section-label 302-label" font-size="151.382px" id="302" style="font-style: normal; font-variant: normal; font-weight: normal; font-stretch: normal; font-size: 123.995px; font-family: arial; fill: rgb(0, 0, 0); stroke: none;" x="390.01642" y="3389.5291">302</text><text class="section-label 302-label" fill="#000000" font-size="12px" id="302-label" text-anchor="middle" x="368.86" y="1886.86">302</text></g><g class="interactive-section" data-section-id="303" id="303-group" data-rows="10" data-seats-per-row="15" data-total-seats="150" data-price-min="25.00" data-price-max="500.00" data-current-price="215.30" data-available="true" onclick="showSectionInfo(evt)" style="cursor:pointer;"><title>Section 303 | 10 rows × 15 seats | $215.30</title><path class="section-path" d="M 1231,3415 C 1095,3364 963,3302 837,3229 L 505.61312,3839.5279 C 664.61312,3924.5279 825,4006 984,4070 Z" data-default-color="rgb(153, 153, 153)" data-id="771975" id="303-section" style="fill:#f39c12; stroke: rgb(102, 102, 102); stroke-width: 3.93701; stroke-dasharray: none; transition-delay: 0s; transition-duration: 0s;" fill="#f39c12" /><text class="section-label 303-label" font-size="151.382px" id="303" style="font-style: normal; font-variant: normal; font-weight: normal; font-stretch: normal; font-size: 123.995px; font-family: arial; fill: rgb(0, 0, 0); stroke: none;" x="765.04364" y="3676.7126">303</text><text class="section-label 303-label" fill="#000000" font-size="12px" id="303-label" text-anchor="middle" x="888.15" y="3643.76">303</text></g><g class="interactive-section" data-section-id="304" id="304-group" data-rows="11" data-seats-per-row="34" data-total-seats="374" data-price-min="25.00" data-price-max="500.00" data-current-price="174.75" data-available="true" onclick="showSectionInfo(evt)" style="cursor:pointer;"><title>Section 304 | 11 rows × 34 seats | $174.75</title><path class="section-path" d="m 1480,3678 -30,-193 c -61,-16 -122,-35 -181,-56 l -248,656 c 168,66 336,119 505,161 l 120,-524 c -55,-13 -111,-28 -166,-44 z" data-default-color="rgb(153, 153, 153)" data-id="771976" id="304-section" style="fill:#f39c12; stroke: rgb(102, 102, 102); stroke-width: 3.93701; stroke-dasharray: none; transition-delay: 0s; transition-duration: 0s;" fill="#f39c12" /><text class="section-label 304-label" font-size="151.382px" id="304" style="font-style: normal; font-variant: normal; font-weight: normal; font-stretch: normal; font-size: 123.995px; font-family: arial; fill: rgb(0, 0, 0); stroke: none;" x="1252.4446" y="3932.6458">304</text><text class="section-label 304-label" fill="#000000" font-size="12px" id="304-label" text-anchor="middle" x="125.77" y="290.08">304</text></g><g class="interactive-section" data-section-id="305" id="305-group" data-rows="9" data-seats-per-row="27" data-total-seats="243" data-price-min="25.00" data-price-max="500.00" data-current-price="421.77" data-available="true" onclick="showSectionInfo(evt)" style="cursor:pointer;"><title>Section 305 | 9 rows × 27 seats | $421.77</title><path class="section-path" d="m 1565,4256 c 186,43 373,72 560,86 l 22,-539 c -154,-12 -308,-36 -462,-71 z" data-default-color="rgb(153, 153, 153)" data-id="771977" id="305-section" style="fill:#e74c3c; stroke: rgb(102, 102, 102); stroke-width: 3.93701; stroke-dasharray: none; transition-delay: 0s; transition-duration: 0s;" fill="#e74c3c" /><text class="section-label 305-label" font-size="151.382px" id="305" style="font-style: normal; font-variant: normal; font-weight: normal; font-stretch: normal; font-size: 123.995px; font-family: arial; fill: rgb(0, 0, 0); stroke: none;" x="1778.4698" y="4095.1682">305</text><text class="section-label 305-label" fill="#000000" font-size="12px" id="305-label" text-anchor="middle" x="222.75" y="474.88">305</text></g><g class="interactive-section" data-section-id="306" id="306-group" data-rows="19" data-seats-per-row="12" data-total-seats="228" data-price-min="25.00" data-price-max="500.00" data-current-price="169.27" data-available="true" onclick="showSectionInfo(evt)" style="cursor:pointer;"><title>Section 306 | 19 rows × 12 seats | $169.27</title><path class="section-path" d="m 2165,4345 c 163,10 327,8 491,-5 l -37,-535 c -143,11 -288,11 -432,1 z" data-default-color="rgb(153, 153, 153)" data-id="771978" id="306-section" style="fill:#f39c12; stroke: rgb(102, 102, 102); stroke-width: 3.93701; stroke-dasharray: none; transition-delay: 0s; transition-duration: 0s;" fill="#f39c12" /><text class="section-label 306-label" font-size="151.382px" id="306" style="font-style: normal; font-variant: normal; font-weight: normal; font-stretch: normal; font-size: 123.995px; font-family: arial; fill: rgb(0, 0, 0); stroke: none;" x="2295.843" y="4126.7344">306</text><text class="section-label 306-label" fill="#000000" font-size="12px" id="306-label" text-anchor="middle" x="280.75" y="480.75">306</text></g><g class="interactive-section" data-section-id="307" id="307-group" data-rows="19" data-seats-per-row="26" data-total-seats="494" data-price-min="25.00" data-price-max="500.00" data-current-price="147.20" data-available="true" onclick="showSectionInfo(evt)" style="cursor:pointer;"><title>Section 307 | 19 rows × 26 seats | $147.20</title><path class="section-path" d="m 2696,4336 c 186,-17 373,-50 561,-98 l -132,-514 c -155,38 -310,64 -466,78 z" data-default-color="rgb(153, 153, 153)" data-id="771979" id="307-section" style="fill:#3498db; stroke: rgb(102, 102, 102); stroke-width: 3.93701; stroke-dasharray: none; transition-delay: 0s; transition-duration: 0s;" fill="#3498db" /><text class="section-label 307-label" font-size="151.382px" id="307" style="font-style: normal; font-variant: normal; font-weight: normal; font-stretch: normal; font-size: 123.995px; font-family: arial; fill: rgb(0, 0, 0); stroke: none;" x="2828.8025" y="4095.1682">307</text><text class="section-label 307-label" fill="#000000" font-size="12px" id="307-label" text-anchor="middle" x="344.12" y="479.62">307</text></g><g class="interactive-section" data-section-id="308" id="308-group" data-rows="11" data-seats-per-row="30" data-total-seats="330" data-price-min="25.00" data-price-max="500.00" data-current-price="73.07" data-available="true" onclick="showSectionInfo(evt)" style="cursor:pointer;"><title>Section 308 | 11 rows × 30 seats | $73.07</title><path class="section-path" d="m 3295,4228 c 164,-45 328,-101 493,-169 l -254,-654 c -71,29 -142,56 -215,80 l -30,193 c -42,13 -83,25 -125,36 z" data-default-color="rgb(153, 153, 153)" data-id="771980" id="308-section" style="fill:#27ae60; stroke: rgb(102, 102, 102); stroke-width: 3.93701; stroke-dasharray: none; transition-delay: 0s; transition-duration: 0s;" fill="#27ae60" /><text class="section-label 308-label" font-size="151.382px" id="308" style="font-style: normal; font-variant: normal; font-weight: normal; font-stretch: normal; font-size: 123.995px; font-family: arial; fill: rgb(0, 0, 0); stroke: none;" x="3328.0806" y="3932.6458">308</text><text class="section-label 308-label" fill="#000000" font-size="12px" id="308-label" text-anchor="middle" x="276.5" y="307.58">308</text></g><g class="interactive-section" data-section-id="309" id="309-group" data-rows="17" data-seats-per-row="30" data-total-seats="510" data-price-min="25.00" data-price-max="500.00" data-current-price="178.37" data-available="true" onclick="showSectionInfo(evt)" style="cursor:pointer;"><title>Section 309 | 17 rows × 30 seats | $178.37</title><path class="section-path" d="m 3825,4044 c 160,-69 321,-148 482,-240 l -352,-611 c -124,75 -252,140 -384,197 z" data-default-color="rgb(153, 153, 153)" data-id="771981" id="309-section" style="fill:#f39c12; stroke: rgb(102, 102, 102); stroke-width: 3.93701; stroke-dasharray: none; transition-delay: 0s; transition-duration: 0s;" fill="#f39c12" /><text class="section-label 309-label" font-size="151.382px" id="309" style="font-style: normal; font-variant: normal; font-weight: normal; font-stretch: normal; font-size: 123.995px; font-family: arial; fill: rgb(0, 0, 0); stroke: none;" x="3816.2632" y="3676.7126">309</text><text class="section-label 309-label" fill="#000000" font-size="12px" id="309-label" text-anchor="middle" x="459.5" y="423.5">309</text></g><g class="interactive-section" data-section-id="310" id="310-group" data-rows="13" data-seats-per-row="14" data-total-seats="182" data-price-min="25.00" data-price-max="500.00" data-current-price="278.36" data-available="true" onclick="showSectionInfo(evt)" style="cursor:pointer;"><title>Section 310 | 13 rows × 14 seats | $278.36</title><path class="section-path" d="m 4330,3739 173,-109 48,-356 -15,-19 -6,-7 -237,-289 c -98,78 -199,149 -303,213 z" data-default-color="rgb(153, 153, 153)" data-id="771982" id="310-section" style="fill:#f39c12; stroke: rgb(102, 102, 102); stroke-width: 3.93701; stroke-dasharray: none; transition-delay: 0s; transition-duration: 0s;" fill="#f39c12" /><text class="section-label 310-label" font-size="151.382px" id="310" style="font-style: normal; font-variant: normal; font-weight: normal; font-stretch: normal; font-size: 123.995px; font-family: arial; fill: rgb(0, 0, 0); stroke: none;" x="4197.3794" y="3389.5291">310</text><text class="section-label 310-label" fill="#000000" font-size="12px" id="310-label" text-anchor="middle" x="410.33" y="377.67">310</text></g><g class="interactive-section" data-section-id="311-1" id="311-1-group" data-rows="5" data-seats-per-row="37" data-total-seats="185" data-price-min="25.00" data-price-max="500.00" data-current-price="171.67" data-available="true" onclick="showSectionInfo(evt)" style="cursor:pointer;"><title>Section 311-1 | 5 rows × 37 seats | $171.67</title><path class="section-path" d="m 4555,3214 46,-61 -66,-92 59,-56 -138,-185 c -43,39 -87,77 -131,113 z" data-default-color="rgb(153, 153, 153)" data-id="771983" id="311-1-section" style="fill:#f39c12; stroke: rgb(102, 102, 102); stroke-width: 3.93701; stroke-dasharray: none; transition-delay: 0s; transition-duration: 0s;" fill="#f39c12" /><text class="section-label 311-label" font-size="108.685px" id="311" style="font-style: normal; font-variant: normal; font-weight: normal; font-stretch: normal; font-size: 99.1958px; font-family: arial; fill: rgb(0, 0, 0); stroke: none;" x="4386.6987" y="3003.9575">311</text><text class="section-label 311-1-label" fill="#000000" font-size="12px" id="311-1-label" text-anchor="middle" x="524.38" y="381.12">311-1</text></g><g class="interactive-section" data-section-id="403" id="403-group" data-rows="19" data-seats-per-row="21" data-total-seats="399" data-price-min="25.00" data-price-max="500.00" data-current-price="120.26" data-available="true" onclick="showSectionInfo(evt)" style="cursor:pointer;"><title>Section 403 | 19 rows × 21 seats | $120.26</title><path class="section-path" d="M 948,4126 C 786,4066 623,3996 461,3916 l -53,94 c 59,231 185,433 358,603 z" data-default-color="rgb(153, 153, 153)" data-id="771984" id="403-section" style="fill:#3498db; stroke: rgb(102, 102, 102); stroke-width: 3.93701; stroke-dasharray: none; transition-delay: 0s; transition-duration: 0s;" fill="#3498db" /><text class="section-label 403-label" font-size="151.382px" id="403" style="font-style: normal; font-variant: normal; font-weight: normal; font-stretch: normal; font-size: 123.995px; font-family: arial; fill: rgb(0, 0, 0); stroke: none;" x="580.04144" y="4233.2432">403</text><text class="section-label 403-label" fill="#000000" font-size="12px" id="403-label" text-anchor="middle" x="420.88" y="2183.12">403</text></g><g class="interactive-section" data-section-id="404" id="404-group" data-rows="19" data-seats-per-row="17" data-total-seats="323" data-price-min="25.00" data-price-max="500.00" data-current-price="49.83" data-available="true" onclick="showSectionInfo(evt)" style="cursor:pointer;"><title>Section 404 | 19 rows × 17 seats | $49.83</title><path class="section-path" d="m 949,4239 -152,405 c 154,144 342,263 551,355 l 141,-597 c -198,-44 -383,-96 -540,-163 z" data-default-color="rgb(153, 153, 153)" data-id="771985" id="404-section" style="fill:#27ae60; stroke: rgb(102, 102, 102); stroke-width: 3.93701; stroke-dasharray: none; transition-delay: 0s; transition-duration: 0s;" fill="#27ae60" /><text class="section-label 404-label" font-size="151.382px" id="404" style="font-style: normal; font-variant: normal; font-weight: normal; font-stretch: normal; font-size: 123.995px; font-family: arial; fill: rgb(0, 0, 0); stroke: none;" x="1043.1592" y="4613.1411">404</text><text class="section-label 404-label" fill="#000000" font-size="12px" id="404-label" text-anchor="middle" x="96.0" y="500.67">404</text></g><g class="interactive-section" data-section-id="405" id="405-group" data-rows="6" data-seats-per-row="29" data-total-seats="174" data-price-min="25.00" data-price-max="500.00" data-current-price="101.37" data-available="true" onclick="showSectionInfo(evt)" style="cursor:pointer;"><title>Section 405 | 6 rows × 29 seats | $101.37</title><path class="section-path" d="m 2121,4389 c -190,-14 -379,-42 -568,-83 l -167,708 c 211,88 442,148 681,176 z" data-default-color="rgb(153, 153, 153)" data-id="771986" id="405-section" style="fill:#3498db; stroke: rgb(102, 102, 102); stroke-width: 3.93701; stroke-dasharray: none; transition-delay: 0s; transition-duration: 0s;" fill="#3498db" /><text class="section-label 405-label" font-size="151.382px" id="405" style="font-style: normal; font-variant: normal; font-weight: normal; font-stretch: normal; font-size: 123.995px; font-family: arial; fill: rgb(0, 0, 0); stroke: none;" x="1656.5065" y="4786.5322">405</text><text class="section-label 405-label" fill="#000000" font-size="12px" id="405-label" text-anchor="middle" x="268.88" y="671.25">405</text></g><g class="interactive-section" data-section-id="406" id="406-group" data-rows="17" data-seats-per-row="29" data-total-seats="493" data-price-min="25.00" data-price-max="500.00" data-current-price="183.42" data-available="true" onclick="showSectionInfo(evt)" style="cursor:pointer;"><title>Section 406 | 17 rows × 29 seats | $183.42</title><path class="section-path" d="m 2154,4491 -47,704 c 203,21 411,20 616,-6 l -51,-711 c -172,19 -345,22 -518,13 z" data-default-color="rgb(153, 153, 153)" data-id="771987" id="406-section" style="fill:#f39c12; stroke: rgb(102, 102, 102); stroke-width: 3.93701; stroke-dasharray: none; transition-delay: 0s; transition-duration: 0s;" fill="#f39c12" /><text class="section-label 406-label" font-size="151.382px" id="406" style="font-style: normal; font-variant: normal; font-weight: normal; font-stretch: normal; font-size: 123.995px; font-family: arial; fill: rgb(0, 0, 0); stroke: none;" x="2302.3381" y="4901.6665">406</text><text class="section-label 406-label" fill="#000000" font-size="12px" id="406-label" text-anchor="middle" x="250.11" y="508.11">406</text></g><g class="interactive-section" data-section-id="407" id="407-group" data-rows="21" data-seats-per-row="26" data-total-seats="546" data-price-min="25.00" data-price-max="500.00" data-current-price="460.19" data-available="true" onclick="showSectionInfo(evt)" style="cursor:pointer;"><title>Section 407 | 21 rows × 26 seats | $460.19</title><path class="section-path" d="m 3274,4298 c -189,45 -379,74 -568,90 l 57,796 c 234,-34 463,-99 674,-199 z" data-default-color="rgb(153, 153, 153)" data-id="771988" id="407-section" style="fill:#e74c3c; stroke: rgb(102, 102, 102); stroke-width: 3.93701; stroke-dasharray: none; transition-delay: 0s; transition-duration: 0s;" fill="#e74c3c" /><text class="section-label 407-label" font-size="151.382px" id="407" style="font-style: normal; font-variant: normal; font-weight: normal; font-stretch: normal; font-size: 123.995px; font-family: arial; fill: rgb(0, 0, 0); stroke: none;" x="2942.209" y="4786.5322">407</text><text class="section-label 407-label" fill="#000000" font-size="12px" id="407-label" text-anchor="middle" x="445.75" y="621.38">407</text></g><g class="interactive-section" data-section-id="408" id="408-group" data-rows="17" data-seats-per-row="11" data-total-seats="187" data-price-min="25.00" data-price-max="500.00" data-current-price="123.51" data-available="true" onclick="showSectionInfo(evt)" style="cursor:pointer;"><title>Section 408 | 17 rows × 11 seats | $123.51</title><path class="section-path" d="m 3335,4380 140,587 c 198,-99 381,-229 539,-392 l -156,-363 c -173,73 -347,127 -523,168 z" data-default-color="rgb(153, 153, 153)" data-id="771989" id="408-section" style="fill:#3498db; stroke: rgb(102, 102, 102); stroke-width: 3.93701; stroke-dasharray: none; transition-delay: 0s; transition-duration: 0s;" fill="#3498db" /><text class="section-label 408-label" font-size="151.382px" id="408" style="font-style: normal; font-variant: normal; font-weight: normal; font-stretch: normal; font-size: 123.995px; font-family: arial; fill: rgb(0, 0, 0); stroke: none;" x="3554.7214" y="4613.1411">408</text><text class="section-label 408-label" fill="#000000" font-size="12px" id="408-label" text-anchor="middle" x="377.11" y="472.44">408</text></g><g class="interactive-section" data-section-id="409" id="409-group" data-rows="13" data-seats-per-row="19" data-total-seats="247" data-price-min="25.00" data-price-max="500.00" data-current-price="454.85" data-available="true" onclick="showSectionInfo(evt)" style="cursor:pointer;"><title>Section 409 | 13 rows × 19 seats | $454.85</title><path class="section-path" d="m 4346,3885 c -162,87 -325,163 -487,228 l 185,430 c 145,-158 266,-346 357,-566 z" data-default-color="rgb(153, 153, 153)" data-id="771990" id="409-section" style="fill:#e74c3c; stroke: rgb(102, 102, 102); stroke-width: 3.93701; stroke-dasharray: none; transition-delay: 0s; transition-duration: 0s;" fill="#e74c3c" /><text class="section-label 409-label" font-size="151.382px" id="409" style="font-style: normal; font-variant: normal; font-weight: normal; font-stretch: normal; font-size: 123.995px; font-family: arial; fill: rgb(0, 0, 0); stroke: none;" x="3990.9023" y="4232.2119">409</text><text class="section-label 409-label" fill="#000000" font-size="12px" id="409-label" text-anchor="middle" x="540.62" y="465.38">409</text></g></g><text class="fil1 fnt0" id="text4-0" style="font-style: normal; font-variant: normal; font-weight: normal; font-stretch: normal; font-size: 69.3732px; font-family: arial; clip-rule: evenodd; fill: rgb(0, 0, 0); fill-rule: evenodd; stroke: none; stroke-width: 0.193748; shape-rendering: geometricprecision; text-rendering: geometricprecision;" transform="matrix(1.7855246,0,0,1.7855246,-7.3859087,-12.912578)" x="2361.0271" y="1137.2576">1</text><text class="fil1 fnt0" id="text5" style="font-style: normal; font-variant: normal; font-weight: normal; font-stretch: normal; font-size: 69.3732px; font-family: arial; clip-rule: evenodd; fill: rgb(0, 0, 0); fill-rule: evenodd; stroke: none; stroke-width: 0.193748; shape-rendering: geometricprecision; text-rendering: geometricprecision;" transform="matrix(1.7855246,0,0,1.7855246,-7.3859087,-12.912578)" x="2443.1919" y="1560.2533">21</text><path d="m 2404.8751,1155.0077 c 48.7005,79.6913 76.041,133.4322 113.0383,240.9186 l 8.9663,57.0578 -26.0836,39.9404" id="path10" style="clip-rule: evenodd; fill: none; fill-rule: evenodd; stroke: rgb(0, 0, 0); stroke-width: 4; shape-rendering: geometricprecision; text-rendering: geometricprecision;" transform="matrix(1.7855246,0,0,1.7855246,-7.3859087,-12.912578)" /><text class="fil1 fnt0" id="text6" style="font-style: normal; font-variant: normal; font-weight: normal; font-stretch: normal; font-size: 69.3732px; font-family: arial; clip-rule: evenodd; fill: rgb(0, 0, 0); fill-rule: evenodd; stroke: none; stroke-width: 0.193748; shape-rendering: geometricprecision; text-rendering: geometricprecision;" transform="matrix(1.7855246,0,0,1.7855246,-7.3859087,-12.912578)" x="109.16237" y="1619.3491">1</text><text class="fil1 fnt0" id="text7" style="font-style: normal; font-variant: normal; font-weight: normal; font-stretch: normal; font-size: 69.3732px; font-family: arial; clip-rule: evenodd; fill: rgb(0, 0, 0); fill-rule: evenodd; stroke: none; stroke-width: 0.193748; shape-rendering: geometricprecision; text-rendering: geometricprecision;" transform="matrix(1.7855246,0,0,1.7855246,-7.3859087,-12.912578)" x="82.906265" y="2077.2354">20</text><path d="m 98.327558,1626.3501 -50.838797,64.4713 2.1623,103.175 44.684497,68.1725 16.894402,136.5673" id="path11" style="clip-rule: evenodd; fill: none; fill-rule: evenodd; stroke: rgb(0, 0, 0); stroke-width: 4; shape-rendering: geometricprecision; text-rendering: geometricprecision;" transform="matrix(1.7855246,0,0,1.7855246,-7.3859087,-12.912578)" /><text class="fil1 fnt0" id="text8" style="font-style: normal; font-variant: normal; font-weight: normal; font-stretch: normal; font-size: 69.3732px; font-family: arial; clip-rule: evenodd; fill: rgb(0, 0, 0); fill-rule: evenodd; stroke: none; stroke-width: 0.193748; shape-rendering: geometricprecision; text-rendering: geometricprecision;" transform="matrix(1.7855246,0,0,1.7855246,-7.3859087,-12.912578)" x="1131.2015" y="2528.5593">1</text><text class="fil1 fnt0" id="text9" style="font-style: normal; font-variant: normal; font-weight: normal; font-stretch: normal; font-size: 69.3732px; font-family: arial; clip-rule: evenodd; fill: rgb(0, 0, 0); fill-rule: evenodd; stroke: none; stroke-width: 0.193748; shape-rendering: geometricprecision; text-rendering: geometricprecision;" transform="matrix(1.7855246,0,0,1.7855246,-7.3859087,-12.912578)" x="1074.7635" y="2891.0918">25</text><path d="m 1141.5265,2550.2029 -23.9866,274.0858" id="path12" style="clip-rule: evenodd; fill: none; fill-rule: evenodd; stroke: rgb(0, 0, 0); stroke-width: 4; shape-rendering: geometricprecision; text-rendering: geometricprecision;" transform="matrix(1.7855246,0,0,1.7855246,-7.3859087,-12.912578)" /></g></g><g id="info-panel"><rect x="10" y="10" width="320" height="140" rx="8" fill="#1a1a2e" fill-opacity="0.95" stroke="#444" /><text x="25" y="40" fill="#FFD700" font-family="Arial" font-size="18" font-weight="bold">MSG Sphere</text><text id="section-info" x="25" y="70" fill="white" font-family="monospace" font-size="13">Click a section to see details</text></g><script type="text/javascript">&lt;![CDATA[
function showSectionInfo(evt) {
    var g = evt.currentTarget;
    var id = g.getAttribute('data-section-id');
    var rows = g.getAttribute('data-rows');
    var spr = g.getAttribute('data-seats-per-row');
    var total = g.getAttribute('data-total-seats');
    var price = g.getAttribute('data-current-price');
    var avail = g.getAttribute('data-available');
    
    var info = document.getElementById('section-info');
    if (info) {
        while (info.firstChild) info.removeChild(info.firstChild);
        
        var lines = [
            'Section ' + id,
            'Rows: ' + rows + ' | Seats/Row: ' + spr,
            'Total Seats: ' + total,
            'Price: $' + price,
            'Available: ' + (avail === 'true' ? 'Yes' : 'No')
        ];
        
        lines.forEach(function(line, i) {
            var tspan = document.createElementNS('http://www.w3.org/2000/svg', 'tspan');
            tspan.setAttribute('x', '25');
            tspan.setAttribute('dy', i === 0 ? '0' : '18');
            tspan.textContent = line;
            info.appendChild(tspan);
        });
    }
}
]]&gt;</script></svg>