<?xml version="1.0" encoding="UTF-8"?>
<svg xmlns="http://www.w3.org/2000/svg" class="m h-full w-full p-2 lg:p-4 zoom-transition" data-zoom-enabled="false" height="2.8926358in" id="svg5" style="transform-origin: 0px 0px 0px; transform: matrix(1, 0, 0, 1, 0, 0);" version="1.1" viewBox="0 0 70.149713 73.472949" width="2.7617998in"><defs id="defs2" /><g id="parent-group" transform="matrix(0.99742749,0,0,0.99742749,-2.8832117,-2.3625711)"><g id="static-elements" transform="matrix(1.0807454,0,0,1.0807454,-3.1845337,-6.0859795)"><path d="m 59.089697,22.329331 c 0.751106,1.073864 1.647342,2.122279 2.754904,2.839888 0.399742,0.259557 0.835127,0.53184 1.158485,0.885551 0.310626,0.340988 0.585607,0.804125 0.847858,1.188375 l 1.362175,1.969601 c 0.0026,0.0026 0.0051,0.0076 0.0076,0.01019 l 1.316344,1.984863 c 0.0051,0.01019 0.01019,0.01781 0.01781,0.02546 0.560148,0.923725 0.641626,1.572625 0.300445,2.575234 l -0.318265,0.94663 c -0.246973,0.72524 -0.37428,0.97971 -0.208783,1.712583 0.216422,0.938992 0.499042,1.860175 0.837675,2.766089 0.397195,1.063685 0.224057,2.457744 0.02546,3.478169 -0.07129,0.35626 -0.06365,0.712513 0.01019,1.068771 0.0026,0.0076 0.0026,0.01529 0.0051,0.02292 l 0.567784,3.170695 1.152218,1.657842 c 0.338635,-0.216296 0.781661,-0.137414 1.02354,0.183219 0.23679,0.312998 0.572878,0.628541 0.504134,1.053504 -0.0331,0.211214 -0.140037,0.381706 -0.315719,0.506399 l 0.114575,2.898412 c 0.623798,1.575169 0.417562,2.837338 -0.407379,4.264916 l -1.74664,3.476058 0.183321,6.012689 c 0.229148,-0.09415 0.417562,-0.117056 0.651805,-0.01273 0.504136,0.223932 1.112656,1.77111 0.229152,2.122279 -16.423158,9.13012 -45.019289,8.851571 -62.2167546,0.121775 -0.8835039,-0.35117 -0.2749809,-1.898347 0.2291506,-2.122279 0.1985976,-0.08652 0.402287,-0.08907 0.6008844,-0.0076 L 8.0110398,61.136467 6.4120765,57.660406 C 6.0785348,57.085306 5.808646,56.535648 5.704255,55.868941 L 6.1192727,50.497078 8.1392778,46.974342 C 8.2742221,46.213476 8.7376161,39.256704 8.7478006,39.233803 9.0838882,38.327889 9.3690538,37.406706 9.5854738,36.467713 9.7509719,35.73484 9.6236657,35.480371 9.3766922,34.75513 L 9.0558912,33.808494 C 8.355708,31.73711 10.853452,28.991378 12.060313,27.243168 c 0.756198,-1.091677 0.858043,-1.330879 2.008889,-2.073927 1.107562,-0.717608 2.003797,-1.766026 2.754902,-2.839889 l 0.04914,-14.4239072 h 42.216452 z" id="path157" style="fill: rgb(255, 255, 255); stroke: rgb(0, 0, 0); stroke-width: 0.16494; stroke-linecap: butt; stroke-linejoin: miter; stroke-miterlimit: 4; stroke-dasharray: none; stroke-opacity: 1;" /><path d="m 26.232019,17.966104 c -1.436272,1.330253 -2.401292,1.956546 -3.932819,2.740669 -0.787064,0.400829 -1.829793,1.513047 -1.930058,2.26711 l -2.195813,28.193462 c 3.56186,1.012095 7.23142,1.7361 10.988782,2.23714 0.46623,-11.19321 1.345978,-22.506642 1.401124,-33.582072 -1.516481,-0.556152 -2.952599,-1.182407 -4.331216,-1.856302 z m 23.391331,0 c -1.378623,0.673896 -2.814847,1.300151 -4.331334,1.856303 0.05515,11.07543 0.934902,22.388862 1.401125,33.58203 3.757376,-0.50104 7.427052,-1.225045 10.988899,-2.23714 l 0.03489,-0.839176 c 0,0 -0.04246,-0.02786 -0.105602,-0.06848 l -2.1251,-27.285744 C 55.385964,22.219882 54.343239,21.107663 53.556169,20.706834 52.024641,19.922711 51.059625,19.296417 49.62335,17.966165 Z m -17.132516,2.312302 v 30.74103 h 7.720467 v 2.665625 c 1.037721,0.147807 2.060336,0.157826 3.06297,0 l -0.04273,-33.406655 c -3.579403,0.633813 -7.161302,0.613769 -10.740707,0 z m -13.603362,3.404586 -0.462788,0.226654 c 0,0 0.0055,0.223731 0.0089,0.372992 L 17.739696,23.88588 c -0.854743,1.222528 -1.799698,2.269663 -2.920141,2.993662 -1.117935,0.726501 -0.985158,0.706393 -1.76721,1.838742 l -1.338491,1.939073 -1.295877,1.954058 c -0.4988505,0.819207 -0.4511792,1.247603 -0.228096,1.903962 l 0.313286,0.931897 c 0.355936,1.049674 0.401063,1.325267 0.225599,2.091853 -0.225589,0.992054 -0.516407,1.924004 -0.8522886,2.820862 -0.335884,0.901866 -0.1429468,1.27261 0.00995,2.056732 0.087729,0.450934 0.080214,0.901843 -0.012527,1.352773 L 9.3124204,46.891 c -0.1002647,0.556151 0.1253571,1.039558 0.7068836,1.375251 l 4.935429,1.883932 3.897696,-25.628004 z m 38.1502,0 -0.03489,0.839176 3.897697,25.628003 4.935542,-1.883931 c 0.581525,-0.335693 0.80715,-0.8191 0.706886,-1.375251 L 65.98143,43.769535 c -0.09274,-0.450929 -0.100376,-0.901838 -0.01264,-1.352773 0.152909,-0.784121 0.345962,-1.154865 0.01005,-2.056731 -0.335886,-0.896859 -0.62669,-1.828808 -0.852285,-2.820862 -0.17546,-0.766586 -0.130338,-1.042179 0.2256,-2.091853 l 0.313283,-0.931898 c 0.223078,-0.656359 0.270754,-1.084755 -0.228059,-1.90395 l -1.295872,-1.954059 -1.338491,-1.939073 c -0.782034,-1.13239 -0.649256,-1.112282 -1.767192,-1.838782 -1.12044,-0.724001 -2.065391,-1.771135 -2.920141,-2.993664 z m -47.4697617,27.00589 -0.034771,0.839176 c 0.6116037,0.428384 2.3712497,2.064323 1.9100387,2.863478 -0.453694,0.861775 -1.4512714,0.120216 -1.7545664,0.88179 -0.2431326,0.616275 -0.3709727,1.29019 -0.2506524,2.041745 0.090234,0.576192 0.3382805,1.044716 0.6039768,1.505671 0.396043,0.688925 1.158134,1.73603 1.436364,1.851267 l 7.193874,2.941097 0.335881,-7.693422 c -3.098651,-1.261019 -5.864956,-2.800276 -8.487291,-4.45789 l 0.03138,-0.354963 -0.339276,-0.385989 z m 57.2478947,0 -0.841515,0.133698 -0.380488,0.405305 0.04672,0.326983 c -2.221262,1.378817 -4.671441,2.674196 -7.317385,3.899687 l -0.215062,-0.215062 -0.767059,-0.158985 -0.03501,0.839176 0.335881,7.693422 7.193991,-2.941097 c 0.27823,-0.115237 1.040208,-1.162342 1.436245,-1.851267 0.268207,-0.460955 0.516435,-0.929479 0.606671,-1.505671 0.117815,-0.751555 -0.01005,-1.42547 -0.253227,-2.041745 -0.300791,-0.761574 -1.300874,-0.02 -1.754566,-0.88179 -0.458707,-0.799155 1.300823,-2.435094 1.909921,-2.863478 z m -34.324971,0.582904 v 2.411929 h 7.459162 v -2.411929 z m -11.490085,5.349396 -0.192936,7.633246 c 3.258555,1.017111 6.592125,1.658457 9.968495,2.066801 v -7.227474 c -3.504204,-0.576194 -6.76264,-1.400353 -9.775559,-2.472573 z m 34.312678,0 c -3.010413,1.07222 -6.268963,1.896379 -9.775676,2.472573 v 7.227474 c 3.376373,-0.408344 6.70994,-1.04969 9.968495,-2.066801 z m -22.2384,2.755654 v 7.189893 c 3.381376,0.285596 6.765181,0.280585 10.146562,0 l -0.01743,-7.189893 c -3.376365,0.3382 -6.752752,0.345717 -10.129118,0 z m -21.358602,3.269251 -0.19914,5.454999 -0.701967,-0.12035 -0.585597,0.136738 -0.03489,0.839175 c 2.890095,1.14487 5.732628,2.16203 8.575097,2.938639 3.812514,1.057188 7.853064,1.693433 11.971372,2.184459 0.488785,-1.74111 0.230516,-3.775309 0.230516,-6.147714 -3.61449,-0.425888 -7.100947,-1.06468 -10.38457,-2.031681 l -0.09611,5.08458 c -0.401083,-0.08612 -1.05459,-0.225948 -1.05459,-0.225948 l -0.686749,-0.107942 -0.08511,-5.259248 C 16.255853,64.557556 13.771818,63.59806 11.716425,62.646087 Z m 52.736038,0 c -2.055399,0.951973 -4.539548,1.911469 -6.948373,2.745707 l -0.08558,5.291676 -0.857205,0.247138 -0.880503,0.222789 -0.09917,-5.253045 c -3.283623,0.967001 -6.767806,1.605793 -10.384804,2.031681 0,2.372405 -0.258263,4.406604 0.230515,6.147714 4.118323,-0.491026 8.158974,-1.127271 11.971489,-2.184459 2.842468,-0.776609 5.68751,-1.793769 8.575096,-2.938639 l 0.03477,-0.839175 -0.559255,-0.224427 -0.796913,0.234377 z M 32.87694,68.127424 v 5.210786 c 0.280735,0.195408 0.45108,0.503547 0.45108,0.979546 h 9.492479 c -0.02005,-0.403345 0.107728,-0.726474 0.546377,-0.881795 v -5.308537 c -3.484151,0.3858 -6.983228,0.340704 -10.489936,0 z" id="path3517" style="fill: rgb(0, 0, 0); stroke: rgb(102, 102, 102); stroke-width: 0.0426118px; stroke-linecap: butt; stroke-linejoin: miter; stroke-miterlimit: 4; stroke-dasharray: none; stroke-opacity: 1;" /><g id="g1"><path d="m 26.818284,16.875643 c 6.716009,3.831882 13.990537,4.536059 22.200821,0 h 8.014244 V 10.798065 H 18.898714 v 6.077578 z" id="path3" style="fill: rgb(0, 0, 0); stroke: rgb(0, 0, 0); stroke-width: 0.0426118px; stroke-linecap: butt; stroke-linejoin: miter; stroke-miterlimit: 4; stroke-dasharray: none; stroke-opacity: 1;" /><path d="m 26.818284,15.962963 c 6.716009,3.831882 13.990537,4.536059 22.200821,0 h 8.014244 V 9.8853845 H 18.898714 v 6.0775785 z" id="path189" style="fill: rgb(102, 102, 102); stroke: rgb(102, 102, 102); stroke-width: 0.0426118px; stroke-linecap: butt; stroke-linejoin: miter; stroke-miterlimit: 4; stroke-dasharray: none; stroke-opacity: 1;" /><text id="text2561" style="font-size: 2.74924px; font-family: Arial; text-align: center; text-anchor: middle; fill: rgb(0, 0, 0); stroke: none; stroke-width: 0.103909;" x="37.930775" xml:space="preserve" y="14.525457"><tspan id="tspan2559" style="fill: rgb(0, 0, 0); stroke: none; stroke-width: 0.103909;" x="37.930775" y="14.525457">STAGE</tspan></text></g><g id="g34629" transform="matrix(0.22654923,0,0,0.22654923,7.3624301,0.26271165)"><path d="m 111.07232,221.45246 h 32.92516 v 10.64628 h -32.92516 z" id="rect5837" style="fill: rgb(102, 102, 102); stroke: rgb(102, 102, 102); stroke-width: 0.380719;" /><text id="text5787-3" style="font-size: 10.4124px; font-family: Arial; text-align: center; text-anchor: middle; fill: rgb(0, 0, 0); stroke: none; stroke-width: 0.39354;" x="127.18155" xml:space="preserve" y="230.5023"><tspan id="tspan2565-0" style="fill: rgb(0, 0, 0); stroke: none; stroke-width: 0.39354;" x="127.18155" y="230.5023">MIX</tspan></text></g></g><g id="sections" transform="matrix(0.24484203,0,0,0.24484203,4.7723786,-5.8020551)"><g class="interactive-section" data-section-id="orch-left" id="orch-left-group" data-rows="6" data-seats-per-row="31" data-total-seats="186" data-price-min="25.00" data-price-max="500.00" data-current-price="100.56" data-available="true" onclick="showSectionInfo(evt)" style="cursor:pointer;"><title>Section orch-left | 6 rows × 31 seats | $100.56</title><path class="section-path" d="m 11.881816,208.18638 21.785398,8.31564 17.204822,-113.12356 -4.912503,-2.80873 c -3.772891,5.39631 -7.944091,10.01856 -12.889784,13.21433 -4.934632,3.20682 -4.348229,3.11835 -7.800257,8.1166 l -5.908281,8.55891 -5.720188,8.62525 c -2.201775,3.61597 -1.991555,5.50689 -1.006842,8.4041 l 1.383024,4.11358 c 1.571116,4.63331 1.770271,5.84969 0.995778,9.23344 -0.995778,4.37898 -2.279224,8.49256 -3.761826,12.45134 -1.4826023,3.98088 -0.630659,5.61747 0.04426,9.07862 0.387247,1.99045 0.354054,3.9809 -0.05532,5.97133 l -2.4783823,13.7783 c -0.442567,2.45488 0.55321,4.58908 3.1201033,6.07085 z" data-default-color="rgb(153, 153, 153)" data-id="1231321" id="orch-left-section" style="fill:#3498db; stroke: rgb(102, 102, 102); stroke-width: 0.408427; stroke-linecap: butt; stroke-linejoin: miter; stroke-miterlimit: 4; stroke-dasharray: none; stroke-opacity: 1; transition-delay: 0s; transition-duration: 0s;" fill="#3498db" /><text class="section-label orch-left-label" id="text15644" style="font-style: normal; font-variant: normal; font-weight: normal; font-stretch: normal; font-size: 8.16853px; font-family: Arial; text-align: center; text-anchor: middle; fill: rgb(0, 0, 0); stroke: none; stroke-width: 0.2;" x="29.280569" xml:space="preserve" y="146.68581"><tspan id="tspan13386" style="font-style: normal; font-variant: normal; font-weight: normal; font-stretch: normal; font-size: 8.16853px; font-family: Arial; fill: rgb(0, 0, 0); stroke: none; stroke-width: 0.2;" x="29.280569" y="146.68581">LEFT</tspan></text><text class="section-label orch-left-label" fill="#000000" font-size="12px" id="orch-left-label" text-anchor="middle" x="-0.45" y="8.91">ORCH-LEFT</text></g><g class="interactive-section" data-section-id="orch-right" id="orch-right-group" data-rows="18" data-seats-per-row="38" data-total-seats="684" data-price-min="25.00" data-price-max="500.00" data-current-price="47.46" data-available="true" onclick="showSectionInfo(evt)" style="cursor:pointer;"><title>Section orch-right | 18 rows × 38 seats | $47.46</title><path class="section-path" d="m 258.2593,208.18638 -21.7854,8.31564 -17.20483,-113.12356 4.9125,-2.80873 c 3.77289,5.39631 7.9441,10.01856 12.88979,13.21433 4.93463,3.20682 4.34823,3.11835 7.80025,8.1166 l 5.90829,8.55891 5.72019,8.62525 c 2.20177,3.61597 1.99155,5.50689 1.00684,8.4041 l -1.38303,4.11358 c -1.57112,4.63331 -1.77027,5.84969 -0.99577,9.23344 0.99577,4.37898 2.27922,8.49256 3.76182,12.45134 1.4826,3.98088 0.63066,5.61747 -0.0443,9.07862 -0.38725,1.99045 -0.35405,3.9809 0.0553,5.97133 l 2.47838,13.7783 c 0.44257,2.45488 -0.55321,4.58908 -3.12009,6.07085 z" data-default-color="rgb(153, 153, 153)" data-id="1231322" id="orch-right-section" style="fill:#27ae60; stroke: rgb(102, 102, 102); stroke-width: 0.408427; stroke-linecap: butt; stroke-linejoin: miter; stroke-miterlimit: 4; stroke-dasharray: none; stroke-opacity: 1; transition-delay: 0s; transition-duration: 0s;" fill="#27ae60" /><text class="section-label orch-right-label" id="text15647" style="font-style: normal; font-variant: normal; font-weight: normal; font-stretch: normal; font-size: 8.16853px; font-family: Arial; text-align: center; text-anchor: middle; fill: rgb(0, 0, 0); stroke: none; stroke-width: 0.2;" x="240.86171" xml:space="preserve" y="146.68581"><tspan id="tspan13388" style="font-style: normal; font-variant: normal; font-weight: normal; font-stretch: normal; font-size: 8.16853px; font-family: Arial; fill: rgb(0, 0, 0); stroke: none; stroke-width: 0.2;" x="240.86171" y="146.68581">RIGHT</tspan></text><text class="section-label orch-right-label" fill="#000000" font-size="12px" id="orch-right-label" text-anchor="middle" x="8.9" y="8.91">ORCH-RIGHT</text></g><g class="interactive-section" data-section-id="orch-right-1" id="orch-right-1-group" data-rows="11" data-seats-per-row="13" data-total-seats="143" data-price-min="25.00" data-price-max="500.00" data-current-price="312.14" data-available="true" onclick="showSectionInfo(evt)" style="cursor:pointer;"><title>Section orch-right-1 | 11 rows × 13 seats | $312.14</title><path class="section-path" d="m 158.67048,232.10488 c -4.42568,0.69665 -8.93987,0.65243 -13.52044,0 V 220.33915 H 111.07232 V 84.646179 c 15.79967,2.709209 31.6104,2.797683 47.41007,0 z" data-default-color="rgb(153, 153, 153)" data-id="447312" id="orch-right-1-section" style="fill:#e74c3c; stroke: rgb(102, 102, 102); stroke-width: 0.408427; stroke-linecap: butt; stroke-linejoin: miter; stroke-miterlimit: 4; stroke-dasharray: none; stroke-opacity: 1; transition-delay: 0s; transition-duration: 0s;" fill="#e74c3c" /><text class="section-label orch-center-label" id="text15650" style="font-style: normal; font-variant: normal; font-weight: normal; font-stretch: normal; font-size: 8.16853px; font-family: Arial; text-align: center; text-anchor: middle; fill: rgb(0, 0, 0); stroke: none; stroke-width: 0.2;" x="135.50096" xml:space="preserve" y="161.7766"><tspan id="tspan13390" style="font-style: normal; font-variant: normal; font-weight: normal; font-stretch: normal; font-size: 8.16853px; font-family: Arial; fill: rgb(0, 0, 0); stroke: none; stroke-width: 0.2;" x="135.50096" y="161.7766">CENTER</tspan></text><text class="section-label orch-right-1-label" fill="#000000" font-size="12px" id="orch-right-1-label" text-anchor="middle" x="49.14" y="54.92">ORCH-RIGHT-1</text></g><g class="interactive-section" data-section-id="orch-left-center" id="orch-left-center-group" data-rows="25" data-seats-per-row="11" data-total-seats="275" data-price-min="25.00" data-price-max="500.00" data-current-price="181.02" data-available="true" onclick="showSectionInfo(evt)" style="cursor:pointer;"><title>Section orch-left-center | 25 rows × 11 seats | $181.02</title><path class="section-path" d="m 102.56395,82.633619 c -6.693839,-2.454883 -13.03362,-5.21938 -19.118926,-8.193988 -6.339785,5.871804 -10.5995,8.636312 -17.359722,12.09747 -3.474155,1.769285 -8.076862,6.679041 -8.519428,10.00751 L 47.873639,220.99157 c 15.722219,4.46744 31.9202,7.66321 48.505425,9.87481 2.057942,-49.40722 5.941476,-99.34525 6.184886,-148.232761 z" data-default-color="rgb(153, 153, 153)" data-id="730750" id="orch-left-center-section" style="fill:#f39c12; stroke: rgb(102, 102, 102); stroke-width: 0.408427; stroke-linecap: butt; stroke-linejoin: miter; stroke-miterlimit: 4; stroke-dasharray: none; stroke-opacity: 1; transition-delay: 0s; transition-duration: 0s;" fill="#f39c12" /><text class="section-label orch-left-center-label" id="text15653" style="font-style: normal; font-variant: normal; font-weight: normal; font-stretch: normal; font-size: 8.16853px; font-family: Arial; text-align: center; text-anchor: middle; fill: rgb(0, 0, 0); stroke: none; stroke-width: 0.334611;" x="76.606613" xml:space="preserve" y="156.20557"><tspan id="tspan13842" style="font-style: normal; font-variant: normal; font-weight: normal; font-stretch: normal; font-size: 8.16853px; font-family: Arial; fill: rgb(0, 0, 0); stroke: none; stroke-width: 0.334611;" x="76.606613" y="156.20557">LEFT</tspan><tspan id="tspan17864" style="font-style: normal; font-variant: normal; font-weight: normal; font-stretch: normal; font-size: 8.16853px; font-family: Arial; fill: rgb(0, 0, 0); stroke: none; stroke-width: 0.334611;" x="76.606613" y="166.41623">CENTER</tspan></text><text class="section-label orch-left-center-label" fill="#000000" font-size="12px" id="orch-left-center-label" text-anchor="middle" x="9.86" y="3.4">ORCH-LEFT-CENTER</text></g><g class="interactive-section" data-section-id="orch-right-center" id="orch-right-center-group" data-rows="10" data-seats-per-row="10" data-total-seats="100" data-price-min="25.00" data-price-max="500.00" data-current-price="178.30" data-available="true" onclick="showSectionInfo(evt)" style="cursor:pointer;"><title>Section orch-right-center | 10 rows × 10 seats | $178.30</title><path class="section-path" d="m 167.57716,82.633619 c 6.69384,-2.454883 13.03362,-5.21938 19.11892,-8.193988 6.33979,5.871804 10.5995,8.636312 17.35973,12.09747 3.47415,1.769285 8.07686,6.679041 8.51943,10.00751 l 9.69223,124.446959 c -15.72222,4.46744 -31.9202,7.66321 -48.50543,9.87481 -2.05794,-49.40722 -5.94147,-99.34525 -6.18488,-148.232761 z" data-default-color="rgb(153, 153, 153)" data-id="447313" id="orch-right-center-section" style="fill:#f39c12; stroke: rgb(102, 102, 102); stroke-width: 0.408427; stroke-linecap: butt; stroke-linejoin: miter; stroke-miterlimit: 4; stroke-dasharray: none; stroke-opacity: 1; transition-delay: 0s; transition-duration: 0s;" fill="#f39c12" /><text class="section-label orch-right-center-label" id="text15656" style="font-style: normal; font-variant: normal; font-weight: normal; font-stretch: normal; font-size: 8.16853px; font-family: Arial; text-align: center; text-anchor: middle; fill: rgb(0, 0, 0); stroke: none; stroke-width: 0.334611;" x="194.54195" xml:space="preserve" y="156.25542"><tspan id="tspan13844" style="font-style: normal; font-variant: normal; font-weight: normal; font-stretch: normal; font-size: 8.16853px; font-family: Arial; fill: rgb(0, 0, 0); stroke: none; stroke-width: 0.334611;" x="194.54195" y="156.25542">RIGHT</tspan><tspan id="tspan15978" style="font-style: normal; font-variant: normal; font-weight: normal; font-stretch: normal; font-size: 8.16853px; font-family: Arial; fill: rgb(0, 0, 0); stroke: none; stroke-width: 0.334611;" x="194.54195" y="166.46608">CENTER</tspan></text><text class="section-label orch-right-center-label" fill="#000000" font-size="12px" id="orch-right-center-label" text-anchor="middle" x="9.42" y="-2.28">ORCH-RIGHT-CENTER</text></g><g class="interactive-section" data-section-id="mezz-left" id="mezz-left-group" data-rows="22" data-seats-per-row="20" data-total-seats="440" data-price-min="25.00" data-price-max="500.00" data-current-price="189.31" data-available="true" onclick="showSectionInfo(evt)" style="cursor:pointer;"><title>Section mezz-left | 22 rows × 20 seats | $189.31</title><path class="section-path" d="m 50.04222,283.77901 c -10.63269,-3.68232 -21.597306,-7.91754 -30.669944,-12.1196 l -0.97365,26.67195 -4.624833,-1.9241 -1.117484,3.10731 c 12.757017,5.05351 25.303813,9.54307 37.850607,12.97106 z M 11.295414,220.51607 c 12.402961,7.99495 25.480838,15.43701 40.262602,21.45256 L 50.075413,275.92781 18.321177,262.9457 c -1.228125,-0.50867 -4.591641,-5.13093 -6.339783,-8.17188 -1.172805,-2.03468 -2.2681603,-4.10253 -2.6664713,-6.64587 -0.531081,-3.31741 0.0332,-6.29202 1.1064193,-9.01229 1.338768,-3.36163 5.742317,-0.0885 7.744937,-3.89242 2.035811,-3.52751 -5.731253,-10.7484 -8.4309173,-12.63932 z" data-default-color="rgb(153, 153, 153)" data-id="447310" id="mezz-left-section" style="fill:#f39c12; stroke: rgb(102, 102, 102); stroke-width: 0.408427; stroke-linecap: butt; stroke-linejoin: miter; stroke-miterlimit: 4; stroke-dasharray: none; stroke-opacity: 1; transition-delay: 0s; transition-duration: 0s;" fill="#f39c12" /><text class="section-label mezz-left-label" id="text15644-2" style="font-style: normal; font-variant: normal; font-weight: normal; font-stretch: normal; font-size: 8.16853px; font-family: Arial; text-align: center; text-anchor: middle; fill: rgb(0, 0, 0); stroke: none; stroke-width: 0.2;" x="33.147224" xml:space="preserve" y="254.13068"><tspan id="tspan13386-4" style="font-style: normal; font-variant: normal; font-weight: normal; font-stretch: normal; font-size: 8.16853px; font-family: Arial; fill: rgb(0, 0, 0); stroke: none; stroke-width: 0.2;" x="33.147224" y="254.13068">LEFT</tspan></text><text class="section-label mezz-left-label" id="text15644-2-9" style="font-style: normal; font-variant: normal; font-weight: normal; font-stretch: normal; font-size: 8.16853px; font-family: Arial; text-align: center; text-anchor: middle; fill: rgb(0, 0, 0); stroke: none; stroke-width: 0.220108;" x="34.674595" xml:space="preserve" y="295.55661"><tspan id="tspan13386-4-2" style="font-style: normal; font-variant: normal; font-weight: normal; font-stretch: normal; font-size: 8.16853px; font-family: Arial; fill: rgb(0, 0, 0); stroke: none; stroke-width: 0.220108;" x="34.674595" y="295.55661">LEFT</tspan></text><text class="section-label mezz-left-label" fill="#000000" font-size="12px" id="mezz-left-label" text-anchor="middle" x="6.43" y="33.56">MEZZ-LEFT</text></g><g class="interactive-section" data-section-id="mezz-right" id="mezz-right-group" data-rows="17" data-seats-per-row="23" data-total-seats="391" data-price-min="25.00" data-price-max="500.00" data-current-price="39.29" data-available="true" onclick="showSectionInfo(evt)" style="cursor:pointer;"><title>Section mezz-right | 17 rows × 23 seats | $39.29</title><path class="section-path" d="m 221.48191,283.77901 c 10.63269,-3.68232 21.59731,-7.91754 30.66995,-12.1196 l 0.97364,26.67195 4.6359,-1.9241 1.10643,3.10731 c -12.74596,5.05351 -25.30382,9.54307 -37.85062,12.97106 z m 39.38853,-63.26294 c -11.91613,7.69638 -25.43658,14.8067 -40.2626,21.45256 l 1.4826,33.95918 31.75424,-12.98211 c 1.22813,-0.50867 4.59164,-5.13093 6.33979,-8.17188 1.18386,-2.03468 2.27921,-4.10253 2.67752,-6.64587 0.52003,-3.31741 -0.0442,-6.29202 -1.11748,-9.01229 -1.3277,-3.36163 -5.74231,-0.0885 -7.74494,-3.89242 -2.02475,-3.52751 5.74233,-10.7484 8.43093,-12.63932 z" data-default-color="rgb(153, 153, 153)" data-id="1231320" id="mezz-right-section" style="fill:#27ae60; stroke: rgb(102, 102, 102); stroke-width: 0.408427; stroke-linecap: butt; stroke-linejoin: miter; stroke-miterlimit: 4; stroke-dasharray: none; stroke-opacity: 1; transition-delay: 0s; transition-duration: 0s;" fill="#27ae60" /><text class="section-label mezz-right-label" id="text15647-3" style="font-style: normal; font-variant: normal; font-weight: normal; font-stretch: normal; font-size: 8.16853px; font-family: Arial; text-align: center; text-anchor: middle; fill: rgb(0, 0, 0); stroke: none; stroke-width: 0.259203;" x="241.29456" xml:space="preserve" y="254.13068"><tspan id="tspan13388-4" style="font-style: normal; font-variant: normal; font-weight: normal; font-stretch: normal; font-size: 8.16853px; font-family: Arial; fill: rgb(0, 0, 0); stroke: none; stroke-width: 0.259203;" x="241.29456" y="254.13068">RIGHT</tspan></text><text class="section-label mezz-right-label" id="text15647-3-4" style="font-style: normal; font-variant: normal; font-weight: normal; font-stretch: normal; font-size: 8.16853px; font-family: Arial; text-align: center; text-anchor: middle; fill: rgb(0, 0, 0); stroke: none; stroke-width: 0.2;" x="237.09557" xml:space="preserve" y="295.55661"><tspan id="tspan13388-4-5" style="font-style: normal; font-variant: normal; font-weight: normal; font-stretch: normal; font-size: 8.16853px; font-family: Arial; fill: rgb(0, 0, 0); stroke: none; stroke-width: 0.2;" x="237.09557" y="295.55661">RIGHT</tspan></text><text class="section-label mezz-right-label" fill="#000000" font-size="12px" id="mezz-right-label" text-anchor="middle" x="7.26" y="7.67">MEZZ-RIGHT</text></g><g class="interactive-section" data-section-id="mezz-center" id="mezz-center-group" data-rows="19" data-seats-per-row="23" data-total-seats="437" data-price-min="25.00" data-price-max="500.00" data-current-price="27.13" data-available="true" onclick="showSectionInfo(evt)" style="cursor:pointer;"><title>Section mezz-center | 19 rows × 23 seats | $27.13</title><path class="section-path" d="m 156.66786,323.17875 h -41.9001 c 0,-2.10105 -0.75237,-3.46117 -1.99155,-4.32371 v -23.00068 c 15.4788,1.50389 30.92441,1.70294 46.30365,0 v 23.43196 c -1.93623,0.68557 -2.50051,2.11207 -2.412,3.89243 z m 1.77027,-34.21354 c -14.92559,1.2385 -29.86226,1.26063 -44.78785,0 V 257.2287 c 14.90346,1.52601 29.80694,1.49283 44.71041,0 z" data-default-color="rgb(153, 153, 153)" data-id="447309" id="mezz-center-section" style="fill:#27ae60; stroke: rgb(102, 102, 102); stroke-width: 0.408427; stroke-linecap: butt; stroke-linejoin: miter; stroke-miterlimit: 4; stroke-dasharray: none; stroke-opacity: 1; transition-delay: 0s; transition-duration: 0s;" fill="#27ae60" /><text class="section-label mezz-center-label" id="text15650-4" style="font-style: normal; font-variant: normal; font-weight: normal; font-stretch: normal; font-size: 8.16853px; font-family: Arial; text-align: center; text-anchor: middle; fill: rgb(0, 0, 0); stroke: none; stroke-width: 0.2;" x="135.77647" xml:space="preserve" y="276.58597"><tspan id="tspan13390-1" style="font-style: normal; font-variant: normal; font-weight: normal; font-stretch: normal; font-size: 8.16853px; font-family: Arial; fill: rgb(0, 0, 0); stroke: none; stroke-width: 0.2;" x="135.77647" y="276.58597">CENTER</tspan></text><text class="section-label mezz-center-label" id="text15650-4-1" style="font-style: normal; font-variant: normal; font-weight: normal; font-stretch: normal; font-size: 8.16853px; font-family: Arial; text-align: center; text-anchor: middle; fill: rgb(0, 0, 0); stroke: none; stroke-width: 0.2;" x="135.77647" xml:space="preserve" y="312.66763"><tspan id="tspan13390-1-2" style="font-style: normal; font-variant: normal; font-weight: normal; font-stretch: normal; font-size: 8.16853px; font-family: Arial; fill: rgb(0, 0, 0); stroke: none; stroke-width: 0.2;" x="135.77647" y="312.66763">CENTER</tspan></text><text class="section-label mezz-center-label" fill="#000000" font-size="12px" id="mezz-center-label" text-anchor="middle" x="15.02" y="24.54">MEZZ-CENTER</text></g><g class="interactive-section" data-section-id="mezz-left-center" id="mezz-left-center-group" data-rows="14" data-seats-per-row="11" data-total-seats="154" data-price-min="25.00" data-price-max="500.00" data-current-price="448.54" data-available="true" onclick="showSectionInfo(evt)" style="cursor:pointer;"><title>Section mezz-left-center | 14 rows × 11 seats | $448.54</title><path class="section-path" d="m 50.506916,312.48563 c 16.828639,4.66648 34.664119,7.47522 52.842594,9.6426 2.15752,-7.68532 1.01791,-16.66444 1.01791,-27.13639 -15.954576,-1.87987 -31.344868,-4.69967 -45.838961,-8.96806 l -0.475762,25.19017 -7.6011,-1.94621 z m 8.995191,-33.72697 c 14.383451,4.48956 29.098828,7.32041 44.002303,9.12287 V 255.97915 C 88.036663,253.4358 73.65321,249.79771 60.354049,245.06488 Z" data-default-color="rgb(153, 153, 153)" data-id="730749" id="mezz-left-center-section" style="fill:#e74c3c; stroke: rgb(102, 102, 102); stroke-width: 0.408427; stroke-linecap: butt; stroke-linejoin: miter; stroke-miterlimit: 4; stroke-dasharray: none; stroke-opacity: 1; transition-delay: 0s; transition-duration: 0s;" fill="#e74c3c" /><text class="section-label mezz-left-center-label" id="text15659" style="font-style: normal; font-variant: normal; font-weight: normal; font-stretch: normal; font-size: 8.16853px; font-family: Arial; text-align: center; text-anchor: middle; fill: rgb(0, 0, 0); stroke: none; stroke-width: 0.2;" x="82.015045" xml:space="preserve" y="265.42535"><tspan id="tspan14704" style="font-style: normal; font-variant: normal; font-weight: normal; font-stretch: normal; font-size: 8.16853px; font-family: Arial; fill: rgb(0, 0, 0); stroke: none; stroke-width: 0.2;" x="82.015045" y="265.42535">LEFT</tspan><tspan id="tspan19478" style="font-style: normal; font-variant: normal; font-weight: normal; font-stretch: normal; font-size: 8.16853px; font-family: Arial; fill: rgb(0, 0, 0); stroke: none; stroke-width: 0.2;" x="82.015045" y="275.63602">CENTER</tspan></text><text class="section-label mezz-left-center-label" id="text15659-0" style="font-style: normal; font-variant: normal; font-weight: normal; font-stretch: normal; font-size: 8.16853px; font-family: Arial; text-align: center; text-anchor: middle; fill: rgb(0, 0, 0); stroke: none; stroke-width: 0.2;" x="81.830376" xml:space="preserve" y="302.72177"><tspan id="tspan14704-7" style="font-style: normal; font-variant: normal; font-weight: normal; font-stretch: normal; font-size: 8.16853px; font-family: Arial; fill: rgb(0, 0, 0); stroke: none; stroke-width: 0.2;" x="81.830376" y="302.72177">LEFT</tspan><tspan id="tspan19478-3" style="font-style: normal; font-variant: normal; font-weight: normal; font-stretch: normal; font-size: 8.16853px; font-family: Arial; fill: rgb(0, 0, 0); stroke: none; stroke-width: 0.2;" x="81.830376" y="312.93243">CENTER</tspan></text><text class="section-label mezz-left-center-label" fill="#000000" font-size="12px" id="mezz-left-center-label" text-anchor="middle" x="57.93" y="26.3">MEZZ-LEFT-CENTER</text></g><g class="interactive-section" data-section-id="mezz-right-center" id="mezz-right-center-group" data-rows="21" data-seats-per-row="17" data-total-seats="357" data-price-min="25.00" data-price-max="500.00" data-current-price="80.11" data-available="true" onclick="showSectionInfo(evt)" style="cursor:pointer;"><title>Section mezz-right-center | 21 rows × 17 seats | $80.11</title><path class="section-path" d="m 221.01721,312.48563 c -16.82864,4.66648 -34.66412,7.47522 -52.84259,9.6426 -2.15751,-7.68532 -1.0179,-16.66444 -1.0179,-27.13639 15.96562,-1.87987 31.34486,-4.69967 45.83895,-8.96806 l 0.47576,25.19017 7.6011,-1.94621 z m -8.35347,-33.72697 c -14.38344,4.48956 -29.09882,7.32041 -44.00229,9.12287 v -31.90238 c 15.47881,-2.54335 29.86225,-6.18144 43.15036,-10.91427 z" data-default-color="rgb(153, 153, 153)" data-id="447311" id="mezz-right-center-section" style="fill:#3498db; stroke: rgb(102, 102, 102); stroke-width: 0.408427; stroke-linecap: butt; stroke-linejoin: miter; stroke-miterlimit: 4; stroke-dasharray: none; stroke-opacity: 1; transition-delay: 0s; transition-duration: 0s;" fill="#3498db" /><text class="section-label mezz-right-center-label" id="text15662" style="font-style: normal; font-variant: normal; font-weight: normal; font-stretch: normal; font-size: 8.16853px; font-family: Arial; text-align: center; text-anchor: middle; fill: rgb(0, 0, 0); stroke: none; stroke-width: 0.2;" x="190.53773" xml:space="preserve" y="265.47522"><tspan id="tspan18684" style="font-style: normal; font-variant: normal; font-weight: normal; font-stretch: normal; font-size: 8.16853px; font-family: Arial; fill: rgb(0, 0, 0); stroke: none; stroke-width: 0.2;" x="190.53773" y="265.47522">RIGHT</tspan><tspan id="tspan1" style="font-style: normal; font-variant: normal; font-weight: normal; font-stretch: normal; font-size: 8.16853px; font-family: Arial; fill: rgb(0, 0, 0); stroke: none; stroke-width: 0.2;" x="190.53773" y="275.68588">CENTER</tspan></text><text class="section-label mezz-right-center-label" id="text15662-8" style="font-style: normal; font-variant: normal; font-weight: normal; font-stretch: normal; font-size: 8.16853px; font-family: Arial; text-align: center; text-anchor: middle; fill: rgb(0, 0, 0); stroke: none; stroke-width: 0.2;" x="188.23587" xml:space="preserve" y="303.4118"><tspan id="tspan2" style="font-style: normal; font-variant: normal; font-weight: normal; font-stretch: normal; font-size: 8.16853px; font-family: Arial; fill: rgb(0, 0, 0); stroke: none; stroke-width: 0.2;" x="188.23587" y="303.4118">RIGHT</tspan><tspan id="tspan18684-7" style="font-style: normal; font-variant: normal; font-weight: normal; font-stretch: normal; font-size: 8.16853px; font-family: Arial; fill: rgb(0, 0, 0); stroke: none; stroke-width: 0.2;" x="188.23587" y="313.62247">CENTER</tspan></text><text class="section-label mezz-right-center-label" fill="#000000" font-size="12px" id="mezz-right-center-label" text-anchor="middle" x="3.32" y="19.27">MEZZ-RIGHT-CENTER</text></g></g><g id="seats" transform="matrix(0.24574484,0,0,0.24574484,4.6164105,-6.0531215)"><text id="text21041-6" style="font-style: normal; font-variant: normal; font-weight: normal; font-stretch: normal; font-size: 6.05781px; font-family: Arial; text-align: center; text-anchor: middle; fill: rgb(0, 0, 0); stroke: none; stroke-width: 0.2;" x="162.60384" xml:space="preserve" y="88.532837"><tspan id="tspan21043-1" style="font-size: 6.05781px; fill: rgb(0, 0, 0); stroke-width: 0.2;" x="162.60384" y="88.532837">A</tspan></text><text id="text22263-4" style="font-style: normal; font-variant: normal; font-weight: normal; font-stretch: normal; font-size: 6.05781px; font-family: Arial; text-align: center; text-anchor: middle; fill: rgb(0, 0, 0); stroke: none; stroke-width: 0.2;" x="164.65698" xml:space="preserve" y="168.86978"><tspan id="tspan21641-4" style="font-size: 6.05781px; fill: rgb(0, 0, 0); stroke-width: 0.2;" x="164.65698" y="168.86978">Z</tspan></text><text id="text22266-8" style="font-style: normal; font-variant: normal; font-weight: normal; font-stretch: normal; font-size: 6.05781px; font-family: Arial; text-align: center; text-anchor: middle; fill: rgb(0, 0, 0); stroke: none; stroke-width: 0.156107;" x="165.01129" xml:space="preserve" y="174.93665"><tspan id="tspan21643-5" style="font-size: 6.05781px; fill: rgb(0, 0, 0); stroke-width: 0.156107;" x="165.01129" y="174.93665">NN</tspan></text><text id="text22269-7" style="font-style: normal; font-variant: normal; font-weight: normal; font-stretch: normal; font-size: 6.05781px; font-family: Arial; text-align: center; text-anchor: middle; fill: rgb(0, 0, 0); stroke: none; stroke-width: 0.2;" x="165.79784" xml:space="preserve" y="230.40579"><tspan id="tspan21645-3" style="font-size: 6.05781px; fill: rgb(0, 0, 0); stroke-width: 0.2;" x="165.79784" y="230.40579">ZZ</tspan></text><path d="m 163.08631,90.428139 1.2341,72.488821" id="path29804" style="fill: rgb(255, 255, 255); stroke: rgb(0, 0, 0); stroke-width: 0.441405; stroke-dasharray: none;" /><path d="m 164.99355,176.99422 0.56095,47.75431" id="path29919" style="fill: rgb(255, 255, 255); stroke: rgb(0, 0, 0); stroke-width: 0.441405; stroke-dasharray: none;" /><text id="text1" style="font-style: normal; font-variant: normal; font-weight: normal; font-stretch: normal; font-size: 6.05781px; font-family: Arial; text-align: center; text-anchor: middle; fill: rgb(0, 0, 0); stroke: none; stroke-width: 0.2;" x="106.78427" xml:space="preserve" y="88.532837"><tspan id="tspan1-0" style="font-size: 6.05781px; fill: rgb(0, 0, 0); stroke-width: 0.2;" x="106.78427" y="88.532837">A</tspan></text><text id="text2" style="font-style: normal; font-variant: normal; font-weight: normal; font-stretch: normal; font-size: 6.05781px; font-family: Arial; text-align: center; text-anchor: middle; fill: rgb(0, 0, 0); stroke: none; stroke-width: 0.2;" x="105.24732" xml:space="preserve" y="168.86978"><tspan id="tspan2-8" style="font-size: 6.05781px; fill: rgb(0, 0, 0); stroke-width: 0.2;" x="105.24732" y="168.86978">Z</tspan></text><text id="text3" style="font-style: normal; font-variant: normal; font-weight: normal; font-stretch: normal; font-size: 6.05781px; font-family: Arial; text-align: center; text-anchor: middle; fill: rgb(0, 0, 0); stroke: none; stroke-width: 0.156107;" x="105.37726" xml:space="preserve" y="174.93665"><tspan id="tspan3" style="font-size: 6.05781px; fill: rgb(0, 0, 0); stroke-width: 0.156107;" x="105.37726" y="174.93665">NN</tspan></text><text id="text4" style="font-style: normal; font-variant: normal; font-weight: normal; font-stretch: normal; font-size: 6.05781px; font-family: Arial; text-align: center; text-anchor: middle; fill: rgb(0, 0, 0); stroke: none; stroke-width: 0.2;" x="103.91999" xml:space="preserve" y="230.40579"><tspan id="tspan4" style="font-size: 6.05781px; fill: rgb(0, 0, 0); stroke-width: 0.2;" x="103.91999" y="230.40579">ZZ</tspan></text><path d="m 106.81799,90.428139 -1.68285,72.488821" id="path4" style="fill: rgb(255, 255, 255); stroke: rgb(0, 0, 0); stroke-width: 0.441405; stroke-dasharray: none;" /><path d="m 105.13514,176.99422 -0.78534,47.75431" id="path5" style="fill: rgb(255, 255, 255); stroke: rgb(0, 0, 0); stroke-width: 0.441405; stroke-dasharray: none;" /><text id="text21041" style="font-style: normal; font-variant: normal; font-weight: normal; font-stretch: normal; font-size: 6.05781px; font-family: Arial; text-align: center; text-anchor: middle; fill: rgb(0, 0, 0); stroke: none; stroke-width: 0.2;" x="216.00952" xml:space="preserve" y="108.61909"><tspan id="tspan21043" style="font-size: 6.05781px; fill: rgb(0, 0, 0); stroke-width: 0.2;" x="216.00952" y="108.61909">L</tspan></text><text id="text22263" style="font-style: normal; font-variant: normal; font-weight: normal; font-stretch: normal; font-size: 6.05781px; font-family: Arial; text-align: center; text-anchor: middle; fill: rgb(0, 0, 0); stroke: none; stroke-width: 0.2;" x="222.23366" xml:space="preserve" y="164.60402"><tspan id="tspan21641" style="font-size: 6.05781px; fill: rgb(0, 0, 0); stroke-width: 0.2;" x="222.23366" y="164.60402">Z</tspan></text><text id="text22266" style="font-style: normal; font-variant: normal; font-weight: normal; font-stretch: normal; font-size: 6.05781px; font-family: Arial; text-align: center; text-anchor: middle; fill: rgb(0, 0, 0); stroke: none; stroke-width: 0.156107;" x="223.51891" xml:space="preserve" y="170.8597"><tspan id="tspan21643" style="fill: rgb(0, 0, 0); stroke-width: 0.156107;" x="223.51891" y="170.8597">NN</tspan></text><text id="text22269" style="font-style: normal; font-variant: normal; font-weight: normal; font-stretch: normal; font-size: 6.05781px; font-family: Arial; text-align: center; text-anchor: middle; fill: rgb(0, 0, 0); stroke: none; stroke-width: 0.2;" x="228.44444" xml:space="preserve" y="218.95732"><tspan id="tspan21645" style="font-size: 6.05781px; fill: rgb(0, 0, 0); stroke-width: 0.2;" x="228.44444" y="218.95732">ZZ</tspan></text><path d="m 217.04769,112.32616 4.91893,45.72464" id="path28981" style="fill: none; stroke: rgb(0, 0, 0); stroke-width: 0.441405; stroke-dasharray: none;" /><path d="m 223.59277,172.03937 4.3813,39.43178" id="path29598" style="fill: rgb(0, 0, 0); stroke: rgb(0, 0, 0); stroke-width: 0.441405; stroke-dasharray: none;" /><text id="text11" style="font-style: normal; font-variant: normal; font-weight: normal; font-stretch: normal; font-size: 6.05781px; font-family: Arial; text-align: center; text-anchor: middle; fill: rgb(0, 0, 0); stroke: none; stroke-width: 0.2;" x="53.416363" xml:space="preserve" y="108.61909"><tspan id="tspan11" style="font-size: 6.05781px; fill: rgb(0, 0, 0); stroke-width: 0.2;" x="53.416363" y="108.61909">L</tspan></text><text id="text12" style="font-style: normal; font-variant: normal; font-weight: normal; font-stretch: normal; font-size: 6.05781px; font-family: Arial; text-align: center; text-anchor: middle; fill: rgb(0, 0, 0); stroke: none; stroke-width: 0.2;" x="47.07518" xml:space="preserve" y="164.60402"><tspan id="tspan12" style="font-size: 6.05781px; fill: rgb(0, 0, 0); stroke-width: 0.2;" x="47.07518" y="164.60402">Z</tspan></text><text id="text13" style="font-style: normal; font-variant: normal; font-weight: normal; font-stretch: normal; font-size: 6.05781px; font-family: Arial; text-align: center; text-anchor: middle; fill: rgb(0, 0, 0); stroke: none; stroke-width: 0.156107;" x="47.014141" xml:space="preserve" y="170.8597"><tspan id="tspan13" style="fill: rgb(0, 0, 0); stroke-width: 0.156107;" x="47.014141" y="170.8597">NN</tspan></text><text id="text14" style="font-style: normal; font-variant: normal; font-weight: normal; font-stretch: normal; font-size: 6.05781px; font-family: Arial; text-align: center; text-anchor: middle; fill: rgb(0, 0, 0); stroke: none; stroke-width: 0.2;" x="40.720646" xml:space="preserve" y="218.95732"><tspan id="tspan14" style="font-size: 6.05781px; fill: rgb(0, 0, 0); stroke-width: 0.2;" x="40.720646" y="218.95732">ZZ</tspan></text><path d="M 52.883866,112.32616 47.930044,158.0508" id="path14" style="fill: none; stroke: rgb(0, 0, 0); stroke-width: 0.441405; stroke-dasharray: none;" /><path d="m 46.639245,173.04908 -4.593928,39.43178" id="path15" style="fill: rgb(0, 0, 0); stroke: rgb(0, 0, 0); stroke-width: 0.441405; stroke-dasharray: none;" /><text id="text5787" style="font-style: normal; font-variant: normal; font-weight: normal; font-stretch: normal; font-size: 8.81944px; font-family: Arial; text-align: center; text-anchor: middle; fill: rgb(0, 0, 0); stroke: none; stroke-width: 0.514709;" x="134.75925" xml:space="preserve" y="251.21619"><tspan id="tspan2565" style="font-style: normal; font-variant: normal; font-weight: normal; font-stretch: normal; font-size: 8.81944px; font-family: Arial; fill: rgb(0, 0, 0); stroke: none; stroke-width: 0.514709;" x="134.75925" y="251.21619">MEZZANINE</tspan></text><text id="text22263-0-1" style="font-style: normal; font-variant: normal; font-weight: normal; font-stretch: normal; font-size: 6.05781px; font-family: Arial; text-align: center; text-anchor: middle; fill: rgb(0, 0, 0); stroke: none; stroke-width: 0.2;" x="108.66833" xml:space="preserve" y="261.73477"><tspan id="tspan21641-2-8" style="font-size: 6.05781px; fill: rgb(0, 0, 0); stroke-width: 0.2;" x="108.66833" y="261.73477">A</tspan></text><text id="text22263-0-2-0" style="font-style: normal; font-variant: normal; font-weight: normal; font-stretch: normal; font-size: 6.05781px; font-family: Arial; text-align: center; text-anchor: middle; fill: rgb(0, 0, 0); stroke: none; stroke-width: 0.2;" x="108.3791" xml:space="preserve" y="323.79318"><tspan id="tspan21641-2-4-0" style="font-size: 6.05781px; fill: rgb(0, 0, 0); stroke-width: 0.2;" x="108.3791" y="323.79318">Q</tspan></text><path d="m 108.78459,264.50381 -0.008,17.43054" id="path34346" style="fill: none; stroke: rgb(0, 0, 0); stroke-width: 0.257912; stroke-dasharray: none;" /><text id="text22263-0" style="font-style: normal; font-variant: normal; font-weight: normal; font-stretch: normal; font-size: 6.05781px; font-family: Arial; text-align: center; text-anchor: middle; fill: rgb(0, 0, 0); stroke: none; stroke-width: 0.2;" x="163.00284" xml:space="preserve" y="261.83932"><tspan id="tspan21641-2" style="font-size: 6.05781px; fill: rgb(0, 0, 0); stroke-width: 0.2;" x="163.00284" y="261.83932">A</tspan></text><text id="text22263-0-2" style="font-style: normal; font-variant: normal; font-weight: normal; font-stretch: normal; font-size: 6.05781px; font-family: Arial; text-align: center; text-anchor: middle; fill: rgb(0, 0, 0); stroke: none; stroke-width: 0.2;" x="163.01639" xml:space="preserve" y="323.79318"><tspan id="tspan21641-2-4" style="font-size: 6.05781px; fill: rgb(0, 0, 0); stroke-width: 0.2;" x="163.01639" y="323.79318">Q</tspan></text><path d="m 163.27897,264.29792 -0.31065,17.76086" id="path34348" style="fill: none; stroke: rgb(0, 0, 0); stroke-width: 0.257912; stroke-dasharray: none;" /><text id="text5" style="font-style: normal; font-variant: normal; font-weight: normal; font-stretch: normal; font-size: 6.05781px; font-family: Arial; text-align: center; text-anchor: middle; fill: rgb(0, 0, 0); stroke: none; stroke-width: 0.2;" x="108.66833" xml:space="preserve" y="288.03418"><tspan id="tspan5" style="font-size: 6.05781px; fill: rgb(0, 0, 0); stroke-width: 0.2;" x="108.66833" y="288.03418">H</tspan></text><text id="text6" style="font-style: normal; font-variant: normal; font-weight: normal; font-stretch: normal; font-size: 6.05781px; font-family: Arial; text-align: center; text-anchor: middle; fill: rgb(0, 0, 0); stroke: none; stroke-width: 0.2;" x="163.00284" xml:space="preserve" y="288.13873"><tspan id="tspan6" style="font-size: 6.05781px; fill: rgb(0, 0, 0); stroke-width: 0.2;" x="163.00284" y="288.13873">H</tspan></text><text id="text8" style="font-style: normal; font-variant: normal; font-weight: normal; font-stretch: normal; font-size: 6.05781px; font-family: Arial; text-align: center; text-anchor: middle; fill: rgb(0, 0, 0); stroke: none; stroke-width: 0.2;" x="108.66833" xml:space="preserve" y="298.19531"><tspan id="tspan8" style="font-size: 6.05781px; fill: rgb(0, 0, 0); stroke-width: 0.2;" x="108.66833" y="298.19531">J</tspan></text><path d="m 108.78459,300.96435 -0.008,17.43054" id="path8" style="fill: none; stroke: rgb(0, 0, 0); stroke-width: 0.257912; stroke-dasharray: none;" /><text id="text9" style="font-style: normal; font-variant: normal; font-weight: normal; font-stretch: normal; font-size: 6.05781px; font-family: Arial; text-align: center; text-anchor: middle; fill: rgb(0, 0, 0); stroke: none; stroke-width: 0.2;" x="163.00284" xml:space="preserve" y="298.29987"><tspan id="tspan9" style="font-size: 6.05781px; fill: rgb(0, 0, 0); stroke-width: 0.2;" x="163.00284" y="298.29987">J</tspan></text><path d="m 163.27897,300.75846 -0.31065,17.76086" id="path9" style="fill: none; stroke: rgb(0, 0, 0); stroke-width: 0.257912; stroke-dasharray: none;" /></g></g><g id="info-panel"><rect x="10" y="10" width="320" height="140" rx="8" fill="#1a1a2e" fill-opacity="0.95" stroke="#444" /><text x="25" y="40" fill="#FFD700" font-family="Arial" font-size="18" font-weight="bold">Pantages Theatre</text><text id="section-info" x="25" y="70" fill="white" font-family="monospace" font-size="13">Click a section to see details</text></g><script type="text/javascript">&lt;![CDATA[
function showSectionInfo(evt) {
    var g = evt.currentTarget;
    var id = g.getAttribute('data-section-id');
    var rows = g.getAttribute('data-rows');
    var spr = g.getAttribute('data-seats-per-row');
    var total = g.getAttribute('data-total-seats');
    var price = g.getAttribute('data-current-price');
    var avail = g.getAttribute('data-available');
    
    var info = document.getElementById('section-info');
    if (info) {
        while (info.firstChild) info.removeChild(info.firstChild);
        
        var lines = [
            'Section ' + id,
            'Rows: ' + rows + ' | Seats/Row: ' + spr,
            'Total Seats: ' + total,
            'Price: $' + price,
            'Available: ' + (avail === 'true' ? 'Yes' : 'No')
        ];
        
        lines.forEach(function(line, i) {
            var tspan = document.createElementNS('http://www.w3.org/2000/svg', 'tspan');
            tspan.setAttribute('x', '25');
            tspan.setAttribute('dy', i === 0 ? '0' : '18');
            tspan.textContent = line;
            info.appendChild(tspan);
        });
    }
}
]]&gt;</script></svg>